<?xml version="1.0" encoding="UTF-8"?>
<svg version="1.0" xmlns="http://www.w3.org/2000/svg" width="512" height="512">
<path d="M0 0 C5.18297554 4.72565417 8.52537144 9.97620454 9.3515625 16.98046875 C9.69890403 24.77737194 8.57731809 30.6094448 4 37 C2.09090097 39.05288055 0.09353178 40.967187 -1.9453125 42.890625 C-10.68438625 51.86229767 -15.03572115 63.5443345 -15.5625 75.9375 C-15.38491694 82.32338674 -13.73634723 87.58536628 -11.2890625 93.453125 C-2.76285196 116.9131225 -7.91613053 144.98332068 -18.10058594 167.11376953 C-25.57614823 182.7913467 -34.63925975 196.5886985 -45.69140625 209.97265625 C-48.77260154 213.70572895 -51.77366424 217.4955883 -54.75 221.3125 C-61.61485186 230.09072848 -68.69909802 238.67252265 -75.9140625 247.16430664 C-78.81265956 250.58058261 -81.67158958 254.02509577 -84.5 257.5 C-92.48046243 267.2948482 -100.72478864 276.86987534 -108.95703125 286.453125 C-111.00167679 288.83383161 -113.04026526 291.21952809 -115.07421875 293.609375 C-120.53755892 300.02161109 -126.07236887 306.34078054 -131.765625 312.55078125 C-134.29402372 315.32229524 -136.76184 318.14127003 -139.22265625 320.97265625 C-142.0579696 324.20678291 -144.94926764 327.39022765 -147.83203125 330.58203125 C-149.64047557 332.5990169 -151.4198734 334.63491596 -153.1875 336.6875 C-157.24986399 341.3559043 -161.5027524 345.84622078 -165.73608398 350.35888672 C-169.12053325 353.97082792 -172.46342267 357.6107145 -175.75 361.3125 C-179.49024961 365.50463851 -183.41937524 369.465318 -187.4453125 373.3828125 C-189.45593814 375.44262776 -191.33315369 377.52178098 -193.20629883 379.7019043 C-196.74085201 383.75483408 -200.44623025 387.59141183 -204.25390625 391.38671875 C-204.91784897 392.05161819 -205.58179169 392.71651764 -206.26585388 393.40156555 C-207.65704703 394.7934336 -209.04948124 396.18406222 -210.44311523 397.57348633 C-212.56414775 399.68914357 -214.67976369 401.81011222 -216.79492188 403.93164062 C-218.15592936 405.29198754 -219.51724689 406.65202434 -220.87890625 408.01171875 C-221.50406631 408.63890305 -222.12922638 409.26608734 -222.77333069 409.91227722 C-226.37037898 413.49035204 -230.07075793 416.79110123 -234 420 C-236.21678801 422.15845148 -238.39921727 424.3251261 -240.45703125 426.63671875 C-265.86553442 453.9953102 -305.80976131 467.21790017 -342.21289062 468.91845703 C-382.14770922 470.08683732 -421.88526933 456.38462365 -451.5 429.3125 C-453.34331479 427.55205904 -455.17747956 425.78195989 -457 424 C-457.78632813 423.26394531 -458.57265625 422.52789062 -459.3828125 421.76953125 C-485.13243834 397.14140479 -502.25112191 359.50698303 -503.26330566 323.84085083 C-503.31423145 320.89341732 -503.32432318 317.94733797 -503.31567383 314.99951172 C-503.31252272 312.76609974 -503.33604514 310.53403009 -503.36132812 308.30078125 C-503.55787145 263.21095607 -481.3839848 225.45385115 -450.85693359 193.91992188 C-449.22412543 192.2317279 -447.60460137 190.53206698 -445.98828125 188.828125 C-415.46752937 157.28258875 -373.30883198 141.79906173 -332.94921875 127.3046875 C-296.51460722 114.29136249 -296.51460722 114.29136249 -261 99 C-259.62013916 98.35659668 -259.62013916 98.35659668 -258.21240234 97.70019531 C-229.90699019 84.39401107 -201.30755003 67.13582001 -178.3125 45.75 C-156.53588971 25.97200786 -128.84654656 21.0380925 -100.33691406 21.81640625 C-88.52290165 22.46640167 -77.66667771 26.00779515 -67 31 C-65.58553669 31.60930727 -64.16921421 32.21434212 -62.75 32.8125 C-61.8425 33.204375 -60.935 33.59625 -60 34 C-59.41992188 33.12988281 -59.41992188 33.12988281 -58.828125 32.2421875 C-57.74298788 30.61448181 -56.65562233 28.98826023 -55.56640625 27.36328125 C-54.40877005 25.61672289 -53.28779568 23.84573782 -52.1875 22.0625 C-44.20853807 10.8919533 -33.67785914 -1.0465496 -20.0625 -4.8125 C-12.67099927 -5.26504086 -6.17054637 -4.30896804 0 0 Z M-24.375 23.3125 C-24.94718262 23.85213379 -25.51936523 24.39176758 -26.10888672 24.94775391 C-31.0439047 29.75102191 -34.71316351 34.94633399 -38 41 C-38.38027344 41.62003906 -38.76054687 42.24007812 -39.15234375 42.87890625 C-40.18847413 44.54771117 -40.18847413 44.54771117 -41 47 C-40.13555744 50.02554896 -38.40323481 51.99730433 -36 54 C-35.34 54 -34.68 54 -34 54 C-33.50371094 52.94941406 -33.00742187 51.89882812 -32.49609375 50.81640625 C-28.1932018 41.86280614 -23.72430326 34.15213034 -16.97265625 26.7890625 C-16.32167969 26.07492188 -15.67070312 25.36078125 -15 24.625 C-14.401875 23.99851562 -13.80375 23.37203125 -13.1875 22.7265625 C-12.795625 22.15679687 -12.40375 21.58703125 -12 21 C-12.33 20.01 -12.66 19.02 -13 18 C-18.24117366 17.17193353 -20.8243841 19.89704664 -24.375 23.3125 Z M-171 69 C-168.52442703 71.9355612 -166.11891782 72.88635171 -162.5 74.0625 C-161.06140625 74.54396484 -161.06140625 74.54396484 -159.59375 75.03515625 C-149.40605616 77.77033057 -139.74574859 78.20896963 -129.25 78 C-126.52605555 77.94632622 -123.80240465 77.90663951 -121.078125 77.875 C-119.88606445 77.85179687 -118.69400391 77.82859375 -117.46582031 77.8046875 C-112.94633139 78.05937834 -108.6536078 78.66644532 -105.0625 81.5625 C-103.36495724 85.45686281 -103.05032042 88.84343141 -104 93 C-105.93447884 96.07171792 -108.40460764 98.47848029 -111 101 C-125.44371312 115.24270717 -132.77048342 136.30266913 -133.046875 156.41015625 C-133.03140625 157.26480469 -133.0159375 158.11945313 -133 159 C-112.94721289 157.77227834 -88.41703344 145.84901381 -75 131 C-75 130.34 -75 129.68 -75 129 C-70.48953104 126.67201602 -65.97552058 126.21879677 -61 127 C-58.49839182 128.87620613 -57.38054348 130.23891303 -56 133 C-56.14503885 135.75869809 -56.3408028 138.49751798 -56.5625 141.25 C-57.42575749 154.25839738 -55.21641926 165.67823108 -51 178 C-50.34 178 -49.68 178 -49 178 C-39.3800527 161.53920128 -30.33824467 144.40454775 -29 125 C-28.9484375 124.36835938 -28.896875 123.73671875 -28.84375 123.0859375 C-27.9657852 103.5512207 -36.42834496 85.05264634 -49.3125 70.8125 C-66.13282381 52.85481825 -85.807156 45.07757756 -110 43 C-134.05019203 43 -153.55017379 53.23138628 -171 69 Z M-196.66015625 87.23828125 C-197.7123938 87.9657959 -197.7123938 87.9657959 -198.78588867 88.70800781 C-199.53717041 89.23749023 -200.28845215 89.76697266 -201.0625 90.3125 C-209.74721415 96.26601028 -218.65605978 101.65141368 -227.84228516 106.79199219 C-229.17319742 107.5371103 -230.50157363 108.28680514 -231.82568359 109.04394531 C-257.32238304 123.61981693 -285.30265258 133.61314607 -312.828125 143.55232239 C-316.47524742 144.86942647 -320.12165946 146.18848498 -323.76806641 147.50756836 C-328.61995603 149.2623912 -333.4754344 151.00673051 -338.33349609 152.74438477 C-351.13205458 157.34466444 -363.70245904 162.18230281 -376 168 C-377.0650325 168.50324799 -377.0650325 168.50324799 -378.15158081 169.0166626 C-392.46179952 175.80978674 -405.92385482 183.68341585 -418 194 C-419.09806402 194.90343183 -420.19708932 195.80569606 -421.296875 196.70703125 C-429.04947451 203.12636754 -435.99662272 209.96456118 -442.66113281 217.50097656 C-443.89522155 218.88268787 -445.16113116 220.23580197 -446.4296875 221.5859375 C-470.65810661 247.49106382 -483.03304203 282.25813486 -481.91845703 317.58447266 C-480.4194656 347.07561916 -470.02250183 376.93506906 -450 399 C-449.14664063 399.98355469 -448.29328125 400.96710938 -447.4140625 401.98046875 C-425.78968681 426.64760792 -395.52499245 442.02079133 -363 446 C-357.83281727 446.31673295 -352.67545 446.39085658 -347.5 446.375 C-346.79823639 446.37412384 -346.09647278 446.37324768 -345.3734436 446.37234497 C-304.10756594 446.20303284 -272.32081364 427.49726215 -243.875 398.875 C-243.1226709 398.1106665 -242.3703418 397.34633301 -241.59521484 396.55883789 C-237.47168007 392.38695573 -233.26431757 388.41078499 -228.81738281 384.5859375 C-223.08305359 379.58188019 -217.66861633 374.05371438 -212.75 368.25 C-208.65060394 363.43420463 -204.10504899 359.05436192 -199.59277344 354.62988281 C-195.80298263 350.89143883 -192.23102998 347.03986923 -188.75488281 343.00878906 C-185.8024929 339.62923088 -182.70858075 336.38446557 -179.625 333.125 C-174.00160937 327.15368538 -168.45731869 321.12386143 -163 315 C-161.45889713 313.29115804 -159.91722314 311.58283099 -158.375 309.875 C-153.58865258 304.55317482 -148.8633524 299.18487465 -144.21484375 293.7421875 C-143.18492521 292.53643324 -142.15497647 291.33070477 -141.125 290.125 C-140.34552002 289.2122229 -140.34552002 289.2122229 -139.55029297 288.28100586 C-136.52107467 284.74376142 -133.44851417 281.25607423 -130.3125 277.8125 C-126.5358704 273.65008566 -122.97801625 269.34350702 -119.44140625 264.9765625 C-116.71469417 261.65215513 -113.92916445 258.38405129 -111.125 255.125 C-110.6189624 254.53654297 -110.1129248 253.94808594 -109.59155273 253.34179688 C-108.56724063 252.15069845 -107.54290796 250.95961771 -106.51855469 249.76855469 C-100.21034163 242.42181909 -93.96486429 235.03503161 -87.94921875 227.4453125 C-85.88732225 224.85864475 -83.7904814 222.30335441 -81.6875 219.75 C-80.95144531 218.84378906 -80.21539062 217.93757812 -79.45703125 217.00390625 C-77.64085903 214.78349856 -75.8047554 212.58924692 -73.94921875 210.40234375 C-72.92384683 209.16458607 -71.89909907 207.92631103 -70.875 206.6875 C-70.37701904 206.11290039 -69.87903809 205.53830078 -69.3659668 204.94628906 C-67.09329756 202.15947233 -65.99055583 200.57246189 -66.05078125 196.921875 C-66.98919462 194.033261 -68.04751209 191.32354172 -69.3125 188.5625 C-72.987359 180.04108784 -75.27114991 171.11103996 -77 162 C-80.74020178 162.50010231 -83.60675794 163.72916938 -86.90771484 165.52636719 C-103.27972551 174.43213664 -126.9680397 184.2614844 -146 183 C-149.34601249 181.58437933 -151.40254799 180.4566449 -152.8203125 177 C-158.27890101 153.62801541 -151.62815059 125.15266438 -140.3203125 104.51953125 C-138.84527969 102.17883546 -138.84527969 102.17883546 -139 100 C-140.1859375 99.84144531 -141.371875 99.68289062 -142.59375 99.51953125 C-158.26460091 97.30828691 -173.10207049 93.6528499 -187.046875 85.85546875 C-190.93530443 84.15233666 -193.42116556 84.94895121 -196.66015625 87.23828125 Z " fill="#000" transform="translate(503,24)"/>
<path d="M0 0 C2.70039185 3.96620053 3 6.12909866 3 10.9375 C1.40344794 14.71880751 -0.57803839 16.74589809 -4 18.9375 C-6.40332031 19.47412109 -6.40332031 19.47412109 -9.078125 19.7109375 C-10.06627197 19.81043701 -11.05441895 19.90993652 -12.07250977 20.01245117 C-13.12108154 20.11146729 -14.16965332 20.2104834 -15.25 20.3125 C-35.11093089 22.52685067 -52.70452963 28.68900708 -68 41.9375 C-68.79664063 42.57945312 -69.59328125 43.22140625 -70.4140625 43.8828125 C-81.48481326 53.17127521 -88.2413086 64.45298777 -93.95727539 77.54052734 C-97.3181691 85.14713603 -97.3181691 85.14713603 -101 87.9375 C-105.51577378 89.03002591 -107.88109341 89.27528312 -112.3125 87.9375 C-115.69398382 85.42104693 -117.26740746 83.03518793 -118 78.9375 C-116.29907907 57.50589624 -97.11383572 36.5426756 -81.71484375 23.08984375 C-64.78709782 9.66942935 -21.45753931 -14.75205828 0 0 Z " fill="#000000" transform="translate(168,219.0625)"/>
<path d="M0 0 C2.85809446 2.44128902 4.57563251 4.2503537 5.4765625 7.96484375 C5.76906681 11.97523175 5.06199917 13.89343892 3 17.4375 C-0.22483466 20.19204627 -1.87574782 20.96524754 -6.0078125 21.16015625 C-9.36461637 20.89029555 -11.30531239 20.00534892 -14 18 C-16.45087413 14.01732953 -17.1461674 11.95820848 -16.4375 7.3125 C-14.99228417 3.98222005 -13.83019865 2.22985348 -11 0 C-7.12836566 -1.29054478 -3.85703622 -1.20063384 0 0 Z " fill="#000000" transform="translate(61,322)"/>
</svg>
