<svg width="14" height="15" viewBox="0 0 14 15" fill="none" xmlns="http://www.w3.org/2000/svg">
<path fill-rule="evenodd" clip-rule="evenodd" d="M3.88951 5.73565L3.58397 5.27735L4.41603 4.72265L4.72156 5.18095C5.09943 5.74775 5.67499 6.15336 6.33585 6.31858C6.77191 6.42759 7.22809 6.42759 7.66415 6.31858C8.32501 6.15336 8.90058 5.74775 9.27844 5.18095L9.58397 4.72265L10.416 5.27735L10.1105 5.73565C9.59463 6.50944 8.80889 7.06317 7.90668 7.28872C7.31139 7.43754 6.68861 7.43754 6.09332 7.28872C5.19111 7.06317 4.40536 6.50944 3.88951 5.73565ZM2.20638 4.72262C1.46633 5.25604 1 6.09937 1 7.28643C1 8.81513 1.34914 10.2986 2.2176 11.3814C3.05389 12.4241 4.48993 13.2424 7 13.2424C9.51007 13.2424 10.9461 12.4241 11.7824 11.3814C12.6509 10.2986 13 8.81513 13 7.28643C13 6.09937 12.5337 5.25604 11.7936 4.72262C11.0268 4.16994 9.85447 3.8733 8.34673 4.05158C7.45369 4.15717 6.54631 4.15717 5.65327 4.05158C4.14553 3.8733 2.97316 4.16994 2.20638 4.72262ZM5.77069 3.05849C2.40084 2.66004 0 4.32204 0 7.28643C0 10.6001 1.5 14.2424 7 14.2424C12.5 14.2424 14 10.6001 14 7.28643C14 4.32204 11.5992 2.66004 8.22931 3.05849C7.41428 3.15487 6.58572 3.15487 5.77069 3.05849Z" fill="#000"/>
<path fill-rule="evenodd" clip-rule="evenodd" d="M8.35355 1.35355C7.80703 1.90007 7.5 2.64132 7.5 3.41421V5H6.5V3.41421C6.5 2.3761 6.91239 1.3805 7.64645 0.646446L8.35355 1.35355Z" fill="#000"/>
</svg>
