<?xml version="1.0" encoding="UTF-8"?>
<svg version="1.0" xmlns="http://www.w3.org/2000/svg" width="512" height="512">
<path d="M0 0 C1.51009763 4.24648022 3.00631943 8.49772018 4.5 12.75 C5.14388672 14.55984375 5.14388672 14.55984375 5.80078125 16.40625 C6.40986328 18.14648438 6.40986328 18.14648438 7.03125 19.921875 C7.40830078 20.99018555 7.78535156 22.05849609 8.17382812 23.15917969 C9 26 9 26 9 30 C7.87464844 30.49306641 7.87464844 30.49306641 6.7265625 30.99609375 C-7.16879996 37.4537622 -16.74820933 46.90151219 -22.1875 61.29296875 C-23.63214397 66.10613353 -24.35038993 71.02535448 -25 76 C-24.30777344 76.12375 -23.61554688 76.2475 -22.90234375 76.375 C-14.7981565 78.08339257 -8.28622287 81.22409528 -1.15234375 85.2578125 C1.89180226 87.06510843 1.89180226 87.06510843 5 88 C7.56136091 86.85139435 9.97463651 85.64435139 12.4375 84.3125 C33.73935194 73.30335903 56.05231052 71.25442395 79 78.3359375 C96.8819656 84.27330889 112.10691535 94.45872208 126 107 C127.07530763 107.95336553 128.15082921 108.9064898 129.2265625 109.859375 C137.68258792 117.43553062 144.83832745 125.59026706 151.6875 134.625 C152.24244141 135.34945312 152.79738281 136.07390625 153.36914062 136.8203125 C154.44043246 138.22662188 155.50322134 139.63946166 156.55615234 141.05957031 C157.46703324 142.28373016 158.39739835 143.49384591 159.35400391 144.68261719 C160.51953125 146.2109375 160.51953125 146.2109375 162 149 C161.17449175 153.64536007 157.63381325 157.56066854 154.875 161.3125 C154.40707031 161.95767578 153.93914062 162.60285156 153.45703125 163.26757812 C152.3094071 164.84848894 151.15534523 166.42472301 150 168 C151.50969151 171.70333167 153.6663643 173.67763944 156.6875 176.25 C189.63782678 204.33208255 211.50652132 253.40350296 215 296 C216.1926188 317.4200458 216.09352755 339.07173287 211 360 C210.79632813 360.86963379 210.59265625 361.73926758 210.3828125 362.63525391 C203.47977111 391.37129427 190.27476662 418.54742132 171 441 C170.27683594 441.85078125 169.55367188 442.7015625 168.80859375 443.578125 C166.59263765 446.10831428 164.31549158 448.56052935 162 451 C161.51225098 451.52029785 161.02450195 452.0405957 160.52197266 452.57666016 C147.98377826 465.87428022 133.93882174 477.0051796 118 486 C117.3390332 486.38220703 116.67806641 486.76441406 115.99707031 487.15820312 C95.71124617 498.8107794 73.99483305 505.97255545 51 510 C49.95247559 510.19480957 49.95247559 510.19480957 48.88378906 510.39355469 C38.47283151 512.2659536 27.91942596 512.22612317 17.375 512.3125 C16.32919769 512.32707748 16.32919769 512.32707748 15.26226807 512.34194946 C-2.7921274 512.55524473 -21.05121339 509.16915281 -36.75390625 499.8203125 C-41.06447156 498.24601908 -44.47318858 499.77967602 -48.55859375 501.48828125 C-49.85307918 502.09311869 -51.14598676 502.70134175 -52.4375 503.3125 C-67.26249647 510.06543717 -81.80889639 512.23617193 -98.0625 512.25 C-99.13004013 512.25101212 -99.13004013 512.25101212 -100.21914673 512.25204468 C-112.6756226 512.23335726 -124.75922002 511.39808859 -137 509 C-137.8765625 508.82839355 -138.753125 508.65678711 -139.65625 508.47998047 C-177.4461926 500.79703247 -210.28947678 482.56516677 -238 456 C-238.53512207 455.49210937 -239.07024414 454.98421875 -239.62158203 454.4609375 C-247.58525114 446.86892186 -254.63821154 438.97862128 -261 430 C-261.4134668 429.42024414 -261.82693359 428.84048828 -262.25292969 428.24316406 C-276.95461988 407.43931191 -287.00969028 384.73474917 -293 360 C-293.21317871 359.13181641 -293.42635742 358.26363281 -293.64599609 357.36914062 C-304.82479155 309.53347028 -295.18085549 255.88518435 -270 214 C-259.33613488 197.0242265 -246.22476572 182.06671276 -232 168 C-232.56098389 167.26680542 -232.56098389 167.26680542 -233.13330078 166.51879883 C-234.81641216 164.29718652 -236.47064685 162.05559746 -238.125 159.8125 C-238.71410156 159.04357422 -239.30320313 158.27464844 -239.91015625 157.48242188 C-244.0844478 151.76118699 -244.0844478 151.76118699 -243.71484375 148.4296875 C-243.14894531 147.62789062 -242.58304688 146.82609375 -242 146 C-241.61457031 145.43337646 -241.22914063 144.86675293 -240.83203125 144.28295898 C-239.41764915 142.25056015 -237.93959754 140.28087802 -236.4375 138.3125 C-235.9010083 137.60351562 -235.3645166 136.89453125 -234.81176758 136.1640625 C-231.08698095 131.2930597 -227.18933013 126.64891801 -223.0078125 122.16015625 C-221.12512006 120.13461361 -219.34262939 118.05295609 -217.5625 115.9375 C-201.29882985 97.41395768 -179.4116812 84.15492128 -156 77 C-155.17242187 76.74476562 -154.34484375 76.48953125 -153.4921875 76.2265625 C-133.15816433 70.89178075 -110.89988891 74.63756348 -92.875 84.9375 C-91.86179688 85.56527344 -90.84859375 86.19304687 -89.8046875 86.83984375 C-87.11526386 88.27219457 -87.11526386 88.27219457 -84.6171875 87.4375 C-83.75351563 86.963125 -82.88984375 86.48875 -82 86 C-80.77730502 85.38420386 -79.55322476 84.77115419 -78.328125 84.16015625 C-76.96862755 83.46117561 -75.60925691 82.76194829 -74.25 82.0625 C-68.60076446 79.1888706 -63.11400909 76.74685974 -57 75 C-56.87044922 73.52853516 -56.87044922 73.52853516 -56.73828125 72.02734375 C-54.47954117 49.28936025 -45.15653591 28.71924127 -27.40234375 13.94165039 C-20.32894599 8.36179101 -9.21154606 0 0 0 Z M-202 145 C-202.63035156 145.65355469 -203.26070313 146.30710938 -203.91015625 146.98046875 C-205.29925283 148.99042984 -205.29925283 148.99042984 -204.32299805 151.34423828 C-202.8557676 154.28952945 -201.23076139 156.17234619 -198.921875 158.51171875 C-198.0978418 159.34735352 -197.27380859 160.18298828 -196.42480469 161.04394531 C-195.54211914 161.91631836 -194.65943359 162.78869141 -193.75 163.6875 C-192.39116699 165.03279785 -192.39116699 165.03279785 -191.00488281 166.40527344 C-175.52292955 181.4920829 -156.46927126 194.88762634 -134.0625 195.25 C-131.28816596 195.17016305 -128.74148489 194.95691415 -126 194.5 C-116.18712408 192.86452068 -107.00476098 193.83898275 -98.671875 199.61328125 C-92.36830645 204.87792832 -87.70016467 210.92568535 -86.734375 219.30444336 C-86.53228043 222.01441818 -86.36012205 224.72549838 -86.1875 227.4375 C-84.09060035 253.55734231 -70.55397042 271.47800664 -52.6875 289.625 C-51.50329468 290.83603394 -51.50329468 290.83603394 -50.29516602 292.0715332 C-49.16485962 293.20014771 -49.16485962 293.20014771 -48.01171875 294.3515625 C-47.33584717 295.03041504 -46.65997559 295.70926758 -45.96362305 296.40869141 C-43.89856732 298.08220045 -42.63412745 298.74301196 -40 299 C-37.74218916 297.58324759 -37.74218916 297.58324759 -35.5625 295.375 C-34.68722656 294.54097656 -33.81195313 293.70695313 -32.91015625 292.84765625 C-32.44109863 292.38762207 -31.97204102 291.92758789 -31.48876953 291.45361328 C-29.94663738 289.9478975 -28.37919278 288.47204988 -26.80859375 286.99609375 C-8.85738231 269.88081297 2.77617766 250.25037316 4.08398438 225.12304688 C4.72751413 215.86011851 7.60075588 208.64556438 13.93359375 201.79296875 C22.02989858 194.76800861 30.70572239 193.60754953 41 194 C43 194.33333333 45 194.66666667 47 195 C67.56533608 196.50561529 85.12812197 186.80907706 100.4375 173.953125 C103.0152288 171.68935035 105.51541433 169.36575766 108 167 C108.55075195 166.47647949 109.10150391 165.95295898 109.66894531 165.41357422 C111.45714342 163.70352991 113.2306611 161.97953732 115 160.25 C115.56444824 159.70706299 116.12889648 159.16412598 116.71044922 158.60473633 C119.73547967 155.60413846 121.75864521 153.18957243 123 149 C105.19076654 129.32662248 84.85614107 107.57352824 56.578125 105.625 C41.80060882 105.02470737 30.24787785 109.53218259 17.3359375 116.29296875 C10.17028106 119.95970396 2.02442814 120.22975514 -5.79296875 118.31640625 C-11.20962848 116.2410247 -16.09185513 113.28938375 -20.96875 110.171875 C-22.89788658 108.83342585 -22.89788658 108.83342585 -25 109 C-25 127.81 -25 146.62 -25 166 C-35.56 166 -46.12 166 -57 166 C-57 147.19 -57 128.38 -57 109 C-61.49157223 110.49719074 -64.15379644 111.54703173 -67.9375 114 C-76.02506292 118.91973412 -83.60616368 120.05572931 -93 119 C-99.03863106 117.1914001 -104.487977 114.26777298 -110.0625 111.375 C-145.57463771 93.59088048 -178.38342254 119.91009477 -202 145 Z M-216.25537109 196.87475586 C-249.39544623 230.10262433 -266.23064531 271.42695615 -266.2510376 318.25784302 C-266.22962721 329.75595425 -265.93884321 340.82087094 -263 352 C-262.79600586 352.79857422 -262.59201172 353.59714844 -262.38183594 354.41992188 C-259.56932583 365.17050636 -255.99977669 375.32536756 -250.91650391 385.20996094 C-249.98610421 387.0271401 -249.09207235 388.85943957 -248.19921875 390.6953125 C-241.28384631 404.59504771 -231.7389002 416.83291398 -221 428 C-220.50838379 428.52271484 -220.01676758 429.04542969 -219.51025391 429.58398438 C-206.88360928 442.96998297 -193.07579368 453.51860002 -176.77539062 462.06103516 C-175.22550463 462.88073559 -173.69662064 463.73990182 -172.171875 464.60546875 C-157.6625511 472.51771702 -140.33503056 477.67192144 -124 480 C-123.36892334 480.09063721 -122.73784668 480.18127441 -122.08764648 480.2746582 C-96.64880134 483.54281264 -75.54120783 480.5018732 -52.94433594 468.8762207 C-46.73618948 466.07850126 -39.07830946 465.91853136 -32.5546875 467.6484375 C-29.98132536 468.66905909 -27.49890076 469.80773667 -25 471 C-23.08334455 471.89083246 -21.16248876 472.77047869 -19.23535156 473.63842773 C-17.92553841 474.22946765 -16.62085361 474.83209486 -15.32324219 475.44946289 C-4.99080797 480.15095878 5.68117098 481.51933318 16.9375 481.375 C18.10555176 481.36484863 19.27360352 481.35469727 20.47705078 481.34423828 C67.15546108 480.525096 108.10951984 461.23956605 140.67578125 428.29296875 C151.46744636 416.82997144 159.73655105 403.90895239 167 390 C167.48146484 389.08613525 167.48146484 389.08613525 167.97265625 388.15380859 C186.91349374 351.66892131 189.31100404 306.66632047 177.26391602 267.75195312 C173.77256505 256.98450233 169.56627103 246.85042346 164 237 C163.64292969 236.35740234 163.28585937 235.71480469 162.91796875 235.05273438 C158.0373957 226.33496166 152.62823752 218.514304 146 211 C145.2575 210.14792969 144.515 209.29585937 143.75 208.41796875 C138.71377238 202.72598233 133.43066528 197.31511921 128 192 C124.24523482 194.41861001 120.75837909 196.95802438 117.30810547 199.80615234 C99.12109597 214.73247955 77.05199446 225.17183905 53.1875 225.125 C51.88167969 225.12757813 50.57585937 225.13015625 49.23046875 225.1328125 C44.45958053 225.05200868 39.73827426 224.53466197 35 224 C34.85304688 225.92199219 34.85304688 225.92199219 34.703125 227.8828125 C32.55126864 253.68006723 23.52928106 275.08009718 7 295 C6.59475098 295.49935059 6.18950195 295.99870117 5.77197266 296.51318359 C-6.08895633 311.09304878 -19.4597833 323.42141875 -35 334 C-35.86367188 334.63550781 -36.72734375 335.27101563 -37.6171875 335.92578125 C-40 337 -40 337 -42.4296875 336.4375 C-51.33565724 331.4566537 -59.10101126 325.30733984 -66.515625 318.33203125 C-68.64703513 316.3313208 -70.82301672 314.43918698 -73.0625 312.5625 C-97.482087 291.22644537 -114.09247065 261.96529896 -116.6875 229.5625 C-116.80125902 227.70889713 -116.90928948 225.85487367 -117 224 C-117.804375 224.10828125 -117.804375 224.10828125 -118.625 224.21875 C-150.26991935 227.96617466 -176.70083917 217.68518316 -201.25439453 198.40869141 C-202.97924109 197.0167523 -204.65965931 195.58203323 -206.33984375 194.13671875 C-211.12800538 190.29072108 -212.47884512 193.18336222 -216.25537109 196.87475586 Z " fill="#000000" transform="translate(297,0)"/>
</svg>
