<?xml version="1.0" encoding="UTF-8"?>
<svg version="1.0" xmlns="http://www.w3.org/2000/svg" width="512" height="512">
<path d="M0 0 C0.7024585 -0.03077637 1.40491699 -0.06155273 2.12866211 -0.09326172 C5.84535347 -0.09415505 8.39120847 0.45501315 11.31640625 2.671875 C19.25772781 11.24045445 17.5335957 27.30957667 17.2890625 38.27734375 C16.74636614 51.05022978 13.56696924 63.02152789 7.9375 74.5 C7.42316406 75.56734375 6.90882813 76.6346875 6.37890625 77.734375 C0.44553537 89.40927567 -7.70190778 98.46530848 -17.0625 107.5 C-18.08571567 108.51844543 -19.10703819 109.5388032 -20.125 110.5625 C-20.764375 111.201875 -21.40375 111.84125 -22.0625 112.5 C-21.41667969 112.46519531 -20.77085937 112.43039063 -20.10546875 112.39453125 C7.84904729 111.59146034 38.58932652 121.32391768 59.9375 139.5 C61.22333984 140.56154297 61.22333984 140.56154297 62.53515625 141.64453125 C72.36891424 150.07998053 81.73454444 160.49751408 86.9375 172.5 C85.9375 175.5 85.9375 175.5 83.28515625 177.10546875 C82.20105469 177.62753906 81.11695313 178.14960938 80 178.6875 C78.91847656 179.21730469 77.83695312 179.74710938 76.72265625 180.29296875 C73.9375 181.5 73.9375 181.5 71.9375 181.5 C70.50657593 179.40050465 69.18184653 177.29991822 67.875 175.125 C63.82095531 168.61450697 59.36654653 162.94812929 53.9375 157.5 C53.27621094 156.81550781 52.61492187 156.13101563 51.93359375 155.42578125 C28.40805205 132.70376849 -8.62093343 128.03918505 -39.77954102 128.33154297 C-41.87461994 128.37214624 -43.96813986 128.43181809 -46.0625 128.5 C-47.25504395 128.53697998 -47.25504395 128.53697998 -48.47167969 128.57470703 C-53.54957492 128.74685575 -58.61664155 129.00179604 -63.68603516 129.34228516 C-65.20590956 129.4431521 -66.7264368 129.53486596 -68.24755859 129.61474609 C-78.04927102 130.16095015 -85.35318863 132.75435169 -93.875 137.33984375 C-123.40641935 153.02315683 -163.76411978 157.08079916 -195.6953125 147.3984375 C-199.16296344 146.47319421 -201.50918307 145.98906554 -205.0625 146.5 C-207.56643703 148.04404558 -209.64128619 149.50975932 -211.875 151.375 C-212.48811035 151.87531738 -213.1012207 152.37563477 -213.73291016 152.89111328 C-239.63779381 174.46375765 -249.24093313 207.52813427 -252.75341797 239.88964844 C-255.1404836 267.77268684 -253.23202703 298.1802482 -234.5234375 320.625 C-205.82755635 353.62628964 -160.24439344 360.80727042 -118.8125 363.75 C-112.22395354 364.20074283 -105.66794548 364.6145453 -99.0625 364.5 C-99.88492188 363.77296875 -100.70734375 363.0459375 -101.5546875 362.296875 C-117.39329472 348.11219396 -132.51395324 331.15463192 -134.265625 308.921875 C-134.45299912 298.24155016 -132.19678157 291.59731278 -124.70703125 283.79296875 C-112.67513238 273.36058376 -95.53743452 270.98906661 -80.32910156 268.54974365 C-75.79137863 267.82012226 -71.25933254 267.05655573 -66.7265625 266.296875 C-65.82013 266.1456015 -64.91369751 265.994328 -63.97979736 265.83847046 C-15.43664374 257.70930484 19.34081787 243.74955478 56.7890625 211.2265625 C61.41766119 207.20691645 66.14698917 203.32498151 70.9375 199.5 C71.86320801 198.74734863 71.86320801 198.74734863 72.80761719 197.97949219 C85.62972314 187.58969714 101.39589966 174.98779307 118.9375 176.5 C128.83859064 178.31519995 135.7519251 183.18633561 141.6875 191.25 C157.70404203 215.88514316 157.81728504 247.79993831 152.26171875 275.7734375 C148.92209327 290.92368315 143.40533576 304.93938268 135.9375 318.5 C135.37289063 319.55445313 134.80828125 320.60890625 134.2265625 321.6953125 C114.98964545 356.28563752 81.30869825 380.74886302 43.9375 392.5 C14.5410431 400.6301092 -15.88054885 401.22899942 -45.25 392.75 C-45.99717285 392.53456543 -46.7443457 392.31913086 -47.51416016 392.09716797 C-51.36267732 390.90393798 -54.90611394 389.5786684 -58.51611328 387.76269531 C-68.75307098 382.61506227 -77.42858267 381.57061028 -88.81710815 381.71716309 C-93.55686926 381.77385413 -98.29553869 381.70702417 -103.03515625 381.65625 C-103.97943985 381.64881775 -104.92372345 381.6413855 -105.8966217 381.63372803 C-153.03895049 381.15978403 -207.82575428 372.80193112 -242.65234375 338.12890625 C-264.39433734 315.51699127 -271.58417819 285.06543163 -271.03881836 254.44287109 C-270.15237 227.05482085 -265.10439958 200.21758335 -253.0625 175.5 C-252.59199219 174.51902344 -252.12148437 173.53804687 -251.63671875 172.52734375 C-245.04721532 159.62676661 -235.42614719 149.42089644 -225.0625 139.5 C-224.4025 138.84 -223.7425 138.18 -223.0625 137.5 C-224.07828125 136.95472656 -225.0940625 136.40945312 -226.140625 135.84765625 C-239.08600928 128.79859606 -250.33252512 120.67384813 -261.0625 110.5 C-261.536875 110.05817383 -262.01125 109.61634766 -262.5 109.16113281 C-278.77366893 93.9363527 -289.97178227 75.17915076 -298.0625 54.5 C-298.41441406 53.63375 -298.76632812 52.7675 -299.12890625 51.875 C-301.30707877 46.09258684 -300.97946542 42.0704341 -299.4375 36.06640625 C-297.51746489 32.48270436 -294.72196704 31.0456352 -291.25 29.1875 C-290.54931396 28.80505127 -289.84862793 28.42260254 -289.12670898 28.02856445 C-254.15856329 9.56480522 -212.72488798 5.05774693 -174.75 16.25 C-138.43254665 27.57601323 -106.11413848 51.89379556 -87.87548828 85.70019531 C-86.39729321 88.57895048 -84.96048696 91.47317902 -83.57397461 94.3972168 C-82.27131351 97.14358265 -81.23049382 99.33200618 -79.0625 101.5 C-78.41925781 100.675 -77.77601563 99.85 -77.11328125 99 C-71.99183743 92.44824304 -66.82060643 85.94271118 -61.5625 79.5 C-57.04153382 73.95892178 -52.57888966 68.37822896 -48.17602539 62.74291992 C-44.14443706 57.58689006 -40.05392655 52.47914437 -35.94506836 47.38452148 C-33.8747662 44.80911444 -31.89676968 42.25140451 -30.0625 39.5 C-26.7798068 40.99076434 -24.13172559 42.88620321 -21.3125 45.125 C-20.51328125 45.75664063 -19.7140625 46.38828125 -18.890625 47.0390625 C-18.28734375 47.52117187 -17.6840625 48.00328125 -17.0625 48.5 C-17.9527611 53.02989407 -20.55150776 55.9004847 -23.4375 59.375 C-24.54100166 60.72734499 -25.64385255 62.08022122 -26.74609375 63.43359375 C-27.30409668 64.11534668 -27.86209961 64.79709961 -28.43701172 65.49951172 C-30.83216724 68.4472294 -33.16599388 71.44131556 -35.5 74.4375 C-39.99467006 80.18513072 -44.58445421 85.85102691 -49.19775391 91.50366211 C-54.5729839 98.10126878 -59.82998199 104.78895485 -65.0625 111.5 C-51.21205882 108.98173797 -38.6530449 102.74076957 -28.0625 93.5 C-26.6084375 92.33791016 -26.6084375 92.33791016 -25.125 91.15234375 C-12.20220814 80.36041626 -3.91364694 62.85285933 -1.0625 46.5 C-0.876875 45.48035156 -0.69125 44.46070313 -0.5 43.41015625 C0.09231306 38.11635824 0.042943 32.88412813 0 27.5625 C-0.00676758 25.96438477 -0.00676758 25.96438477 -0.01367188 24.33398438 C-0.02538213 21.72259709 -0.04178276 19.11132876 -0.0625 16.5 C-13.31667649 18.52795087 -25.14323797 21.26796668 -37.0625 27.5 C-38.04347656 28.01175781 -39.02445312 28.52351563 -40.03515625 29.05078125 C-57.35433723 39.09341425 -68.87944741 55.79548914 -75.0625 74.5 C-76.98058109 74.04762239 -78.89692033 73.58785537 -80.8125 73.125 C-81.87984375 72.86976563 -82.9471875 72.61453125 -84.046875 72.3515625 C-86.62102722 71.62466459 -88.73850186 70.7973776 -91.0625 69.5 C-87.8170479 49.73224628 -72.34895011 31.19282512 -56.76953125 19.3671875 C-39.76354423 7.6372282 -20.80556548 0.53595893 0 0 Z M-272.0625 38.5 C-273.09246094 38.94730469 -274.12242187 39.39460938 -275.18359375 39.85546875 C-279.7858265 41.69269188 -279.7858265 41.69269188 -283.00390625 45.1875 C-283.09489339 48.77845908 -281.59925585 51.68027081 -280.125 54.875 C-279.8043457 55.58253418 -279.48369141 56.29006836 -279.15332031 57.01904297 C-263.73778645 90.39449456 -237.26982965 115.16822899 -202.84375 128.22265625 C-170.5740465 139.12368212 -133.97437775 138.67492181 -103.0625 123.5 C-105.73649114 120.14947178 -109.26925793 119.0655943 -113.171875 117.6640625 C-113.90572418 117.39255875 -114.63957336 117.12105499 -115.3956604 116.84132385 C-117.0092839 116.24513898 -118.62427346 115.65264197 -120.24041748 115.06332397 C-124.73702277 113.42291294 -129.22310361 111.75406755 -133.7109375 110.08984375 C-135.16864059 109.55055992 -135.16864059 109.55055992 -136.65579224 109.00038147 C-149.28447468 104.32108344 -161.85896938 99.499579 -174.4375 94.6875 C-176.70667852 93.82040405 -178.97588373 92.95337796 -181.24511719 92.08642578 C-196.52598312 86.24611964 -211.79617152 80.37818756 -227.0625 74.5 C-226.75527982 73.06322735 -226.44474074 71.62716412 -226.1328125 70.19140625 C-225.96023926 69.39162354 -225.78766602 68.59184082 -225.60986328 67.76782227 C-224.99636031 65.22597164 -224.13829077 62.88210813 -223.0625 60.5 C-218.32470099 61.11658784 -214.12133173 62.4617803 -209.703125 64.2109375 C-208.98222687 64.49069427 -208.26132874 64.77045105 -207.51858521 65.0586853 C-205.94508623 65.66992138 -204.37258223 66.2837236 -202.80096436 66.89978027 C-198.45263859 68.60387262 -194.09671649 70.28840013 -189.7421875 71.9765625 C-188.34626877 72.51869385 -188.34626877 72.51869385 -186.92214966 73.07177734 C-175.44970199 77.52337751 -163.94342101 81.88582366 -152.4375 86.25 C-149.2423456 87.4621917 -146.04719803 88.6744014 -142.85205078 89.88661194 C-140.7964287 90.66645691 -138.74076536 91.44619312 -136.68505859 92.22581482 C-130.62254452 94.5257457 -124.56365236 96.83490293 -118.5078125 99.15234375 C-116.47967931 99.92710375 -114.45144395 100.70159548 -112.42315674 101.47595215 C-110.61635315 102.16690561 -108.81084112 102.86123345 -107.00537109 103.55566406 C-105.44036865 104.15266113 -105.44036865 104.15266113 -103.84375 104.76171875 C-102.95751953 105.10162842 -102.07128906 105.44153809 -101.15820312 105.79174805 C-99.11540383 106.60672167 -99.11540383 106.60672167 -97.0625 106.5 C-99.60554821 86.15561431 -122.34311011 64.85876911 -137.59545898 52.99560547 C-159.14649405 36.96015009 -185.21731531 27.72545779 -212.0625 26.5 C-212.83207031 26.45875 -213.60164063 26.4175 -214.39453125 26.375 C-234.29712762 25.83251015 -253.97863418 30.46503321 -272.0625 38.5 Z M82.9375 211.5 C82.37643555 211.97018555 81.81537109 212.44037109 81.23730469 212.92480469 C78.48486008 215.23315203 75.74388848 217.55441929 73.01171875 219.88671875 C69.3351919 223.02086348 65.60777525 226.08981646 61.85546875 229.1328125 C59.7438386 230.84586186 57.64435895 232.56992494 55.55078125 234.3046875 C17.06989049 265.95295993 -24.43926197 276.59022144 -72.8762207 283.96508789 C-95.91913011 286.89906039 -95.91913011 286.89906039 -115.625 297.9375 C-118.94001255 303.8468702 -117.91478752 308.98437232 -116.1875 315.22265625 C-112.21881221 326.78421547 -105.47447449 334.98963984 -97.0625 343.5 C-96.42828125 344.20640625 -95.7940625 344.9128125 -95.140625 345.640625 C-73.9586822 368.69707601 -38.45976904 381.08581853 -7.86621094 382.609375 C30.6206421 383.94630433 67.89604829 369.71479423 96.12109375 343.59375 C107.26931479 332.96400999 115.71025615 321.04717138 122.9375 307.5 C123.47117187 306.54867187 124.00484375 305.59734375 124.5546875 304.6171875 C131.70194892 291.32254062 135.51542857 276.32163113 137.9375 261.5 C138.13472656 260.34757812 138.13472656 260.34757812 138.3359375 259.171875 C141.00179802 240.29470053 139.31061535 216.84231941 127.9375 200.9375 C124.26970224 196.54542826 121.85489791 193.83478376 116 192.8125 C103.32497055 193.48402474 92.17594282 203.70227051 82.9375 211.5 Z " fill="#000000" transform="translate(329.0625,56.5)"/>
<path d="M0 0 C3.30359699 3.30359699 4.89802891 6.63033542 6.79296875 10.80859375 C7.14386063 11.57172379 7.4947525 12.33485382 7.85627747 13.12110901 C8.59494649 14.73261294 9.33019748 16.34568739 10.06225586 17.96020508 C11.18392773 20.42963544 12.32067123 22.8917198 13.45898438 25.35351562 C14.17539933 26.92145489 14.89092441 28.48980112 15.60546875 30.05859375 C15.94603806 30.79411972 16.28660736 31.52964569 16.63749695 32.28746033 C18.22666551 35.82104397 19 38.06188683 19 42 C16.87717331 43.00460531 14.75166979 44.00355602 12.625 45 C11.44164062 45.556875 10.25828125 46.11375 9.0390625 46.6875 C6 48 6 48 4 48 C2.23800891 44.09064261 0.47827948 40.18027679 -1.27954102 36.26904297 C-1.87530496 34.94423312 -2.47164004 33.61967993 -3.06860352 32.29541016 C-6.8458094 23.91503242 -10.50510619 15.50358344 -14 7 C-9.38 4.69 -4.76 2.38 0 0 Z " fill="#000000" transform="translate(354,338)"/>
<path d="M0 0 C4.03662742 1.63987989 6.89069123 4.48374953 10 7.4375 C11.15596631 8.52113604 12.3122232 9.60446218 13.46875 10.6875 C14.05398438 11.23792969 14.63921875 11.78835938 15.2421875 12.35546875 C17.97123863 14.9086477 20.73628154 17.42197532 23.5 19.9375 C27.09403011 23.21063457 30.58561813 26.54231981 34 30 C32.94316894 31.25479654 31.87921933 32.50359873 30.8125 33.75 C30.22082031 34.44609375 29.62914062 35.1421875 29.01953125 35.859375 C26.84348629 38.16589848 24.51360489 40.07246879 22 42 C21.52691406 41.55197021 21.05382812 41.10394043 20.56640625 40.64233398 C18.37906087 38.57251045 16.18954382 36.5049977 14 34.4375 C13.25621094 33.73302734 12.51242187 33.02855469 11.74609375 32.30273438 C4.686949 25.64258476 -2.62192983 19.3021016 -10 13 C-8.60366893 9.81440048 -6.95442507 7.76056155 -4.4375 5.375 C-1.85984611 2.95478041 -1.85984611 2.95478041 0 0 Z " fill="#000000" transform="translate(385,317)"/>
<path d="M0 0 C5.61 0 11.22 0 17 0 C17.33 14.52 17.66 29.04 18 44 C12.39 44 6.78 44 1 44 C0.67 29.48 0.34 14.96 0 0 Z " fill="#000000" transform="translate(303,354)"/>
<path d="M0 0 C8.78267953 3.78112878 17.51662375 7.57477729 26 12 C24.36041242 17.23272633 22.61047965 22.15196636 20 27 C16.30090527 26.39458825 13.28645598 25.34742345 9.91796875 23.71484375 C8.52094727 23.04291992 8.52094727 23.04291992 7.09570312 22.35742188 C6.13599609 21.88884766 5.17628906 21.42027344 4.1875 20.9375 C3.20845703 20.46505859 2.22941406 19.99261719 1.22070312 19.50585938 C-1.18870167 18.34229316 -3.59544007 17.17353704 -6 16 C-5.45390568 11.71912268 -4.44712219 8.43812928 -2.4375 4.625 C-1.98246094 3.75101562 -1.52742188 2.87703125 -1.05859375 1.9765625 C-0.70925781 1.32429688 -0.35992187 0.67203125 0 0 Z " fill="#000000" transform="translate(415,290)"/>
<path d="M0 0 C5.28 1.32 10.56 2.64 16 4 C14.31205041 13.51389771 11.6488796 22.71881118 9 32 C3.53135543 30.98408579 -1.76390013 29.92908943 -7 28 C-5.60441595 18.35588933 -2.82882946 9.30536006 0 0 Z " fill="#000000" transform="translate(264,359)"/>
<path d="M0 0 C5.61 0 11.22 0 17 0 C17 5.94 17 11.88 17 18 C11.39 18 5.78 18 0 18 C0 12.06 0 6.12 0 0 Z " fill="#000000" transform="translate(174,272)"/>
<path d="M0 0 C5.61 0 11.22 0 17 0 C17 5.94 17 11.88 17 18 C11.39 18 5.78 18 0 18 C0 12.06 0 6.12 0 0 Z " fill="#000000" transform="translate(197,233)"/>
<path d="M0 0 C5.28 0 10.56 0 16 0 C16 5.94 16 11.88 16 18 C10.72 18 5.44 18 0 18 C0 12.06 0 6.12 0 0 Z " fill="#000000" transform="translate(121,353)"/>
<path d="M0 0 C5.28 0 10.56 0 16 0 C16 5.94 16 11.88 16 18 C10.72 18 5.44 18 0 18 C0 12.06 0 6.12 0 0 Z " fill="#000000" transform="translate(267,283)"/>
<path d="M0 0 C5.28 0 10.56 0 16 0 C16 5.94 16 11.88 16 18 C10.72 18 5.44 18 0 18 C0 12.06 0 6.12 0 0 Z " fill="#000000" transform="translate(301,210)"/>
<path d="M0 0 C5.28 0 10.56 0 16 0 C16 5.61 16 11.22 16 17 C10.72 17 5.44 17 0 17 C0 11.39 0 5.78 0 0 Z " fill="#000000" transform="translate(155,233)"/>
</svg>
