<?xml version="1.0" encoding="UTF-8"?>
<svg version="1.0" xmlns="http://www.w3.org/2000/svg" width="512" height="512">
<path d="M0 0 C1.45713095 -0.01140266 2.91422416 -0.03166347 4.37109375 -0.06152344 C32.08101801 -0.62767758 56.49907741 11.00564984 76.40258789 29.92016602 C95.9128838 49.98177327 104.93592554 75.77753384 104.89794922 103.56420898 C104.45418293 126.06393857 97.57538478 147.10373491 89.98852539 168.04516602 C85.10784115 181.34556507 85.10784115 181.34556507 82.21508789 195.17016602 C82.06426758 196.33418945 81.91344727 197.49821289 81.75805664 198.69750977 C81.39448815 202.37714254 81.20088292 206.03955637 81.02758789 209.73266602 C80.35286489 220.93539444 77.3337334 231.18993605 72.35571289 241.22094727 C71.26340844 243.21759838 71.26340844 243.21759838 71.40258789 245.29516602 C72.00506348 245.57078369 72.60753906 245.84640137 73.22827148 246.13037109 C90.7549711 254.19850735 107.69162446 262.63962662 122.40258789 275.29516602 C123.41321289 276.05829102 124.42383789 276.82141602 125.46508789 277.60766602 C146.09423882 296.48114453 156.00059545 323.26976074 157.34790039 350.6418457 C157.91448271 378.13120581 147.1683225 403.6883706 128.6237793 423.64160156 C120.52613125 432.00917121 111.29677727 438.24306606 101.40258789 444.29516602 C100.29915039 444.98868164 99.19571289 445.68219727 98.05883789 446.39672852 C89.34690546 451.63682649 80.12217299 455.71830269 70.88500977 459.93481445 C57.66794802 465.97503471 45.19945138 471.9110444 35.15258789 482.73266602 C19.80961782 498.54605734 -3.56255108 505.00005805 -24.99584961 505.46313477 C-26.98799339 505.47785174 -28.98021438 505.48393412 -30.97241211 505.48266602 C-32.05458008 505.48331055 -33.13674805 505.48395508 -34.25170898 505.48461914 C-42.23877549 505.43415519 -50.14009797 504.95760349 -58.09741211 504.29516602 C-77.29034197 502.75078027 -94.81926001 501.89623907 -113.35424805 507.61499023 C-138.06033236 515.10640849 -164.5233665 515.48872382 -187.86816406 503.71337891 C-193.65777597 500.5579508 -198.18942269 496.48666178 -202.87866211 491.90454102 C-214.52680449 480.72500206 -229.46859169 476.11255446 -244.58517456 471.59875488 C-257.67356823 467.6727135 -270.41198063 463.56350327 -282.59741211 457.29516602 C-283.67764648 456.75891602 -284.75788086 456.22266602 -285.87084961 455.67016602 C-293.66876735 451.50058532 -299.6952917 445.94248188 -305.98608398 439.8371582 C-308.05574804 437.85655242 -310.18606521 435.94962994 -312.32104492 434.04003906 C-318.15627115 428.80308219 -323.5218846 423.27533726 -328.59741211 417.29516602 C-329.27416992 416.50625977 -329.95092773 415.71735352 -330.64819336 414.90454102 C-337.92702446 406.14167639 -343.73843751 396.66035262 -348.40991211 386.29516602 C-348.82672241 385.39000244 -348.82672241 385.39000244 -349.25195312 384.46655273 C-353.75880224 374.02689676 -355.13919929 363.2693086 -355.03491211 351.98266602 C-355.02588867 350.802771 -355.01686523 349.62287598 -355.00756836 348.40722656 C-354.50371016 322.91515057 -342.42020053 302.21662739 -325.17553711 284.01782227 C-321.87634104 280.53367126 -318.71111531 276.94520086 -315.59741211 273.29516602 C-314.77112305 272.40442383 -313.94483398 271.51368164 -313.09350586 270.59594727 C-310.13430217 267.02061087 -308.96347568 263.21979279 -307.53491211 258.85766602 C-302.93911175 245.73410276 -296.23207621 233.63255717 -289.65576172 221.41845703 C-283.33566224 209.55162885 -278.21859906 198.06693959 -278.09741211 184.35766602 C-277.36998597 164.8636057 -269.82573881 147.60431515 -256.59741211 133.29516602 C-255.67895508 132.25682617 -255.67895508 132.25682617 -254.74194336 131.19750977 C-246.70779531 122.58092881 -236.59477763 116.25575356 -226.34741211 110.60766602 C-210.44884493 101.82146742 -198.21880525 90.45365655 -186.97631836 76.18188477 C-183.38295664 71.82146718 -179.49668035 67.74797172 -175.61547852 63.64428711 C-172.61738908 60.47171001 -169.69572281 57.28327725 -166.90991211 53.92016602 C-153.02761629 37.84042136 -131.7232814 25.68252438 -110.59741211 23.29516602 C-108.44703022 23.18450159 -106.29838541 23.11685296 -104.14599609 23.05761719 C-86.43205421 22.4952989 -71.09082049 17.54773643 -54.54382324 11.5446167 C-42.71022072 7.2552353 -30.96299554 3.74342726 -18.59741211 1.29516602 C-17.83960449 1.11920898 -17.08179688 0.94325195 -16.30102539 0.76196289 C-10.92912708 -0.1655312 -5.4394389 0.02946087 0 0 Z M-48.32788086 33.02563477 C-49.00378265 33.2674649 -49.67968445 33.50929504 -50.37606812 33.75845337 C-53.72799492 34.96215601 -57.07338848 36.18092726 -60.41088867 37.42407227 C-72.88688088 42.02550826 -84.89911244 44.51978714 -98.15991211 45.23266602 C-107.19169131 45.84641113 -115.19677502 46.72862334 -123.59741211 50.29516602 C-124.46881836 50.65481445 -125.34022461 51.01446289 -126.23803711 51.38500977 C-132.81757931 54.38213252 -138.14406259 58.59971012 -143.59741211 63.29516602 C-144.38374023 63.9590332 -145.17006836 64.62290039 -145.98022461 65.30688477 C-150.99468618 69.63292026 -155.34764184 74.22877322 -159.59741211 79.29516602 C-160.48935855 80.33793125 -161.38270173 81.37950266 -162.27709961 82.42016602 C-166.4518144 87.27766449 -170.62221319 92.13845386 -174.75756836 97.02954102 C-186.41995172 110.79870113 -198.02062435 120.9157463 -213.96411133 129.58154297 C-231.26504398 139.06556991 -248.3795747 152.58437212 -254.1862793 172.29394531 C-255.4088329 177.30274075 -255.8843338 182.21082692 -256.17797852 187.34960938 C-257.33228123 206.99105145 -264.14698139 222.52560642 -273.39819336 239.62329102 C-273.79393555 240.50500977 -274.18967773 241.38672852 -274.59741211 242.29516602 C-274.26741211 242.95516602 -273.93741211 243.61516602 -273.59741211 244.29516602 C-272.64608398 243.89426758 -271.69475586 243.49336914 -270.71459961 243.08032227 C-259.56055392 238.51159018 -248.19478234 234.9619772 -236.58520508 231.75634766 C-221.68320982 227.49708575 -209.65223601 221.01043402 -198.40991211 210.18969727 C-182.47159898 195.04244012 -162.43821363 192.38151018 -141.32397461 192.90454102 C-128.58387276 193.4752629 -116.37296443 196.38726355 -104.32397461 200.46313477 C-97.77664894 202.46110091 -91.38551123 202.48699827 -84.59741211 202.48266602 C-83.53143799 202.48331055 -82.46546387 202.48395508 -81.3671875 202.48461914 C-74.53032309 202.44006941 -67.82862729 202.03211139 -61.03491211 201.29516602 C-29.57260523 197.9943551 4.14655964 198.10663038 30.11108398 218.64672852 C32.9529814 220.98083107 35.73871778 223.37626645 38.51196289 225.79125977 C41.71090571 228.56223591 44.78775118 231.09483063 48.40258789 233.29516602 C51.57556731 232.61302335 51.57556731 232.61302335 52.71899414 229.92407227 C53.13020508 228.9121582 53.54141602 227.90024414 53.96508789 226.85766602 C54.37887695 225.86895508 54.79266602 224.88024414 55.21899414 223.86157227 C58.12148205 215.11579185 58.87674188 206.26841131 59.43774414 197.12133789 C60.51664055 183.02443676 64.6609673 169.79514811 69.54867554 156.62149048 C80.44010341 127.18695833 88.2230794 98.75672853 75.84008789 68.38891602 C71.53572983 59.12518888 65.53383763 51.5474896 58.40258789 44.29516602 C57.37198242 43.24522461 57.37198242 43.24522461 56.32055664 42.17407227 C41.74376941 28.30043247 22.34558468 21.95735861 2.50415039 21.18188477 C-14.95132098 21.81942717 -32.01517746 27.18718411 -48.32788086 33.02563477 Z M-187.37866211 228.80688477 C-201.96928937 241.86921271 -217.90360795 247.76494982 -236.4934082 253.35864258 C-261.24384841 260.82621286 -280.7534998 269.7787301 -299.15991211 288.48266602 C-299.66287811 288.98962006 -300.16584412 289.4965741 -300.68405151 290.01889038 C-307.94010162 297.34248831 -314.86699239 304.68707901 -320.59741211 313.29516602 C-321.16975586 314.1343457 -321.74209961 314.97352539 -322.33178711 315.83813477 C-331.311793 329.81938156 -335.9933576 346.44640191 -332.5703125 362.88476562 C-327.53397401 384.5615617 -314.27352559 400.22543514 -298.59741211 415.29516602 C-296.20117726 417.66613935 -293.83120096 420.04549717 -291.52709961 422.50610352 C-277.3850851 437.40092489 -257.87552068 444.39188691 -238.53491211 449.85766602 C-229.463227 452.43668993 -220.56181062 455.09565287 -211.90209961 458.86547852 C-210.94683632 459.28036278 -210.94683632 459.28036278 -209.97227478 459.70362854 C-200.89195113 463.80072563 -193.22882928 469.63816768 -186.03491211 476.48266602 C-174.5389167 487.1967341 -160.22671503 490.99702333 -144.73413086 490.64672852 C-132.34107588 489.80988876 -120.02905382 486.34379116 -108.12768555 482.95849609 C-94.84492001 479.25720125 -81.2225316 479.85894946 -67.60986328 481.01416016 C-56.30107674 481.96991413 -45.03104409 482.5586286 -33.68423462 482.6496582 C-32.19634046 482.66307471 -30.70848822 482.683308 -29.22079468 482.71118164 C-10.45274351 483.0363038 5.69141283 478.95347783 19.67211914 465.79516602 C22.81173369 462.9205547 26.06626002 460.24879374 29.40258789 457.60766602 C29.94761963 457.16849854 30.49265137 456.72933105 31.05419922 456.27685547 C39.66726206 449.50465598 49.19935931 444.83010279 59.15258789 440.35766602 C61.46957524 439.29904109 63.78598772 438.23915703 66.10180664 437.17797852 C67.74608643 436.42629395 67.74608643 436.42629395 69.42358398 435.65942383 C85.39865783 428.34351556 100.96480624 419.92139891 113.40258789 407.29516602 C114.02133789 406.68672852 114.64008789 406.07829102 115.27758789 405.45141602 C129.37339223 390.6004793 135.97640293 369.72948492 135.75366211 349.56689453 C135.05594074 328.15465515 125.58090995 307.92723638 110.14086914 293.12719727 C95.01669701 280.53589776 77.58175847 272.2390789 59.91821289 263.87329102 C57.41167894 262.68334956 54.90660256 261.49039926 52.40258789 260.29516602 C51.77286072 259.99528778 51.14313354 259.69540955 50.49432373 259.38644409 C43.5814599 256.07740137 36.93327949 252.80275467 31.02758789 247.85766602 C30.44726807 247.3888501 29.86694824 246.92003418 29.26904297 246.43701172 C26.02771871 243.77966083 23.00691889 240.99768737 20.09008789 237.98266602 C8.89818541 226.43733504 -7.23229825 221.39470038 -23.07397461 221.02954102 C-25.45677939 221.02154614 -27.83966057 221.02734391 -30.22241211 221.04516602 C-31.49713379 221.0490332 -32.77185547 221.05290039 -34.08520508 221.05688477 C-42.01092594 221.12799404 -49.83517538 221.5343329 -57.72241211 222.29516602 C-75.64590992 224.01087572 -94.08943939 225.13941991 -111.59741211 220.29516602 C-114.72097232 219.43566287 -117.84602366 218.58182399 -120.97241211 217.73266602 C-121.76510498 217.51497559 -122.55779785 217.29728516 -123.37451172 217.07299805 C-146.59826093 210.90363566 -168.97035642 212.18253005 -187.37866211 228.80688477 Z " fill="#000000" transform="translate(354.597412109375,-0.295166015625)"/>
<path d="M0 0 C3.64523698 0.01611208 7.28936587 0.00000862 10.93457031 -0.01904297 C46.61197585 -0.051471 85.45730918 3.70900222 117.64550781 20.39111328 C118.6084375 20.87451172 119.57136719 21.35791016 120.56347656 21.85595703 C134.03217116 28.85967822 146.74997048 38.96398005 152.45800781 53.45361328 C154.9734038 62.11775502 154.25127387 71.16586046 150.64550781 79.39111328 C143.67244305 91.6553925 133.81300263 99.607338 121.64550781 106.39111328 C120.73414063 106.91447266 119.82277344 107.43783203 118.88378906 107.97705078 C89.60213146 123.76658941 52.5839175 128.46960497 19.77050781 128.59423828 C18.56652344 128.59993835 17.36253906 128.60563843 16.12207031 128.61151123 C13.58073793 128.62090504 11.03939367 128.62747267 8.49804688 128.63134766 C4.7110303 128.64094719 0.92458258 128.67198175 -2.86230469 128.70361328 C-28.12210521 128.81357715 -52.80624812 126.46409951 -77.35449219 120.39111328 C-78.22509277 120.17616211 -79.09569336 119.96121094 -79.99267578 119.73974609 C-102.72958468 113.93955847 -127.60507502 103.606397 -141.22949219 83.45361328 C-146.07765496 74.98191017 -147.80095049 65.96044472 -145.69824219 56.41064453 C-143.57245109 49.18112221 -140.39608592 43.93902092 -135.35449219 38.39111328 C-134.85433594 37.79943359 -134.35417969 37.20775391 -133.83886719 36.59814453 C-103.30082333 2.8983335 -41.55563318 -0.21718972 0 0 Z M-121.35449219 56.39111328 C-123.72953031 60.22657857 -124.02367888 63.97276522 -123.35449219 68.39111328 C-116.97562988 81.41462382 -101.03440047 88.38388047 -88.04199219 93.01611328 C-69.33444665 99.38540679 -50.00423379 103.42107848 -30.35449219 105.39111328 C-29.42185547 105.48537598 -28.48921875 105.57963867 -27.52832031 105.67675781 C-17.48051683 106.57171035 -7.43466084 106.6344571 2.64550781 106.64111328 C3.56869812 106.64178802 4.49188843 106.64246277 5.4430542 106.64315796 C29.984742 106.61482983 53.76739991 104.27367292 77.64550781 98.39111328 C78.43344727 98.19791504 79.22138672 98.0047168 80.03320312 97.80566406 C98.45686125 93.15367035 117.81223973 85.96120286 129.64550781 70.39111328 C131.25757426 67.16698038 131.09238128 63.88724101 130.64550781 60.39111328 C125.091987 48.8011568 112.74635774 43.36185208 101.64550781 38.39111328 C100.62972656 37.92833984 99.61394531 37.46556641 98.56738281 36.98876953 C69.33541064 24.75667423 35.98531935 22.16180773 4.64550781 22.14111328 C3.7223175 22.14043854 2.7991272 22.13976379 1.84796143 22.1390686 C-37.77609593 22.1848061 -92.18042781 25.53392981 -121.35449219 56.39111328 Z " fill="#000000" transform="translate(252.3544921875,287.60888671875)"/>
<path d="M0 0 C3.59545658 0.83566276 5.4492076 2.8518369 8 5.46484375 C9.61250352 8.68985079 9.4293526 11.96589374 9 15.46484375 C8.04473094 18.21028563 6.68556131 20.60555094 5.1875 23.08984375 C4.78442627 23.77860596 4.38135254 24.46736816 3.96606445 25.17700195 C-0.40027305 32.44311448 -5.48431061 39.04198086 -11 45.46484375 C-11.47840332 46.02300781 -11.95680664 46.58117187 -12.44970703 47.15625 C-23.41666156 59.79886425 -35.63313356 69.90510379 -50 78.46484375 C-50.78503906 78.94179687 -51.57007813 79.41875 -52.37890625 79.91015625 C-57.20532223 82.61143799 -60.61861537 83.15921596 -66 82.46484375 C-71.5 79.46484375 -71.5 79.46484375 -73 76.46484375 C-73.203125 74.4765625 -73.203125 74.4765625 -73.25 72.15234375 C-73.27578125 71.39308594 -73.3015625 70.63382812 -73.328125 69.8515625 C-72.89140023 66.67490967 -71.9649396 65.00746746 -70 62.46484375 C-67.06640625 60.54296875 -67.06640625 60.54296875 -63.5625 58.71484375 C-42.36097678 47.19108242 -26.47019424 30.48405436 -14.43505859 9.79418945 C-10.8989036 3.83606209 -7.54943046 -0.35745409 0 0 Z " fill="#000000" transform="translate(258,94.53515625)"/>
<path d="M0 0 C3.72158404 2.9979427 5.02722845 5.47587067 5.8125 10.1875 C5.04326812 15.14477212 2.97905731 17.67431445 -0.75 20.8125 C-3.54148544 22.66644109 -6.36493018 24.44064064 -9.21777344 26.19702148 C-22.42000531 34.47353876 -32.13477518 46.08909168 -40.109375 59.3671875 C-42.73966702 63.28757513 -44.54443967 65.5056301 -49.1875 66.6875 C-53.92215684 66.85362831 -56.25672442 65.93245669 -60 63.125 C-62.40535153 59.94649976 -62.68268639 57.78400285 -62.75 53.8125 C-55.76906618 31.12446509 -33.38442531 12.50634455 -13.75 0.625 C-8.96010994 -1.850977 -5.01995844 -2.16770933 0 0 Z " fill="#000000" transform="translate(394.75,120.1875)"/>
<path d="M0 0 C2.99297568 2.78416342 3.92746162 4.46305123 4.6171875 8.41796875 C4.73993278 12.05259296 3.8894209 14.69271716 1.6875 17.5 C-1.11627572 19.84148294 -4.16813264 21.65232794 -7.3125 23.5 C-19.79897602 31.10606873 -30.16203615 40.0649437 -40.3125 50.5 C-46.08127412 56.41926388 -46.08127412 56.41926388 -51.125 56.75 C-54.96124143 56.69430139 -57.28386796 55.99416756 -60.3125 53.5 C-62.55885416 50.61183037 -62.93518895 47.30628031 -62.7890625 43.6796875 C-61.76558274 38.99852599 -58.50239346 35.91952585 -55.3125 32.5 C-54.79703613 31.9436084 -54.28157227 31.3872168 -53.75048828 30.81396484 C-17.50603411 -7.92726073 -17.50603411 -7.92726073 0 0 Z " fill="#000000" transform="translate(374.3125,47.5)"/>
</svg>
