<?xml version="1.0" encoding="UTF-8"?>
<svg version="1.0" xmlns="http://www.w3.org/2000/svg" width="512" height="512">
<path d="M0 0 C16.06201928 6.26709279 27.17783441 17.80791495 34.7734375 33.1171875 C38.7734375 42.5136372 38.7734375 42.5136372 38.7734375 47.1171875 C39.95377563 47.09652222 39.95377563 47.09652222 41.15795898 47.07543945 C79.26443072 46.70038131 120.31104826 54.69593023 154.7734375 71.1171875 C155.8459375 71.61863281 156.9184375 72.12007813 158.0234375 72.63671875 C167.12096711 77.22338993 175.84449175 83.68199033 179.98828125 93.26171875 C183.17113775 104.83718195 180.49375796 114.02150287 174.7734375 124.1171875 C175.53785156 124.73722656 176.30226563 125.35726562 177.08984375 125.99609375 C207.1717092 150.71928486 231.83296289 183.16245725 235.7734375 223.1171875 C240.29826063 294.15790083 206.52018436 369.12937694 164.7734375 425.1171875 C164.34756348 425.6932373 163.92168945 426.26928711 163.48291016 426.86279297 C160.6541885 430.67522601 157.74871605 434.41813065 154.7734375 438.1171875 C154.35223633 438.64280273 153.93103516 439.16841797 153.49707031 439.70996094 C140.48276191 455.79102658 125.70216543 471.15226551 108.7734375 483.1171875 C108.18288574 483.5414502 107.59233398 483.96571289 106.98388672 484.40283203 C93.07952682 494.32080789 78.05103092 501.91805223 61.7734375 507.1171875 C60.79793945 507.43478027 60.79793945 507.43478027 59.80273438 507.75878906 C39.66346426 514.0188282 15.8123555 513.46475731 -4.2265625 507.1171875 C-5.42539063 506.75496094 -6.62421875 506.39273437 -7.859375 506.01953125 C-27.32585222 499.59602926 -45.90817656 488.67772588 -61.2265625 475.1171875 C-62.60134766 473.90675781 -62.60134766 473.90675781 -64.00390625 472.671875 C-76.23038551 461.67624936 -88.24889055 450.21901575 -98.2265625 437.1171875 C-98.75540039 436.43769043 -99.28423828 435.75819336 -99.82910156 435.05810547 C-126.07103586 401.32361669 -146.69778435 363.30907737 -161.2265625 323.1171875 C-161.74210693 321.71001465 -161.74210693 321.71001465 -162.26806641 320.27441406 C-166.64198705 308.21791015 -170.16891926 296.03261653 -173.1015625 283.5546875 C-173.53106201 281.73698853 -173.53106201 281.73698853 -173.96923828 279.88256836 C-177.05656961 266.26433687 -178.62186578 252.8948104 -178.6015625 238.9296875 C-178.60068634 238.25909302 -178.59981018 237.58849854 -178.59890747 236.89758301 C-178.42303788 195.80617095 -158.99688771 163.78108319 -130.69482422 135.39331055 C-126.48824103 131.25383206 -122.02515439 127.55860189 -117.2265625 124.1171875 C-117.87625 122.97056641 -117.87625 122.97056641 -118.5390625 121.80078125 C-123.40678562 112.43717496 -125.51637981 103.63943823 -122.3359375 93.19140625 C-114.96447938 76.99876992 -96.51977 70.04510518 -80.86181641 64.07861328 C-55.1015129 54.68042214 -23.78355545 47.11511503 3.7734375 48.1171875 C-1.72280972 38.22016501 -5.50977121 34.58047997 -16.33984375 31.18359375 C-20.74856299 29.55493292 -23.8045804 27.37853403 -26.3515625 23.328125 C-28.14250038 18.80280875 -27.73799774 13.8863211 -27.2265625 9.1171875 C-21.97670673 -2.19019415 -11.04699039 -3.02254216 0 0 Z M-87.2265625 103.1171875 C-87.2265625 103.7771875 -87.2265625 104.4371875 -87.2265625 105.1171875 C-80.6907272 108.5633552 -74.6028744 109.96104904 -67.34399414 110.90161133 C-61.38491456 111.76735537 -57.16918465 113.58190097 -53.3828125 118.5234375 C-50.79593958 124.32642269 -51.42464779 130.59647352 -53.31640625 136.54296875 C-54.20084955 138.76561322 -55.11031108 140.97849773 -56.046875 143.1796875 C-57.41424007 146.58451708 -57.97284148 149.48051958 -58.2265625 153.1171875 C-46.60615658 155.48430722 -37.80187827 150.41504619 -28.2265625 144.1171875 C-25.75382102 142.3012119 -23.3444973 140.44062874 -20.96875 138.5 C-17.78795575 135.97533372 -15.49028245 135.89953909 -11.4765625 135.8046875 C-10.45046875 135.76730469 -9.424375 135.72992188 -8.3671875 135.69140625 C-4.20792222 136.25528674 -2.39597296 137.33921817 0.7734375 140.1171875 C2.8179143 143.17066031 4.44165536 146.39745899 6.0859375 149.6796875 C13.50439368 164.05165808 13.50439368 164.05165808 25.7734375 174.1171875 C29.75371938 174.80941044 31.4962734 174.26361382 35.0859375 172.3671875 C43.65860684 165.58441615 48.92736408 155.61465241 53.50341797 145.90527344 C55.8180402 141.19277706 57.89901363 138.52067701 62.7734375 136.1171875 C68.0113848 135.18963433 73.03033968 135.2634253 77.8359375 137.6171875 C78.8053125 138.4421875 79.7746875 139.2671875 80.7734375 140.1171875 C90.42315617 147.59650019 100.06772255 154.44905319 112.7734375 154.1171875 C113.7634375 153.7871875 114.7534375 153.4571875 115.7734375 153.1171875 C114.92290804 147.85733425 113.87335404 143.10228889 111.6484375 138.2421875 C109.26712359 132.56642427 108.90502436 127.19607946 109.7734375 121.1171875 C111.96640425 116.48759102 114.25350869 114.38022669 118.7734375 112.1171875 C121.54262294 111.54166402 124.23070169 111.06935014 127.0234375 110.6796875 C133.52048454 109.66928299 138.90484662 108.21153542 144.7734375 105.1171875 C144.7734375 104.4571875 144.7734375 103.7971875 144.7734375 103.1171875 C114.74196049 88.51855284 78.2843539 79.65075741 44.7734375 80.1171875 C44.75941895 81.02428467 44.75941895 81.02428467 44.74511719 81.94970703 C44.69112028 84.7146663 44.60753356 87.47798656 44.5234375 90.2421875 C44.50925781 91.19351563 44.49507812 92.14484375 44.48046875 93.125 C44.28023043 98.89186375 43.79951891 102.66073187 39.7734375 107.1171875 C34.55083893 111.17349148 29.12003608 110.89116294 22.7734375 110.1171875 C18.16686144 107.93512516 15.91739798 105.68782852 13.7734375 101.1171875 C13.13006154 97.53044956 12.8518025 93.93654972 12.5859375 90.3046875 C12.50408203 89.32564453 12.42222656 88.34660156 12.33789062 87.33789062 C12.1383507 84.93167383 11.95059095 82.52513862 11.7734375 80.1171875 C-21.70224184 80.1171875 -57.16744285 88.81369337 -87.2265625 103.1171875 Z M-113.4765625 164.9296875 C-134.81877126 186.49312492 -145.52294255 211.88315068 -145.54125977 242.26123047 C-144.82542984 306.31318388 -106.72824468 377.12451352 -65.2265625 424.1171875 C-64.49179688 424.9628125 -63.75703125 425.8084375 -63 426.6796875 C-60.78064425 429.19764748 -58.51884007 431.66541489 -56.2265625 434.1171875 C-55.77120117 434.60654785 -55.31583984 435.0959082 -54.84667969 435.60009766 C-33.45526676 458.38968853 -5.68758898 477.26567633 26.328125 479.1171875 C48.57328359 479.1171875 68.78244542 470.78798621 86.7734375 458.1171875 C88.28164063 457.05564453 88.28164063 457.05564453 89.8203125 455.97265625 C97.70930945 450.18707741 104.66001896 443.51148639 111.5859375 436.6171875 C112.45718262 435.7514209 113.32842773 434.8856543 114.22607422 433.99365234 C161.74276799 385.95271124 202.67384933 307.22407647 203.2734375 238.7421875 C203.18929791 228.39983963 202.05791997 218.9250171 198.7734375 209.1171875 C198.46792969 208.17407715 198.46792969 208.17407715 198.15625 207.21191406 C192.90820609 191.45968349 183.85021641 178.27681375 172.2109375 166.56933594 C170.85706729 165.20166949 169.53289611 163.80478548 168.2109375 162.40625 C162.26189167 156.20932726 155.86481806 150.95381279 148.7734375 146.1171875 C148.4434375 146.1171875 148.1134375 146.1171875 147.7734375 146.1171875 C147.8353125 148.004375 147.8353125 148.004375 147.8984375 149.9296875 C147.83663022 159.78794883 146.16217256 168.33603582 139.7734375 176.1171875 C131.19078339 183.76413872 120.01795043 186.48468843 108.73828125 186.33203125 C98.04036757 185.55682011 88.46225643 182.55179798 78.7734375 178.1171875 C77.11042902 177.44144714 75.44484679 176.77187309 73.7734375 176.1171875 C73.25394531 176.84164062 72.73445312 177.56609375 72.19921875 178.3125 C70.0734451 181.25950598 67.92560807 184.18942339 65.7734375 187.1171875 C64.62875 188.695 64.62875 188.695 63.4609375 190.3046875 C53.39117843 200.84280745 42.24509588 206.31232973 27.7734375 207.1171875 C15.62614813 206.7971209 4.73106906 200.79221805 -4.015625 192.58203125 C-8.59223645 187.47983722 -12.40630557 181.79573225 -16.2265625 176.1171875 C-16.89429688 176.3853125 -17.56203125 176.6534375 -18.25 176.9296875 C-19.72339844 177.5175 -19.72339844 177.5175 -21.2265625 178.1171875 C-22.41507812 178.5915625 -23.60359375 179.0659375 -24.828125 179.5546875 C-40.54224044 185.71012989 -54.7328446 188.52761149 -71.2265625 183.1171875 C-79.70879153 179.15501877 -84.73299892 174.33153046 -88.41015625 165.72265625 C-90.38642328 159.41562223 -90.27442709 152.67463663 -90.2265625 146.1171875 C-96.99780134 146.1171875 -108.94288548 160.44835743 -113.4765625 164.9296875 Z " fill="#000000" transform="translate(227.2265625,0.8828125)"/>
<path d="M0 0 C4.96527422 2.30530589 7.42203495 5.22002314 10 10 C10.56905365 13.34860632 10.55981319 16.61058582 10.5 20 C10.51546875 20.8765625 10.5309375 21.753125 10.546875 22.65625 C10.51303988 28.2728791 9.73998492 31.55876791 6 36 C2.18069828 39.62833663 -0.88279006 40.31000458 -6 40.5 C-11.11720994 40.31000458 -14.18069828 39.62833663 -18 36 C-22.42319554 30.74745529 -22.61590396 26.56789127 -22.5 20 C-22.51546875 19.1234375 -22.5309375 18.246875 -22.546875 17.34375 C-22.51303988 11.7271209 -21.73998492 8.44123209 -18 4 C-12.72867143 -1.00776214 -6.89190982 -0.92775709 0 0 Z " fill="#000000" transform="translate(262,384)"/>
<path d="M0 0 C4.96527422 2.30530589 7.42203495 5.22002314 10 10 C10.56905365 13.34860632 10.55981319 16.61058582 10.5 20 C10.51546875 20.8765625 10.5309375 21.753125 10.546875 22.65625 C10.51303988 28.2728791 9.73998492 31.55876791 6 36 C2.18069828 39.62833663 -0.88279006 40.31000458 -6 40.5 C-11.11720994 40.31000458 -14.18069828 39.62833663 -18 36 C-22.42319554 30.74745529 -22.61590396 26.56789127 -22.5 20 C-22.51546875 19.1234375 -22.5309375 18.246875 -22.546875 17.34375 C-22.51303988 11.7271209 -21.73998492 8.44123209 -18 4 C-12.72867143 -1.00776214 -6.89190982 -0.92775709 0 0 Z " fill="#000000" transform="translate(318,320)"/>
<path d="M0 0 C4.96527422 2.30530589 7.42203495 5.22002314 10 10 C10.56905365 13.34860632 10.55981319 16.61058582 10.5 20 C10.51546875 20.8765625 10.5309375 21.753125 10.546875 22.65625 C10.51303988 28.2728791 9.73998492 31.55876791 6 36 C2.18069828 39.62833663 -0.88279006 40.31000458 -6 40.5 C-11.11720994 40.31000458 -14.18069828 39.62833663 -18 36 C-22.42319554 30.74745529 -22.61590396 26.56789127 -22.5 20 C-22.51546875 19.1234375 -22.5309375 18.246875 -22.546875 17.34375 C-22.51303988 11.7271209 -21.73998492 8.44123209 -18 4 C-12.72867143 -1.00776214 -6.89190982 -0.92775709 0 0 Z " fill="#000000" transform="translate(206,320)"/>
<path d="M0 0 C4.96527422 2.30530589 7.42203495 5.22002314 10 10 C10.56905365 13.34860632 10.55981319 16.61058582 10.5 20 C10.51546875 20.8765625 10.5309375 21.753125 10.546875 22.65625 C10.51303988 28.2728791 9.73998492 31.55876791 6 36 C2.18069828 39.62833663 -0.88279006 40.31000458 -6 40.5 C-11.11720994 40.31000458 -14.18069828 39.62833663 -18 36 C-22.42319554 30.74745529 -22.61590396 26.56789127 -22.5 20 C-22.51546875 19.1234375 -22.5309375 18.246875 -22.546875 17.34375 C-22.51303988 11.7271209 -21.73998492 8.44123209 -18 4 C-12.72867143 -1.00776214 -6.89190982 -0.92775709 0 0 Z " fill="#000000" transform="translate(374,240)"/>
<path d="M0 0 C4.96527422 2.30530589 7.42203495 5.22002314 10 10 C10.56905365 13.34860632 10.55981319 16.61058582 10.5 20 C10.51546875 20.8765625 10.5309375 21.753125 10.546875 22.65625 C10.51303988 28.2728791 9.73998492 31.55876791 6 36 C2.18069828 39.62833663 -0.88279006 40.31000458 -6 40.5 C-11.11720994 40.31000458 -14.18069828 39.62833663 -18 36 C-22.42319554 30.74745529 -22.61590396 26.56789127 -22.5 20 C-22.51546875 19.1234375 -22.5309375 18.246875 -22.546875 17.34375 C-22.51303988 11.7271209 -21.73998492 8.44123209 -18 4 C-12.72867143 -1.00776214 -6.89190982 -0.92775709 0 0 Z " fill="#000000" transform="translate(262,240)"/>
<path d="M0 0 C4.96527422 2.30530589 7.42203495 5.22002314 10 10 C10.56905365 13.34860632 10.55981319 16.61058582 10.5 20 C10.51546875 20.8765625 10.5309375 21.753125 10.546875 22.65625 C10.51303988 28.2728791 9.73998492 31.55876791 6 36 C2.18069828 39.62833663 -0.88279006 40.31000458 -6 40.5 C-11.11720994 40.31000458 -14.18069828 39.62833663 -18 36 C-22.42319554 30.74745529 -22.61590396 26.56789127 -22.5 20 C-22.51546875 19.1234375 -22.5309375 18.246875 -22.546875 17.34375 C-22.51303988 11.7271209 -21.73998492 8.44123209 -18 4 C-12.72867143 -1.00776214 -6.89190982 -0.92775709 0 0 Z " fill="#000000" transform="translate(150,240)"/>
</svg>
