<?xml version="1.0" encoding="UTF-8"?>
<svg version="1.0" xmlns="http://www.w3.org/2000/svg" width="512" height="512">
<path d="M0 0 C0.73467499 0.00215515 1.46934998 0.0043103 2.22628784 0.00653076 C36.94091205 0.16859761 70.94022911 7.53504539 101.5 24.3125 C102.45084473 24.83432861 102.45084473 24.83432861 103.42089844 25.36669922 C115.37979328 32.02916358 126.6872033 39.92300299 136.12890625 49.90625 C137.60926901 51.48942011 137.60926901 51.48942011 140 53.25 C143.6271281 56.24238068 146.48651731 59.71246443 149.5 63.3125 C149.9434375 63.8276416 150.386875 64.3427832 150.84375 64.87353516 C164.51023566 80.77082018 175.39272849 98.57511262 186.20117188 116.48706055 C189.87651817 122.52435732 193.42261583 128.22677873 199.4375 132.1875 C208.41420742 138.75129546 212.22403812 148.03887757 215.12109375 158.5703125 C215.71591637 162.87511126 215.7255276 167.15920804 215.75 171.5 C215.7809375 172.84288086 215.7809375 172.84288086 215.8125 174.21289062 C215.87099452 184.33975493 213.55753227 192.8660833 206.5 200.3125 C204.79843448 201.75800469 203.08937332 203.19470872 201.375 204.625 C194.29544624 210.90092874 189.87671792 218.60527816 185.07226562 226.67578125 C182.38318402 231.18542122 179.63083133 235.65593119 176.875 240.125 C176.33093506 241.00816895 175.78687012 241.89133789 175.22631836 242.80126953 C165.99309866 257.68512512 155.4881836 271.52757468 143.5 284.3125 C143.02965332 284.8168457 142.55930664 285.32119141 142.07470703 285.84082031 C114.57675566 315.09244485 75.64121752 332.12301003 35.51171875 333.40820312 C32.42387214 333.44605415 29.33804569 333.4477704 26.25 333.4375 C24.60149048 333.44873901 24.60149048 333.44873901 22.91967773 333.46020508 C13.73377834 333.47306195 13.73377834 333.47306195 9.17578125 332.62890625 C3.30929407 331.60782037 -0.61556787 331.47059529 -5.66796875 334.75390625 C-8.75453198 336.96861114 -11.72197704 339.32113022 -14.69921875 341.6796875 C-49.0547593 368.56539857 -97.53532575 374.10093009 -139.5 369.125 C-188.12082582 362.69244736 -236.31425948 344.18908714 -267.25 304.5 C-280.25639026 286.27171327 -288.65363069 267.13253836 -293.5 245.3125 C-293.66516113 244.60561035 -293.83032227 243.8987207 -294.00048828 243.17041016 C-299.03355659 220.90936244 -298.96102573 194.20947027 -292.5 172.3125 C-292.25330566 171.45946289 -292.00661133 170.60642578 -291.75244141 169.72753906 C-284.6297344 145.65287682 -273.15907754 123.94267455 -257.5 104.3125 C-256.78328125 103.40371094 -256.0665625 102.49492187 -255.328125 101.55859375 C-226.80535135 66.00627128 -189.86322688 38.91387749 -145.875 26.0625 C-144.62360229 25.69294189 -144.62360229 25.69294189 -143.34692383 25.31591797 C-132.4608933 22.25279961 -121.85702081 21.15974238 -110.58837891 21.1887207 C-96.50843172 21.21610879 -85.31366831 19.91490351 -72.64941406 13.34814453 C-63.07583224 8.73533966 -52.15582046 6.29166389 -41.8125 4.0625 C-40.76449219 3.83578613 -40.76449219 3.83578613 -39.6953125 3.60449219 C-26.51760745 0.94614823 -13.41578823 -0.07171245 0 0 Z M-58.5 25.3125 C-55.27193941 27.46454039 -52.58538568 28.26665139 -48.875 29.375 C-10.26750118 41.7015761 17.1991876 74.11254194 35.32714844 108.97119141 C58.77963002 155.788281 62.93414713 209.20500331 47.0078125 259.10546875 C40.09034233 279.59728237 29.40551761 299.04363419 14.6796875 314.95703125 C13.39058307 316.13873241 13.39058307 316.13873241 13.5 317.3125 C29.11065587 317.65387915 44.20302432 317.68662105 59.5 314.3125 C60.16386719 314.16796387 60.82773437 314.02342773 61.51171875 313.87451172 C93.54819658 306.65671245 121.4209152 288.13927009 141.5 262.3125 C142.15355469 261.52488281 142.80710937 260.73726562 143.48046875 259.92578125 C152.23990926 249.34801377 159.30989246 237.67162911 166.44790649 225.97265625 C182.56431973 199.58427933 182.56431973 199.58427933 194.20703125 189.46875 C199.23770258 184.73803352 200.11781489 179.13992476 200.5625 172.4140625 C200.38514167 163.61265558 198.62475457 153.97050435 192.5 147.3125 C191.10976786 146.19544577 189.69046194 145.11398702 188.25 144.0625 C178.15085189 136.56690896 172.36491419 124.90026845 166.01171875 114.31103516 C138.85399682 69.32197171 102.79907177 35.12549547 50.97314453 21.65576172 C34.62761298 17.7027095 18.29310906 15.89358825 1.5 15.9375 C0.74397491 15.93771149 -0.01205017 15.93792297 -0.79098511 15.93814087 C-20.75337237 15.99345141 -39.44536461 19.44213253 -58.5 25.3125 Z M-233.5 100.3125 C-254.8092046 124.60650454 -270.16301603 152.78906306 -277.5 184.3125 C-277.66371094 184.98829102 -277.82742188 185.66408203 -277.99609375 186.36035156 C-285.45469948 218.2751707 -280.98883321 253.91118347 -264.5 282.3125 C-248.77221987 306.70989664 -226.68724999 322.09197364 -198.5390625 328.46484375 C-189.58333999 330.39365223 -180.67437649 332.01292852 -171.5 332.3125 C-170.43910156 332.3640625 -169.37820312 332.415625 -168.28515625 332.46875 C-121.62409559 333.70617039 -78.5167904 314.26429632 -44.5 283.3125 C-43.75492188 282.63960937 -43.00984375 281.96671875 -42.2421875 281.2734375 C-7.44939033 248.17097865 8.18552129 200.56432098 10.6875 153.80859375 C11.33755386 122.64663678 4.7125517 89.92652056 -17.20703125 66.6484375 C-17.96371094 65.87757813 -18.72039062 65.10671875 -19.5 64.3125 C-20.16386719 63.62414062 -20.82773437 62.93578125 -21.51171875 62.2265625 C-43.15686901 41.36476054 -76.49968676 36.6090839 -105.25 36.0625 C-155.63469892 37.17488946 -199.83898529 64.25590212 -233.5 100.3125 Z M24.5 124.3125 C24.52356567 126.2910498 24.52356567 126.2910498 24.54760742 128.30957031 C24.60279307 133.30446012 24.63666508 138.29932437 24.66479492 143.29443359 C24.67968319 145.43738365 24.70000046 147.58030437 24.72631836 149.72314453 C24.96668604 169.82919415 22.84653324 188.91261094 17.5 208.3125 C17.21697021 209.34262207 17.21697021 209.34262207 16.92822266 210.39355469 C9.21332067 237.55051515 -5.12659423 262.08539918 -23.5 283.3125 C-24.01884766 283.91255859 -24.53769531 284.51261719 -25.07226562 285.13085938 C-31.65168903 292.66333776 -38.55656657 299.19792919 -46.5 305.3125 C-47.46035156 306.10011719 -48.42070312 306.88773438 -49.41015625 307.69921875 C-74.59626723 327.9818391 -105.71214002 340.31312305 -137.5 345.3125 C-138.6859375 345.5084375 -139.871875 345.704375 -141.09375 345.90625 C-147.68516677 346.69012508 -154.372237 346.41624841 -161 346.375 C-162.40885258 346.36997533 -163.81770689 346.36541413 -165.2265625 346.36132812 C-168.65108638 346.3496003 -172.07552047 346.33318691 -175.5 346.3125 C-172.83364185 348.97885815 -170.51429787 349.33180499 -166.875 350.3125 C-165.68648437 350.6425 -164.49796875 350.9725 -163.2734375 351.3125 C-149.58228624 354.44009316 -135.7823559 354.68340358 -121.8125 354.625 C-120.42111313 354.62176727 -120.42111313 354.62176727 -119.00161743 354.61846924 C-74.76452486 354.45344283 -34.66970767 341.30469275 -2.5 310.3125 C-1.79488281 309.67054688 -1.08976563 309.02859375 -0.36328125 308.3671875 C27.37438679 282.37367303 40.46109692 240.92650119 41.78515625 203.875 C42.33571349 177.37967759 38.05317978 150.39322413 26.5 126.3125 C25.51 125.3225 25.51 125.3225 24.5 124.3125 Z " fill="#000000" transform="translate(296.5,70.6875)"/>
<path d="M0 0 C13.07420832 -0.24370783 25.18673565 2.27777011 37.74902344 5.60644531 C39.67069688 6.1006971 41.60485636 6.54560727 43.5390625 6.98828125 C65.43678754 12.19763478 84.68432526 24.60994525 96.69628906 43.87719727 C108.24400956 63.06190033 114.15493269 88.30395463 108.890625 110.54296875 C107.95982546 113.47026585 106.89528038 116.27399112 105.75 119.12109375 C104.69427849 123.22216575 104.58604705 127.21061341 104.4375 131.43359375 C103.30505194 153.50357815 94.39170222 175.60525365 79.75 192.12109375 C79.20859375 192.745 78.6671875 193.36890625 78.109375 194.01171875 C73.12885738 199.37907269 67.05105193 203.43990256 60.75 207.12109375 C60.09 207.12109375 59.43 207.12109375 58.75 207.12109375 C58.481875 207.85972656 58.21375 208.59835937 57.9375 209.359375 C49.70170631 228.51301362 28.39486377 240.07246805 10.08984375 247.6328125 C-7.95090991 254.16988646 -26.84813437 255.28475605 -45.80859375 253.32421875 C-48.61423789 253.15861887 -51.29428284 253.14660945 -54.09765625 253.23046875 C-76.17178066 253.86237322 -94.80736063 247.01898072 -111.24609375 232.03125 C-123.64313468 220.23681548 -132.28224634 206.37677965 -134.25 189.12109375 C-134.28164855 185.38656539 -134.18708114 181.66683922 -134.09375 177.93359375 C-134.31526111 172.52872261 -135.68711576 167.80311694 -137.27734375 162.65625 C-144.47272285 136.50437014 -136.09847465 108.00115152 -123.25 85.12109375 C-115.4791458 71.72044103 -105.98368542 58.19013964 -93.1875 49.18359375 C-88.58950217 45.86980234 -85.59467968 41.63988732 -82.25 37.12109375 C-76.63148498 29.78700162 -69.7072455 24.45284416 -62.25 19.12109375 C-61.47140625 18.56421875 -60.6928125 18.00734375 -59.890625 17.43359375 C-42.45538265 6.05740725 -20.60481511 0.76772749 0 0 Z M-68.25 47.12109375 C-69.28133192 48.43034248 -70.29794026 49.75311713 -71.25 51.12109375 C-69.58922701 55.26799357 -66.59019055 58.18825542 -63.5625 61.37109375 C-62.46798673 62.53834726 -61.37423255 63.70631304 -60.28125 64.875 C-59.7553125 65.43590332 -59.229375 65.99680664 -58.6875 66.57470703 C-56.3812939 69.05560198 -54.16608342 71.61147682 -51.94921875 74.171875 C-48.43595331 78.20203466 -44.83316944 82.15315443 -41.25 86.12109375 C-26.15774194 102.83399698 -26.15774194 102.83399698 -23.6796875 106.34765625 C-23.20789063 106.93289062 -22.73609375 107.518125 -22.25 108.12109375 C-21.59 108.12109375 -20.93 108.12109375 -20.25 108.12109375 C-11.99625431 91.2209469 -3.79640781 74.30454067 4.06591797 57.21801758 C6.73370832 51.42970824 9.43717945 45.66233952 12.22265625 39.9296875 C12.78307617 38.7746875 13.34349609 37.6196875 13.92089844 36.4296875 C14.99054504 34.23312589 16.0651739 32.03898129 17.14550781 29.84765625 C17.61956055 28.87441406 18.09361328 27.90117187 18.58203125 26.8984375 C19.00202393 26.04499756 19.4220166 25.19155762 19.85473633 24.31225586 C20.93911359 22.05273733 20.93911359 22.05273733 20.75 19.12109375 C-11.42469543 11.89951882 -45.73815219 23.51610614 -68.25 47.12109375 Z M37.75 24.12109375 C37.44521729 24.7860083 37.14043457 25.45092285 36.82641602 26.13598633 C30.13172491 40.71303665 23.29004404 55.20753409 16.25 69.62109375 C10.79886211 80.78526897 5.41868625 91.97698765 0.1875 103.24609375 C-0.64394531 105.03370117 -0.64394531 105.03370117 -1.4921875 106.85742188 C-3.98492951 111.31780823 -3.98492951 111.31780823 -5.25 116.12109375 C12.83552208 115.50116339 30.90876814 114.72572484 48.98217773 113.81884766 C52.32892926 113.65152041 55.67580589 113.4873917 59.02279186 113.32486725 C62.27965355 113.16592261 65.53629709 113.00262839 68.79296875 112.83984375 C69.97940475 112.78252075 71.16584076 112.72519775 72.38822937 112.6661377 C81.11404235 112.29359126 81.11404235 112.29359126 89.75 111.12109375 C93.51893293 105.62815388 93.25528172 99.61052634 93.1875 93.12109375 C93.17505249 91.59077515 93.17505249 91.59077515 93.16235352 90.02954102 C92.72357379 70.25322327 84.7524097 52.63526984 70.4453125 38.91015625 C61.71202718 31.43675472 49.45114442 24.12109375 37.75 24.12109375 Z M-84.25 64.12109375 C-104.98571051 79.92538886 -117.55306482 106.94773775 -121.9375 132.05859375 C-122.91930881 141.93804487 -122.20931374 151.41199442 -120.25 161.12109375 C-112.01698194 158.68861114 -104.40274869 155.10181076 -96.64050293 151.48495483 C-93.37896164 149.96523115 -90.11265615 148.4558772 -86.84661865 146.94584656 C-85.16200429 146.16685072 -83.47763891 145.38731624 -81.79351807 144.60725403 C-73.21369056 140.63464281 -64.60936245 136.7166872 -56 132.80859375 C-54.63279891 132.18720439 -53.26561103 131.56578595 -51.8984375 130.94433594 C-45.36142167 127.97478809 -38.81669397 125.0244901 -32.25 122.12109375 C-38.99428551 114.22534486 -45.84578511 106.44981128 -52.84375 98.77734375 C-55.40148771 95.95386706 -57.90769969 93.09053373 -60.40625 90.21484375 C-63.49967976 86.70196589 -66.66876813 83.25789103 -69.82421875 79.80078125 C-71.93228315 77.47206598 -74.00622481 75.12044201 -76.0625 72.74609375 C-78.67640322 69.73576918 -81.38821681 66.89615624 -84.25 64.12109375 Z M73.83862305 128.48828125 C72.66709938 128.54680267 72.66709938 128.54680267 71.47190857 128.60650635 C68.90178437 128.73518611 66.33175296 128.86563002 63.76171875 128.99609375 C61.97525063 129.08588364 60.18877695 129.17556309 58.40229797 129.26513672 C53.7087147 129.50076873 49.01520826 129.73789869 44.32171631 129.9753418 C39.52897621 130.21753973 34.73616489 130.45831936 29.94335938 130.69921875 C20.5455027 131.17178984 11.1477266 131.64594362 1.75 132.12109375 C2.48982366 135.51537326 3.30491179 136.99693155 5.875 139.37109375 C9.06604558 142.42593617 11.98294007 145.60972607 14.8671875 148.953125 C16.9657532 151.36952326 19.104397 153.74638399 21.25 156.12109375 C23.92048344 159.07979126 26.57298058 162.05035847 29.1875 165.05859375 C31.99822525 168.28668887 34.865799 171.45847818 37.75 174.62109375 C48.93181818 186.89382102 48.93181818 186.89382102 51.75 191.12109375 C65.89610758 185.9680458 73.86362221 173.18799006 79.98828125 160.17578125 C83.84276415 151.58345385 86.93897614 142.29430396 86.8125 132.80859375 C86.80347656 131.92558594 86.79445313 131.04257813 86.78515625 130.1328125 C86.77355469 129.46894531 86.76195312 128.80507812 86.75 128.12109375 C82.43681216 128.07173829 78.14460042 128.26768121 73.83862305 128.48828125 Z M-40.43359375 143.83984375 C-41.06839661 144.12939941 -41.70319946 144.41895508 -42.35723877 144.71728516 C-44.46900219 145.68160135 -46.57825717 146.6512781 -48.6875 147.62109375 C-50.16302199 148.29654153 -51.63869166 148.97166676 -53.11450195 149.64648438 C-56.22622962 151.06986164 -59.33699682 152.49531302 -62.44726562 153.921875 C-67.20504434 156.10258407 -71.96926096 158.26897208 -76.734375 160.43359375 C-79.05353652 161.48854155 -81.37253364 162.54384959 -83.69143677 163.59936523 C-85.16609845 164.27018513 -86.64108431 164.94029294 -88.11642456 165.60961914 C-95.52332383 168.97163404 -102.90477374 172.38021155 -110.20703125 175.96484375 C-111.34760986 176.52365234 -112.48818848 177.08246094 -113.66333008 177.65820312 C-116.35289711 178.86156177 -116.35289711 178.86156177 -117.25 181.12109375 C-118.50203948 192.38944908 -112.96760661 203.43609561 -106.25 212.12109375 C-95.2486063 225.16925837 -79.78180456 234.93325215 -62.625 236.99609375 C-59.56365509 237.2364041 -57.20476831 236.90589379 -54.25 236.12109375 C-51.09057602 225.51209325 -48.43445125 214.82871096 -45.921875 204.05078125 C-45.52419837 202.35397403 -45.12634755 200.65720762 -44.72833252 198.96047974 C-43.902535 195.43642387 -43.07928271 191.91178573 -42.2578125 188.38671875 C-41.20515339 183.87082553 -40.14528558 179.35665834 -39.08347702 174.84290886 C-38.26366777 171.35383395 -37.44798494 167.86380434 -36.63352203 164.37347794 C-36.24414826 162.70739134 -35.85340809 161.04162346 -35.46126556 159.37618637 C-34.91620931 157.05888858 -34.3768114 154.74034427 -33.83886719 152.42138672 C-33.59582352 151.39594002 -33.59582352 151.39594002 -33.34786987 150.34977722 C-32.60911 147.13884031 -32.25 144.44644204 -32.25 141.12109375 C-35.33912084 141.12109375 -37.63535899 142.55773633 -40.43359375 143.83984375 Z M-14.25 143.12109375 C-16.25077845 148.86525908 -17.95937316 154.59109194 -19.3347168 160.51489258 C-19.52047272 161.29982086 -19.70622864 162.08474915 -19.89761353 162.89346313 C-20.50236366 165.45404559 -21.1010257 168.01600345 -21.69921875 170.578125 C-22.12067674 172.37177553 -22.54237771 174.16536899 -22.96430969 175.95890808 C-23.84362321 179.70105172 -24.71988849 183.44389244 -25.59399414 187.18725586 C-26.71453606 191.98479297 -27.84290783 196.78044881 -28.97355938 201.57561207 C-29.84405626 205.2714165 -30.71034139 208.96819822 -31.57535744 212.66528893 C-31.98988849 214.43463768 -32.40575173 216.20367487 -32.82297325 217.97239113 C-33.40410386 220.43870141 -33.97953059 222.90627466 -34.5534668 225.37426758 C-34.72641769 226.10315689 -34.89936859 226.8320462 -35.07756042 227.58302307 C-35.84115173 230.8922154 -36.25 233.69877762 -36.25 237.12109375 C-11.1250645 238.211726 13.87809693 231.37629343 32.75 214.12109375 C35.53230276 211.21211704 38.18180256 208.22014764 40.75 205.12109375 C39.13387092 201.19754338 36.4366819 198.4071471 33.5625 195.37109375 C32.56051284 194.29621113 31.55920995 193.22069023 30.55859375 192.14453125 C30.07374512 191.6247168 29.58889648 191.10490234 29.08935547 190.56933594 C26.83503483 188.13174388 24.66722515 185.62133902 22.4921875 183.11328125 C20.43499601 180.7608874 18.34403085 178.44074409 16.25 176.12109375 C13.57951656 173.16239624 10.92701942 170.19182903 8.3125 167.18359375 C4.67033129 163.00059256 0.92849513 158.91097104 -2.8125 154.81640625 C-5.55493846 151.78390219 -8.22895692 148.69876468 -10.875 145.58203125 C-12.20634906 143.99924528 -12.20634906 143.99924528 -14.25 143.12109375 Z " fill="#000000" transform="translate(175.25,124.87890625)"/>
<path d="M0 0 C3.83617432 2.15200023 4.92969486 5.26120771 6.12792969 9.38208008 C8.05802405 18.5109927 7.66863491 30.0785825 3.5625 38.4375 C1.6875 40.625 1.6875 40.625 -0.4375 41.4375 C-3 41.0625 -3 41.0625 -5.4375 39.4375 C-10.64056694 29.7746614 -10.76337882 17.8563598 -8.07421875 7.34765625 C-7.20986508 4.75459523 -6.0756186 2.62165814 -4.4375 0.4375 C-2.4375 -0.5625 -2.4375 -0.5625 0 0 Z " fill="#000000" transform="translate(476.4375,222.5625)"/>
</svg>
