<?xml version="1.0" encoding="UTF-8"?>
<svg version="1.0" xmlns="http://www.w3.org/2000/svg" width="512" height="512">
<path d="M0 0 C5.6582298 1.29164303 10.08161614 5.19049056 14.65234375 8.60546875 C15.67714844 9.3221875 16.70195312 10.03890625 17.7578125 10.77734375 C26.38387817 16.83951936 26.38387817 16.83951936 28.65234375 20.60546875 C28.78767329 28.1839228 25.20902819 34.07944226 21.65234375 40.60546875 C22.29034912 40.67540039 22.92835449 40.74533203 23.58569336 40.81738281 C63.74038503 45.30265142 100.42691959 57.93777336 127.27734375 89.91796875 C145.49643573 113.09706265 162.44715968 144.05458026 160.65234375 174.60546875 C158.99987101 178.12315773 157.92235242 179.42546297 154.65234375 181.60546875 C145.0939983 183.95516824 135.41407507 183.83102865 125.65234375 183.60546875 C125.78511719 184.15074219 125.91789062 184.69601563 126.0546875 185.2578125 C126.23128906 186.01191406 126.40789062 186.76601562 126.58984375 187.54296875 C126.76386719 188.27386719 126.93789063 189.00476563 127.1171875 189.7578125 C132.41566658 217.95190919 129.23948506 251.74336408 119.90234375 278.91796875 C117.90941739 284.98292842 118.40702007 291.29974159 118.65234375 297.60546875 C119.53986328 296.60966797 119.53986328 296.60966797 120.4453125 295.59375 C122.8369798 292.92116909 125.24326898 290.26235728 127.65234375 287.60546875 C128.15894531 287.03054688 128.66554688 286.455625 129.1875 285.86328125 C131.00511056 283.88787171 132.54367103 282.65122569 135.02734375 281.60546875 C141.41485142 281.60546875 146.80655201 285.85073965 151.71484375 289.54296875 C152.35317139 290.01806885 152.99149902 290.49316895 153.64916992 290.98266602 C158.36517329 294.53661279 162.95377819 298.23282337 167.46484375 302.04296875 C168.05724854 302.53853271 168.64965332 303.03409668 169.26000977 303.54467773 C172.14457119 306.03005349 174.25644924 308.05419127 175.65234375 311.60546875 C175.78759766 313.71191406 175.78759766 313.71191406 175.62890625 315.93359375 C175.57734375 316.7328125 175.52578125 317.53203125 175.47265625 318.35546875 C175.37597656 319.59296875 175.37597656 319.59296875 175.27734375 320.85546875 C175.220625 321.6959375 175.16390625 322.53640625 175.10546875 323.40234375 C174.96444043 325.47075917 174.80972587 327.53823335 174.65234375 329.60546875 C175.55210937 328.79851562 176.451875 327.9915625 177.37890625 327.16015625 C180.74960222 324.36672903 182.97466812 323.58996841 187.3671875 323.890625 C192.26900262 325.42401332 194.77646389 329.57816585 197.65234375 333.60546875 C198.04566895 334.146875 198.43899414 334.68828125 198.84423828 335.24609375 C212.38755516 354.04478916 222.09294499 373.89078541 219.65234375 397.60546875 C216.92572903 412.31080655 208.76161123 424.37471349 196.77734375 433.10546875 C158.05663159 459.37379821 104.74797249 460.71477019 59.5546875 460.80859375 C58.61407534 460.81142113 57.67346317 460.8142485 56.70434761 460.81716156 C51.70564636 460.83205612 46.70697314 460.84134139 41.70825195 460.84570312 C37.67039743 460.85004456 33.6327618 460.86378051 29.5949707 460.88671875 C-71.68813467 461.45014994 -71.68813467 461.45014994 -113.19897461 442.23339844 C-120.56322542 438.84235179 -126.55862724 438.55938636 -134.55517578 439.33007812 C-142.13272579 439.88032123 -149.7309696 439.83063099 -157.32543945 439.84570312 C-160.24785531 439.85534568 -163.16954697 439.88642747 -166.09179688 439.91796875 C-188.95552724 440.04580611 -213.69763835 438.29615451 -232.72265625 424.29296875 C-238.39655657 418.48397557 -241.12068053 412.47627193 -241.46875 404.3359375 C-241.16894265 397.57576521 -238.62251008 392.09044857 -235.67895508 386.06713867 C-214.39722286 342.47860159 -211.6793887 293.21091456 -207.46520996 245.68003845 C-197.92208554 138.25449211 -197.92208554 138.25449211 -167.34765625 102.60546875 C-164.24716697 101.05522411 -161.76871407 101.3155486 -158.34765625 101.60546875 C-155.59436604 103.4010928 -153.82138164 104.65801797 -152.34765625 107.60546875 C-151.64120159 113.15274345 -153.6650425 116.135938 -156.84765625 120.41796875 C-183.6443049 158.63699837 -185.20426659 209.07391244 -188.99255371 254.00268555 C-190.59105273 272.94324856 -192.35006711 291.82429266 -194.8984375 310.6640625 C-195.00028288 311.42292189 -195.10212826 312.18178127 -195.20705986 312.9636364 C-199.15147023 342.10672648 -206.20553118 370.57967135 -219.59765625 396.91015625 C-221.50073902 400.7461552 -222.90847106 403.87988471 -221.53515625 408.10546875 C-213.03087802 417.82464387 -195.5978902 419.60516178 -183.34765625 420.60546875 C-180.06370363 420.72453754 -176.78575231 420.72306766 -173.5 420.703125 C-172.15404503 420.70100258 -172.15404503 420.70100258 -170.78089905 420.69883728 C-167.94894911 420.69329385 -165.1170818 420.68075233 -162.28515625 420.66796875 C-160.35091261 420.66294642 -158.41666772 420.65838481 -156.48242188 420.65429688 C-151.77080208 420.64334304 -147.05924312 420.62611828 -142.34765625 420.60546875 C-142.69318542 420.06037155 -143.0387146 419.51527435 -143.39471436 418.95365906 C-143.8467926 418.23636124 -144.29887085 417.51906342 -144.76464844 416.7800293 C-145.21330261 416.0699321 -145.66195679 415.3598349 -146.12420654 414.6282196 C-147.53347769 412.29824691 -148.61970414 409.95815791 -149.59765625 407.41796875 C-149.9121875 406.62003906 -150.22671875 405.82210938 -150.55078125 405 C-155.99015059 388.6552284 -151.66157134 371.99667196 -144.28393555 357.14794922 C-130.23357581 330.04842853 -130.23357581 330.04842853 -121.34765625 325.60546875 C-118.67529415 325.47131403 -116.02515137 325.56228334 -113.34765625 325.60546875 C-113.35667969 324.97640625 -113.36570312 324.34734375 -113.375 323.69921875 C-113.11185658 316.10238276 -110.79277382 312.69991685 -105.34765625 307.60546875 C-104.59613281 306.85910156 -103.84460938 306.11273438 -103.0703125 305.34375 C-97.45390623 299.96965401 -91.43641963 295.30209976 -85.16015625 290.73046875 C-84.41209717 290.18302002 -83.66403809 289.63557129 -82.89331055 289.0715332 C-70.8708149 280.47267093 -70.8708149 280.47267093 -64.78515625 280.79296875 C-59.49665293 283.58145232 -56.01148496 288.27781132 -53.34765625 293.60546875 C-53.21713867 292.96520752 -53.08662109 292.32494629 -52.95214844 291.6652832 C-52.34852776 288.74628567 -51.72333496 285.8323143 -51.09765625 282.91796875 C-50.79021484 281.40686523 -50.79021484 281.40686523 -50.4765625 279.86523438 C-48.31490848 269.9412773 -48.31490848 269.9412773 -44.34765625 266.60546875 C-41.23273584 264.9874914 -38.02591494 263.78255671 -34.72265625 262.60546875 C-33.79348389 262.26370605 -32.86431152 261.92194336 -31.90698242 261.56982422 C4.08747138 248.58399846 4.08747138 248.58399846 13.11206055 252.73754883 C16.2993343 255.08121356 17.32199078 257.22804267 18.984375 260.8046875 C19.26584885 261.39973587 19.54732269 261.99478424 19.83732605 262.60786438 C20.72701061 264.49677536 21.59606497 266.39436575 22.46484375 268.29296875 C23.0670184 269.58070605 23.67052067 270.8678234 24.27539062 272.15429688 C25.74980839 275.29765911 27.20588482 278.4491261 28.65234375 281.60546875 C29.1740918 280.76105225 29.69583984 279.91663574 30.23339844 279.04663086 C31.24084993 277.41661038 32.24871486 275.78684383 33.25878906 274.15844727 C35.22867006 270.96971402 37.15007276 267.76106203 39.01171875 264.5078125 C39.40045166 263.8362915 39.78918457 263.16477051 40.18969727 262.47290039 C40.94228786 261.16916619 41.68538889 259.85989629 42.41772461 258.54467773 C44.64616054 254.71004151 46.5227352 252.33193603 50.65234375 250.60546875 C67.16214024 249.15492752 90.06429179 256.31144277 104.65234375 263.60546875 C105.30597129 259.69006267 105.94876155 255.77294684 106.58984375 251.85546875 C106.77224609 250.76363281 106.95464844 249.67179688 107.14257812 248.546875 C110.71230214 226.60929833 110.40939105 205.47685123 106.65234375 183.60546875 C102.92017975 182.51155861 99.19037961 181.47718057 95.41015625 180.5625 C59.04153177 171.67030074 27.54865458 150.42969739 7.61450195 118.35913086 C-1.04370323 103.9000443 -8.21168063 87.4001006 -10.34765625 70.60546875 C-48.07154463 66.53656972 -83.15555148 69.11855854 -117.48046875 86.50390625 C-120.68245682 87.73409785 -122.94531492 87.91778381 -126.34765625 87.60546875 C-129.24604953 86.059659 -130.88845023 84.88430413 -132.01953125 81.734375 C-132.72178894 78.01943183 -132.85242991 76.41285547 -130.77734375 73.09375 C-127.95331654 70.20161924 -125.00791852 68.4625426 -121.41015625 66.73046875 C-120.37048706 66.22338379 -120.37048706 66.22338379 -119.30981445 65.70605469 C-101.5536876 57.34058153 -82.36427782 52.57195414 -62.91015625 50.41796875 C-61.74577026 50.27959595 -61.74577026 50.27959595 -60.55786133 50.13842773 C-56.3172893 49.69437733 -52.37678149 49.62861313 -48.12890625 50.0390625 C-40.5575109 50.62411828 -40.5575109 50.62411828 -33.34765625 48.60546875 C-28.17621313 43.4927765 -25.55870375 36.41191445 -22.75830078 29.82470703 C-20.37341273 24.38214319 -17.55814803 19.17007546 -14.78515625 13.91796875 C-14.28371094 12.93296387 -13.78226563 11.94795898 -13.265625 10.93310547 C-12.79640625 10.01674316 -12.3271875 9.10038086 -11.84375 8.15625 C-11.22777954 6.94449097 -11.22777954 6.94449097 -10.59936523 5.70825195 C-7.84338763 1.07840309 -5.59941013 -0.1905796 0 0 Z M1.65234375 22.60546875 C-0.29046121 26.12339935 -2.22593127 29.64531449 -4.16015625 33.16796875 C-4.70736328 34.15861328 -5.25457031 35.14925781 -5.81835938 36.16992188 C-8.5940443 41.23344408 -11.20373591 46.24190664 -13.34765625 51.60546875 C-11.03765625 52.26546875 -8.72765625 52.92546875 -6.34765625 53.60546875 C-4.02685081 50.68584188 -2.29950905 47.74333559 -0.6484375 44.40234375 C-0.16181641 43.42265625 0.32480469 42.44296875 0.82617188 41.43359375 C1.57543945 39.90992188 1.57543945 39.90992188 2.33984375 38.35546875 C2.85095703 37.32421875 3.36207031 36.29296875 3.88867188 35.23046875 C5.146862 32.69057093 6.40127296 30.14887884 7.65234375 27.60546875 C6.00690595 25.91784024 4.33945798 24.25143385 2.65234375 22.60546875 C2.32234375 22.60546875 1.99234375 22.60546875 1.65234375 22.60546875 Z M10.65234375 60.60546875 C8.29961862 63.31466739 7.61465246 65.25093807 7.71484375 68.8515625 C10.64282313 88.88992136 20.79407499 107.31429414 33.65234375 122.60546875 C34.48378906 123.61351562 35.31523437 124.6215625 36.171875 125.66015625 C55.59207442 148.07927702 85.03992628 163.16783348 114.65234375 165.60546875 C118.94487811 165.76609674 123.23213279 165.79048884 127.52734375 165.79296875 C129.23664063 165.81133789 129.23664063 165.81133789 130.98046875 165.83007812 C132.06585938 165.83201172 133.15125 165.83394531 134.26953125 165.8359375 C135.74848877 165.84210083 135.74848877 165.84210083 137.25732422 165.84838867 C139.83763815 165.8416035 139.83763815 165.8416035 141.65234375 163.60546875 C141.57699182 161.61725801 141.57699182 161.61725801 141 159.37890625 C140.8043042 158.51982666 140.6086084 157.66074707 140.40698242 156.77563477 C140.17857666 155.85322998 139.9501709 154.9308252 139.71484375 153.98046875 C139.48321533 153.03421631 139.25158691 152.08796387 139.01293945 151.11303711 C136.79267784 142.46896441 133.71501621 134.53785245 129.65234375 126.60546875 C129.33894043 125.9909082 129.02553711 125.37634766 128.70263672 124.74316406 C124.27699321 116.22486904 118.97185483 108.82295654 112.65234375 101.60546875 C112.04003906 100.84878906 111.42773438 100.09210938 110.796875 99.3125 C91.02793636 75.49704087 60.10082836 63.00644845 29.96948242 60.0612793 C23.54732105 59.5055355 16.92515487 58.94849977 10.65234375 60.60546875 Z M57.65234375 269.60546875 C56.83443359 270.96865234 56.83443359 270.96865234 56 272.359375 C55.63962646 272.95983643 55.27925293 273.56029785 54.90795898 274.17895508 C54.10611606 275.51568811 53.30485551 276.85277065 52.50415039 278.19018555 C50.36646322 281.75884159 48.21918657 285.32100613 46.05078125 288.87109375 C45.4319104 289.88901001 45.4319104 289.88901001 44.80053711 290.92749023 C44.00279209 292.23904804 43.20160043 293.54851658 42.39672852 294.85571289 C40.32610254 298.00299905 40.32610254 298.00299905 39.65234375 301.60546875 C40.33409668 301.67016357 41.01584961 301.7348584 41.71826172 301.80151367 C57.98551839 303.38263782 73.90389221 305.71817076 89.89941406 309.08056641 C93.13165798 309.69685981 96.39494081 310.14012547 99.65234375 310.60546875 C99.65234375 301.03546875 99.65234375 291.46546875 99.65234375 281.60546875 C89.53969733 277.34284293 89.53969733 277.34284293 79.21484375 273.91796875 C78.50400635 273.71083252 77.79316895 273.50369629 77.06079102 273.2902832 C70.65930175 271.48737971 64.26184624 270.37561947 57.65234375 269.60546875 Z M-8.78515625 273.35546875 C-9.74615234 273.608125 -10.70714844 273.86078125 -11.69726562 274.12109375 C-23.42558185 276.66578433 -23.42558185 276.66578433 -32.34765625 283.60546875 C-32.98597577 286.01624659 -32.98597577 286.01624659 -33.41796875 288.7109375 C-33.59199219 289.69384766 -33.76601562 290.67675781 -33.9453125 291.68945312 C-34.11933594 292.71361328 -34.29335937 293.73777344 -34.47265625 294.79296875 C-34.65441406 295.82873047 -34.83617187 296.86449219 -35.0234375 297.93164062 C-35.47119099 300.48854874 -35.91232975 303.04642063 -36.34765625 305.60546875 C-28.24650747 304.91236594 -20.17472103 304.034506 -12.09765625 303.10546875 C-2.52068432 302.01927207 7.02418646 301.07316818 16.65234375 300.60546875 C12.21885463 290.47820934 7.73636996 280.42688302 2.65234375 270.60546875 C-1.08129848 270.60546875 -5.20344825 272.39107359 -8.78515625 273.35546875 Z M-92.65234375 320.73046875 C-94.6829915 322.55504854 -94.6829915 322.55504854 -94.34765625 325.60546875 C-88.88058664 323.87618149 -83.59817384 321.75088624 -78.28515625 319.60546875 C-76.95774414 319.07179688 -76.95774414 319.07179688 -75.60351562 318.52734375 C-73.91491936 317.8483583 -72.22658903 317.16871095 -70.53857422 316.48828125 C-68.14328422 315.52311871 -65.74607065 314.56283999 -63.34765625 313.60546875 C-64.79757894 309.49735447 -66.80173198 306.13691209 -69.34765625 302.60546875 C-75.54452385 302.60546875 -87.99968631 316.66126353 -92.65234375 320.73046875 Z M137.65234375 303.60546875 C133.69234375 308.22546875 129.73234375 312.84546875 125.65234375 317.60546875 C127.08971965 320.48022055 128.83589076 320.60731055 131.82421875 321.69921875 C132.88125 322.08980469 133.93828125 322.48039062 135.02734375 322.8828125 C136.69796875 323.48802734 136.69796875 323.48802734 138.40234375 324.10546875 C140.58475614 324.90722354 142.76705195 325.70929576 144.94921875 326.51171875 C145.92213867 326.86556641 146.89505859 327.21941406 147.89746094 327.58398438 C150.50087115 328.54930415 153.07931834 329.56219193 155.65234375 330.60546875 C157.106474 323.62826579 157.106474 323.62826579 156.65234375 316.60546875 C154.79074666 314.12284818 152.49780897 312.49165136 149.96484375 310.73046875 C149.33900391 310.25867188 148.71316406 309.786875 148.06835938 309.30078125 C144.57504 306.72560131 141.80073362 305.2648247 137.65234375 303.60546875 Z M-36.34765625 325.60546875 C-35.93081337 332.17074409 -34.91156145 338.61963992 -33.84765625 345.10546875 C-33.71713867 345.90718506 -33.58662109 346.70890137 -33.45214844 347.53491211 C-32.80944363 351.69290125 -32.80944363 351.69290125 -31.34765625 355.60546875 C-30.40728516 355.48574707 -29.46691406 355.36602539 -28.49804688 355.24267578 C-17.95668901 353.90848328 -7.4054186 352.67705922 3.15234375 351.48046875 C4.76563419 351.29695574 6.37891548 351.11336235 7.9921875 350.9296875 C11.87880207 350.48735957 15.76553669 350.04610183 19.65234375 349.60546875 C19.68166612 345.93881921 19.69925012 342.27220035 19.71484375 338.60546875 C19.72741211 337.06052734 19.72741211 337.06052734 19.74023438 335.484375 C19.75848012 329.75521262 19.51709759 324.27062774 18.65234375 318.60546875 C-10.47542773 317.53387245 -10.47542773 317.53387245 -36.34765625 325.60546875 Z M36.65234375 319.60546875 C36.98234375 329.50546875 37.31234375 339.40546875 37.65234375 349.60546875 C39.78832031 349.72664063 41.92429687 349.8478125 44.125 349.97265625 C46.25016313 350.09713495 48.37520441 350.22353158 50.50024414 350.35009766 C51.94967246 350.43542394 53.39921524 350.51883301 54.84887695 350.60009766 C63.76619251 351.10152255 72.54550819 351.8821622 81.38061523 353.20751953 C84.509862 353.58813831 87.50399904 353.67654018 90.65234375 353.60546875 C91.30030237 350.56425087 91.94532531 347.52241739 92.58984375 344.48046875 C92.77224609 343.62453125 92.95464844 342.76859375 93.14257812 341.88671875 C94.07654718 337.47159229 94.95764175 333.06618683 95.65234375 328.60546875 C83.65960188 325.40740425 71.70271648 322.9912975 59.40234375 321.29296875 C58.17813721 321.1218457 56.95393066 320.95072266 55.69262695 320.77441406 C49.18285115 319.91448899 43.30476893 319.60546875 36.65234375 319.60546875 Z M-85.47265625 341.85546875 C-86.15287842 342.18417969 -86.83310059 342.51289063 -87.53393555 342.8515625 C-91.47966036 344.75434816 -91.47966036 344.75434816 -93.34765625 348.60546875 C-93.30235628 356.68018783 -91.98500877 364.00510707 -89.34765625 371.60546875 C-80.76108644 369.29271871 -72.20829528 366.8685239 -63.66015625 364.41796875 C-62.36134603 364.0461614 -61.06251801 363.67441625 -59.76367188 363.30273438 C-56.62482526 362.40425412 -53.48615784 361.50515335 -50.34765625 360.60546875 C-49.287416 356.59331339 -49.49343968 353.69259632 -50.34375 349.6484375 C-50.57255859 348.53662109 -50.80136719 347.42480469 -51.03710938 346.27929688 C-51.40739258 344.55356445 -51.40739258 344.55356445 -51.78515625 342.79296875 C-52.02814453 341.62314453 -52.27113281 340.45332031 -52.52148438 339.24804688 C-53.12157457 336.36526066 -53.73057404 333.48465697 -54.34765625 330.60546875 C-64.55936426 330.60546875 -76.44662956 337.41878873 -85.47265625 341.85546875 Z M113.65234375 334.60546875 C111.2499587 339.72651924 109.89671149 344.47722318 108.96484375 350.04296875 C108.83529297 350.77451172 108.70574219 351.50605469 108.57226562 352.25976562 C108.2580456 354.04034575 107.95410307 355.82273458 107.65234375 357.60546875 C108.35206299 357.82686523 109.05178223 358.04826172 109.77270508 358.27636719 C113.00418257 359.30033879 116.23451323 360.32788476 119.46484375 361.35546875 C120.56505859 361.70351563 121.66527344 362.0515625 122.79882812 362.41015625 C129.04519456 364.4001491 135.20872382 366.50225399 141.3190918 368.87988281 C143.88169449 369.80343484 143.88169449 369.80343484 147.65234375 369.60546875 C148.6878542 366.67293529 149.70316213 363.73379937 150.71484375 360.79296875 C151.00939453 359.95958984 151.30394531 359.12621094 151.60742188 358.26757812 C151.88134766 357.46513672 152.15527344 356.66269531 152.4375 355.8359375 C152.694104 355.09754639 152.95070801 354.35915527 153.21508789 353.59838867 C153.87282801 351.41327126 153.87282801 351.41327126 152.65234375 348.60546875 C150.11963347 347.20110776 150.11963347 347.20110776 146.96484375 346.01171875 C145.79050781 345.53863281 144.61617188 345.06554687 143.40625 344.578125 C142.15495901 344.08721131 140.90365685 343.59632608 139.65234375 343.10546875 C138.44449219 342.61949219 137.23664063 342.13351562 135.9921875 341.6328125 C125.13434126 336.7432706 125.13434126 336.7432706 113.65234375 334.60546875 Z M182.65234375 346.60546875 C171.41698723 355.10699965 166.96996824 362.9713955 163.65234375 376.60546875 C167.30823399 380.5024516 171.86999117 382.347957 176.62109375 384.69140625 C179.85358239 386.73253954 181.1265596 388.13677961 182.65234375 391.60546875 C182.52643544 394.75317649 182.19598191 396.77570525 180.46484375 399.41796875 C177.67797145 401.2438506 176.04190101 401.49360217 172.65234375 401.60546875 C168.94566618 400.28936633 165.51620619 398.47387261 162.02734375 396.66796875 C159.95412634 395.63857694 157.87856017 394.61390327 155.80078125 393.59375 C154.24568848 392.82925537 154.24568848 392.82925537 152.65917969 392.04931641 C130.51223801 381.41461252 106.76614468 374.90717696 82.65234375 370.60546875 C81.78319336 370.44030762 80.91404297 370.27514648 80.01855469 370.10498047 C49.9187705 364.55665959 15.72971171 365.33978302 -14.34765625 370.60546875 C-15.49266602 370.79882812 -16.63767578 370.9921875 -17.81738281 371.19140625 C-48.4430334 376.48210782 -80.07703832 384.73248992 -107.93359375 398.875 C-112.25772486 401.06675067 -115.32918185 402.06421293 -120.09765625 400.98046875 C-122.34765625 399.60546875 -122.34765625 399.60546875 -123.72265625 397.35546875 C-124.49456272 393.95908029 -124.40910099 391.93132894 -123.34765625 388.60546875 C-119.76402594 385.27781204 -115.98258223 383.33210252 -111.53515625 381.35546875 C-110.37371094 380.8346875 -109.21226562 380.31390625 -108.015625 379.77734375 C-107.13519531 379.390625 -106.25476563 379.00390625 -105.34765625 378.60546875 C-108.1103778 368.84506431 -112.40323905 360.39020999 -117.34765625 351.60546875 C-121.65407265 353.04094088 -122.72769732 356.2510241 -124.78515625 360.04296875 C-125.18476563 360.76709961 -125.584375 361.49123047 -125.99609375 362.23730469 C-132.22462738 373.69882764 -136.90685955 385.14929528 -133.6640625 398.3984375 C-128.55970175 412.05948597 -118.24070874 419.91565459 -105.30859375 425.9140625 C-70.36005428 441.26651925 -29.16726512 442.75795713 8.48046875 442.7734375 C10.36350528 442.77666546 12.24654158 442.78003057 14.12957764 442.78352356 C18.05937275 442.78946864 21.98914603 442.79136848 25.91894531 442.79077148 C29.88643997 442.79069059 33.85381827 442.79758196 37.82128906 442.8112793 C119.79058851 445.39724505 119.79058851 445.39724505 191.4921875 412.93359375 C199.33456234 404.48141399 202.175886 396.53208915 201.96484375 385.00390625 C200.73247213 371.60186491 193.02863232 357.90312248 184.65234375 347.60546875 C183.99234375 347.27546875 183.33234375 346.94546875 182.65234375 346.60546875 Z " fill="#000000" transform="translate(269.34765625,19.39453125)"/>
</svg>
