<?xml version="1.0" encoding="UTF-8"?>
<svg version="1.0" xmlns="http://www.w3.org/2000/svg" width="512" height="512">
<path d="M0 0 C2.48631374 1.12083251 4.85216427 2.27833831 7.25 3.5625 C38.05459811 19.90884038 74.9132163 23.20197118 109.25 23.25 C110.50493256 23.25400314 110.50493256 23.25400314 111.78521729 23.25808716 C125.64813069 23.27892402 139.32031306 22.48814992 153.09863281 20.97949219 C170.34418771 19.14467753 170.34418771 19.14467753 174.64428711 22.14868164 C177.19844979 24.80749068 177.99240508 26.94588616 178.5 30.5625 C177.96024433 34.27332022 177.39398482 36.12721821 175 39 C169.43571121 42.59665378 163.56672976 43.02524068 157.125 43.6875 C155.91368408 43.81487549 154.70236816 43.94225098 153.4543457 44.07348633 C133.07601801 46.00697438 112.44166837 45.24662039 92 45 C92 49.29 92 53.58 92 58 C93.45535156 57.97550781 94.91070312 57.95101562 96.41015625 57.92578125 C101.51222137 57.9302654 106.40147893 58.40308891 111.4375 59.1875 C112.72611938 59.38714355 112.72611938 59.38714355 114.04077148 59.59082031 C154.32561321 66.17665711 190.62948598 84.88666059 220 113 C220.55300781 113.52045898 221.10601562 114.04091797 221.67578125 114.57714844 C234.92529524 127.08642435 246.04744198 141.09625421 255 157 C255.38752441 157.68223633 255.77504883 158.36447266 256.17431641 159.06738281 C280.4110341 202.09393978 287.89363815 251.5771748 278 300 C287.77922758 298.56775773 297.25936556 296.30164395 306.81640625 293.80541992 C308.70564929 293.31426444 310.59889328 292.8385811 312.4921875 292.36328125 C313.59933105 292.07751221 314.70647461 291.79174316 315.84716797 291.49731445 C319.83377214 290.86848429 323.37906932 290.87781722 326.77734375 293.23046875 C334.5591276 304.49292269 333.41208684 324.11926275 333.375 337.375 C333.37418427 338.48201263 333.37418427 338.48201263 333.37335205 339.61138916 C333.21773664 385.87149363 314.99184409 427.8723508 283 461 C282.19046875 461.86109375 281.3809375 462.7221875 280.546875 463.609375 C254.01901296 491.16412202 212.51243481 511.11836678 173.99682617 512.16113281 C172.59560613 512.18063271 171.19429737 512.19441125 169.79296875 512.203125 C169.0342598 512.21018463 168.27555084 512.21724426 167.49385071 512.22451782 C135.84595832 512.4521845 135.84595832 512.4521845 122 509 C120.76636719 508.70198486 120.76636719 508.70198486 119.5078125 508.39794922 C83.98951066 499.60400765 51.07038871 481.15088466 26.7890625 453.48046875 C23.56299775 450.61134954 20.48040777 449.47676468 16.4375 448.25 C-5.29810659 441.05704115 -25.16081414 430.36909765 -43 416 C-43.51336914 415.58814453 -44.02673828 415.17628906 -44.55566406 414.75195312 C-58.0066095 403.88992676 -69.75719194 391.93563085 -80 378 C-80.78117187 376.94039063 -81.56234375 375.88078125 -82.3671875 374.7890625 C-88.2450538 366.55191422 -93.29942788 357.9532695 -98 349 C-98.34949707 348.33516602 -98.69899414 347.67033203 -99.05908203 346.98535156 C-111.21784765 323.46811519 -119.03674055 295.41122609 -119.203125 268.86328125 C-119.21013931 268.10999542 -119.21715363 267.35670959 -119.22438049 266.58059692 C-119.24180717 264.15783652 -119.24823451 261.73532081 -119.25 259.3125 C-119.25067474 258.48364288 -119.25134949 257.65478577 -119.25204468 256.80081177 C-119.23546238 243.97742398 -118.69495216 231.57821176 -116 219 C-115.83371094 218.1946582 -115.66742188 217.38931641 -115.49609375 216.55957031 C-104.35705232 163.9791692 -72.25963531 118.11581646 -27.45703125 88.6328125 C1.43351567 70.27981431 36.49597916 57.51402788 71 58 C71 53.05 71 48.1 71 43 C69.34291016 43.04833984 69.34291016 43.04833984 67.65234375 43.09765625 C41.83936191 43.05803975 7.84530139 33.77356511 -13 18 C-15.6790573 13.98141405 -15.69610694 10.72358279 -15 6 C-11.20232755 -0.07627591 -6.95901835 -1.28732511 0 0 Z M-6 95 C-6.91604004 95.48919922 -6.91604004 95.48919922 -7.85058594 95.98828125 C-18.60967048 101.75556415 -28.39092688 108.28836294 -37 117 C-35.80850342 116.97905273 -34.61700684 116.95810547 -33.3894043 116.93652344 C3.23791301 116.3505699 39.73924975 117.36370825 73.42163086 133.77441406 C77.43914388 135.59541789 80.00388616 136.38231419 84.2734375 134.984375 C85.85467625 134.33670453 87.42978179 133.6739494 89 133 C90.97554303 132.29081336 92.95645486 131.59647288 94.94140625 130.9140625 C96.00770264 130.54289307 97.07399902 130.17172363 98.17260742 129.78930664 C111.92674623 125.06525277 125.63215162 121.30364733 140 119 C141.14033691 118.81308594 142.28067383 118.62617187 143.45556641 118.43359375 C155.3040243 116.71040233 167.04765044 116.77169365 179 116.875 C181.04687058 116.88505913 183.09374599 116.89417975 185.140625 116.90234375 C190.09387219 116.92410355 195.04688076 116.95846843 200 117 C170.98981509 87.52530986 124.28260532 73.56736352 83.87597656 72.76538086 C52.42395446 72.56177652 21.62750993 79.95948487 -6 95 Z M-43 134 C-43.72606445 134.11827148 -44.45212891 134.23654297 -45.20019531 134.35839844 C-56.2473421 136.27244992 -56.2473421 136.27244992 -64.4140625 143.51171875 C-64.93742187 144.33285156 -65.46078125 145.15398437 -66 146 C-66.77340768 147.09356723 -67.5524841 148.18313836 -68.3359375 149.26953125 C-73.11002002 155.8661108 -73.11002002 155.8661108 -77 163 C-74.12554915 163.79988986 -71.43278119 164.18190097 -68.45703125 164.359375 C-41.03028714 166.22153254 -14.40289043 172.41952548 11 183 C11.64582031 182.36835938 12.29164063 181.73671875 12.95703125 181.0859375 C27.45552817 167.32129063 43.97445928 156.37840543 61 146 C34.79813127 128.53208751 -13.1590718 128.9963133 -43 134 Z M102 145 C102 145.66 102 146.32 102 147 C102.84820312 147.46148437 103.69640625 147.92296875 104.5703125 148.3984375 C118.32885971 156.0024705 131.08851688 165.07868167 142.84765625 175.53125 C143.80542969 176.3665625 144.76320313 177.201875 145.75 178.0625 C146.61109375 178.83722656 147.4721875 179.61195313 148.359375 180.41015625 C151.80248256 182.48315148 153.14159485 181.86722642 157 181 C158.91978844 180.41232327 160.82627398 179.77981227 162.71875 179.109375 C163.80502686 178.73176025 164.89130371 178.35414551 166.01049805 177.96508789 C167.16203369 177.56410889 168.31356934 177.16312988 169.5 176.75 C190.49334095 169.60985999 211.072553 165.49418286 233.20703125 164.24609375 C236.08169412 164.10151288 236.08169412 164.10151288 239 163 C237.45262907 158.42704346 235.00531581 154.91780322 232.1875 151.0625 C231.76146484 150.46759766 231.33542969 149.87269531 230.89648438 149.25976562 C230.03594505 148.06855007 229.16197675 146.88692131 228.27490234 145.71533203 C227.07636231 144.10274255 225.96613414 142.42557539 224.86328125 140.74609375 C213.62945467 129.97204179 186.31971441 131.54236752 171.76977539 131.64916992 C147.96356825 132.15275257 124.33177735 136.67455669 102 145 Z M27 190 C29.63037431 192.03563283 32.27999365 193.81357374 35.16796875 195.4609375 C50.16083327 204.14719602 63.67525852 214.09896652 76.80078125 225.390625 C79.6288252 227.50915495 79.6288252 227.50915495 83 228 C85.31257925 226.33709503 85.31257925 226.33709503 87.625 223.875 C101.62332348 210.33595833 118.87990211 200.05752674 136 191 C120.94686402 175.41524769 101.27201691 163.58377332 82 154 C65.03632403 154 39.32448298 179.19072451 27 190 Z M-86 180 C-86.79764496 181.57316988 -87.59271271 183.14764661 -88.38671875 184.72265625 C-88.82975342 185.59929932 -89.27278809 186.47594238 -89.72924805 187.37915039 C-92.92689616 193.91258578 -92.92689616 193.91258578 -94 201 C-93.36723145 201.20044922 -92.73446289 201.40089844 -92.08251953 201.60742188 C-72.88558702 207.73210789 -55.26612361 214.86169067 -37.79296875 224.8984375 C-34.93608609 226.52350496 -32.1034732 227.89031017 -29 229 C-28.66379639 228.55309814 -28.32759277 228.10619629 -27.98120117 227.64575195 C-21.29145525 218.77340687 -14.50458809 210.048524 -7.2421875 201.63671875 C-5.40382171 199.47487744 -3.66753864 197.294228 -2 195 C-25.57831376 186.21473841 -49.75444024 179.72992601 -75.0625 179.9375 C-76.11888672 179.94201172 -77.17527344 179.94652344 -78.26367188 179.95117188 C-80.84250908 179.96284082 -83.42122294 179.97921115 -86 180 Z M165 195 C168.5703582 199.92130455 172.33812631 204.58856222 176.3125 209.1875 C181.72117336 215.4688395 186.4214653 222.09263037 191 229 C194.16283253 228.3559014 196.57326783 227.24493244 199.359375 225.62890625 C200.21587646 225.14172119 201.07237793 224.65453613 201.95483398 224.15258789 C202.87723877 223.62785889 203.79964355 223.10312988 204.75 222.5625 C221.01447309 213.50554343 238.19394024 206.42171691 256 201 C255.45806986 195.669877 254.15341447 191.42105958 251.9375 186.5625 C251.51500977 185.60827148 251.51500977 185.60827148 251.08398438 184.63476562 C250.39710188 183.08636949 249.69965593 181.54266643 249 180 C219.55293829 179.16074583 192.50769759 184.58769031 165 195 Z M10.5390625 205.24609375 C9.55710767 206.30011866 8.58653203 207.36481181 7.625 208.4375 C7.10623291 209.00718506 6.58746582 209.57687012 6.05297852 210.16381836 C0.04893171 216.8779152 -5.38661463 224.05119953 -10.72314453 231.30126953 C-11.7418016 232.65649245 -12.82750152 233.96123914 -13.93359375 235.24609375 C-15.16134863 236.93790977 -15.16134863 236.93790977 -15.05078125 238.96484375 C-13.47769745 242.01159713 -10.91963543 243.62326382 -8.1875 245.5625 C1.79849572 252.96390119 10.57525604 261.50169294 19.375 270.25 C20.37430542 271.24217529 20.37430542 271.24217529 21.39379883 272.25439453 C25.06126516 275.93430858 28.50901321 279.68645737 31.76025391 283.74121094 C32.16937012 284.15661133 32.57848633 284.57201172 33 285 C33.66 285 34.32 285 35 285 C36.51308895 282.92624732 36.51308895 282.92624732 38.0625 280.25 C46.85262839 266.05476161 57.73397839 253.27809921 69 241 C64.91874991 235.85565549 60.56035658 231.74438973 55.3125 227.8125 C54.58208496 227.26005615 53.85166992 226.7076123 53.09912109 226.13842773 C32.21172736 209.28324705 32.21172736 209.28324705 10.5390625 205.24609375 Z M144.97973633 203.59228516 C144.27099365 203.98722168 143.56225098 204.3821582 142.83203125 204.7890625 C141.62824829 205.45059326 141.62824829 205.45059326 140.40014648 206.12548828 C139.54622314 206.62032715 138.6922998 207.11516602 137.8125 207.625 C136.92699463 208.12628418 136.04148926 208.62756836 135.12915039 209.14404297 C122.20797396 216.59523546 110.38622324 225.39529468 99 235 C97.33696513 236.33786045 95.67128222 237.67245667 94 239 C94.94848867 242.4777918 96.37394612 244.52113582 98.9375 246.9375 C110.30585959 257.83414342 119.3474687 271.91280004 128 285 C131.79225949 283.49325404 133.5451729 281.33301269 136 278.125 C144.48220402 267.47682955 154.4327797 258.29367122 165.01171875 249.7578125 C166.09984863 248.87887329 166.09984863 248.87887329 167.20996094 247.98217773 C168.67993506 246.7978529 170.15318549 245.61758163 171.62988281 244.44165039 C172.30760742 243.89758545 172.98533203 243.35352051 173.68359375 242.79296875 C174.29775146 242.3033667 174.91190918 241.81376465 175.54467773 241.30932617 C177.13114048 240.04256595 177.13114048 240.04256595 178 238 C171.1721538 228.44827898 164.11218391 219.22368549 156.25 210.5 C155.79004639 209.9831665 155.33009277 209.46633301 154.85620117 208.93383789 C150.73216658 204.09300969 150.73216658 204.09300969 144.97973633 203.59228516 Z M-99 216 C-110.67246234 264.55744335 -100.71926985 313.28621475 -76 356 C-74.72800899 358.06226814 -73.41009999 360.02586001 -72 362 C-71.67 362 -71.34 362 -71 362 C-70.93530518 361.16154541 -70.87061035 360.32309082 -70.80395508 359.45922852 C-67.70968766 320.50864339 -60.36602001 282.9585117 -40.30078125 248.828125 C-38.88467927 246.19473551 -38.88467927 246.19473551 -38.86328125 243.87109375 C-40.7372407 240.78646634 -43.77392642 239.45394297 -46.875 237.8125 C-47.5875293 237.42594238 -48.30005859 237.03938477 -49.03417969 236.64111328 C-51.34461084 235.40384688 -53.66828977 234.19664947 -56 233 C-56.75764648 232.61086426 -57.51529297 232.22172852 -58.29589844 231.82080078 C-71.24616844 225.25730573 -84.83768798 219.39435506 -99 216 Z M249.875 219.5 C249.0809375 219.76844727 248.286875 220.03689453 247.46875 220.31347656 C231.21876833 225.94586374 215.33015091 233.44656606 201 243 C202.31531479 246.41169267 203.79189218 249.65421972 205.46875 252.90234375 C215.27388795 272.31191537 221.84579413 292.17061117 228 313 C238.86853809 311.44717717 249.38355452 308.75649549 260 306 C267.57741859 276.60991526 268.29633972 246.77007227 262 217 C257.55648341 217 254.02510984 218.09597393 249.875 219.5 Z M76.75 255.9375 C66.9757615 265.83704925 59.00492069 277.30323156 51.25 288.8125 C50.73646973 289.57111328 50.22293945 290.32972656 49.69384766 291.11132812 C49.22253418 291.82353516 48.7512207 292.53574219 48.265625 293.26953125 C47.64349121 294.20696167 47.64349121 294.20696167 47.00878906 295.16333008 C45.89877935 297.1842892 45.25438845 298.70184747 45 301 C45.79547898 302.97724647 45.79547898 302.97724647 47.17578125 304.87890625 C47.66941162 305.6258374 48.16304199 306.37276855 48.67163086 307.14233398 C49.21311768 307.94098877 49.75460449 308.73964355 50.3125 309.5625 C58.89556624 322.674568 66.43348164 336.32197 72 351 C74.92131338 350.43497231 77.83562778 349.84896607 80.75 349.25 C81.575 349.09273438 82.4 348.93546875 83.25 348.7734375 C87.94597871 347.7887968 91.08925317 347.07366932 94 343 C95.31802501 340.5953805 96.5252955 338.22629989 97.6875 335.75 C100.50051779 329.955784 103.41619281 324.24599881 106.5625 318.625 C106.93439453 317.95847412 107.30628906 317.29194824 107.68945312 316.60522461 C110.41871088 311.80691704 113.48753606 307.39764096 116.98046875 303.11328125 C118.25036487 301.03629092 118.25036487 301.03629092 117.5078125 298.75 C115.41488048 294.93283901 113.10947659 291.30365902 110.6875 287.6875 C110.15987061 286.89859375 109.63224121 286.1096875 109.08862305 285.296875 C101.10668688 273.55009624 92.00674756 262.10390044 82 252 C79.92080925 252 78.10895931 254.62018622 76.75 255.9375 Z M-25 253 C-44.53407458 286.55713928 -54.33404177 324.08401594 -54.375 362.75 C-54.37708466 363.56544281 -54.37916931 364.38088562 -54.38131714 365.22103882 C-54.38063797 367.55919014 -54.36247221 369.89638619 -54.3359375 372.234375 C-54.33351547 372.9301918 -54.33109344 373.62600861 -54.32859802 374.34291077 C-54.16343004 382.98533364 -51.40509286 387.1984035 -45.35668945 393.10668945 C-32.57995736 405.27244899 -17.83231707 415.26402717 -2 423 C-0.87796109 410.65757204 -2.79515754 400.84790107 -7.15429688 389.23828125 C-9.13568795 383.9263166 -10.66584817 379.68997523 -10 374 C-7.03598862 369.43048245 -3.00373043 369.16448604 2 368 C2.20044922 367.20118408 2.40089844 366.40236816 2.60742188 365.5793457 C8.27956321 343.16570557 15.45508329 322.08830035 25 301 C10.23325105 283.23920549 -5.079301 266.44678608 -24 253 C-24.33 253 -24.66 253 -25 253 Z M178.9375 258.9375 C178.35605225 259.44112061 177.77460449 259.94474121 177.17553711 260.46362305 C175.44378234 261.96841065 173.72152911 263.48353689 172 265 C171.14664063 265.73992187 170.29328125 266.47984375 169.4140625 267.2421875 C149.97526434 282.79092845 149.97526434 282.79092845 138 303 C138.66024563 305.21552684 138.66024563 305.21552684 139.84375 307.46484375 C140.47180542 308.77243652 140.47180542 308.77243652 141.11254883 310.10644531 C141.57040771 311.04069336 142.0282666 311.97494141 142.5 312.9375 C150.25674774 329.37250852 155.35489962 346.46849213 160 364 C180.18823062 360.32941262 196.29015732 349.28927299 208.1953125 332.82421875 C208.79085937 331.89222656 209.38640625 330.96023438 210 330 C210.59554687 329.07832031 211.19109375 328.15664063 211.8046875 327.20703125 C214.6025456 319.70035969 211.23276902 311.3194628 209.0625 303.9375 C208.75892578 302.90326904 208.45535156 301.86903809 208.14257812 300.8034668 C203.20581067 284.55654548 196.63769714 268.64404283 188 254 C183.81818519 254 181.9278774 256.3031096 178.9375 258.9375 Z M308 310 C308.144375 311.16273438 308.28875 312.32546875 308.4375 313.5234375 C312.25243253 345.68755756 308.26927826 375.70750498 294 405 C293.45601563 406.11761719 292.91203125 407.23523438 292.3515625 408.38671875 C274.19776248 443.71418406 242.79386409 469.7846406 205.31054688 482.26123047 C166.57384872 494.6468231 124.0869004 490.56405644 88 472 C50.89916723 452.28990275 26.78076023 420.25428671 13 381 C10.03 381.99 10.03 381.99 7 383 C8.17549384 389.37132683 10.03756463 395.00082622 12.75 400.875 C13.1099707 401.66382568 13.46994141 402.45265137 13.84082031 403.26538086 C22.11824126 421.22251959 32.97284902 437.04699319 47 451 C47.93199219 451.93199219 48.86398438 452.86398437 49.82421875 453.82421875 C80.1376078 482.8142402 121.55114859 498.03281941 163.3203125 497.18359375 C201.10131648 495.93354409 235.43160215 481.33424008 264 457 C265.08286172 456.14523553 266.16610831 455.29095803 267.25 454.4375 C270.16609809 451.85277669 272.64381623 449.11238086 275.16015625 446.14453125 C276.36570384 444.73933884 277.60224984 443.36003096 278.87109375 442.01171875 C305.22194716 413.85819127 318.63778976 372.87303761 317.9609375 334.74609375 C317.65742589 326.06092731 316.75198459 317.5217891 315 309 C312.37886292 309 310.49064888 309.31292445 308 310 Z M285.48046875 315.26928711 C284.32587158 315.54634995 283.17127441 315.82341278 281.98168945 316.10887146 C280.10356567 316.56351524 280.10356567 316.56351524 278.1875 317.02734375 C276.90770264 317.33571671 275.62790527 317.64408966 274.30932617 317.96180725 C271.5987576 318.61521443 268.88859892 319.27028978 266.17871094 319.92651367 C262.7023938 320.76818154 259.22506842 321.60559553 255.74742126 322.44174862 C252.43521239 323.23876435 249.12389945 324.03947162 245.8125 324.83984375 C243.93437622 325.29145119 243.93437622 325.29145119 242.01831055 325.75218201 C240.86371338 326.032397 239.70911621 326.312612 238.51953125 326.60131836 C236.98969604 326.97105019 236.98969604 326.97105019 235.42895508 327.34825134 C233.01495003 327.90913451 233.01495003 327.90913451 231 329 C231.03480469 329.825 231.06960938 330.65 231.10546875 331.5 C231.56798078 351.23384676 226.92163802 369.68138436 214 385 C213.42636719 385.55171875 212.85273438 386.1034375 212.26171875 386.671875 C210.77041685 387.93635015 210.77041685 387.93635015 211 390 C210.43152344 390.25265625 209.86304688 390.5053125 209.27734375 390.765625 C206.70887359 392.1577975 204.76570814 393.83287454 202.5625 395.75 C188.25148821 407.34612867 170.03621791 411.03332498 152 410 C132.67991682 407.30959368 114.6439183 398.88021628 102.06640625 383.66015625 C97.34918347 377.1779147 93.66690914 370.11090587 90 363 C82.25142207 364.32145551 74.62488926 365.9631992 66.98828125 367.8203125 C65.89404343 368.08383514 64.7998056 368.34735779 63.67240906 368.61886597 C60.21840617 369.45137501 56.76544434 370.2881126 53.3125 371.125 C50.95384391 371.69429168 48.59512055 372.26330473 46.23632812 372.83203125 C40.49010433 374.21813617 34.74472644 375.60770308 29 377 C29.48597119 380.88105641 29.93849985 384.45751205 31.49609375 388.05859375 C31.80200439 388.76604736 32.10791504 389.47350098 32.4230957 390.20239258 C32.75784912 390.93997803 33.09260254 391.67756348 33.4375 392.4375 C33.79094482 393.21955811 34.14438965 394.00161621 34.50854492 394.80737305 C40.77933389 408.30080364 48.93700964 420.07845376 59 431 C59.86238281 431.94488281 60.72476563 432.88976562 61.61328125 433.86328125 C79.35109642 452.44200025 102.37235158 464.31206049 127 471 C128.04124023 471.28593018 128.04124023 471.28593018 129.10351562 471.57763672 C161.17353489 479.89649187 197.54663252 472.87742807 226.0703125 456.75 C235.57615665 451.14396009 243.89127503 444.4551606 252 437 C252.67289063 436.39800781 253.34578125 435.79601562 254.0390625 435.17578125 C278.89268874 411.79452623 294.10111557 376.22021563 295.25 342.328125 C295.42103815 332.72810201 295.21719807 323.38349898 293 314 C290.35535004 314 288.05493512 314.64909625 285.48046875 315.26928711 Z M126 317 C124.95166769 318.6301002 123.95571951 320.29390277 122.98046875 321.96875 C122.37009766 323.01546875 121.75972656 324.0621875 121.13085938 325.140625 C120.16889648 326.80351562 120.16889648 326.80351562 119.1875 328.5 C118.55779297 329.57765625 117.92808594 330.6553125 117.27929688 331.765625 C110.74502762 341.79463883 110.74502762 341.79463883 108 353 C119.56305505 359.10796258 129.66562448 364.22600636 143 364 C139.86267099 347.8526283 134.7612947 331.55552711 127 317 C126.67 317 126.34 317 126 317 Z M35 318 C30.36218568 328.32365421 26.28209522 338.66007611 23 349.5 C22.69763428 350.49652588 22.39526855 351.49305176 22.08374023 352.51977539 C20.50883519 357.67477718 20.50883519 357.67477718 20 363 C28.15156551 361.62518526 36.15974533 359.84078878 44.1875 357.875 C45.33025391 357.59785156 46.47300781 357.32070313 47.65039062 357.03515625 C50.43428684 356.35956637 53.21745713 355.6811383 56 355 C54.55771203 350.29625681 52.64759899 345.94595305 50.4375 341.5625 C50.09251465 340.87671875 49.7475293 340.1909375 49.39208984 339.484375 C46.79340702 334.39630519 44.03142689 329.41843161 41.125 324.5 C40.74400146 323.84717041 40.36300293 323.19434082 39.97045898 322.52172852 C39.03893971 320.9775602 38.02672412 319.48257259 37 318 C36.34 318 35.68 318 35 318 Z M213 351 C212.44054687 351.61746094 211.88109375 352.23492187 211.3046875 352.87109375 C200.67252401 364.1015301 188.58439294 371.07539979 174 376 C172.55367188 376.51046875 172.55367188 376.51046875 171.078125 377.03125 C153.46832519 382.17140778 133.40908056 379.69835427 116 375 C124.68864836 385.59822141 137.0817187 393.51538333 151 395 C168.24274994 396.01109319 183.80824344 392.19803692 197.3125 380.9375 C204.72667278 373.79248861 211.35783515 364.0024812 214 354 C213.505 352.515 213.505 352.515 213 351 Z " fill="#000000" transform="translate(149,0)"/>
</svg>
