<?xml version="1.0" encoding="UTF-8"?>
<svg version="1.0" xmlns="http://www.w3.org/2000/svg" width="512" height="512">
<path d="M0 0 C20.69760062 17.54796575 32.56050244 47.20636736 41.4375 72.0625 C41.68910889 72.76689209 41.94071777 73.47128418 42.19995117 74.19702148 C43.19450328 77.07839738 43.875 79.36591096 43.875 82.4375 C44.93074219 82.85708984 44.93074219 82.85708984 46.0078125 83.28515625 C47.90500801 84.04765308 49.79587264 84.82611338 51.6796875 85.62109375 C62.77732983 90.15333699 73.78945039 92.11624664 85.6237793 93.45532227 C115.40824378 96.85826421 139.9739316 107.99775224 159.98046875 131.01953125 C163.30402837 135.26135271 166.11158649 139.81741803 168.875 144.4375 C172.24847866 143.20813213 174.88438982 141.86158686 177.6875 139.625 C180.37406732 137.53038819 183.0510313 135.70284617 186 134 C192.31701831 130.11830969 196.07314865 124.47922624 199.69921875 118.13671875 C200.875 116.4375 200.875 116.4375 203.875 114.4375 C206.8125 114.3125 206.8125 114.3125 209.875 115.4375 C216.56347041 124.35546054 217.5556285 137.57245952 216.62890625 148.28125 C215.63291322 153.85175968 213.97506443 162.33743557 209.875 166.4375 C210.70902344 166.59605469 211.54304688 166.75460938 212.40234375 166.91796875 C220.68622345 168.63547416 230.8058763 170.94401279 235.875 178.4375 C236.375 182 236.375 182 235.875 185.4375 C234.25 187.4375 234.25 187.4375 231.875 188.4375 C227.2940532 188.02630702 224.05366845 186.66015873 220.0625 184.4375 C213.18916764 180.92032006 207.89802874 179.48238075 200.3125 181.3125 C194.76028765 183.17478652 189.81278868 186.14387675 184.78808594 189.10473633 C180.94796502 191.3527347 177.31591073 193.11748582 173.0625 194.5 C169.79130894 195.74250282 168.21669934 196.646922 166.75 199.875 C165.7001264 203.64886998 165.87666397 207.23110528 166 211.125 C166.13696712 217.02143457 166.13696712 217.02143457 163.75 220.8125 C160.875 222.4375 160.875 222.4375 157.75 222.625 C154.875 221.4375 154.875 221.4375 153 219.1875 C151.12514831 212.93799437 150.79463312 205.67860064 152.875 199.4375 C150.956875 199.45490234 150.956875 199.45490234 149 199.47265625 C147.29166814 199.48204269 145.58333468 199.49114197 143.875 199.5 C143.03582031 199.50837891 142.19664062 199.51675781 141.33203125 199.52539062 C137.27433407 199.54111813 133.50219909 199.41620413 129.5078125 198.67578125 C125.89936095 198.05735808 125.89936095 198.05735808 123.5546875 200.0703125 C117.68298638 208.17885214 113.5095321 216.68974389 110.1875 226.125 C108.875 229.4375 108.875 229.4375 105.875 231.4375 C102.52929178 231.29809549 100.56536391 230.99424509 97.9375 228.875 C95.93095319 224.27174555 97.48824134 219.0847694 99.22265625 214.54296875 C99.77962558 213.2306665 100.35170752 211.92469196 100.9375 210.625 C101.39298218 209.59439453 101.39298218 209.59439453 101.85766602 208.54296875 C104.76307823 202.2237156 108.47433165 196.8326051 112.875 191.4375 C111.60200132 188.6453095 110.2717365 186.67559049 108.125 184.5 C99.90418778 175.15084101 96.73427133 162.9931441 96.51171875 150.85546875 C96.875 148.4375 96.875 148.4375 98.21484375 146.64453125 C99.875 145.4375 99.875 145.4375 102.75 144.9375 C106.9171023 145.60423637 108.01987932 147.37844212 110.875 150.4375 C117.31165286 155.69383755 124.97211928 157.45068027 132.875 159.4375 C127.72864085 147.33660145 113.3866366 139.51737981 101.86328125 134.5625 C92.04512098 130.86625143 82.36812897 128.96429558 71.95288086 128.20825195 C67.55205488 127.84295431 64.32671689 127.29154607 60.875 124.4375 C60.04243649 118.60955543 60.04243649 118.60955543 62.08203125 115.73828125 C68.0061961 111.44035773 80.74238487 114.60444638 87.59375 115.625 C105.05653642 118.65919949 120.67254826 126.69450296 133.875 138.4375 C134.63296875 139.10136719 135.3909375 139.76523438 136.171875 140.44921875 C143.38300037 147.1754581 150.09797541 156.24741344 153.875 165.4375 C153.44021739 170.87228261 153.44021739 170.87228261 150.875 173.4375 C147.97434418 173.69708002 145.21571375 173.81705183 142.3125 173.8125 C141.05312622 173.81443359 141.05312622 173.81443359 139.76831055 173.81640625 C131.12865803 173.67385644 123.14400097 171.80914688 114.875 169.4375 C120.56705341 177.49635225 126.00910219 183.06775004 135.875 185.4375 C154.38731306 187.65092874 171.97105502 182.31822086 186.828125 171.234375 C195.81265166 163.5410378 201.34003886 155.35500726 202.875 143.4375 C202.51891408 141.17434752 202.51891408 141.17434752 201.875 139.4375 C200.92625 140.30375 199.9775 141.17 199 142.0625 C196.09496456 144.5668409 193.12554019 146.57031698 189.8125 148.5 C183.86420601 151.99158558 179.51137437 155.2549614 175.875 161.1875 C173.26420828 165.27069645 173.26420828 165.27069645 169.8125 166.75 C165.93025013 166.33699469 164.68366896 165.13863952 161.875 162.4375 C160.49315704 159.91816436 159.28559064 157.48855318 158.125 154.875 C154.63574976 147.47953454 150.44829625 141.46679322 144.875 135.4375 C144.28976562 134.78394531 143.70453125 134.13039062 143.1015625 133.45703125 C136.51280515 126.4506766 128.55706331 121.60673455 120.0625 117.25 C119.14029663 116.76865601 119.14029663 116.76865601 118.19946289 116.27758789 C106.49477917 110.47246046 94.23959172 108.52486584 81.4375 106.9375 C70.56662956 105.58639774 60.32566574 103.80174826 49.875 100.4375 C49.99770264 101.22954834 50.12040527 102.02159668 50.24682617 102.83764648 C50.68259946 105.65580806 51.11431941 108.47457591 51.54541016 111.29345703 C51.77258226 112.77125363 52.00152961 114.24877806 52.23193359 115.72607422 C52.61650352 118.19184611 52.99581505 120.65839479 53.375 123.125 C53.5085791 123.97263916 53.6421582 124.82027832 53.77978516 125.69360352 C54.42838255 129.93187959 54.96082338 134.12594876 55.23046875 138.40625 C55.76907706 146.5443888 56.26233783 152.24894054 62.5234375 158.0546875 C80.89020936 176.66553607 90.06788371 208.92074914 89.96289062 234.5390625 C89.95451172 235.33054688 89.94613281 236.12203125 89.9375 236.9375 C89.93298828 237.75992188 89.92847656 238.58234375 89.92382812 239.4296875 C89.91218489 241.43232396 89.89425556 243.43492227 89.875 245.4375 C99.7381811 242.49498431 110.38006301 239.09735665 115.92700195 229.64477539 C117.25919217 226.99273315 118.52782911 224.31864923 119.74804688 221.61328125 C121.43178377 218.17777769 122.25768179 216.64901766 125.953125 215.3828125 C128.875 215.4375 128.875 215.4375 131.6875 217.0625 C137.0028597 222.83346196 135.2439772 233.71570604 135.01123047 241.12890625 C134.35231871 252.29498073 129.70480038 263.42561124 121.875 271.4375 C119.83955892 273.07213994 117.77177271 274.62755842 115.64453125 276.140625 C113.75332867 277.45761066 113.75332867 277.45761066 111.875 279.4375 C112.4525 279.87320312 113.03 280.30890625 113.625 280.7578125 C119.70515682 285.63460495 119.70515682 285.63460495 120.5625 289.6875 C119.875 292.4375 119.875 292.4375 118.8125 294.3125 C115.76171717 296.08392229 113.35244494 295.72400422 109.875 295.4375 C106.5234375 293.7578125 106.5234375 293.7578125 103.25 291.5625 C92.34378821 284.33486796 82.81477512 284.22627588 70 284.125 C68.17662109 284.08149414 68.17662109 284.08149414 66.31640625 284.03710938 C56.45666871 283.96797421 48.91858383 285.90219309 40.8125 291.625 C40.07902344 292.13417969 39.34554687 292.64335937 38.58984375 293.16796875 C36.93701284 294.32629357 36.93701284 294.32629357 35.875 295.4375 C30.0339404 295.80836093 30.0339404 295.80836093 27.875 295.4375 C25.52950326 291.91925489 25.29508597 290.57974306 25.875 286.4375 C28.25 283.75 28.25 283.75 30.875 281.4375 C31.535 280.4475 32.195 279.4575 32.875 278.4375 C32.30652344 278.025 31.73804688 277.6125 31.15234375 277.1875 C17.69674691 267.12388166 11.29781113 256.15111116 8.875 239.4375 C8.25088246 232.15287813 7.63710519 220.63678654 12.26953125 214.62890625 C13.875 213.4375 13.875 213.4375 16.75 212.875 C20.31278648 213.51630157 21.36036079 214.55251738 23.48046875 217.40625 C23.94066406 218.0765625 24.40085938 218.746875 24.875 219.4375 C33.16521691 231.5095462 41.33456739 239.50483623 54.875 245.4375 C55.69967922 228.39412943 52.03842931 206.14757335 41.5703125 192.19921875 C36.25405959 186.67472552 29.63786852 182.77711139 21.86987305 182.31933594 C16.44404407 182.26319194 11.46986853 182.84443559 6.1875 184.0625 C5.41003418 184.24143799 4.63256836 184.42037598 3.83154297 184.60473633 C-11.62127213 188.35946318 -26.98554308 195.89673213 -36.125 209.4375 C-40.50894896 217.07966572 -44.0440046 224.83605236 -46.125 233.4375 C-35.51737983 229.74222248 -28.5299862 225.42542126 -23.125 215.4375 C-20.17763158 210.49013158 -20.17763158 210.49013158 -19.125 209.4375 C-15.75 209.125 -15.75 209.125 -12.125 209.4375 C-10.07542646 211.19966208 -9.24660576 212.6615157 -8.82714844 215.33813477 C-8.68114725 217.69279778 -8.658356 220.01595494 -8.6875 222.375 C-8.69885986 223.64718384 -8.69885986 223.64718384 -8.71044922 224.94506836 C-9.02706873 237.1487861 -12.78994729 248.6558202 -21.23046875 257.69140625 C-31.05931568 266.87740261 -40.81349232 269.55622325 -54 269.75 C-54.75015381 269.76772461 -55.50030762 269.78544922 -56.27319336 269.80371094 C-61.5891484 269.79648899 -61.5891484 269.79648899 -64.11328125 268.10546875 C-65.69050679 265.505178 -65.43404148 263.40429823 -65.125 260.4375 C-63.125 257.4375 -63.125 257.4375 -60.125 256.4375 C-57.93876122 256.30956665 -55.75086429 256.20907547 -53.5625 256.125 C-43.89430766 255.46716423 -35.70552482 252.85586352 -29.125 245.4375 C-28.09079119 243.7918421 -27.08346076 242.12839644 -26.125 240.4375 C-26.7334375 240.75203125 -27.341875 241.0665625 -27.96875 241.390625 C-33.68469444 244.18135082 -39.35522757 246.23814938 -45.5 247.8125 C-46.51610352 248.08175293 -46.51610352 248.08175293 -47.55273438 248.35644531 C-52.17356054 249.48073949 -55.75586684 249.8263022 -59.9375 247.375 C-63.43165534 241.67400971 -60.48260687 233.1231164 -59.09765625 227.09375 C-53.93627041 207.69191407 -43.07086984 191.71919908 -25.69140625 181.4375 C-9.32490767 172.13825263 11.63955457 164.92084081 30.5625 169.625 C42.14468906 173.19131433 50.89870476 179.6908382 57.17578125 190.05859375 C65.88073844 207.36845114 69.02074455 227.0731229 69.1875 246.25 C69.21650391 247.38115234 69.24550781 248.51230469 69.27539062 249.67773438 C69.28376953 250.75990234 69.29214844 251.84207031 69.30078125 252.95703125 C69.31536377 253.93776611 69.32994629 254.91850098 69.3449707 255.92895508 C68.875 258.4375 68.875 258.4375 66.98095703 260.2644043 C63.01236007 262.47505911 59.15776606 261.36878604 54.875 260.4375 C42.48230852 256.76671501 33.27870828 250.07945537 23.875 241.4375 C26.01799988 252.15249941 30.71521764 260.18367198 39.875 266.4375 C46.43586857 270.09158983 52.0210868 271.03367177 59.46484375 270.96875 C60.94169395 270.97449036 60.94169395 270.97449036 62.44837952 270.98034668 C64.51824982 270.98305305 66.58815507 270.97578185 68.65795898 270.95898438 C71.8007549 270.93757999 74.94125911 270.95881839 78.08398438 270.984375 C80.10677581 270.98173105 82.12956584 270.97660469 84.15234375 270.96875 C85.54186501 270.98089539 85.54186501 270.98089539 86.9594574 270.99328613 C96.06745648 270.8644195 105.21203925 267.88971017 111.875 261.4375 C116.61382603 255.60808075 116.61382603 255.60808075 117.875 248.4375 C117.01841797 249.01757812 117.01841797 249.01757812 116.14453125 249.609375 C105.6363038 256.35869756 93.43563301 260.24786342 80.875 259.4375 C78.66430664 258.26977539 78.66430664 258.26977539 76.875 256.4375 C76.37670898 253.90405273 76.37670898 253.90405273 76.37109375 250.87109375 C76.3546582 249.75452393 76.33822266 248.6379541 76.32128906 247.48754883 C76.31838867 246.29540771 76.31548828 245.1032666 76.3125 243.875 C75.68177039 212.86890592 67.46675232 183.49655967 45.6953125 160.43359375 C42.7719857 157.22797145 42.64142812 154.92693882 42.26171875 150.671875 C42.09482544 148.88837646 42.09482544 148.88837646 41.92456055 147.06884766 C41.80508057 145.78800293 41.68560059 144.5071582 41.5625 143.1875 C37.19277506 99.19875565 25.43963746 45.00213746 -7.125 12.4375 C-10.08317107 12.18744614 -10.08317107 12.18744614 -13.125 12.4375 C-13.785 13.0975 -14.445 13.7575 -15.125 14.4375 C-14.94029338 20.06763131 -13.06625325 23.59084755 -9.8125 28 C13.11962039 60.75657329 31.72042888 103.73928304 32.125 144.125 C32.13450684 144.91696777 32.14401367 145.70893555 32.15380859 146.52490234 C32.12040668 152.19209332 32.12040668 152.19209332 29.875 154.4375 C27.69873047 154.87646484 27.69873047 154.87646484 24.9921875 155.1484375 C23.99759521 155.25647705 23.00300293 155.3645166 21.97827148 155.47583008 C20.91294189 155.58693115 19.8476123 155.69803223 18.75 155.8125 C-9.24162223 159.0525878 -32.80253978 167.7000459 -51.75 189.5625 C-62.47593129 203.1688934 -68.11519808 218.93178087 -71.3515625 235.828125 C-72.19423821 238.67109155 -72.6483481 239.82064647 -75.125 241.4375 C-85.48910836 243.07161368 -95.14445372 240.55689158 -103.5625 234.4375 C-106.25126867 232.26219229 -108.77616319 229.98207322 -111.125 227.4375 C-111.56742581 234.40570652 -110.84877034 239.44199555 -107.125 245.4375 C-100.1908634 253.06505026 -89.67920236 255.8078538 -79.71875 256.78515625 C-76.45449206 257.60613679 -75.1512304 258.77897075 -73.125 261.4375 C-73.1875 265.0625 -73.1875 265.0625 -74.125 268.4375 C-78.32996526 271.24081017 -82.29208761 270.86488795 -87.12841797 270.13525391 C-89.12548211 269.73106841 -91.09020719 269.26129953 -93.0625 268.75 C-93.75835205 268.57428467 -94.4542041 268.39856934 -95.17114258 268.2175293 C-99.95438706 266.93571568 -104.0693096 265.22566293 -108.23046875 262.48828125 C-110.68810672 261.12517895 -112.29274945 260.5914707 -115.125 260.4375 C-117.79908542 261.42253368 -120.12138093 262.43756323 -122.625 263.75 C-123.3269751 264.11174316 -124.0289502 264.47348633 -124.75219727 264.84619141 C-141.20462044 273.61312354 -152.58297781 285.95289576 -161.125 302.4375 C-161.6096875 303.365625 -162.094375 304.29375 -162.59375 305.25 C-173.29791727 327.18048904 -174.86627242 355.32411458 -167.125 378.4375 C-159.59390148 399.88454026 -146.58086922 418.01472936 -126.07470703 428.51953125 C-105.26519744 438.31714658 -80.73538151 440.54608405 -58.8046875 433.34765625 C-56.98751119 432.65197976 -55.17329061 431.94849098 -53.36328125 431.234375 C-50.46447526 430.20233936 -48.16161286 429.90609275 -45.125 430.4375 C-43.03348515 431.87992403 -42.31525894 432.99844091 -41.3125 435.3125 C-41.04665988 438.32535472 -41.63342061 439.79297005 -43.125 442.4375 C-45.50693464 443.7713834 -47.51666935 444.68380731 -50.0625 445.5625 C-50.76616699 445.81402832 -51.46983398 446.06555664 -52.19482422 446.32470703 C-77.59550004 454.902786 -106.84565238 453.14725211 -131.03125 441.6171875 C-138.78564844 437.74866858 -145.68105978 433.27495173 -152.125 427.4375 C-152.94355469 426.71175781 -153.76210937 425.98601562 -154.60546875 425.23828125 C-172.22695768 408.70959783 -183.93732575 383.46342968 -185.30200195 359.30395508 C-185.87800422 327.84413424 -181.43165398 300.16005041 -160.125 275.4375 C-159.33029297 274.42623047 -159.33029297 274.42623047 -158.51953125 273.39453125 C-149.05868665 261.69111608 -135.40486116 254.03361151 -122.125 247.4375 C-122.33648682 246.90527832 -122.54797363 246.37305664 -122.76586914 245.82470703 C-124.96070597 239.87603568 -125.6353123 234.62955439 -125.5625 228.3125 C-125.55637695 227.40322754 -125.55025391 226.49395508 -125.54394531 225.55712891 C-125.36474995 217.72077798 -125.09760521 206.31457162 -119.17578125 200.53515625 C-117.125 199.4375 -117.125 199.4375 -114.0625 199.5 C-110.56910395 200.61491363 -110.08059139 201.42262994 -108.125 204.4375 C-106.58836356 207.41652584 -105.15851185 210.43614568 -103.72265625 213.46484375 C-100.68707165 219.11296082 -97.80738954 221.98899293 -92 224.75 C-90.94554688 225.26175781 -89.89109375 225.77351562 -88.8046875 226.30078125 C-86.30327067 227.56767179 -86.30327067 227.56767179 -84.125 227.4375 C-83.83367187 226.37273437 -83.54234375 225.30796875 -83.2421875 224.2109375 C-77.90854691 205.14328288 -70.23196774 189.48099271 -57.125 174.4375 C-56.58488281 173.81230469 -56.04476562 173.18710938 -55.48828125 172.54296875 C-38.90847898 154.7102847 -13.01255046 144.6916773 10.875 142.4375 C13.54471202 142.38627806 16.20427803 142.40618023 18.875 142.4375 C16.57721426 127.4152616 13.55936685 112.90350827 8.875 98.4375 C8.62411621 97.66019531 8.37323242 96.88289063 8.11474609 96.08203125 C0.02715202 71.57480085 -12.32348011 48.60334712 -26.91259766 27.3828125 C-29.97832258 22.46382414 -29.55100495 17.03182916 -29.125 11.4375 C-27.36869599 5.96196396 -23.81783444 2.58228325 -19.125 -0.5625 C-12.575035 -3.35229991 -6.33232161 -3.1661608 0 0 Z " fill="#000000" transform="translate(196.125,16.5625)"/>
<path d="M0 0 C8.9275166 2.72906199 16.3295826 7.79780038 23.40234375 13.734375 C24.39234375 14.45625 25.38234375 15.178125 26.40234375 15.921875 C41.17384931 28.61231209 49.31048326 50.34107473 51.22143555 69.27050781 C54.10611561 108.55821527 46.56357544 150.10659155 20.40234375 180.734375 C-2.7579098 206.54656598 -33.53824431 221.38184354 -68.22265625 223.546875 C-105.77038867 225.26431794 -140.76650683 213.49347817 -168.9296875 188.6796875 C-193.6896812 165.14060079 -204.18788309 130.10464921 -205.78515625 96.828125 C-206.18690092 72.52257246 -199.33227889 47.01423785 -182.59765625 28.734375 C-181.72496094 27.77015625 -180.85226563 26.8059375 -179.953125 25.8125 C-170.75830977 15.98112064 -156.60575033 3.93771027 -142.59765625 3.234375 C-139.59765625 3.734375 -139.59765625 3.734375 -137.66015625 4.859375 C-136.06775342 7.66949764 -136.144463 9.56202224 -136.59765625 12.734375 C-138.78694745 16.11782504 -141.45492919 17.13738589 -145.09765625 18.484375 C-151.59214328 20.91500402 -156.99534921 24.70364537 -162.59765625 28.734375 C-163.19578125 29.15589844 -163.79390625 29.57742188 -164.41015625 30.01171875 C-179.84805324 41.79989553 -188.04670542 62.53172671 -190.97265625 81.171875 C-194.41510322 111.87288164 -185.5323672 145.89181858 -166.35375977 170.20288086 C-148.05673221 192.77668771 -118.94187548 205.92075209 -90.29345703 208.98046875 C-59.96399812 211.7459623 -30.02325698 204.81193969 -5.59765625 186.046875 C22.31845002 162.69397841 33.89407705 132.37730918 37.1796875 96.66943359 C38.92866429 73.61439082 36.35334446 51.79645661 22.40234375 32.734375 C21.74878906 31.78884766 21.74878906 31.78884766 21.08203125 30.82421875 C15.06175209 22.91133687 5.57004383 17.59999258 -3.34765625 13.609375 C-8.40440472 11.20139954 -8.40440472 11.20139954 -10.09765625 7.109375 C-9.59765625 3.734375 -9.59765625 3.734375 -8.16015625 1.234375 C-5.21128783 -0.49179188 -3.34420452 -0.62275689 0 0 Z " fill="#000000" transform="translate(343.59765625,274.265625)"/>
<path d="M0 0 C23.66954106 12.76909452 37.1452043 35.60339795 45.03125 60.5390625 C51.16227445 81.56450389 53.59139766 106.29793921 47.03125 127.5390625 C46.6909375 128.64636719 46.350625 129.75367188 46 130.89453125 C41.67464895 143.35914086 34.06171214 153.10308737 25.03125 162.5390625 C24.35707031 163.28800781 23.68289063 164.03695312 22.98828125 164.80859375 C9.77897506 178.9596516 -12.56184233 191.71871712 -32.25 192.703125 C-34.96875 192.5390625 -34.96875 192.5390625 -36.84375 191.4765625 C-38.61148274 188.4321339 -38.33698916 185.9759613 -37.96875 182.5390625 C-35.51151724 178.81179932 -31.34922991 178.37875235 -27.28125 177.3515625 C-13.73044674 173.62908568 -1.92322327 167.36252088 9.03125 158.5390625 C10.00835937 157.77078125 10.98546875 157.0025 11.9921875 156.2109375 C25.07044654 145.22478274 33.98218566 128.38160539 36.03125 111.5390625 C37.17113528 96.18485669 36.60980825 81.27835167 32.03125 66.5390625 C31.81162598 65.81541504 31.59200195 65.09176758 31.36572266 64.34619141 C26.99105725 50.23766328 20.90612113 37.67539421 11.03125 26.5390625 C10.47824219 25.90355469 9.92523438 25.26804688 9.35546875 24.61328125 C0.15550757 14.71069773 -12.9151896 8.5524526 -25.875 5.3125 C-28.26658547 4.42904119 -29.41439046 3.54943289 -30.96875 1.5390625 C-31.39353586 -2.53888175 -31.28157587 -3.99169869 -28.96875 -7.4609375 C-19.60236578 -10.58306557 -8.24867134 -4.05921458 0 0 Z " fill="#000000" transform="translate(450.96875,169.4609375)"/>
<path d="M0 0 C2.02307815 1.54500977 2.88843717 2.4333373 3.38476562 4.9543457 C3.39185547 5.68741943 3.39894531 6.42049316 3.40625 7.17578125 C3.4259082 7.99691406 3.44556641 8.81804687 3.46582031 9.6640625 C3.47709961 10.53804688 3.48837891 11.41203125 3.5 12.3125 C4.00394242 27.75196668 7.52994151 40.70503004 14.875 54.375 C16.4937209 57.54117736 17 58.85291696 17 62.5 C16 65 16 65 13 67 C10.1875 67.625 10.1875 67.625 7 67 C-3.70105212 58.11076623 -8.41592408 38.24225041 -10 25 C-10.30465371 21.20616133 -10.44778327 17.43025343 -10.5 13.625 C-10.51861084 12.72692627 -10.53722168 11.82885254 -10.55639648 10.90356445 C-10.49519847 4.69285731 -10.49519847 4.69285731 -8.16015625 1.42578125 C-5.2361474 -0.50417034 -3.43437407 -0.51150252 0 0 Z " fill="#000000" transform="translate(197,357)"/>
<path d="M0 0 C2.8125 0.9375 2.8125 0.9375 4.8125 3.9375 C4.87974142 6.73532775 4.84992481 9.45845883 4.75 12.25 C4.52707318 26.70550115 7.73211278 38.81691917 15.8125 50.9375 C15.35966981 57.39033019 15.35966981 57.39033019 12.8125 59.9375 C9.5625 60.5625 9.5625 60.5625 5.8125 59.9375 C-3.65124799 51.52527956 -8.13816563 36.10977864 -9.1875 23.9375 C-9.31448635 19.59787954 -9.30242373 15.27723878 -9.1875 10.9375 C-9.17074219 10.19371094 -9.15398438 9.44992187 -9.13671875 8.68359375 C-8.88672264 5.37650235 -8.20295877 3.95516716 -6 1.4375 C-3.1875 -0.0625 -3.1875 -0.0625 0 0 Z " fill="#000000" transform="translate(57.1875,348.0625)"/>
<path d="M0 0 C3.375 0.625 3.375 0.625 5.375 2.1875 C6.84419958 5.76867397 6.41383851 7.92413781 5.375 11.625 C3.25 14.625 3.25 14.625 0.375 16.625 C-3.3125 16.625 -3.3125 16.625 -6.625 15.625 C-8.98586122 12.08370816 -9.19769578 10.79749782 -8.625 6.625 C-6.08625535 2.47069058 -4.8651313 0.83881574 0 0 Z " fill="#000000" transform="translate(66.625,318.375)"/>
<path d="M0 0 C2 2 2 2 2.375 5.375 C2 9 2 9 0.4375 11.5 C-2 13 -2 13 -5.625 12.9375 C-9 12 -9 12 -11 9 C-10.86714936 5.28018216 -10.75057131 2.889566 -8.3125 0 C-5.16357865 -1.36169572 -3.25905865 -0.92103831 0 0 Z " fill="#000000" transform="translate(205,330)"/>
</svg>
