<?xml version="1.0" encoding="UTF-8"?>
<svg version="1.0" xmlns="http://www.w3.org/2000/svg" width="512" height="512">
<path d="M0 0 C0.73340607 -0.00812714 1.46681213 -0.01625427 2.22244263 -0.02462769 C16.9379718 -0.14677817 31.09130743 1.73466279 45.0625 6.5625 C45.94333252 6.86293213 46.82416504 7.16336426 47.73168945 7.47290039 C68.35323329 14.78973662 85.6767619 28.56984137 95.45947266 48.38427734 C100.94779057 60.31807582 103.41794911 72.33930683 104.375 85.375 C104.95475586 85.50189209 105.53451172 85.62878418 106.13183594 85.75952148 C108.36213475 86.37147004 110.20719664 87.17684184 112.265625 88.22265625 C113.32910156 88.75922852 113.32910156 88.75922852 114.4140625 89.30664062 C115.50847656 89.86641602 115.50847656 89.86641602 116.625 90.4375 C117.37007812 90.81455078 118.11515625 91.19160156 118.8828125 91.58007812 C120.71537531 92.50810673 122.54543676 93.44107179 124.375 94.375 C124.643125 93.11429687 124.91125 91.85359375 125.1875 90.5546875 C129.04331541 73.06924861 134.56323801 56.57032803 142.5 40.5 C142.89533936 39.69812256 143.29067871 38.89624512 143.69799805 38.07006836 C150.60906781 24.5825881 150.60906781 24.5825881 155.34448242 22.51513672 C158.89162201 21.85395288 161.12341003 22.24652853 164.3125 23.875 C166.33582701 26.32751759 167.25922025 27.9729795 167.62280273 31.13085938 C167.03089806 36.49124141 163.54486095 41.26476068 160.9375 45.875 C152.31705826 61.65870241 145.83137682 77.90350651 142.84765625 95.70703125 C142.375 98.375 142.375 98.375 141.375 100.375 C143.02822266 100.32279297 143.02822266 100.32279297 144.71484375 100.26953125 C170.83128692 99.69755356 195.75690107 106.2328709 215.375 124.375 C232.0661543 140.5875549 237.9939211 162.67437995 244.546875 184.24853516 C253.74473114 214.42900063 266.99149792 239.72396785 287.07128906 264.12084961 C303.16283001 283.72418232 314.98671808 306.82762239 321.375 331.375 C321.58382813 332.14086426 321.79265625 332.90672852 322.0078125 333.69580078 C328.99070394 360.16339007 328.26106053 393.08482278 317.375 418.375 C315.24890959 421.11018658 314.50313966 421.34177861 311 422.25 C306.97343289 422.38884714 305.48688472 421.84620257 302.375 419.375 C299.4879214 413.60084279 302.1430035 406.6975415 303.8125 400.875 C309.34094478 381.26992691 309.5294296 359.15448682 304.375 339.375 C304.17632324 338.59785645 303.97764648 337.82071289 303.77294922 337.02001953 C297.41784222 312.79444686 286.46528624 292.57513719 270.81347656 273.16992188 C251.03672303 248.49261503 236.75725562 221.90913908 227.70703125 191.58984375 C227.47340378 190.8098703 227.23977631 190.02989685 226.99906921 189.22628784 C225.83584036 185.32963182 224.69319337 181.4286305 223.58276367 177.51660156 C218.00554035 158.26180486 209.219574 139.5257648 191.5234375 128.6171875 C174.96900409 119.92501798 157.70851189 118.14908161 139.375 117.375 C139.42140625 118.39980469 139.4678125 119.42460938 139.515625 120.48046875 C139.55316011 121.84111656 139.58955841 123.20179605 139.625 124.5625 C139.65851563 125.23603516 139.69203125 125.90957031 139.7265625 126.60351562 C139.79679119 130.20273597 139.47443064 132.21288482 137.578125 135.3046875 C134.57914717 138.12287589 132.43551971 138.30249072 128.375 138.375 C124.97691974 137.27291992 124.42768083 136.45402124 122.375 133.375 C122.23278935 130.77254502 122.18697068 128.28382316 122.25 125.6875 C122.25902344 124.98560547 122.26804687 124.28371094 122.27734375 123.56054688 C122.30086296 121.83188475 122.33673287 120.10339855 122.375 118.375 C108.53654144 121.2231089 95.21333371 124.38235376 84.2421875 133.859375 C82.375 135.375 82.375 135.375 80.2578125 136.328125 C77.84886099 137.66754202 77.47748754 138.88202817 76.375 141.375 C74.7328193 143.73279093 73.03214616 146.04106294 71.32421875 148.3515625 C66.40385853 155.98354408 63.29390288 164.00249393 60.66796875 172.65625 C59.99161403 174.82033674 59.31517913 176.98439843 58.63867188 179.1484375 C57.60243266 182.49932636 56.56978477 185.85128666 55.53979492 189.20410156 C45.32197296 222.35384187 30.43997189 249.52277267 8.84375 276.54296875 C-15.56398067 307.30526362 -28.68778454 345.36616326 -24.66040039 384.70678711 C-23.73877648 392.53519445 -22.08850798 399.87065061 -19.625 407.375 C-19.41891113 408.01743652 -19.21282227 408.65987305 -19.00048828 409.32177734 C-14.24526922 423.90753154 -6.87136087 436.90883426 3.375 448.375 C4.55449219 449.69564453 4.55449219 449.69564453 5.7578125 451.04296875 C38.82804195 486.0381817 90.55575489 493.82532813 136.3203125 495.2421875 C183.83912581 496.36285347 237.18246319 488.09416199 273.16796875 454.4921875 C273.89628906 453.79351562 274.62460937 453.09484375 275.375 452.375 C276.01050781 451.77945312 276.64601563 451.18390625 277.30078125 450.5703125 C281.23972828 446.7798402 284.55559976 442.69292415 287.796875 438.29296875 C290.04178179 435.56462906 291.73545566 434.45841883 295.25 434 C299.28929885 434.48471586 300.76918595 435.23269482 303.375 438.375 C304.36594139 441.59720016 304.25137132 444.12936901 303.375 447.375 C301.12457214 451.10005033 298.31385803 454.17973154 295.375 457.375 C294.68921875 458.1896875 294.0034375 459.004375 293.296875 459.84375 C263.18458181 495.08628573 215.57673375 507.79912355 171.17623901 512.15936279 C166.27531075 512.53663245 161.37830578 512.55825941 156.46484375 512.578125 C155.33969864 512.58382507 154.21455353 512.58952515 153.05531311 512.59539795 C150.67775395 512.60480171 148.30018203 512.61136342 145.92260742 512.61523438 C142.37458867 512.62483205 138.82717745 512.6558556 135.27929688 512.6875 C84.88637145 512.92187141 31.48092973 501.63369755 -5.6953125 465.37109375 C-31.84830085 439.02088614 -43.27440126 403.8641318 -43.64599609 367.30957031 C-43.52196712 340.71514616 -35.25116269 314.55321241 -22.625 291.375 C-22.08359375 290.3540625 -21.5421875 289.333125 -20.984375 288.28125 C-15.3870991 278.17354789 -8.17920518 269.15524302 -1.05078125 260.09765625 C19.1831116 234.25952898 31.17956028 207.88170576 40.4375 176.5 C45.27249398 160.14266826 50.23992663 144.64411969 61.375 131.375 C62.44041016 130.06789062 62.44041016 130.06789062 63.52734375 128.734375 C73.67758228 116.818102 88.19235441 108.25435302 103.375 104.375 C100.84449154 102.3059372 98.59637885 101.02926454 95.375 100.375 C92.22854473 101.42688067 89.58700926 102.94054248 86.703125 104.578125 C63.43171049 117.14250373 32.23873762 118.38599176 7.0625 111.375 C-19.42076794 103.30056794 -40.4770346 86.78291384 -60.625 68.375 C-61.53765625 67.56675781 -62.4503125 66.75851563 -63.390625 65.92578125 C-71.99836857 58.22714429 -79.87984175 49.93506726 -87.625 41.375 C-88.45257813 40.48167969 -89.28015625 39.58835938 -90.1328125 38.66796875 C-93.87356693 34.34414126 -95.40138491 31.18382875 -95.359375 25.41796875 C-94.19168212 22.16954652 -92.54419979 21.23893626 -89.625 19.375 C-86.00727231 17.73340331 -82.30681451 16.38589654 -78.5625 15.0625 C-76.9225708 14.47927979 -76.9225708 14.47927979 -75.24951172 13.88427734 C-62.58800658 9.5048271 -49.69644066 6.26760596 -36.625 3.375 C-35.79436035 3.18147949 -34.9637207 2.98795898 -34.10791016 2.78857422 C-22.84205847 0.22269501 -11.50431489 0.07497579 0 0 Z M-36.75 20.875 C-37.77440186 21.08858154 -38.79880371 21.30216309 -39.85424805 21.5222168 C-44.0762436 22.44414755 -47.8083208 23.29577252 -51.625 25.375 C-48.40425994 27.16183573 -45.29625423 28.05133639 -41.71875 28.8984375 C-40.51645752 29.19145752 -39.31416504 29.48447754 -38.07543945 29.78637695 C-37.43273102 29.942565 -36.79002258 30.09875305 -36.12783813 30.25967407 C-22.87226222 33.50484524 -9.88375005 37.37503998 3.0625 41.6875 C3.85188965 41.94770935 4.6412793 42.2079187 5.45458984 42.47601318 C7.70606583 43.22076561 9.95328067 43.97701082 12.19921875 44.73828125 C12.86769333 44.9599144 13.53616791 45.18154755 14.22489929 45.40989685 C17.72026225 46.6161583 20.68139506 47.80089405 23.375 50.375 C24.4375 53.75 24.4375 53.75 24.375 57.375 C22.5 60.375 22.5 60.375 19.375 62.375 C11.79765651 62.14173521 5.28077031 59.83485315 -1.8125 57.3125 C-11.95847076 53.81491025 -22.12591978 50.73060781 -32.5 48 C-34.32374146 47.51841431 -34.32374146 47.51841431 -36.18432617 47.02709961 C-39.65984658 46.12298255 -43.14028679 45.2429618 -46.625 44.375 C-47.83446289 44.06916992 -49.04392578 43.76333984 -50.29003906 43.44824219 C-51.4550293 43.16368164 -52.62001953 42.87912109 -53.8203125 42.5859375 C-54.86461426 42.3286084 -55.90891602 42.0712793 -56.98486328 41.80615234 C-59.72218381 41.14906431 -59.72218381 41.14906431 -62.625 42.375 C-53.98461532 51.22727866 -45.40752504 59.78167853 -35.625 67.375 C-34.83222656 68.035 -34.03945312 68.695 -33.22265625 69.375 C-8.43637849 89.94319159 17.94571056 100.0536756 50.375 97.375 C56.21637335 96.58817708 61.76519281 95.15558727 67.375 93.375 C68.37402344 93.06691406 69.37304688 92.75882812 70.40234375 92.44140625 C72.40760312 91.79564476 74.39516214 91.09494104 76.375 90.375 C72.98831246 87.55736523 69.27723088 85.83897618 65.2734375 84.08984375 C64.59576324 83.78808731 63.91808899 83.48633087 63.21987915 83.1754303 C61.06535221 82.21630219 58.90804388 81.26368601 56.75 80.3125 C53.90126796 79.0560599 51.05537109 77.79347935 48.2109375 76.52734375 C47.55572113 76.24084457 46.90050476 75.9543454 46.22543335 75.65916443 C43.5174972 74.45376456 41.49055255 73.49055255 39.375 71.375 C38.39429939 68.35117312 38.26037579 66.75414161 39.1875 63.6875 C40.375 61.375 40.375 61.375 42.375 59.375 C49.5479581 58.23518748 55.36875404 61.6676537 61.75 64.625 C62.83539063 65.11613281 63.92078125 65.60726562 65.0390625 66.11328125 C69.06552336 67.93685954 73.08245331 69.78086416 77.09863281 71.62695312 C77.90397461 71.99240234 78.70931641 72.35785156 79.5390625 72.734375 C80.23725098 73.05374023 80.93543945 73.37310547 81.65478516 73.70214844 C83.3775771 74.49642326 83.3775771 74.49642326 85.375 74.375 C84.05774778 59.57237819 76.68152385 46.79708822 65.66015625 36.94921875 C36.87334044 13.95840612 -2.31237703 13.66969488 -36.75 20.875 Z " fill="#000000" transform="translate(140.625,-0.375)"/>
</svg>
