<?xml version="1.0" encoding="UTF-8"?>
<svg version="1.0" xmlns="http://www.w3.org/2000/svg" width="512" height="512">
<path d="M0 0 C16.35327683 11.96426834 28.7363594 25.7326209 37.77734375 43.83984375 C37.77734375 44.49984375 37.77734375 45.15984375 37.77734375 45.83984375 C38.43734375 45.83984375 39.09734375 45.83984375 39.77734375 45.83984375 C40.02613281 44.98519531 40.27492188 44.13054687 40.53125 43.25 C41.86193434 39.60834661 43.60748629 36.50394829 45.71484375 33.27734375 C46.10961914 32.67237061 46.50439453 32.06739746 46.91113281 31.4440918 C65.35752948 3.7996575 93.8306465 -13.47971162 126.203125 -20.09375 C134.33804012 -21.65638906 142.49592198 -22.8005682 150.77734375 -23.16015625 C151.94265625 -23.21300781 153.10796875 -23.26585937 154.30859375 -23.3203125 C168.50288783 -23.66910391 168.50288783 -23.66910391 173.77734375 -20.16015625 C178.99532069 -14.68450144 178.3542318 -8.71331414 178.21484375 -1.47265625 C178.19284912 0.33730835 178.19284912 0.33730835 178.17041016 2.18383789 C177.43679338 37.3203431 165.08935732 70.98740584 139.77734375 95.83984375 C136.53569566 98.64378268 133.20582958 101.2710115 129.77734375 103.83984375 C130.72649658 104.09507812 130.72649658 104.09507812 131.69482422 104.35546875 C157.3643245 111.33809281 180.07297264 120.62119336 199.77734375 138.83984375 C200.28894043 139.3076123 200.80053711 139.77538086 201.32763672 140.25732422 C232.6534832 169.19871045 246.95286267 211.54160611 248.94580078 253.37597656 C250.545438 303.53363896 235.52685306 351.59359286 201.33984375 389.02734375 C199.49612583 390.97671886 197.64374327 392.91270716 195.77734375 394.83984375 C195.2762207 395.36674805 194.77509766 395.89365234 194.25878906 396.43652344 C156.23171854 436.35902427 93.72276302 466.45969572 38.30932617 470.8684082 C33.18320045 470.81057803 28.30379598 469.59366318 23.33984375 468.40234375 C22.17114746 468.13083496 21.00245117 467.85932617 19.79833984 467.57958984 C-28.28441853 456.13621498 -75.7283738 437.12538107 -111.74414062 402.26708984 C-113.28110034 400.78342629 -114.8376739 399.32212098 -116.39453125 397.859375 C-129.25424853 385.59006635 -139.71742691 371.42395962 -148.22265625 355.83984375 C-148.73820068 354.89939209 -148.73820068 354.89939209 -149.26416016 353.93994141 C-173.90975439 308.36120519 -177.71445346 254.3432499 -163.22265625 204.83984375 C-152.07409306 168.933507 -128.2385736 137.10262788 -94.97265625 119.08984375 C-81.44955243 112.05131261 -67.0073571 107.39789582 -52.22265625 103.83984375 C-52.85171875 103.35515625 -53.48078125 102.87046875 -54.12890625 102.37109375 C-79.91845685 82.17445774 -94.31335449 52.97688836 -99.22265625 20.83984375 C-99.40441406 19.66292969 -99.58617188 18.48601563 -99.7734375 17.2734375 C-100.49303011 11.27563306 -100.48629103 5.24807016 -100.53515625 -0.78515625 C-100.57866211 -2.58726563 -100.57866211 -2.58726563 -100.62304688 -4.42578125 C-100.70329247 -15.56140132 -100.70329247 -15.56140132 -96.22265625 -20.16015625 C-72.41830211 -35.99652574 -20.5896197 -13.80128448 0 0 Z M-74.22265625 3.83984375 C-73.73265288 19.29944995 -70.42333215 33.6512383 -64.22265625 47.83984375 C-63.805 48.82210937 -63.38734375 49.804375 -62.95703125 50.81640625 C-53.25313046 71.95306372 -35.39785842 86.77687295 -14.078125 95.4609375 C-1.1447622 100.25044505 12.07942815 102.66473447 25.77734375 103.83984375 C24.7341664 74.31792465 13.81525825 48.07424582 -7.37890625 27.375 C-11.67407986 23.54592353 -16.1970401 20.61768765 -21.22265625 17.83984375 C-22.28097656 17.24429688 -23.33929688 16.64875 -24.4296875 16.03515625 C-39.74178194 7.88037224 -56.83579226 3.23449839 -74.22265625 3.83984375 Z M80.77734375 31.83984375 C80.07738281 32.46503906 79.37742187 33.09023437 78.65625 33.734375 C61.56282883 49.56161683 54.1057024 75.35280097 51.77734375 97.83984375 C51.74950422 99.83964998 51.74174108 101.84016066 51.77734375 103.83984375 C80.11327925 101.40897604 109.0930724 92.83103509 128.11425781 70.25292969 C142.70823597 51.87890716 152.36365282 27.56993185 151.77734375 3.83984375 C125.18157098 3.08495716 99.851527 13.59358832 80.77734375 31.83984375 Z M-111.6015625 164.87890625 C-139.26310127 196.12696346 -146.87231435 237.24288143 -145.22265625 277.83984375 C-144.7124311 284.5994709 -143.61825679 291.21108768 -142.22265625 297.83984375 C-142.06168457 298.6169873 -141.90071289 299.39413086 -141.73486328 300.19482422 C-135.09784534 331.00818415 -118.89921447 357.35168272 -97.22265625 379.83984375 C-96.57167969 380.54238281 -95.92070313 381.24492187 -95.25 381.96875 C-64.76051778 414.01183641 -19.59775167 430.98036994 22.27734375 441.33984375 C23.29771729 441.59548096 24.31809082 441.85111816 25.36938477 442.11450195 C36.38859698 444.7166799 44.72329899 443.7337104 55.65234375 440.90234375 C56.87179687 440.59022949 58.09125 440.27811523 59.34765625 439.95654297 C102.1712096 428.72747593 141.52102675 410.58345072 173.77734375 379.83984375 C174.61910156 379.06253906 175.46085937 378.28523437 176.328125 377.484375 C203.64785672 351.47180747 221.41228841 311.73831737 222.88525391 274.08105469 C223.71276135 233.35154175 215.62275531 193.99211674 187.1796875 163.3125 C164.60603397 140.07815417 134.28579131 128.23842765 102.11132812 127.48583984 C74.50380108 127.28994485 56.01594815 135.72194382 35.77734375 154.83984375 C35.02710938 155.525625 34.276875 156.21140625 33.50390625 156.91796875 C15.13638461 174.31877872 4.6855698 198.47259697 3.40234375 223.65234375 C3.04109215 228.98872706 2.46847189 231.937794 -1.22265625 235.83984375 C-5.43294979 238.36425455 -9.42568164 238.66977015 -14.22265625 237.83984375 C-17.79502299 235.91284095 -19.91826327 233.7530227 -21.22265625 229.83984375 C-23.32258533 199.06780612 -10.88641821 169.04494672 8.77734375 145.83984375 C11.20609753 143.11516454 13.65181527 140.41717576 16.16015625 137.765625 C17.99170468 136.00370191 17.99170468 136.00370191 17.77734375 133.83984375 C14.44576235 133.02004708 11.11180023 132.21035957 7.77734375 131.40234375 C6.84277344 131.17224609 5.90820312 130.94214844 4.9453125 130.70507812 C-36.96945189 120.59277483 -81.79041806 133.98608023 -111.6015625 164.87890625 Z " fill="#000000" transform="translate(217.22265625,32.16015625)"/>
</svg>
