<?xml version="1.0" encoding="UTF-8"?>
<svg version="1.0" xmlns="http://www.w3.org/2000/svg" width="512" height="512">
<path d="M0 0 C0.65677734 0.1556543 1.31355469 0.31130859 1.99023438 0.47167969 C19.2020896 4.56623784 35.84186394 12.39775944 50 23 C50.78503906 23.56460938 51.57007813 24.12921875 52.37890625 24.7109375 C68.90128135 37.17757308 81.97400643 52.98600689 92 71 C92.84820312 70.11699219 93.69640625 69.23398438 94.5703125 68.32421875 C122.99331097 39.09474892 156.54346673 24.18901915 194.65756226 11.19619751 C196.24651908 10.65362738 197.83413983 10.10712679 199.4203186 9.55648804 C215.86956084 3.86818426 215.86956084 3.86818426 223 5 C225.19836426 6.49847412 225.19836426 6.49847412 227 9 C227.39487113 11.99313459 227.54721684 14.61778102 227.51757812 17.61035156 C227.52809204 18.91402428 227.52809204 18.91402428 227.53881836 20.24403381 C227.55645709 23.12655403 227.54473444 26.00809411 227.53125 28.890625 C227.53394808 30.91249783 227.53783313 32.93436938 227.54284668 34.95623779 C227.54875368 39.21004497 227.54015798 43.46351694 227.52148438 47.71728516 C227.49898176 53.09892722 227.51199739 58.47976607 227.53525162 63.86137867 C227.69439926 107.20985045 227.69439926 107.20985045 223 126 C222.77155396 126.92844223 222.54310791 127.85688446 222.30773926 128.8134613 C214.97096065 158.16073146 201.38262055 184.3341139 182.05078125 207.51171875 C179.24358059 210.91778889 176.60343917 214.43686168 174 218 C174.99580078 218.88751953 174.99580078 218.88751953 176.01171875 219.79296875 C180.44990101 223.76465594 184.84345661 227.7311176 189 232 C189.495 232.44988281 189.99 232.89976562 190.5 233.36328125 C211.89066157 253.31799563 225.74260126 286.55024943 227.17700195 315.58251953 C227.85977671 357.9254355 218.97699656 394.35231096 189 426 C188.12859375 426.94746094 187.2571875 427.89492188 186.359375 428.87109375 C164.87474607 451.72095415 131.94586069 467.61927566 100.41748047 469.17700195 C64.70749528 469.75282145 33.54206504 464.4541798 4 443 C3.20851563 442.4328125 2.41703125 441.865625 1.6015625 441.28125 C-18.45588235 426.08823529 -18.45588235 426.08823529 -23 417 C-23.32685791 417.44279297 -23.65371582 417.88558594 -23.99047852 418.34179688 C-36.36053418 435.06431982 -36.36053418 435.06431982 -42 441 C-42.42265137 441.45906738 -42.84530273 441.91813477 -43.28076172 442.39111328 C-65.82521453 466.7624574 -98.39712383 483.29407154 -131.81713867 485.2199707 C-136.04483957 485.36434338 -140.27017584 485.38658311 -144.5 485.375 C-145.62317627 485.37418427 -145.62317627 485.37418427 -146.76904297 485.37335205 C-158.9177615 485.33286928 -170.27698766 484.38664801 -182 481 C-182.73460449 480.80164551 -183.46920898 480.60329102 -184.22607422 480.39892578 C-218.90382179 470.891853 -249.07848591 446.94655991 -267.16601562 416.00537109 C-284.91910934 384.32256308 -291.30895157 344.73190216 -281.68896484 309.34277344 C-274.80539384 285.93570491 -263.92387115 265.64521647 -247 248 C-246.13117188 247.05640625 -245.26234375 246.1128125 -244.3671875 245.140625 C-221.25363213 220.51590691 -189.76862584 208.89596769 -157 204 C-157.51949219 202.9584375 -158.03898437 201.916875 -158.57421875 200.84375 C-175.30903176 166.70714225 -178.77110625 128.32201198 -166.6875 91.95703125 C-158.92527461 69.71609935 -146.8752591 51.43117334 -130 35 C-129.57332031 34.51660156 -129.14664063 34.03320312 -128.70703125 33.53515625 C-113.86855924 17.32345804 -90.86224702 6.69052228 -70 1 C-69.27393555 0.79117187 -68.54787109 0.58234375 -67.79980469 0.3671875 C-46.86391424 -5.46937305 -21.02811134 -5.50310148 0 0 Z M-124.28125 53.26953125 C-146.05768736 76.38782655 -157.087922 107.44856281 -157 139 C-156.37088306 159.06803413 -151.3945309 178.24361946 -142 196 C-141.6093335 196.80775879 -141.21866699 197.61551758 -140.81616211 198.44775391 C-138.85602441 202.00150239 -137.38444748 204.45830108 -133.51538086 205.97216797 C-130.48541864 206.54529816 -127.51022475 206.86753909 -124.4375 207.125 C-89.86250181 211.40540287 -62.28721072 228.55628752 -38.55541992 253.38110352 C-37.05645078 254.94124547 -35.5350076 256.47538553 -34 258 C-33.40574219 257.05640625 -32.81148438 256.1128125 -32.19921875 255.140625 C-27.45341299 247.74525503 -22.55552976 240.97919331 -16.4050293 234.68261719 C-13.763468 232.2835094 -13.763468 232.2835094 -13 229 C-12.42894531 228.7525 -11.85789062 228.505 -11.26953125 228.25 C-8.64476031 226.80434303 -6.84143774 225.08325584 -4.6875 223 C14.64325478 205.43935794 40.65390059 193.4389768 66.69140625 191.14038086 C74.65257378 190.66933393 74.65257378 190.66933393 81.25 186.8203125 C82.70135455 183.54569379 83.34851791 180.52524196 84 177 C84.42788631 175.394414 84.87164188 173.79300342 85.328125 172.1953125 C91.28624987 151.12270737 93.00151714 127.31990566 87 106 C86.6596875 104.77152344 86.319375 103.54304688 85.96875 102.27734375 C80.00658833 82.79960612 69.48214024 66.11207063 56 51 C55.10667969 49.99646484 55.10667969 49.99646484 54.1953125 48.97265625 C33.02833277 26.59463041 1.50623563 14.3227582 -28.87475586 13.0234375 C-65.95291518 12.16975185 -98.25439364 27.37637449 -124.28125 53.26953125 Z M115.515625 72.625 C113 75 113 75 110.40234375 77.05859375 C108.10029161 78.91895134 106.2355198 80.81969714 104.3125 83.0625 C103.73113281 83.73410156 103.14976562 84.40570313 102.55078125 85.09765625 C100.84721011 87.12541439 100.84721011 87.12541439 99 90 C99.6313034 92.90340007 100.35807122 95.61461545 101.25 98.4375 C105.00784664 110.56127895 106.31309842 122.11527869 106.20581055 134.77246094 C106.18752579 136.99686202 106.185302 139.22084384 106.18554688 141.4453125 C106.16465876 149.66906553 105.85657551 157.81472606 105 166 C109.58553079 161.71785972 113.21651158 156.91312248 116.9375 151.875 C117.59355225 150.99263672 118.24960449 150.11027344 118.92553711 149.20117188 C120.28792286 147.36700879 121.64834175 145.53138321 123.00683594 143.69433594 C124.86658128 141.18035387 126.7330889 138.67156028 128.6015625 136.1640625 C142.56651258 117.37745948 155.8912884 98.1915577 168.296875 78.3359375 C168.92078125 77.33820313 169.5446875 76.34046875 170.1875 75.3125 C170.69667969 74.48363281 171.20585937 73.65476563 171.73046875 72.80078125 C173 71 173 71 175 70 C182.09859155 69.54929577 182.09859155 69.54929577 185 71 C186.61000881 74.22001762 186.43474801 77.50594388 186 81 C184.83480423 83.52808542 183.7390479 85.49033195 182.1875 87.75 C181.75735596 88.40629395 181.32721191 89.06258789 180.8840332 89.73876953 C179.27656139 92.17344499 177.63809714 94.58582365 176 97 C174.91094892 98.62708228 173.82194266 100.25419483 172.73388672 101.88194275 C163.9259307 115.04717975 154.96857687 128.09827416 145.57568359 140.85498047 C143.89134593 143.14791364 142.22061022 145.45038905 140.55078125 147.75390625 C132.22024233 159.20567093 123.51666364 170.2940837 114.375 181.109375 C113.6325 182.00140625 112.89 182.8934375 112.125 183.8125 C111.48820312 184.56144531 110.85140625 185.31039062 110.1953125 186.08203125 C109.60363281 187.03142578 109.60363281 187.03142578 109 188 C109.33 188.99 109.66 189.98 110 191 C111.86056139 191.78714831 111.86056139 191.78714831 114.1640625 192.17578125 C115.03184326 192.36076172 115.89962402 192.54574219 116.79370117 192.73632812 C117.72802979 192.92646484 118.6623584 193.11660156 119.625 193.3125 C131.9023025 196.01835628 142.95358311 200.00487336 153.94921875 206.21484375 C156.48782391 207.18676687 157.51025656 207.04489233 160 206 C184.06106832 188.13563373 199.04348765 152.19169814 206 124 C206.18202469 123.26514374 206.36404938 122.53028748 206.55158997 121.77316284 C211.02619367 102.74392639 210.47662302 83.59818481 210.2746582 64.19000244 C210.2330617 59.75760691 210.21532861 55.32511433 210.1953125 50.89257812 C210.15295758 42.26146 210.08508053 33.63080249 210 25 C178.83425566 25 137.1617233 51.84474563 115.515625 72.625 Z M-4.28125 245.26953125 C-10.80278032 252.19291643 -15.98849464 259.94748666 -21 268 C-21.66708984 269.02480469 -21.66708984 269.02480469 -22.34765625 270.0703125 C-23.76550077 274.26441544 -22.133492 277.70912126 -20.36328125 281.56640625 C-19.68138622 282.89930791 -18.99769106 284.2312897 -18.3125 285.5625 C-15.08327265 292.13165442 -12.62920642 298.71069583 -10.625 305.75 C-10.38692627 306.5757251 -10.14885254 307.4014502 -9.90356445 308.25219727 C-6.60514033 320.34562607 -5.62002605 332.2443957 -5.6875 344.75 C-5.68932281 345.45343536 -5.69114563 346.15687073 -5.69302368 346.88162231 C-5.76131412 362.55216493 -8.2513909 376.52532773 -12.9140625 391.48828125 C-13.45160156 393.22658203 -13.45160156 393.22658203 -14 395 C-14.22848633 395.66773438 -14.45697266 396.33546875 -14.69238281 397.0234375 C-15.2739798 399.33051839 -15.2739798 399.33051839 -13.0078125 402.13671875 C-12.06219242 403.33258568 -11.10013388 404.51557468 -10.125 405.6875 C-9.36062622 406.62505127 -9.36062622 406.62505127 -8.58081055 407.58154297 C4.0519557 422.8830922 18.95818678 433.89849912 37 442 C38.01449219 442.48082031 39.02898437 442.96164062 40.07421875 443.45703125 C63.19140637 453.89603412 93.63007889 455.8600913 118 449 C119.22847656 448.6596875 120.45695313 448.319375 121.72265625 447.96875 C141.20039388 442.00658833 157.88792937 431.48214024 173 418 C173.66902344 417.40445313 174.33804688 416.80890625 175.02734375 416.1953125 C197.04328117 395.37082581 209.61765737 363.87743016 210.97631836 333.88867188 C211.81628717 299.33422167 199.20734316 268.22830192 176 243 C175.00226563 241.87851562 175.00226563 241.87851562 173.984375 240.734375 C153.05750339 218.35172102 121.27765199 206.31037024 91.12573242 205.02368164 C54.04861594 204.16638525 21.74400202 219.37797059 -4.28125 245.26953125 Z M-236.28125 261.26953125 C-257.7078212 284.01640173 -269.08853918 314.88480215 -269 346 C-267.88211478 382.39494672 -252.75031172 413.6416119 -226.3125 438.5625 C-212.05025235 451.04471366 -194.19079921 459.96078595 -176 465 C-174.86433594 465.3196875 -173.72867188 465.639375 -172.55859375 465.96875 C-152.81580769 470.56901083 -130.38826107 469.83613993 -111 464 C-109.77925781 463.63777344 -108.55851563 463.27554688 -107.30078125 462.90234375 C-75.27025429 452.32115063 -49.79421167 429.99670043 -34.11816406 400.25927734 C-30.73054888 393.41451951 -28.20965151 386.30014561 -26 379 C-25.77554199 378.26652344 -25.55108398 377.53304687 -25.31982422 376.77734375 C-19.70757927 357.51567114 -19.42145394 334.28569796 -25 315 C-25.22574707 314.19691406 -25.45149414 313.39382813 -25.68408203 312.56640625 C-34.93876173 280.44055486 -55.6329528 253.16938725 -84.875 236.625 C-136.35031672 208.65226529 -195.50767445 220.705409 -236.28125 261.26953125 Z " fill="#000000" transform="translate(285,15)"/>
<path d="M0 0 C4.37601587 2.62747961 7.40857479 6.55955977 10.5625 10.5 C13.75138285 14.39752349 16.16526934 15.79885878 20.875 17.25 C27.918861 19.58208911 32.39563758 24.2657377 35.75390625 30.828125 C37.77765639 37.51529938 37.91036901 46.74631696 34.8125 53.125 C33.53371942 55.28674812 32.17689258 56.9126926 30.44921875 58.76171875 C28.03738261 62.26212689 28.12936943 64.47100039 28.125 68.6875 C27.8753179 76.50102496 26.20369531 82.51796221 20.8515625 88.37109375 C15.48793954 93.25456706 10.85886697 94.78144986 3.5625 94.75 C1.768125 94.75773437 1.768125 94.75773437 -0.0625 94.765625 C-3.32415761 94.50892047 -5.480048 93.81442311 -8.4375 92.5 C-11.61449917 92.23525007 -13.76640843 92.20560059 -16.69921875 93.4921875 C-23.08703989 95.84319728 -31.68971978 95.75323074 -37.9375 92.9375 C-43.28226579 89.68714992 -47.61438027 84.59366973 -49.94140625 78.76953125 C-50.63892747 75.57850895 -50.60552726 72.45001492 -50.6875 69.1875 C-50.98943281 62.35710883 -52.56226633 59.17724418 -56.7734375 53.9609375 C-60.58620099 48.3223436 -61.01717968 41.20100375 -59.8125 34.625 C-57.82485325 27.68698775 -53.47840872 22.36039655 -47.4375 18.5 C-45.62006271 17.84957693 -43.78479771 17.24751755 -41.9375 16.6875 C-36.45140786 14.90133047 -34.20752299 12.35885794 -30.98828125 7.6875 C-24.10471997 -2.02230937 -10.85963624 -4.81230939 0 0 Z M-16.4375 17 C-18.37740285 19.35888305 -18.37740285 19.35888305 -19.734375 21.40625 C-23.83072994 27.30852486 -27.74122098 30.08859593 -34.62109375 32.15625 C-38.79754724 33.44367053 -40.10652646 33.9988115 -42.625 37.8125 C-43.75159313 41.40930906 -43.75159313 41.40930906 -42.4375 44.4375 C-41.4475 45.9534375 -41.4475 45.9534375 -40.4375 47.5 C-39.55959439 48.89400769 -38.68471097 50.28992219 -37.8125 51.6875 C-37.38710937 52.34105469 -36.96171875 52.99460938 -36.5234375 53.66796875 C-33.59011145 58.61663751 -34.16982505 64.35625756 -34.01171875 69.93359375 C-33.70415689 73.50856669 -33.70415689 73.50856669 -31.68359375 75.984375 C-29.00300353 77.79319066 -27.95654898 77.84351831 -24.8125 77.3125 C-24.03648437 77.19519531 -23.26046875 77.07789063 -22.4609375 76.95703125 C-20.38321425 76.57250947 -20.38321425 76.57250947 -18.4375 75.5 C-16.35689575 75.3764282 -14.27173667 75.32439633 -12.1875 75.3125 C-11.06859375 75.29832031 -9.9496875 75.28414062 -8.796875 75.26953125 C-5.34564107 75.50630195 -2.67225679 76.31999717 0.5625 77.5 C4.12945714 77.92803486 5.78532748 78.0694555 8.7109375 75.92578125 C11.21589359 72.64397168 11.02912155 70.405532 11.0625 66.3125 C11.31176989 58.58419981 12.72817407 52.80671359 17.8125 46.875 C20.24220928 43.57753741 20.14407451 41.49832472 19.5625 37.5 C16.80312997 34.09211443 14.33520493 32.82307699 10.1875 31.5625 C2.48598005 28.90998183 -1.35255603 25.27730063 -5.359375 18.171875 C-6.34291706 16.33507443 -6.34291706 16.33507443 -8.4375 15.5 C-11.79460718 15.13509705 -13.68372131 14.93466598 -16.4375 17 Z " fill="#000000" transform="translate(267.4375,53.5)"/>
<path d="M0 0 C4.37601587 2.62747961 7.40857479 6.55955977 10.5625 10.5 C13.75138285 14.39752349 16.16526934 15.79885878 20.875 17.25 C27.17560118 19.34452418 30.98242219 22.95491708 34.5625 28.5 C37.37661594 35.33691775 37.83319731 43.02635948 35.8046875 50.16796875 C34.3683255 53.54398494 32.94708632 56.08129142 30.44921875 58.80078125 C28.02114099 62.27449083 28.12935527 64.48466066 28.125 68.6875 C27.8753179 76.50102496 26.20369531 82.51796221 20.8515625 88.37109375 C15.48793954 93.25456706 10.85886697 94.78144986 3.5625 94.75 C1.768125 94.75773437 1.768125 94.75773437 -0.0625 94.765625 C-3.32415761 94.50892047 -5.480048 93.81442311 -8.4375 92.5 C-11.61449917 92.23525007 -13.76640843 92.20560059 -16.69921875 93.4921875 C-23.08703989 95.84319728 -31.68971978 95.75323074 -37.9375 92.9375 C-43.28226579 89.68714992 -47.61438027 84.59366973 -49.94140625 78.76953125 C-50.63892747 75.57850895 -50.60552726 72.45001492 -50.6875 69.1875 C-50.98943281 62.35710883 -52.56226633 59.17724418 -56.7734375 53.9609375 C-60.58620099 48.3223436 -61.01717968 41.20100375 -59.8125 34.625 C-57.82485325 27.68698775 -53.47840872 22.36039655 -47.4375 18.5 C-45.62006271 17.84957693 -43.78479771 17.24751755 -41.9375 16.6875 C-36.45140786 14.90133047 -34.20752299 12.35885794 -30.98828125 7.6875 C-24.10471997 -2.02230937 -10.85963624 -4.81230939 0 0 Z M-16.4375 17 C-18.37740285 19.35888305 -18.37740285 19.35888305 -19.734375 21.40625 C-23.83072994 27.30852486 -27.74122098 30.08859593 -34.62109375 32.15625 C-38.79754724 33.44367053 -40.10652646 33.9988115 -42.625 37.8125 C-43.75159313 41.40930906 -43.75159313 41.40930906 -42.4375 44.4375 C-41.4475 45.9534375 -41.4475 45.9534375 -40.4375 47.5 C-39.55959439 48.89400769 -38.68471097 50.28992219 -37.8125 51.6875 C-37.38710937 52.34105469 -36.96171875 52.99460937 -36.5234375 53.66796875 C-33.59011145 58.61663751 -34.16982505 64.35625756 -34.01171875 69.93359375 C-33.70461269 73.50930203 -33.70461269 73.50930203 -31.6796875 75.984375 C-29.01468188 77.78580737 -28.00017377 77.84658215 -24.875 77.3125 C-24.11058594 77.19519531 -23.34617187 77.07789063 -22.55859375 76.95703125 C-20.26534946 76.50334245 -20.26534946 76.50334245 -17.4375 75.5 C-15.48183497 75.38020855 -13.52179234 75.32471504 -11.5625 75.3125 C-10.53382813 75.29832031 -9.50515625 75.28414062 -8.4453125 75.26953125 C-5.35845654 75.50605658 -3.25686934 76.28094047 -0.4375 77.5 C4.47934725 78.05209538 4.47934725 78.05209538 8.74609375 75.92578125 C11.20492292 72.64205455 11.02932044 70.38114374 11.0625 66.3125 C11.31176989 58.58419981 12.72817407 52.80671359 17.8125 46.875 C20.24220928 43.57753741 20.14407451 41.49832472 19.5625 37.5 C16.80312997 34.09211443 14.33520493 32.82307699 10.1875 31.5625 C2.48598005 28.90998183 -1.35255603 25.27730063 -5.359375 18.171875 C-6.34291706 16.33507443 -6.34291706 16.33507443 -8.4375 15.5 C-11.79460718 15.13509705 -13.68372131 14.93466598 -16.4375 17 Z " fill="#000000" transform="translate(147.4375,317.5)"/>
<path d="M0 0 C4.37601587 2.62747961 7.40857479 6.55955977 10.5625 10.5 C13.75138285 14.39752349 16.16526934 15.79885878 20.875 17.25 C27.918861 19.58208911 32.39563758 24.2657377 35.75390625 30.828125 C37.77765639 37.51529938 37.91036901 46.74631696 34.8125 53.125 C33.53371942 55.28674812 32.17689258 56.9126926 30.44921875 58.76171875 C28.03738261 62.26212689 28.12936943 64.47100039 28.125 68.6875 C27.8753179 76.50102496 26.20369531 82.51796221 20.8515625 88.37109375 C15.48793954 93.25456706 10.85886697 94.78144986 3.5625 94.75 C1.768125 94.75773437 1.768125 94.75773437 -0.0625 94.765625 C-3.32415761 94.50892047 -5.480048 93.81442311 -8.4375 92.5 C-11.61449917 92.23525007 -13.76640843 92.20560059 -16.69921875 93.4921875 C-23.08703989 95.84319728 -31.68971978 95.75323074 -37.9375 92.9375 C-43.28226579 89.68714992 -47.61438027 84.59366973 -49.94140625 78.76953125 C-50.63892747 75.57850895 -50.60552726 72.45001492 -50.6875 69.1875 C-50.98943281 62.35710883 -52.56226633 59.17724418 -56.7734375 53.9609375 C-60.58620099 48.3223436 -61.01717968 41.20100375 -59.8125 34.625 C-57.82550171 27.68925125 -53.47923735 22.35690244 -47.4375 18.5 C-45.63992177 17.8721891 -43.82555548 17.29109262 -42 16.75 C-36.23072059 14.88230461 -33.68461189 11.84384449 -30.2890625 6.9375 C-23.31571856 -2.24259835 -10.53956191 -4.67047253 0 0 Z M-16.4375 17 C-18.37740285 19.35888305 -18.37740285 19.35888305 -19.734375 21.40625 C-23.98250996 27.52721865 -27.99956805 29.83843828 -34.87890625 32.4140625 C-39.87424206 34.32265878 -39.87424206 34.32265878 -43.1875 38.375 C-43.66416883 44.33336035 -39.6568523 48.85390419 -36.5234375 53.66796875 C-33.59011145 58.61663751 -34.16982505 64.35625756 -34.01171875 69.93359375 C-33.70461269 73.50930203 -33.70461269 73.50930203 -31.6796875 75.984375 C-29.01468188 77.78580737 -28.00017377 77.84658215 -24.875 77.3125 C-24.11058594 77.19519531 -23.34617187 77.07789063 -22.55859375 76.95703125 C-20.26534946 76.50334245 -20.26534946 76.50334245 -17.4375 75.5 C-15.48183497 75.38020855 -13.52179234 75.32471504 -11.5625 75.3125 C-10.53382813 75.29832031 -9.50515625 75.28414062 -8.4453125 75.26953125 C-5.35845654 75.50605658 -3.25686934 76.28094047 -0.4375 77.5 C4.47934725 78.05209538 4.47934725 78.05209538 8.74609375 75.92578125 C11.20492292 72.64205455 11.02932044 70.38114374 11.0625 66.3125 C11.31176989 58.58419981 12.72817407 52.80671359 17.8125 46.875 C20.24220928 43.57753741 20.14407451 41.49832472 19.5625 37.5 C16.80312997 34.09211443 14.33520493 32.82307699 10.1875 31.5625 C2.48598005 28.90998183 -1.35255603 25.27730063 -5.359375 18.171875 C-6.34291706 16.33507443 -6.34291706 16.33507443 -8.4375 15.5 C-11.79460718 15.13509705 -13.68372131 14.93466598 -16.4375 17 Z " fill="#000000" transform="translate(411.4375,253.5)"/>
<path d="M0 0 C2.5 1.5 2.5 1.5 4 4 C4.54686219 6.77988279 4.72991469 9.25208587 4 12 C1.02034922 15.7849618 -2.8260143 17.61040364 -7.0625 19.6875 C-14.14852035 23.31572835 -20.08795347 27.63791129 -26 33 C-26.94746094 33.80824219 -26.94746094 33.80824219 -27.9140625 34.6328125 C-40.04767601 45.65833345 -46.62782797 61.84209826 -50.12597656 77.4519043 C-51.19809517 81.97970746 -51.9948572 85.20311257 -56 88 C-58.74217301 88.72838971 -61.22828846 88.56913995 -64 88 C-66.41044188 86.26942634 -67.59198281 85.04509665 -68.66796875 82.2890625 C-70.99993142 66.21223752 -59.72462033 45.57435438 -50.54541016 33.00878906 C-40.04901258 19.45919936 -18.81551059 -2.61221374 0 0 Z " fill="#000000" transform="translate(108,268)"/>
<path d="M0 0 C3.25 1.625 3.25 1.625 5.375 4.8125 C6.20557129 8.43141776 6.50829033 10.53648768 4.78125 13.87890625 C1.9661 17.08903903 -1.83635609 18.80461265 -5.55078125 20.81640625 C-18.03779453 27.87560912 -26.20551331 38.20586013 -33.42578125 50.3046875 C-36.55852428 55.52926214 -36.55852428 55.52926214 -38.75 56.625 C-45.94212843 57.20501036 -45.94212843 57.20501036 -49.1875 54.875 C-50.76823856 52.59873647 -51.34376826 51.32990888 -51.75 48.625 C-48.47551823 32.58304344 -32.33887388 16.48464591 -19.19238281 7.66918945 C-6.29321484 -0.62932148 -6.29321484 -0.62932148 0 0 Z " fill="#000000" transform="translate(338.75,251.375)"/>
<path d="M0 0 C2.5 1.5 2.5 1.5 4 4 C4.77403846 9.41826923 4.77403846 9.41826923 4 12 C0.6119822 16.02916402 -3.25198001 18.59646551 -7.875 21 C-8.52629883 21.3417627 -9.17759766 21.68352539 -9.84863281 22.03564453 C-23.62933155 29.04507819 -40.42958352 34.3405212 -56 32 C-58.5309054 29.98200234 -59.75129512 28.63005237 -60.9375 25.625 C-61.02441225 21.97468567 -60.01258142 20.01887213 -58 17 C-54.09456062 14.99128835 -50.33417646 14.57494629 -46 14.125 C-31.52550056 12.37389542 -13.16283079 -2.06579638 0 0 Z " fill="#000000" transform="translate(428,412)"/>
<path d="M0 0 C2.5 1.5 2.5 1.5 4 4 C4.38469874 9.89661177 3.53127893 14.49579408 1.6875 20.0625 C-0.50021743 26.97354152 -2.00678779 33.76743938 -3.12890625 40.92578125 C-4.12009317 44.42382658 -5.1036601 45.83691071 -8 48 C-10 48.53125 -10 48.53125 -12 48.5 C-12.99 48.51546875 -12.99 48.51546875 -14 48.53125 C-16.95710735 47.74576836 -18.15440346 46.4081797 -20 44 C-22.58545008 31.16780289 -17.27149772 13.18646458 -11 2 C-7.30669268 -0.46220488 -4.2863512 -0.67270703 0 0 Z " fill="#000000" transform="translate(172,100)"/>
</svg>
