<?xml version="1.0" standalone="no"?>
<!DOCTYPE svg PUBLIC "-//W3C//DTD SVG 20010904//EN"
 "http://www.w3.org/TR/2001/REC-SVG-20010904/DTD/svg10.dtd">
<svg version="1.0" xmlns="http://www.w3.org/2000/svg"
 width="512.000000pt" height="512.000000pt" viewBox="0 0 512.000000 512.000000"
 preserveAspectRatio="xMidYMid meet">

<g transform="translate(0.000000,512.000000) scale(0.100000,-0.100000)"
fill="#000000" stroke="none">
<path d="M2150 5078 c-120 -60 -240 -179 -299 -298 -23 -47 -49 -117 -58 -157
l-17 -72 -70 -16 c-334 -74 -559 -387 -746 -1035 -73 -254 -91 -292 -279 -583
-143 -222 -181 -326 -207 -572 -31 -295 14 -552 142 -806 195 -390 517 -642
969 -759 29 -7 48 -21 67 -48 45 -64 208 -231 303 -311 243 -202 537 -343 830
-397 136 -26 395 -26 515 -1 543 115 907 499 1051 1112 11 49 57 191 100 315
90 254 139 415 171 563 31 146 31 396 0 512 -50 180 -170 375 -331 535 -135
134 -243 180 -421 180 -196 -1 -410 -71 -711 -236 -75 -41 -140 -74 -145 -74
-12 0 -54 61 -100 142 -59 104 -118 249 -212 523 -101 295 -146 407 -204 515
-126 232 -296 378 -497 424 l-56 13 2 39 c5 64 66 178 135 251 47 49 83 75
145 104 89 44 98 51 108 91 6 22 1 33 -23 58 -17 16 -41 30 -54 30 -13 0 -61
-19 -108 -42z m-204 -689 c119 -22 238 -100 327 -217 120 -157 197 -336 323
-747 61 -197 133 -360 213 -479 28 -42 54 -82 57 -90 8 -21 -116 -68 -333
-125 -328 -86 -421 -137 -628 -345 -192 -192 -315 -384 -390 -609 -82 -245
-87 -507 -15 -741 12 -37 19 -71 15 -74 -8 -9 -159 54 -240 100 -314 178 -533
468 -620 818 -45 182 -45 440 1 630 25 100 91 230 204 400 130 196 176 293
239 505 108 367 177 535 286 700 147 222 337 315 561 274z m2007 -1319 c100
-15 159 -44 216 -106 58 -63 80 -121 88 -226 15 -204 -86 -493 -291 -831 -116
-192 -167 -318 -201 -503 -30 -158 -81 -280 -173 -409 -177 -249 -464 -453
-755 -534 -212 -60 -495 -38 -702 54 -92 40 -186 109 -267 193 -119 124 -193
269 -234 458 -23 107 -23 319 0 437 57 291 215 554 451 747 155 127 262 178
478 230 226 54 334 93 446 162 318 196 536 291 738 322 110 18 123 18 206 6z
m495 -542 c33 -114 42 -161 48 -271 10 -180 -26 -351 -117 -543 -59 -128 -88
-208 -169 -484 -71 -241 -118 -376 -167 -475 -136 -273 -405 -487 -720 -573
-90 -24 -113 -26 -293 -26 -215 0 -258 8 -430 75 l-85 34 115 6 c286 17 569
138 832 356 239 198 395 447 448 718 39 192 85 302 271 641 136 249 210 433
225 559 4 30 10 55 14 55 4 0 17 -33 28 -72z"/>
<path d="M1374 3406 c-15 -11 -35 -56 -63 -146 -54 -168 -126 -339 -197 -465
-143 -252 -175 -330 -200 -485 -32 -196 0 -434 80 -588 29 -56 108 -55 135 3
12 25 12 34 -4 74 -32 83 -55 175 -66 264 -21 172 26 379 124 543 122 204 188
346 257 551 51 154 58 201 34 231 -25 29 -73 38 -100 18z"/>
<path d="M2829 2341 c-394 -106 -704 -527 -650 -882 41 -266 270 -460 546
-460 196 -1 367 72 536 228 85 79 153 171 204 278 124 257 90 520 -90 700 -67
67 -174 126 -263 144 -78 16 -207 12 -283 -8z m307 -159 c111 -42 190 -124
229 -237 19 -58 22 -177 5 -250 -28 -125 -135 -288 -252 -383 -187 -154 -407
-201 -572 -124 -246 115 -288 415 -97 688 113 164 289 291 446 323 70 14 180
6 241 -17z"/>
<path d="M2840 2071 c-59 -40 -336 -316 -371 -370 -51 -79 -33 -151 38 -151
40 0 72 26 142 118 66 86 163 182 232 229 101 70 134 139 87 183 -31 28 -77
25 -128 -9z"/>
</g>
</svg>
