<?xml version="1.0" encoding="UTF-8"?>
<svg version="1.0" xmlns="http://www.w3.org/2000/svg" width="512" height="512">
<path d="M0 0 C6.39645313 3.3767098 10.54866672 8.20116531 13.02734375 14.9921875 C13.74299436 19.33892445 14.01354415 23.590115 14.02734375 27.9921875 C14.61 27.89679687 15.19265625 27.80140625 15.79296875 27.703125 C31.9159527 25.52297308 47.20596866 31.48232958 60.02758789 40.97558594 C71.22981512 49.63366502 81.57312242 60.67240489 87.02734375 73.9921875 C86.85066563 77.3490717 86.6488363 79.95636658 84.90234375 82.8671875 C81.86998669 84.68660173 79.5486752 84.9921875 76.02734375 84.9921875 C72.16891272 82.29128578 70.23585174 78.78002725 67.77734375 74.8046875 C58.1853601 59.42443785 44.82557054 49.08420231 27.34765625 44.5078125 C22.95685614 43.82594707 18.47077328 43.9921875 14.02734375 43.9921875 C14.02734375 66.1021875 14.02734375 88.2121875 14.02734375 110.9921875 C17.98734375 111.3221875 21.94734375 111.6521875 26.02734375 111.9921875 C38.32941373 113.69308239 50.02286353 117.07456382 61.77734375 120.9921875 C62.42636658 121.20728973 63.0753894 121.42239197 63.74407959 121.64401245 C70.77762465 123.99004955 77.50499477 126.45242022 84.02734375 129.9921875 C83.81078125 128.70183594 83.59421875 127.41148437 83.37109375 126.08203125 C83.08955273 124.36463102 82.808319 122.64718039 82.52734375 120.9296875 C82.38425781 120.08212891 82.24117188 119.23457031 82.09375 118.36132812 C80.09982588 106.06546273 80.09982588 106.06546273 82.08984375 101.6171875 C84.99407894 99.18137734 87.28691866 99.05667759 91.02734375 98.9921875 C93.83984375 99.9921875 93.83984375 99.9921875 96.02734375 101.9921875 C100.03180516 113.82955145 100.37550651 126.61306701 100.02734375 138.9921875 C100.70925781 139.23066406 101.39117187 139.46914062 102.09375 139.71484375 C105.64420858 141.26078244 108.76701026 143.27173223 111.96484375 145.4296875 C112.62162109 145.8721582 113.27839844 146.31462891 113.95507812 146.77050781 C123.90143042 153.55557939 133.13504256 160.99564789 141.96484375 169.1796875 C142.56748047 169.7375293 143.17011719 170.29537109 143.79101562 170.87011719 C159.62052536 185.81436641 171.75923391 204.06047621 182.02734375 223.1171875 C182.42598633 223.85259766 182.82462891 224.58800781 183.23535156 225.34570312 C186.02734375 230.63345491 186.02734375 230.63345491 186.02734375 233.9921875 C191.49812459 229.32247682 196.68554566 224.46075527 201.73828125 219.34375 C202.43249176 218.64575287 203.12670227 217.94775574 203.84194946 217.22860718 C206.03122244 215.02724201 208.21718111 212.82263231 210.40234375 210.6171875 C213.30313653 207.6898573 216.20719289 204.76582199 219.11328125 201.84375 C219.77782318 201.17090973 220.44236511 200.49806946 221.12704468 199.80484009 C221.74173615 199.1868454 222.35642761 198.56885071 222.98974609 197.93212891 C223.52965179 197.38698639 224.0695575 196.84184387 224.62582397 196.28018188 C226.80187286 194.28039651 228.18175278 193.96748206 231.15234375 193.4921875 C239.5341724 194.57371378 244.69797944 202.64402873 249.67578125 208.921875 C281.14861837 250.01431683 294.10704369 298.46238803 288.37890625 350.015625 C283.83051261 382.40216075 270.44436067 413.4887012 250.02734375 438.9921875 C249.62032227 439.50604004 249.21330078 440.01989258 248.79394531 440.54931641 C241.48886261 449.76142807 241.48886261 449.76142807 239.02734375 450.9921875 C235.3718831 451.39834979 233.43816693 451.20653003 230.15234375 449.4921875 C227.84826271 446.78150392 226.99485014 444.96594548 227.2265625 441.37109375 C228.7211799 436.93098645 232.11912736 433.74754804 235.1796875 430.296875 C257.70459976 404.6958734 271.88514272 367.09018667 272.265625 333.109375 C272.27537354 332.38088348 272.28512207 331.65239197 272.29516602 330.90182495 C272.4688432 314.55901936 272.22371729 298.90530491 268.02734375 282.9921875 C267.8454248 282.28336426 267.66350586 281.57454102 267.47607422 280.84423828 C261.98063355 260.05585549 252.40688239 241.42312682 239.71484375 224.1796875 C239.21114258 223.49108643 238.70744141 222.80248535 238.18847656 222.09301758 C237.70604492 221.45517334 237.22361328 220.8173291 236.7265625 220.16015625 C236.30205811 219.59578857 235.87755371 219.0314209 235.44018555 218.44995117 C233.81123412 216.60827177 233.81123412 216.60827177 230.02734375 214.9921875 C227.71734375 217.3021875 225.40734375 219.6121875 223.02734375 221.9921875 C224.67722187 225.29194374 226.43326705 227.95027344 228.65698242 230.86206055 C242.64130172 249.21156521 252.75562856 270.21564648 257.02734375 292.9921875 C257.20249512 293.90572998 257.37764648 294.81927246 257.55810547 295.76049805 C259.13514503 304.82390338 259.42801588 313.76089222 259.40234375 322.9296875 C259.40146759 323.69742493 259.40059143 324.46516235 259.39968872 325.25616455 C259.23849282 368.23913439 241.62626041 406.89874259 211.59375 437.44873047 C198.36140849 450.48720662 182.89457255 460.34823737 166.02734375 467.9921875 C165.4142334 468.27046387 164.80112305 468.54874023 164.16943359 468.83544922 C156.74546991 472.13964149 149.23743632 474.64276142 141.40234375 476.7421875 C140.66330811 476.94094482 139.92427246 477.13970215 139.1628418 477.34448242 C126.87109053 480.47409671 114.72146406 481.40102998 102.08984375 481.3671875 C101.32310333 481.36664368 100.55636292 481.36609985 99.76638794 481.36553955 C73.87069847 481.28140254 50.7629468 475.35389517 28.02734375 462.9921875 C26.980625 462.43789063 25.93390625 461.88359375 24.85546875 461.3125 C16.56378478 456.72794458 9.33720259 450.97199806 2.02734375 444.9921875 C-1.73753667 446.71373538 -4.12329522 448.98452864 -6.97265625 451.9921875 C-5.4433133 456.08294532 -2.5518073 458.21437767 0.83984375 460.7421875 C1.70935669 461.39743408 1.70935669 461.39743408 2.59643555 462.06591797 C8.50224672 466.44916839 14.62696881 470.36628702 21.02734375 473.9921875 C21.88972656 474.48283691 21.88972656 474.48283691 22.76953125 474.98339844 C61.00387413 496.3754298 106.76282592 499.88973112 148.58984375 488.3046875 C158.49594184 485.42511362 167.78440325 481.54630205 177.02734375 476.9921875 C177.68959961 476.66992188 178.35185547 476.34765625 179.03417969 476.015625 C188.73818079 471.24364245 197.36102601 465.43207554 206.02734375 458.9921875 C209.74792735 456.51179843 211.62530946 456.52881547 216.02734375 456.9921875 C218.46484375 458.4921875 218.46484375 458.4921875 220.02734375 460.9921875 C220.6939554 464.38079673 220.96845542 465.82118068 220.02734375 468.9921875 C217.84012681 471.96007264 215.0257024 473.88558207 212.02734375 475.9921875 C211.49625 476.37133301 210.96515625 476.75047852 210.41796875 477.14111328 C188.97108234 492.35077175 165.59190359 502.00299839 140.02734375 507.9921875 C139.29918457 508.17152832 138.57102539 508.35086914 137.82080078 508.53564453 C111.9446127 514.67979011 79.08408148 513.45808874 53.828125 505.4453125 C46.36042605 504.23714921 38.36037212 506.59445557 31.02734375 507.9921875 C29.15293393 508.34946451 27.27793565 508.7036689 25.40234375 509.0546875 C24.58507812 509.21066406 23.7678125 509.36664063 22.92578125 509.52734375 C15.83576681 510.66442154 8.83248791 511.16350804 1.65625 511.23046875 C0.78455673 511.24021729 -0.08713654 511.24996582 -0.98524475 511.26000977 C-20.32927787 511.43179735 -39.00348567 511.24377857 -57.97265625 506.9921875 C-58.82569336 506.80495117 -59.67873047 506.61771484 -60.55761719 506.42480469 C-98.0266165 497.95367989 -131.88085716 480.16863665 -159.97265625 453.9921875 C-161.53319391 452.6357599 -163.09566588 451.28155417 -164.66015625 449.9296875 C-168.82028586 446.21890987 -172.43182322 442.29127357 -175.97265625 437.9921875 C-176.38854004 437.50459961 -176.80442383 437.01701172 -177.23291016 436.51464844 C-199.80462899 410.03368306 -214.96516842 378.28722696 -220.97265625 343.9921875 C-221.14925781 343.00702148 -221.32585937 342.02185547 -221.5078125 341.00683594 C-223.12688238 331.02931778 -223.37182585 321.20665307 -223.34765625 311.1171875 C-223.34711243 310.26046448 -223.3465686 309.40374146 -223.3460083 308.52105713 C-223.30478609 294.35347799 -222.3204948 280.80683163 -218.97265625 266.9921875 C-218.76366699 266.10515137 -218.55467773 265.21811523 -218.33935547 264.30419922 C-210.93712226 233.74711515 -195.92539152 206.46854782 -175.41796875 182.83203125 C-173.83027848 180.98818009 -172.27682072 179.11408001 -170.765625 177.20703125 C-168.85208383 174.8432451 -167.88595182 173.82455766 -164.97265625 172.9921875 C-161.62060114 173.16861145 -158.99874324 173.42949463 -156.03515625 175.0546875 C-154.163204 178.46824749 -153.91735432 181.33003856 -154.97265625 184.9921875 C-156.85507179 187.57128134 -158.97915793 189.75554536 -161.20703125 192.04296875 C-181.23823916 212.83293453 -194.77864212 241.3602984 -201.97265625 268.9921875 C-202.30934326 270.28455322 -202.30934326 270.28455322 -202.65283203 271.60302734 C-208.81466322 296.67122928 -208.5048038 326.05366466 -201.97265625 350.9921875 C-201.78010254 351.75321777 -201.58754883 352.51424805 -201.38916016 353.29833984 C-195.38929288 376.58103283 -184.95990666 399.12301259 -169.97265625 417.9921875 C-169.55580566 418.52183105 -169.13895508 419.05147461 -168.70947266 419.59716797 C-135.42195434 461.47009734 -87.65773781 486.42822782 -34.8984375 493.58203125 C-17.23233822 495.42774311 0.42310914 495.33676954 18.02734375 492.9921875 C14.66289523 490.17728593 11.30316763 487.91968229 7.46484375 485.8046875 C-1.95321844 480.37693981 -10.27019468 473.69066229 -18.53515625 466.6796875 C-19.13118652 466.17606689 -19.7272168 465.67244629 -20.34130859 465.15356445 C-27.60641777 458.8966276 -27.60641777 458.8966276 -28.59765625 453.7421875 C-27.94448537 449.82316223 -27.49276357 449.07194979 -24.94693756 446.27572823 C-23.99016223 445.22424327 -23.99016223 445.22424327 -23.01405811 444.1515162 C-19.65959844 440.60327753 -16.22983214 437.13991819 -12.75915527 433.70553589 C-11.96025958 432.91072473 -11.16136388 432.11591357 -10.33825922 431.29701722 C-7.67905496 428.65247659 -5.01625478 426.01158646 -2.35351562 423.37060547 C-0.43928546 421.46812468 1.47471688 419.56541775 3.3883667 417.66235352 C6.96851871 414.10246796 10.54954436 410.54346534 14.13159698 406.98549224 C21.16345277 400.00068862 28.18778967 393.00836532 35.20935059 386.01321411 C36.3165572 384.91023579 37.42376498 383.80725864 38.53097391 382.70428264 C40.77155313 380.4722254 43.01209301 378.24012868 45.25261211 376.0080111 C50.99991305 370.28231877 56.74759661 364.55701092 62.49609375 358.83251953 C63.07257682 358.25843814 63.64905988 357.68435675 64.24301213 357.09287895 C73.60485256 347.77071887 82.97751672 338.45950801 92.35369426 329.15177105 C101.98655683 319.58863086 111.6060931 310.0122311 121.21373129 300.42374909 C127.13801266 294.51218875 133.07274427 288.61152833 139.02125019 282.72434284 C143.09084778 278.6947965 147.14760581 274.65261957 151.19437701 270.60015069 C153.53081462 268.26120729 155.87446971 265.93039449 158.22992706 263.61058426 C160.77956295 261.09779972 163.30693181 258.56457516 165.82971191 256.02487183 C166.58269389 255.29296186 167.33567586 254.5610519 168.11147547 253.80696285 C172.09919474 249.94725189 172.09919474 249.94725189 173.07509613 244.7147541 C171.72279553 241.20082418 170.2001812 237.8293435 168.46484375 234.4921875 C168.10696777 233.79440186 167.7490918 233.09661621 167.38037109 232.37768555 C166.2756735 230.24208202 165.15475784 228.11587463 164.02734375 225.9921875 C163.53306885 225.05366943 163.53306885 225.05366943 163.02880859 224.09619141 C140.17861857 181.10803463 97.78674566 149.58105741 51.70703125 135.33203125 C35.73567142 130.64278552 19.53665529 127.92977551 3.02734375 125.9921875 C2.81335938 126.68570313 2.599375 127.37921875 2.37890625 128.09375 C0.65873486 131.78267247 -1.82135854 134.45407807 -4.59765625 137.3671875 C-5.14180176 137.94299561 -5.68594727 138.51880371 -6.24658203 139.11206055 C-7.80984876 140.75105886 -9.38678303 142.3750838 -10.97265625 143.9921875 C-11.6584375 144.69214844 -12.34421875 145.39210937 -13.05078125 146.11328125 C-33.51817801 165.37933081 -66.49547802 172.1720649 -93.66015625 172.3046875 C-94.46090576 172.31016602 -95.26165527 172.31564453 -96.08666992 172.32128906 C-102.67090211 172.24143847 -109.92118095 171.89013252 -115.34765625 167.8046875 C-118.36635328 164.57036926 -119.33980908 162.0552078 -120.97265625 157.9921875 C-121.98585938 158.7140625 -122.9990625 159.4359375 -124.04296875 160.1796875 C-125.39402309 161.11791968 -126.74561415 162.0553793 -128.09765625 162.9921875 C-129.09539062 163.70761719 -129.09539062 163.70761719 -130.11328125 164.4375 C-134.16115734 167.21545418 -136.88455768 168.78650038 -141.97265625 167.9921875 C-144.9169336 165.92323585 -145.8159858 164.48308823 -146.91015625 161.0546875 C-146.98978387 157.15293418 -146.3483851 156.10272432 -143.97265625 152.9921875 C-141.14847507 150.71819562 -138.14528519 148.76456971 -135.09765625 146.8046875 C-134.29457031 146.27166016 -133.49148437 145.73863281 -132.6640625 145.18945312 C-128.84250788 142.68686999 -125.26657352 140.59946834 -120.97265625 138.9921875 C-120.88628906 137.78046875 -120.79992187 136.56875 -120.7109375 135.3203125 C-118.18913552 103.81049199 -108.32666018 74.58232424 -83.84765625 53.3671875 C-68.32808683 41.10803182 -53.41170494 37.41479001 -33.97265625 37.9921875 C-34.00407715 37.34781738 -34.03549805 36.70344727 -34.06787109 36.03955078 C-35.0345371 13.25967892 -35.0345371 13.25967892 -29.9140625 6.80859375 C-21.29342345 -1.25699409 -11.55625226 -3.91788842 0 0 Z M-16.15063477 16.66088867 C-20.88720149 22.72138387 -19.20022458 33.9772996 -18.53613281 41.2890625 C-18.11813716 44.24740354 -18.11813716 44.24740354 -15.68359375 47.0546875 C-12.824302 48.78105233 -10.10640062 49.86302455 -6.97265625 50.9921875 C-5.28179872 52.29470674 -3.61155027 53.62486093 -1.97265625 54.9921875 C-1.89805391 50.56310372 -1.84384254 46.1343606 -1.80786133 41.70483398 C-1.79284903 40.20053733 -1.77243272 38.69628389 -1.74633789 37.19213867 C-1.70961809 35.01991054 -1.69285464 32.84826499 -1.6796875 30.67578125 C-1.66397705 29.37181396 -1.6482666 28.06784668 -1.63208008 26.72436523 C-2.02544905 22.41366172 -2.98290077 19.80933731 -4.97265625 15.9921875 C-8.79936611 14.07883257 -12.73657662 14.04514072 -16.15063477 16.66088867 Z M-84.91015625 77.26171875 C-100.23992383 97.89531216 -106.6202567 126.64448821 -104.97265625 151.9921875 C-104.64265625 152.9821875 -104.31265625 153.9721875 -103.97265625 154.9921875 C-90.72463731 161.61619697 -65.48830418 153.79302264 -52.15234375 149.50390625 C-41.51192067 145.81991542 -31.34472513 140.58100669 -22.97265625 132.9921875 C-22.36292969 132.45078125 -21.75320312 131.909375 -21.125 131.3515625 C-10.0164032 120.90215716 -2.72073946 107.32789334 -1.97265625 91.9921875 C-2.38067377 84.28065641 -4.90218662 78.45641436 -8.97265625 71.9921875 C-10.58881768 73.38707582 -12.20492266 74.78202959 -13.82080078 76.17724609 C-15.27188334 77.40113397 -16.74513619 78.59914792 -18.23779297 79.77197266 C-28.77689951 87.83853173 -28.77689951 87.83853173 -34.74609375 99.22363281 C-35.30154576 105.75957659 -34.83886944 112.15786173 -33.91772461 118.64233398 C-33.97265625 120.9921875 -33.97265625 120.9921875 -35.33032227 122.78564453 C-37.89300732 124.6683247 -40.01555846 124.47359107 -43.1015625 124.33203125 C-44.97265625 123.9921875 -44.97265625 123.9921875 -46.91015625 122.4921875 C-48.40037134 118.98579904 -48.65629287 115.78854806 -48.97265625 111.9921875 C-52.84092781 115.18137368 -56.45106267 118.41371619 -59.875 122.078125 C-60.53822266 122.78066406 -61.20144531 123.48320313 -61.88476562 124.20703125 C-63.24495434 125.65772433 -64.59122553 127.12158238 -65.92382812 128.59765625 C-70.83139727 133.72894582 -70.83139727 133.72894582 -74.18798828 134.50317383 C-77.0737755 134.54583216 -79.40629157 134.29306874 -81.97265625 132.9296875 C-83.67520445 129.63100036 -83.57469408 127.66461829 -82.97265625 123.9921875 C-81.05430527 120.929557 -78.53396566 118.5245789 -75.97265625 115.9921875 C-74.85238352 114.87157446 -73.73263172 113.75044051 -72.61328125 112.62890625 C-70.83009482 110.84352167 -69.04344141 109.06280915 -67.24145508 107.29638672 C-65.80097808 105.87926881 -64.38441691 104.43791534 -62.97265625 102.9921875 C-62.97265625 102.6621875 -62.97265625 102.3321875 -62.97265625 101.9921875 C-63.67132813 101.88261719 -64.37 101.77304688 -65.08984375 101.66015625 C-66.45496094 101.42232422 -66.45496094 101.42232422 -67.84765625 101.1796875 C-68.75257813 101.02886719 -69.6575 100.87804687 -70.58984375 100.72265625 C-72.97265625 99.9921875 -72.97265625 99.9921875 -74.97265625 96.9921875 C-75.52599014 90.79484793 -75.52599014 90.79484793 -73.77197266 88.25048828 C-71.2606331 86.49425435 -69.87241124 86.92306012 -66.87109375 87.359375 C-57.007056 88.24795107 -48.40825891 88.58327137 -40.48422241 81.99377441 C-33.39072364 75.57343777 -27.05855617 68.36078357 -20.97265625 60.9921875 C-26.14372349 55.64548875 -32.35120077 53.83267657 -39.7331543 53.46191406 C-57.96530003 53.17557935 -73.35244681 63.72335346 -84.91015625 77.26171875 Z M207.56309319 236.2075491 C206.98973795 236.7814491 206.41638271 237.3553491 205.82565308 237.94664001 C205.16659973 238.60149887 204.50754639 239.25635773 203.82852173 239.93106079 C203.10635468 240.65884735 202.38418762 241.38663391 201.64013672 242.13647461 C200.87906616 242.89564682 200.11799561 243.65481903 199.3338623 244.43699646 C196.80749927 246.95964037 194.28843261 249.48943834 191.76953125 252.01953125 C190.02397469 253.766279 188.27804932 255.51265827 186.5317688 257.25868225 C182.86849734 260.92352051 179.20861939 264.59170357 175.55126953 268.26245117 C170.85050181 272.98021526 166.14318523 277.69134976 161.43353081 282.40024471 C157.82687436 286.00717238 154.22282494 289.61669524 150.61966324 293.22711372 C148.88422244 294.9657486 147.14816478 296.70376797 145.41149521 298.44117546 C142.99038384 300.86444224 140.57258719 303.29096557 138.15576172 305.71850586 C137.4295462 306.44426819 136.70333069 307.17003052 135.95510864 307.91778564 C134.9749881 308.90430367 134.9749881 308.90430367 133.97506714 309.91075134 C133.11616536 310.77216689 133.11616536 310.77216689 132.23991203 311.65098476 C130.91557053 312.81447174 130.91557053 312.81447174 131.02734375 313.9921875 C137.81803938 313.41124626 144.46133116 312.47932986 151.15869141 311.22631836 C152.11600159 311.05060806 153.07331177 310.87489777 154.05963135 310.69386292 C157.18761109 310.11875844 160.31450095 309.53794655 163.44140625 308.95703125 C165.62423275 308.55454148 167.80712567 308.15241178 169.99008179 307.75062561 C175.70841041 306.69714042 181.42582885 305.63879487 187.14306641 304.57940674 C192.98806099 303.49724507 198.83391023 302.41972099 204.6796875 301.34179688 C216.12974358 299.22977763 227.57884269 297.11261856 239.02734375 294.9921875 C240.33296451 290.74674302 239.31836744 287.66204946 237.96484375 283.5546875 C237.73659912 282.84675049 237.50835449 282.13881348 237.27319336 281.40942383 C235.0394881 274.68415174 232.22244221 268.31684394 229.02734375 261.9921875 C228.33511719 260.59226562 228.33511719 260.59226562 227.62890625 259.1640625 C223.84260692 251.84248921 219.08050494 245.4698589 214.02734375 238.9921875 C213.48464844 238.21746094 212.94195312 237.44273437 212.3828125 236.64453125 C211.93550781 236.09925781 211.48820312 235.55398437 211.02734375 234.9921875 C208.96668 234.7792942 208.96668 234.7792942 207.56309319 236.2075491 Z M236.86550903 310.70004272 C235.99346832 310.85702133 235.12142761 311.01399994 234.22296143 311.17573547 C233.26395935 311.35025742 232.30495728 311.52477936 231.31689453 311.70458984 C230.30865631 311.8866951 229.30041809 312.06880035 228.2616272 312.25642395 C224.91492774 312.86160341 221.56874995 313.46960562 218.22265625 314.078125 C217.08209652 314.28524738 215.94153679 314.49236977 214.76641464 314.70576859 C208.73143788 315.80181479 202.69686176 316.90003731 196.66259766 318 C190.42004768 319.13749385 184.17618811 320.26762219 177.93199348 321.39604759 C173.13920781 322.26355688 168.34742678 323.13651768 163.55590439 324.01097488 C161.25414958 324.43005996 158.95201728 324.84707705 156.64950943 325.26200485 C153.430785 325.84257023 150.21355682 326.43082405 146.99658203 327.02099609 C146.04162842 327.19146957 145.0866748 327.36194305 144.1027832 327.5375824 C143.22510284 327.70020065 142.34742249 327.86281891 141.44314575 328.03036499 C140.6824988 328.16863394 139.92185184 328.30690289 139.13815498 328.4493618 C136.89938024 329.02509517 135.05211505 329.88833557 133.02734375 330.9921875 C154.30838016 341.10735229 175.59976554 351.19024117 197.02734375 360.9921875 C198.52719152 361.67868793 200.02702804 362.36521294 201.52685547 363.05175781 C211.69126203 367.70387532 221.85835598 372.35009335 232.02734375 376.9921875 C240.45609482 368.56343643 242.771651 346.77789431 243.14086914 335.53540039 C243.13563232 334.3571167 243.13039551 333.17883301 243.125 331.96484375 C243.12177734 330.67900391 243.11855469 329.39316406 243.11523438 328.06835938 C243.10688177 326.73046805 243.09841686 325.39257743 243.08984375 324.0546875 C243.08482034 322.68945476 243.08025892 321.32422024 243.07617188 319.95898438 C243.06443226 316.63667293 243.04801054 313.31445342 243.02734375 309.9921875 C240.87707986 309.9921875 238.98263338 310.31691487 236.86550903 310.70004272 Z M123.02734375 343.9921875 C123.70037692 348.99419008 125.77157821 353.25948473 127.83203125 357.8125 C128.22326675 358.68821655 128.61450226 359.56393311 129.01759338 360.46618652 C130.30791502 363.35193531 131.60518719 366.23450543 132.90234375 369.1171875 C134.2606882 372.15086574 135.61723686 375.18534327 136.97380066 378.21981812 C137.90907041 380.31142119 138.84496131 382.40274661 139.78144836 384.49380493 C144.71687574 395.51687232 149.59298958 406.56591233 154.46484375 417.6171875 C161.16751783 432.83986818 161.16751783 432.83986818 168.02734375 447.9921875 C187.83606642 440.29510744 204.24952247 423.21280508 216.71484375 406.4921875 C217.17882568 405.87520996 217.64280762 405.25823242 218.12084961 404.62255859 C221.30448728 400.28024422 223.72725922 395.86168729 226.02734375 390.9921875 C225.4439624 390.72293457 224.86058105 390.45368164 224.25952148 390.17626953 C222.99797241 389.59401611 222.99797241 389.59401611 221.7109375 389 C220.25349121 388.32735107 220.25349121 388.32735107 218.76660156 387.64111328 C216.51200639 386.60050525 214.25745085 385.55981134 212.00292969 384.51904297 C205.69682381 381.60802115 199.39019655 378.69813808 193.08239746 375.79078674 C189.81439567 374.28444346 186.54660152 372.77765014 183.27886963 371.27072144 C181.60863589 370.50052301 179.93834763 369.7304428 178.26800537 368.96047974 C169.54817333 364.94036901 160.83328786 360.91061149 152.140625 356.83203125 C151.44913361 356.50787231 150.75764221 356.18371338 150.04519653 355.84973145 C146.83317064 354.34357684 143.62271668 352.83424067 140.41503906 351.31884766 C134.68621324 348.62808517 128.99862311 346.09495704 123.02734375 343.9921875 Z M92.02734375 351.9921875 C65.95734375 378.0621875 39.88734375 404.1321875 13.02734375 430.9921875 C16.24261078 440.63798858 33.45344924 447.7757935 41.94604492 452.19262695 C51.28916755 456.84763298 62.4445498 461.9921875 73.02734375 461.9921875 C77.20032793 441.61052449 81.05842947 421.1711227 84.86816406 400.71899414 C85.56366754 396.98762831 86.26417062 393.25725043 86.96875 389.52758789 C87.83133463 384.96141908 88.68575111 380.39379487 89.5341835 375.82497597 C89.85589061 374.10005863 90.18045061 372.37567076 90.50796127 370.65184593 C90.96094401 368.26432274 91.4033795 365.87507373 91.84326172 363.48510742 C91.97926285 362.78135483 92.11526398 362.07760223 92.25538635 361.3525238 C92.91579529 357.69752776 92.95142711 355.68852093 92.02734375 351.9921875 Z M109.02734375 354.9921875 C104.64862351 375.11733389 100.93494018 395.35764407 97.24145508 415.6171875 C96.37733343 420.35653857 95.5072198 425.09476833 94.63555431 429.83273697 C93.95962927 433.51078905 93.28700836 437.18943941 92.61538124 440.8682785 C92.29549576 442.6179745 91.97453317 444.36747394 91.65245628 446.11676788 C91.2065519 448.54110612 90.76515952 450.96622352 90.32495117 453.39160156 C90.19254532 454.10627594 90.06013947 454.82095032 89.92372131 455.55728149 C89.34179943 458.78890574 89.02734375 461.69063767 89.02734375 464.9921875 C110.80691132 465.44289488 129.37933606 464.00948107 150.02734375 456.9921875 C151.01734375 456.6621875 152.00734375 456.3321875 153.02734375 455.9921875 C152.46437371 451.78710655 151.49097984 448.35253206 149.71875 444.50390625 C149.22810059 443.42592773 148.73745117 442.34794922 148.23193359 441.23730469 C147.69004395 440.06329102 147.1481543 438.88927734 146.58984375 437.6796875 C145.40244777 435.07594228 144.22085835 432.46957217 143.0390625 429.86328125 C142.56421417 428.81849106 142.56421417 428.81849106 142.07977295 427.75259399 C137.93651959 418.61965605 133.92482037 409.42877257 129.90234375 400.2421875 C129.12922643 398.47815677 128.35603354 396.71415917 127.58276367 394.95019531 C126.4532264 392.37333156 125.32379674 389.79642101 124.19477844 387.21932983 C120.93824865 379.78609041 117.67226956 372.35704334 114.40234375 364.9296875 C113.94714355 363.89553711 113.49194336 362.86138672 113.02294922 361.79589844 C112.02457728 359.52792287 111.02606149 357.26001081 110.02734375 354.9921875 C109.69734375 354.9921875 109.36734375 354.9921875 109.02734375 354.9921875 Z " fill="#000000" transform="translate(222.97265625,1.0078125)"/>
<path d="M0 0 C3.28123944 2.05077465 3.85074285 3.37809523 4.75 7.125 C3.61982386 12.96424337 0.04632192 16.75867461 -4 21 C-7.09173752 22.54586876 -9.59429552 22.29359521 -13 22 C-15.65075774 20.11656687 -16.71738192 18.65355432 -18 15.6875 C-18 10.46014191 -14.53918221 6.38335824 -11.25 2.5625 C-7.60496593 -0.88825561 -4.86054742 -0.78395926 0 0 Z " fill="#000000" transform="translate(105,404)"/>
<path d="M0 0 C3.02791041 2.57372384 3.86162709 4.15246594 4.5 8.0625 C4 11 4 11 2.5625 13.1875 C-2.41877485 16.71084075 -8.88024863 18.9962386 -15 18 C-17.94427735 15.93104835 -18.84332955 14.49090073 -19.9375 11.0625 C-20.01663655 7.18480883 -19.63556535 5.86811523 -17 3 C-11.57830067 0.25065957 -5.99974005 -0.81352407 0 0 Z " fill="#000000" transform="translate(63,363)"/>
<path d="M0 0 C1.16015625 0.02900391 1.16015625 0.02900391 2.34375 0.05859375 C3.1171875 0.05988281 3.890625 0.06117188 4.6875 0.0625 C7.32494554 0.5928559 8.20906478 1.39363706 9.84375 3.49609375 C11.56602848 8.9278951 10.5127639 14.16984175 8.84375 19.49609375 C7.21875 22.12109375 7.21875 22.12109375 4.84375 23.49609375 C1.31818891 24.10149313 -1.90698265 24.22147479 -5.09375 22.37109375 C-8.00433043 17.23477534 -6.98793848 12.38273894 -5.921875 6.86328125 C-4.79916334 3.39204009 -3.73640045 0.85964286 0 0 Z " fill="#000000" transform="translate(145.15625,439.50390625)"/>
</svg>
