<?xml version="1.0" encoding="UTF-8"?>
<svg version="1.0" xmlns="http://www.w3.org/2000/svg" width="512" height="512">
<path d="M0 0 C0.69254883 0.20431641 1.38509766 0.40863281 2.09863281 0.61914062 C31.58814259 9.53819543 58.68394389 26.04040276 81.375 46.6875 C81.91970947 47.16590332 82.46441895 47.64430664 83.02563477 48.13720703 C86.18339324 50.99460126 88.62612665 53.82057893 90.96484375 57.38671875 C94.62258592 62.52854483 98.0389111 66.5801794 104 69 C115.52167417 70.8779348 127.9112758 68.71284875 139.41308594 67.46289062 C144.86272833 66.88496988 150.270959 66.68858646 155.75 66.75 C156.98617065 66.76015137 156.98617065 66.76015137 158.24731445 66.77050781 C197.60647313 67.43194165 237.97399803 73.1985766 273 92 C271.8335158 95.80470079 270.55623932 99.04573999 268.375 102.375 C267.92898438 103.06335938 267.48296875 103.75171875 267.0234375 104.4609375 C266.68570312 104.96882813 266.34796875 105.47671875 266 106 C260.91434191 105.29710417 256.44834057 103.21189522 251.75 101.25 C233.31529925 92.84983007 233.31529925 92.84983007 214 94 C212.98679687 94.33644531 211.97359375 94.67289062 210.9296875 95.01953125 C189.44124119 102.61414762 173.88753382 116.21583562 163.75292969 136.56445312 C159.01631986 146.73154035 156.40009356 157.90241627 155 169 C155.49886719 168.84015625 155.99773437 168.6803125 156.51171875 168.515625 C177.07830543 164.25378914 198.86842326 171.90972857 215.99609375 182.921875 C220.52913775 186.05786903 224.79391269 189.4415757 229 193 C229.63550781 193.51304687 230.27101563 194.02609375 230.92578125 194.5546875 C235.47987362 198.29086084 239.30629296 202.41720104 243 207 C243.81339844 208.00289062 244.62679688 209.00578125 245.46484375 210.0390625 C269.78613507 241.05636342 280.7946715 280.88051499 276.5390625 320 C273.44246321 342.7386574 264.43887219 362.93137268 248 379 C247.36835938 379.66386719 246.73671875 380.32773437 246.0859375 381.01171875 C237.50705544 389.42053487 224.62867557 394.70980243 213 397 C211.88625 397.226875 210.7725 397.45375 209.625 397.6875 C184.44254641 399.85840117 160.99147937 391.89092654 141.38671875 375.91015625 C118.52538098 356.5804084 100.43533622 329.63641682 94 300 C94 298.68 94 297.36 94 296 C93.51168701 296.43280273 93.02337402 296.86560547 92.52026367 297.31152344 C65.64635684 320.99787292 37.28992028 335.63967765 0.77636719 334.19091797 C-14.70321386 333.12645856 -29.48719929 326.2856611 -41 316 C-41.68578125 315.39542969 -42.3715625 314.79085938 -43.078125 314.16796875 C-57.1251727 301.00556337 -65.15097119 280.64631286 -66.12402344 261.56835938 C-67.29320086 221.87406411 -53.12582743 186.40086871 -26.17871094 157.3190918 C-5.88083441 135.88364981 22.96723763 117.81628194 53.2734375 116.76171875 C68.42605063 116.48956077 81.05069007 117.79833227 95 124 C95.39155273 123.22305786 95.39155273 123.22305786 95.79101562 122.43041992 C102.61406858 108.9710219 109.75262679 97.17604141 120 86 C66.23704073 87.59771053 12.21855441 101.4329211 -36.76708984 123.1171875 C-39 124 -39 124 -41 124 C-41.07476562 124.6084375 -41.14953125 125.216875 -41.2265625 125.84375 C-44.13346933 145.22312886 -53.81988504 163.65256407 -67 178 C-67.43650879 178.47888672 -67.87301758 178.95777344 -68.32275391 179.45117188 C-92.63101512 205.82584965 -126.25727678 218.71600974 -160.9375 224.9375 C-161.689104 225.07833008 -162.44070801 225.21916016 -163.21508789 225.36425781 C-166.11600727 225.84291118 -168.4555145 226.16575324 -171.296875 225.30078125 C-173.28901871 223.77925864 -174.76817221 222.22735271 -176.3125 220.25 C-176.84488281 219.59515625 -177.37726563 218.9403125 -177.92578125 218.265625 C-179.47420776 214.99985272 -178.96979613 213.49689973 -178 210 C-176.66996608 206.42051529 -175.16732029 202.93010166 -173.625 199.4375 C-172.95778931 197.92144165 -172.95778931 197.92144165 -172.27709961 196.37475586 C-162.51592122 174.50542115 -151.02593272 154.84304635 -135 137 C-134.39800781 136.32582031 -133.79601562 135.65164062 -133.17578125 134.95703125 C-119.37013685 120.3491218 -98.30354628 108.87123426 -78 108 C-77.3090625 107.96003906 -76.618125 107.92007813 -75.90625 107.87890625 C-70.18664098 107.70275887 -64.73780118 108.57357342 -59.11328125 109.5625 C-52.50724545 110.49082623 -48.50898482 109.61553107 -42.625 106.5625 C-4.30334699 87.67190392 38.87689441 77.8667278 81 72 C81.21679818 69.84779589 81.21679818 69.84779589 79.41796875 68.15234375 C48.09041358 37.04424605 3.2294709 11.21709649 -41.84570312 9.88647461 C-43.79379883 9.89432983 -43.79379883 9.89432983 -45.78125 9.90234375 C-46.48020386 9.9037587 -47.17915771 9.90517365 -47.89929199 9.90663147 C-50.09957429 9.9121633 -52.29974923 9.92470223 -54.5 9.9375 C-56.00520685 9.94252384 -57.51041532 9.94708518 -59.015625 9.95117188 C-62.67711735 9.96211023 -66.33854817 9.97932641 -70 10 C-47.70905998 37.0511922 -21.41340668 56.7862365 13 66 C12.40984815 71.50808397 11.43336231 76.64878069 10 82 C3.59044224 81.46032559 -1.83102603 79.88925082 -7.8125 77.5625 C-8.72612305 77.20833008 -9.63974609 76.85416016 -10.58105469 76.48925781 C-33.37319357 67.41803374 -52.72688687 54.3560075 -70 37 C-70.92554688 36.07445312 -71.85109375 35.14890625 -72.8046875 34.1953125 C-77.56548342 29.19721834 -81.64168088 23.89373989 -85.5 18.1875 C-85.92192627 17.56496338 -86.34385254 16.94242676 -86.77856445 16.30102539 C-92.51202847 7.5308836 -92.51202847 7.5308836 -91.453125 2.296875 C-88.3157621 -4.34455554 -88.3157621 -4.34455554 -84.890625 -6.05078125 C-82.24034313 -6.61808015 -79.70594845 -6.84760455 -77 -7 C-75.56140625 -7.15662109 -75.56140625 -7.15662109 -74.09375 -7.31640625 C-49.22322356 -9.79717846 -23.90814845 -7.19434035 0 0 Z M-122 148 C-122.86625 148.86625 -123.7325 149.7325 -124.625 150.625 C-135.93586976 162.50141325 -158 189.9361397 -158 207 C-131.68409399 205.56458695 -104.03726902 190.55419565 -85 173 C-84.33742188 172.41863281 -83.67484375 171.83726562 -82.9921875 171.23828125 C-71.65598164 160.77206328 -63.23819408 145.72877349 -59 131 C-59.28639786 128.22252318 -59.28639786 128.22252318 -60 126 C-83.68844792 119.45864163 -105.72957092 131.63967905 -122 148 Z M126 104 C120.88467765 110.97857636 116.61088243 118.35480173 112.8125 126.125 C112.33852783 127.06593506 112.33852783 127.06593506 111.85498047 128.02587891 C110.21745202 131.50823786 110.21745202 131.50823786 110.62890625 135.21875 C112.04123223 137.05356665 113.51020718 138.71514319 115.125 140.375 C121.85258177 147.89075034 126.93310333 157.4159479 130 167 C128.25014646 167.47970123 126.50011109 167.95873924 124.75 168.4375 C123.77546875 168.70433594 122.8009375 168.97117187 121.796875 169.24609375 C119.53627347 169.85544584 117.27377991 170.44238255 115 171 C114.59910156 170.10539062 114.19820312 169.21078125 113.78515625 168.2890625 C106.81776842 153.26393859 96.61104813 141.99170881 80.8828125 136 C79.93148437 135.67 78.98015625 135.34 78 135 C77.29617188 134.7525 76.59234375 134.505 75.8671875 134.25 C55.21586939 128.41903959 32.67805497 135.94087828 14.58398438 145.72338867 C-14.97382705 162.35915073 -36.41472551 191.80632073 -46 224 C-51.83949529 245.51032834 -52.36273346 267.68320427 -42 288 C-34.49328083 300.83470719 -24.16136397 310.76008655 -9.72265625 315.2890625 C11.70686882 320.88472041 33.50555605 316.79955516 52.79394531 305.99511719 C65.31095915 298.61744993 83.33774205 287.32451589 90 274 C90.10650659 272.27572982 90.15544986 270.54774931 90.17578125 268.8203125 C90.7439588 239.84106377 95.75531156 211.09480383 116.47265625 189.28515625 C121.89681591 184.38077696 128.27117783 179.17611595 135.26953125 176.96875 C138.5730775 174.58679391 138.56345571 173.76597018 139.25 169.87109375 C139.52106737 167.72912345 139.76977766 165.5842445 140 163.4375 C143.65473176 136.22961956 154.83763388 111.19191462 177 94 C180.42934665 91.68065358 183.96000011 89.56912683 187.54296875 87.49609375 C188.35378906 87.00238281 189.16460937 86.50867188 190 86 C190 85.67 190 85.34 190 85 C182.68154667 84.13989728 175.42941683 83.75792942 168.0625 83.6875 C167.05509766 83.65849609 166.04769531 83.62949219 165.00976562 83.59960938 C148.855306 83.46455601 136.20129527 91.93414461 126 104 Z M125 204 C122.34486297 207.17924229 120.10746398 210.43686502 118 214 C117.21882813 215.299375 117.21882813 215.299375 116.421875 216.625 C103.96546187 239.27302388 103.41012627 267.31751406 109 292 C109.15033691 292.6791748 109.30067383 293.35834961 109.45556641 294.05810547 C116.17245979 323.08094386 134.3920968 353.08943626 159.96289062 369.23974609 C176.55197809 379.11623889 193.53887359 383.81686848 212.81640625 380.3046875 C230.73726993 375.26907291 242.47788968 363.10492657 251.5 347.38671875 C265.04125642 320.17725663 263.01479099 288.10549245 253.796875 259.96484375 C243.67435589 230.98541969 224.5154451 205.13365526 196.8125 191.0625 C171.02963339 178.77806244 144.59589726 183.2095778 125 204 Z " fill="#000000" transform="translate(207,61)"/>
<path d="M0 0 C1.25901123 -0.03383789 1.25901123 -0.03383789 2.54345703 -0.06835938 C11.0508663 -0.0350166 18.22923871 2.95516127 24.49609375 8.7421875 C28.21878257 13.12063452 29.56333357 18.60377735 29.2734375 24.3125 C27.63508698 34.67601959 21.44330347 42.25820361 13.24609375 48.48046875 C0.81970807 56.40968628 -14.23382677 59.49616114 -28.6875 56.4375 C-35.33066674 54.41980466 -40.33520139 50.36724976 -44.28515625 44.67578125 C-46.96442504 39.32970538 -46.85954907 33.62068341 -45.44140625 27.95703125 C-41.0558927 15.38522574 -31.53656737 9.01735468 -20.0625 3.4375 C-13.57781164 0.32066592 -7.08542791 0.12927254 0 0 Z M-27.5 29.0625 C-29.5348274 32.02080858 -29.5348274 32.02080858 -30.0625 35.4375 C-27.97487811 38.66382473 -25.58704126 39.80787085 -22 40.8125 C-12.73507749 42.49841213 -3.82879148 39.43482508 3.9375 34.4375 C8.10657581 31.25563704 10.53791545 28.76944849 12.0625 23.6875 C12.22375011 20.51322637 12.22375011 20.51322637 10.6875 18.5625 C-1.73777295 10.57482454 -18.78746445 19.67976941 -27.5 29.0625 Z " fill="#000000" transform="translate(419.0625,370.5625)"/>
<path d="M0 0 C10.72968415 7.36063657 20.09023232 16.98844227 22.7890625 29.9765625 C23.93501535 37.71174427 22.35479208 43.35020462 18.1640625 49.8828125 C11.21958748 56.37438698 4.36435522 57.23893433 -5 56.94921875 C-17.60502127 55.66217974 -29.05909506 48.31337473 -37.62890625 39.203125 C-44.26436269 30.81232267 -47.80642212 22.47375815 -47.203125 11.7109375 C-46.30708865 5.99337222 -44.4672773 2.3266523 -40.3984375 -1.7421875 C-27.56281565 -9.80176401 -12.69764535 -7.4929568 0 0 Z M-30.7109375 12.5703125 C-30.45314863 19.65950646 -28.4429168 24.25493849 -23.7109375 29.5703125 C-16.72465258 35.76834579 -9.71827535 39.89023652 -0.3984375 40.9453125 C2.89885343 40.48522539 4.25110443 40.26041716 6.2890625 37.5703125 C7.03486924 32.27289107 5.42631767 28.20042392 2.3515625 23.9453125 C-4.33498542 16.10780142 -13.08233835 10.23317242 -23.4609375 9.1953125 C-26.88089649 9.58992315 -28.26094122 10.21831607 -30.7109375 12.5703125 Z " fill="#000000" transform="translate(218.7109375,308.4296875)"/>
</svg>
