<?xml version="1.0" encoding="UTF-8"?>
<svg version="1.0" xmlns="http://www.w3.org/2000/svg" width="512" height="512">
<path d="M0 0 C2.43987592 0.51641388 4.84779745 1.10878087 7.26220703 1.73339844 C8.57946777 2.0711731 8.57946777 2.0711731 9.92333984 2.41577148 C34.59430897 8.93672264 57.48665193 20.99489485 77.01220703 37.45214844 C82.80691518 42.28107189 89.08250756 45.37072715 95.82470703 48.63964844 C116.49051586 58.69753258 136.11062828 73.9389278 150.82470703 91.60839844 C151.57236328 92.45660156 152.32001953 93.30480469 153.09033203 94.17871094 C186.48491311 132.71899791 200.29650597 182.28400491 197.82470703 232.60839844 C197.5419176 236.48109331 197.14256529 240.32113387 196.63720703 244.17089844 C196.48614502 245.32537476 196.48614502 245.32537476 196.33203125 246.50317383 C194.87097743 256.00395649 192.21983471 265.30949254 189.82470703 274.60839844 C191.07606445 274.59268799 192.32742188 274.57697754 193.61669922 274.56079102 C198.26083943 274.50647739 202.90495158 274.47204305 207.54931641 274.44360352 C209.55913006 274.42852018 211.56891082 274.40805071 213.57861328 274.38208008 C216.46801879 274.34567699 219.35698899 274.32866756 222.24658203 274.31542969 C223.59366241 274.2922039 223.59366241 274.2922039 224.96795654 274.26850891 C231.16212665 274.26683914 231.16212665 274.26683914 234.36083984 275.91577148 C236.75887177 278.68854589 236.82470703 281.01574509 236.82470703 284.60839844 C235.05829531 287.4102929 233.79420881 289.12364755 230.82470703 290.60839844 C228.91562517 290.72833924 227.00248455 290.78571132 225.08984375 290.8137207 C223.88874969 290.83366592 222.68765564 290.85361115 221.45016479 290.87416077 C219.49700851 290.89922951 219.49700851 290.89922951 217.50439453 290.92480469 C216.16203165 290.94537468 214.81967524 290.96637117 213.47732544 290.98777771 C209.94282265 291.04299374 206.40826146 291.09240502 202.87365723 291.140625 C199.26744381 291.19084348 195.66131531 291.24652773 192.05517578 291.30175781 C184.97842654 291.40933361 177.90160119 291.51077986 170.82470703 291.60839844 C171.5621817 292.03386459 172.29965637 292.45933075 173.05947876 292.89768982 C183.18174235 298.73745728 193.30400594 304.57722473 203.42626953 310.41699219 C204.48523438 311.02792725 205.54419922 311.6388623 206.63525391 312.26831055 C208.76939015 313.49955556 210.90350457 314.73083839 213.03759766 315.9621582 C218.04385213 318.85058554 223.05029596 321.73868271 228.05755615 324.62536621 C229.80811944 325.63458948 231.55861114 326.6439368 233.30908203 327.65332031 C235.48862868 328.91007503 237.66830536 330.1666043 239.84814453 331.42285156 C246.85331986 335.46256285 253.8432921 339.52776684 260.82470703 343.60839844 C263.57348378 340.10679325 265.22751531 336.57525448 266.76220703 332.42089844 C267.02163086 331.71964844 267.28105469 331.01839844 267.54833984 330.29589844 C272.17318882 317.38987626 274.43374194 304.20691246 275.82470703 290.60839844 C274.87208984 290.64320313 273.91947266 290.67800781 272.93798828 290.71386719 C271.68373047 290.7409375 270.42947266 290.76800781 269.13720703 290.79589844 C267.89583984 290.83070313 266.65447266 290.86550781 265.37548828 290.90136719 C261.60803771 290.59052143 259.79675786 289.88568414 256.82470703 287.60839844 C255.39808484 284.75515406 255.51436835 282.77385295 255.82470703 279.60839844 C257.08105469 276.94628906 257.08105469 276.94628906 259.82470703 274.60839844 C263.88775293 273.85374457 267.91418827 273.95657614 272.03564453 274.01464844 C273.83698349 274.01458801 273.83698349 274.01458801 275.67471313 274.01452637 C278.21499868 274.01988793 280.75528345 274.03749737 283.29541016 274.06640625 C287.17808947 274.10816593 291.0590291 274.10748268 294.94189453 274.10058594 C297.41065656 274.11108168 299.87940965 274.12402183 302.34814453 274.13964844 C303.50768646 274.13984985 304.66722839 274.14005127 305.86190796 274.14025879 C312.55549119 274.23817165 317.59423419 274.56755503 322.68798828 279.36230469 C323.16623047 279.95914062 323.64447266 280.55597656 324.13720703 281.17089844 C324.62833984 281.7703125 325.11947266 282.36972656 325.62548828 282.98730469 C330.61986823 289.7386652 328.25992024 303.0266816 327.17626953 310.95214844 C322.05355849 343.15622343 309.40582044 372.62822836 289.82470703 398.60839844 C289.17501953 399.48496094 288.52533203 400.36152344 287.85595703 401.26464844 C272.80621778 420.61431319 254.05063434 436.47929712 232.82470703 448.60839844 C232.22706543 448.95966797 231.62942383 449.3109375 231.01367188 449.67285156 C194.53314338 470.98056174 148.4591145 478.83752385 106.82470703 471.60839844 C99.60383313 469.47476826 99.60383313 469.47476826 97.82470703 466.60839844 C97.2012984 462.40039019 97.42175625 460.29917121 99.57470703 456.60839844 C104.65736214 453.48061068 109.11152176 454.81032599 114.82470703 455.60839844 C160.91091703 460.66841675 206.96915725 449.12538008 243.82470703 420.60839844 C244.75283203 419.90328125 245.68095703 419.19816406 246.63720703 418.47167969 C279.24800627 392.82859482 300.31571821 356.09255718 308.69970703 315.73339844 C308.91530273 314.71165527 309.13089844 313.68991211 309.35302734 312.63720703 C310.73974057 305.52311521 311.00829743 298.85481946 310.82470703 291.60839844 C304.88470703 291.60839844 298.94470703 291.60839844 292.82470703 291.60839844 C292.48439453 295.16621094 292.48439453 295.16621094 292.13720703 298.79589844 C288.22524431 334.0139763 273.36214997 365.20574242 248.82470703 390.60839844 C247.96232422 391.53394531 247.09994141 392.45949219 246.21142578 393.41308594 C218.90318712 421.97548074 178.97598446 436.90940106 139.93017578 437.95996094 C97.70021631 438.33984063 59.34463064 422.42999569 28.82470703 393.60839844 C28.02677734 392.87492187 27.22884766 392.14144531 26.40673828 391.38574219 C2.30262116 368.43126499 -16.20960426 332.16278932 -17.27294922 298.51855469 C-17.24039714 295.88183594 -17.20784505 293.24511719 -17.17529297 290.60839844 C-23.44529297 290.93839844 -29.71529297 291.26839844 -36.17529297 291.60839844 C-36.99552381 334.15787344 -15.47258199 374.20229932 12.82470703 404.60839844 C13.47568359 405.32511719 14.12666016 406.04183594 14.79736328 406.78027344 C30.0091493 422.84204365 49.18005963 433.81038228 69.14550781 442.80419922 C70.5722583 443.4594458 70.5722583 443.4594458 72.02783203 444.12792969 C72.88022461 444.51053955 73.73261719 444.89314941 74.61083984 445.28735352 C77.12154483 446.78552563 78.3672692 448.08115826 79.82470703 450.60839844 C79.70441934 454.0365977 79.49144343 456.55565675 77.63720703 459.48339844 C74.9851281 461.12951639 72.94825578 461.37313694 69.82470703 461.60839844 C67.07516016 460.79815962 64.676144 459.94019084 62.07470703 458.79589844 C60.97195435 458.32373901 60.97195435 458.32373901 59.84692383 457.84204102 C43.23777792 450.53654747 28.26295045 440.91899093 14.32470703 429.35839844 C13.78362305 428.91367187 13.24253906 428.46894531 12.68505859 428.01074219 C9.74842793 425.51714525 7.25166147 422.98320852 4.88330078 419.94042969 C-2.31103949 411.02953295 -8.31049277 408.40471833 -19.73779297 407.10839844 C-23.40603463 406.73370251 -27.07576105 406.3779669 -30.74609375 406.02441406 C-73.06433849 400.89054755 -115.68586475 372.40731626 -141.79638672 339.66699219 C-142.97394531 338.15298828 -142.97394531 338.15298828 -144.17529297 336.60839844 C-144.60600098 336.05941895 -145.03670898 335.51043945 -145.48046875 334.94482422 C-168.52269949 305.37603731 -184.15470415 266.67879947 -184.37841797 228.90136719 C-184.3854776 228.10237 -184.39253723 227.3033728 -184.39981079 226.48016357 C-184.62756991 193.1464236 -184.62756991 193.1464236 -181.17529297 178.60839844 C-180.97661621 177.74617676 -180.77793945 176.88395508 -180.57324219 175.99560547 C-175.81066246 155.84293665 -168.6634227 130.17079831 -154.17529297 114.60839844 C-150.73779297 113.54589844 -150.73779297 113.54589844 -147.17529297 113.60839844 C-144.30029297 115.17089844 -144.30029297 115.17089844 -142.17529297 117.60839844 C-140.85694381 122.33740214 -141.2649238 124.72674212 -143.61279297 128.98339844 C-144.16966797 130.03398437 -144.72654297 131.08457031 -145.30029297 132.16699219 C-145.91904297 133.30265625 -146.53779297 134.43832031 -147.17529297 135.60839844 C-159.11203759 157.64406571 -167.22758812 182.59659423 -167.37841797 207.85058594 C-167.38696808 209.00145187 -167.38696808 209.00145187 -167.39569092 210.17556763 C-167.40508022 211.79411469 -167.41165053 213.41268035 -167.41552734 215.03125 C-167.42513108 217.44274779 -167.45616943 219.85335355 -167.48779297 222.26464844 C-167.58575834 236.5982928 -165.64161545 250.45833984 -161.86279297 264.29589844 C-161.65114502 265.08005127 -161.43949707 265.8642041 -161.22143555 266.67211914 C-154.29380822 291.4971671 -141.32925551 314.48387761 -124.17529297 333.60839844 C-123.03253906 334.93291016 -123.03253906 334.93291016 -121.86669922 336.28417969 C-96.09975288 365.81741765 -59.43781449 383.81988655 -21.17529297 390.60839844 C-21.56458984 389.96257812 -21.95388672 389.31675781 -22.35498047 388.65136719 C-40.05766583 358.83417133 -56.78550543 323.32232818 -53.17529297 287.60839844 C-51.60509172 283.67110703 -49.95977827 280.96814415 -46.67529297 278.29589844 C-46.08748047 277.80476563 -45.49966797 277.31363281 -44.89404297 276.80761719 C-40.8418967 273.98032423 -36.44867318 274.47137642 -31.72822571 274.48814392 C-30.41968582 274.48686228 -30.41968582 274.48686228 -29.08471078 274.48555475 C-26.15044735 274.48390264 -23.21624061 274.48941698 -20.28198242 274.49487305 C-18.18304445 274.495155 -16.08410637 274.49499702 -13.98516846 274.49443054 C-8.27684188 274.49414289 -2.56853619 274.50003439 3.13978553 274.5070045 C9.10155619 274.51324344 15.06332729 274.51384227 21.02510071 274.51502991 C32.31915741 274.51814162 43.61320446 274.52635288 54.9072569 274.5363794 C67.763187 274.54754547 80.61911755 274.55305223 93.47505128 274.55807483 C119.92494189 274.56853561 146.37482392 274.58613198 172.82470703 274.60839844 C173.14428975 273.17456691 173.46361057 271.74067701 173.78282166 270.3067627 C173.96067168 269.50827156 174.13852171 268.70978043 174.32176113 267.88709259 C175.40621214 262.97377653 176.39194986 258.04038504 177.38720703 253.10839844 C177.71881836 251.49384766 177.71881836 251.49384766 178.05712891 249.84667969 C186.75122013 206.71768332 177.28150556 160.68252654 153.82470703 123.60839844 C147.60252423 114.33114389 140.5771723 105.64891977 132.82470703 97.60839844 C132.31762207 97.08084961 131.81053711 96.55330078 131.28808594 96.00976562 C129.60099913 94.26272654 127.90287255 92.52725964 126.19970703 90.79589844 C125.67320557 90.25618408 125.1467041 89.71646973 124.60424805 89.16040039 C120.94572981 85.49504913 117.10549958 82.52516011 112.82470703 79.60839844 C113.67742187 81.1359375 113.67742187 81.1359375 114.54736328 82.69433594 C131.70650504 113.91314444 141.15327339 150.86678826 135.82470703 186.60839844 C134.9188624 189.18691656 134.3575262 190.27375801 132.03735352 191.73095703 C125.29343623 194.40530755 116.27707696 190.88769046 109.63720703 188.92089844 C108.7295459 188.65688232 107.82188477 188.39286621 106.88671875 188.12084961 C98.977246 185.76446551 91.39825825 182.88171295 83.82470703 179.60839844 C82.52017122 179.04945053 81.21548503 178.49085346 79.91064453 177.93261719 C78.89228516 177.495625 77.87392578 177.05863281 76.82470703 176.60839844 C76.76283203 177.90777344 76.70095703 179.20714844 76.63720703 180.54589844 C75.37601815 192.55241656 70.91524515 203.87566325 66.26220703 214.92089844 C65.88644531 215.82235596 65.51068359 216.72381348 65.12353516 217.65258789 C61.31949101 226.41571324 61.31949101 226.41571324 57.82470703 228.60839844 C51.0675621 229.5876948 47.54076318 227.83953487 42.19970703 223.85839844 C41.51384521 223.3661377 40.8279834 222.87387695 40.12133789 222.36669922 C33.01449393 217.18157466 26.31620504 211.53984564 19.82470703 205.60839844 C19.00486328 204.86074219 18.18501953 204.11308594 17.34033203 203.34277344 C-13.31393076 173.99294736 -31.03745497 130.82956571 -32.39404297 88.76855469 C-32.67536559 74.79909425 -31.47255073 61.37827085 -29.17529297 47.60839844 C-64.14456815 52.0567868 -98.14418719 74.02995905 -121.77685547 99.40136719 C-124.20742302 101.63796436 -125.01704864 102.29742914 -128.23779297 102.23339844 C-132.17529297 101.60839844 -132.17529297 101.60839844 -134.67529297 99.48339844 C-136.51936307 95.94893074 -137.02211766 94.53458562 -136.17529297 90.60839844 C-134.12638806 87.6555649 -131.69955765 85.15755725 -129.17529297 82.60839844 C-128.36511719 81.74214844 -128.36511719 81.74214844 -127.53857422 80.85839844 C-114.38563826 67.10036373 -97.96856464 56.36246538 -81.17529297 47.60839844 C-80.51190918 47.26035156 -79.84852539 46.91230469 -79.16503906 46.55371094 C-70.77156987 42.21317572 -62.22945793 38.76297869 -53.23779297 35.85839844 C-52.3098291 35.55329346 -51.38186523 35.24818848 -50.42578125 34.93383789 C-45.9637763 33.53424553 -41.79704941 32.46398412 -37.12451172 32.12792969 C-30.24021947 31.62035101 -30.24021947 31.62035101 -24.17529297 28.60839844 C-20.35093438 22.99077297 -18.30827871 16.62067012 -16.21826172 10.20605469 C-13.18546222 1.20146924 -9.5759799 -1.72389133 0 0 Z M1.82470703 17.60839844 C0.16213867 19.2709668 0.65307597 21.19192395 0.63720703 23.48339844 C1.04170332 57.74423371 11.56392476 93.08647632 33.82470703 119.60839844 C34.75981128 120.75666624 35.69469549 121.90511327 36.62939453 123.05371094 C56.79296337 147.50916367 87.50475708 170.32041401 119.82470703 174.60839844 C121.55767889 172.87542658 120.99732019 170.59742867 121.01220703 168.23339844 C120.53558094 124.52678591 102.85888061 85.76534942 72.14892578 54.92089844 C54.36458313 37.97884535 27.06767856 19.49732828 1.82470703 17.60839844 Z M-13.17529297 51.60839844 C-20.97343077 91.38818471 -13.96020307 132.9099093 8.66552734 166.91601562 C18.80056503 181.71299987 30.81409781 194.43882942 44.82470703 205.60839844 C45.54658203 206.22457031 46.26845703 206.84074219 47.01220703 207.47558594 C47.61033203 207.84941406 48.20845703 208.22324219 48.82470703 208.60839844 C49.81470703 208.27839844 50.80470703 207.94839844 51.82470703 207.60839844 C52.96306056 205.07973579 53.89341976 202.66739194 54.76220703 200.04589844 C55.15025513 198.90918701 55.15025513 198.90918701 55.54614258 197.74951172 C58.83081464 187.90875251 61.48770949 177.90725082 62.82470703 167.60839844 C62.04869141 167.02574219 61.27267578 166.44308594 60.47314453 165.84277344 C22.558429 137.1677286 -4.93488332 99.69996149 -12.17529297 51.60839844 C-12.50529297 51.60839844 -12.83529297 51.60839844 -13.17529297 51.60839844 Z M-1.17529297 290.60839844 C-1.17529297 297.41356799 -0.88449216 302.64522965 0.44970703 309.10839844 C0.62501953 309.96916992 0.80033203 310.82994141 0.98095703 311.71679688 C3.46692543 323.29953663 7.4033537 334.09284241 12.82470703 344.60839844 C20.73006242 340.76458137 28.38978774 336.65302576 35.94970703 332.17089844 C38.05872989 330.93071607 40.16811764 329.69115406 42.27783203 328.45214844 C43.35613281 327.81792969 44.43443359 327.18371094 45.54541016 326.53027344 C50.9146574 323.38355558 56.30697981 320.27714845 61.69970703 317.17089844 C62.76358643 316.55698242 63.82746582 315.94306641 64.92358398 315.31054688 C70.02598424 312.3672821 75.13185548 309.43035841 80.24713135 306.50953674 C82.63681411 305.14444076 85.02469594 303.77621227 87.41241455 302.40768433 C89.09414151 301.44553702 90.77848397 300.48796588 92.46289062 299.53051758 C93.48592285 298.94391357 94.50895508 298.35730957 95.56298828 297.75292969 C96.46057861 297.24093018 97.35816895 296.72893066 98.28295898 296.20141602 C101.33857676 294.35397472 101.33857676 294.35397472 105.82470703 290.60839844 C70.51470703 290.60839844 35.20470703 290.60839844 -1.17529297 290.60839844 Z M160.82470703 305.60839844 C162.1991957 309.24472467 163.82905561 312.57903965 165.73095703 315.96777344 C166.30450928 316.99185303 166.87806152 318.01593262 167.46899414 319.07104492 C168.08137939 320.15587158 168.69376465 321.24069824 169.32470703 322.35839844 C169.95836182 323.48511963 170.5920166 324.61184082 171.24487305 325.77270508 C175.07180229 332.55841534 178.9514473 339.30845103 182.92651367 346.00830078 C186.75823534 352.46945356 190.51251856 358.97435505 194.26220703 365.48339844 C194.89964844 366.58981689 195.53708984 367.69623535 196.19384766 368.83618164 C197.46017742 371.0343115 198.72645418 373.2324719 199.99267578 375.43066406 C202.74326385 380.20167343 205.50187991 384.96801882 208.26220703 389.73339844 C208.72876709 390.53890137 209.19532715 391.3444043 209.67602539 392.17431641 C210.7254135 393.98577699 211.77502993 395.7971053 212.82470703 397.60839844 C227.87217447 394.41608525 242.57561275 374.8212724 251.34814453 363.03417969 C253.0846805 360.65460466 253.0846805 360.65460466 252.82470703 357.60839844 C252.19306641 357.2576123 251.56142578 356.90682617 250.91064453 356.54541016 C237.17194978 348.90647811 223.51840882 341.14527725 209.95751953 333.19433594 C202.31617937 328.71646605 194.63449241 324.30892136 186.95581055 319.89550781 C180.25227445 316.03420551 173.58350403 312.1242592 167.01000977 308.04467773 C164.13116302 306.1660689 164.13116302 306.1660689 160.82470703 305.60839844 Z M112.82470703 305.60839844 C101.88086615 311.60540215 91.04796932 317.77156555 80.28027344 324.0793457 C73.86392817 327.83760614 67.43417522 331.57095289 60.98828125 335.27832031 C57.7330158 337.15172921 54.48171624 339.03187094 51.23095703 340.91308594 C46.93142265 343.40014872 42.61744161 345.85943686 38.29345703 348.30371094 C36.26195064 349.46732593 34.23068927 350.63136882 32.19970703 351.79589844 C31.2507959 352.32449463 30.30188477 352.85309082 29.32421875 353.39770508 C28.46586426 353.89391357 27.60750977 354.39012207 26.72314453 354.90136719 C25.96694824 355.32957764 25.21075195 355.75778809 24.43164062 356.19897461 C23.6362085 356.8966394 23.6362085 356.8966394 22.82470703 357.60839844 C22.82470703 366.44009375 33.07375189 374.42301862 38.82470703 380.60839844 C39.37642578 381.21425781 39.92814453 381.82011719 40.49658203 382.44433594 C44.21500478 386.36524705 48.32931661 389.71874601 52.57470703 393.04589844 C53.1422168 393.49578125 53.70972656 393.94566406 54.29443359 394.40917969 C57.66054944 397.05492301 57.66054944 397.05492301 61.82470703 397.60839844 C62.20054932 396.95693848 62.5763916 396.30547852 62.96362305 395.63427734 C68.85351562 385.42513021 74.7434082 375.21598307 80.63330078 365.00683594 C81.24423584 363.94787109 81.8551709 362.88890625 82.48461914 361.79785156 C83.71586415 359.66371532 84.94714698 357.5296009 86.1784668 355.39550781 C89.06689414 350.38925333 91.95499131 345.38280951 94.8416748 340.37554932 C95.85089807 338.62498603 96.8602454 336.87449433 97.86962891 335.12402344 C99.12638363 332.94447679 100.38291289 330.76480011 101.63916016 328.58496094 C102.21601563 327.58464844 102.79287109 326.58433594 103.38720703 325.55371094 C103.94537109 324.58208008 104.50353516 323.61044922 105.07861328 322.609375 C106.31737615 320.48033791 107.57744121 318.36363138 108.85205078 316.25585938 C109.50302734 315.17336914 110.15400391 314.09087891 110.82470703 312.97558594 C111.42283203 311.99444824 112.02095703 311.01331055 112.63720703 310.00244141 C113.02908203 309.21240723 113.42095703 308.42237305 113.82470703 307.60839844 C113.32970703 306.61839844 113.32970703 306.61839844 112.82470703 305.60839844 Z M128.82470703 312.60839844 C128.44886475 313.2598584 128.07302246 313.91131836 127.68579102 314.58251953 C121.79589844 324.79166667 115.90600586 335.0008138 110.01611328 345.20996094 C109.40533936 346.26868408 108.79456543 347.32740723 108.1652832 348.41821289 C106.93254193 350.55486633 105.69963021 352.69142143 104.46655273 354.82788086 C101.26162313 360.38133329 98.05998841 365.93664621 94.86376953 371.49511719 C88.28549422 382.92872803 81.68530976 394.34139233 74.82470703 405.60839844 C78.29143149 409.48108017 82.55346308 410.74587114 87.32470703 412.54589844 C88.25726318 412.8985376 89.18981934 413.25117676 90.15063477 413.61450195 C103.27679264 418.41437393 115.86671756 420.44523265 129.82470703 421.60839844 C129.82470703 385.63839844 129.82470703 349.66839844 129.82470703 312.60839844 C129.49470703 312.60839844 129.16470703 312.60839844 128.82470703 312.60839844 Z M145.82470703 313.60839844 C145.82470703 349.24839844 145.82470703 384.88839844 145.82470703 421.60839844 C159.2853074 420.19834762 159.2853074 420.19834762 172.32470703 417.42089844 C173.09733887 417.21166748 173.8699707 417.00243652 174.66601562 416.78686523 C182.95911918 414.44330872 191.09093624 411.41771234 198.82470703 407.60839844 C199.15470703 406.94839844 199.48470703 406.28839844 199.82470703 405.60839844 C198.76228985 403.23772492 198.76228985 403.23772492 197.13330078 400.56933594 C196.52558838 399.52664551 195.91787598 398.48395508 195.29174805 397.40966797 C194.62199951 396.27899902 193.95225098 395.14833008 193.26220703 393.98339844 C192.56995 392.80139429 191.87847218 391.61893346 191.18774414 390.43603516 C189.41313787 387.40056294 187.62988373 384.37026826 185.84460449 381.34106445 C183.1791361 376.81279894 180.53527694 372.27185018 177.88720703 367.73339844 C177.32428955 366.77046875 176.76137207 365.80753906 176.18139648 364.81542969 C169.62739041 353.59000024 163.19412089 342.29596763 156.75927734 331.00195312 C153.45252966 325.20137352 150.13844647 319.40498581 146.82470703 313.60839844 C146.49470703 313.60839844 146.16470703 313.60839844 145.82470703 313.60839844 Z " fill="#000000" transform="translate(184.17529296875,19.3916015625)"/>
<path d="M0 0 C1.90625 0.41015625 1.90625 0.41015625 4.40625 1.91015625 C6.51761591 5.42909943 6.84862143 8.41122356 5.90625 12.41015625 C3.32457046 15.4474263 1.78126007 16.28515481 -2.15625 16.84765625 C-5.54924727 16.34231623 -6.87391424 16.04107271 -9.09375 13.41015625 C-10.48733359 9.25637806 -10.55987435 6.3829375 -8.65625 2.41015625 C-5.57139282 0.00246284 -3.83028352 -0.278696 0 0 Z " fill="#000000" transform="translate(341.09375,257.58984375)"/>
<path d="M0 0 C3 2.0625 3 2.0625 5 5 C5.06944397 8.95830645 4.5699479 11.14507816 2.375 14.4375 C-0.9617771 16.63274809 -3.08548544 16.55921637 -7 16 C-9.44053024 14.20171456 -10.63399544 12.81043868 -11.875 10.0625 C-12.08779439 6.5513926 -10.6990587 4.06698434 -8.8125 1.1875 C-5.78866373 -0.79363411 -3.50805553 -0.48386973 0 0 Z " fill="#000000" transform="translate(144,175)"/>
<path d="M0 0 C1.90625 0.4140625 1.90625 0.4140625 4.40625 1.9765625 C6.51631839 5.40542364 6.53116523 7.45626601 5.90625 11.4140625 C3.46026113 14.79528241 2.01328441 16.18343033 -2.09375 17.0390625 C-6.1680856 16.19024258 -7.63780875 14.73680654 -10.09375 11.4140625 C-10.80335213 7.62951782 -10.37176176 5.94691837 -8.59375 2.5390625 C-5.55206021 -0.04637382 -3.89367767 -0.27604431 0 0 Z " fill="#000000" transform="translate(125.09375,159.5859375)"/>
<path d="M0 0 C3.4375 0.625 3.4375 0.625 5.875 2.75 C7.71792686 6.14098543 8.07108675 7.82347951 7.4375 11.625 C5.9375 14.5 5.9375 14.5 3.4375 16.625 C0.6145404 17.34230941 -1.7395404 17.34230941 -4.5625 16.625 C-7.55347304 14.08267292 -8.40452557 12.4675303 -9.125 8.625 C-8.10808583 3.20145774 -5.34114636 0.93704322 0 0 Z " fill="#000000" transform="translate(316.5625,257.375)"/>
<path d="M0 0 C3.8425303 0.72047443 5.45767292 1.57152696 8 4.5625 C8.94237143 8.56143269 8.61136591 11.54355682 6.5 15.0625 C2.98105682 17.17386591 -0.00106731 17.50487143 -4 16.5625 C-6.99097304 14.02017292 -7.84202557 12.4050303 -8.5625 8.5625 C-7.62098494 3.54108633 -5.02141367 0.94151506 0 0 Z " fill="#000000" transform="translate(143,150.4375)"/>
<path d="M0 0 C2.15859562 1.62019302 2.9039627 2.48026875 3.3984375 5.15625 C3.39070313 5.9296875 3.38296875 6.703125 3.375 7.5 C3.38273437 8.2734375 3.39046875 9.046875 3.3984375 9.84375 C2.90835499 12.49596124 2.10150149 13.35820196 0 15 C-3.04655567 16.04224273 -4.58794654 16.1245743 -7.6875 15.1875 C-10 14 -10 14 -12 12 C-12.87275913 8.72715325 -13.13779663 6.55118652 -12.3125 3.25 C-9.28984613 -1.93169236 -5.43535885 -1.28472118 0 0 Z " fill="#000000" transform="translate(330,239)"/>
</svg>
