<?xml version="1.0" standalone="no"?>
<!DOCTYPE svg PUBLIC "-//W3C//DTD SVG 20010904//EN"
 "http://www.w3.org/TR/2001/REC-SVG-20010904/DTD/svg10.dtd">
<svg version="1.0" xmlns="http://www.w3.org/2000/svg"
 width="512.000000pt" height="512.000000pt" viewBox="0 0 512.000000 512.000000"
 preserveAspectRatio="xMidYMid meet">

<g transform="translate(0.000000,512.000000) scale(0.100000,-0.100000)"
fill="#000000" stroke="none">
<path d="M2155 5114 c-194 -28 -323 -69 -383 -120 -90 -77 -111 -175 -67 -314
69 -216 198 -406 360 -527 95 -71 130 -86 171 -73 40 13 54 35 54 83 0 36 -14
52 -89 103 -147 97 -261 254 -327 448 -30 86 -30 108 -1 140 40 44 253 97 390
96 78 -1 194 -24 272 -55 102 -40 193 -104 282 -198 87 -93 137 -172 186 -292
l32 -80 -3 -184 c-1 -102 -4 -187 -7 -189 -2 -2 -35 2 -72 9 -101 21 -366 18
-473 -4 -430 -90 -784 -351 -1028 -756 -68 -114 -74 -144 -32 -185 30 -31 76
-23 195 31 136 63 265 107 382 129 119 24 306 23 393 0 403 -109 511 -528 279
-1092 -184 -447 -593 -918 -1051 -1210 -519 -331 -1051 -387 -1294 -138 -290
297 -153 946 326 1544 47 58 155 175 242 261 138 137 158 160 158 188 0 44
-38 81 -85 81 -30 0 -48 -12 -132 -87 -404 -366 -704 -852 -804 -1303 -19 -83
-24 -136 -24 -250 0 -178 18 -264 82 -392 37 -73 64 -109 147 -195 172 -180
326 -293 531 -393 725 -353 1596 -197 2129 382 114 123 198 246 276 403 79
158 128 300 162 467 20 100 23 141 23 353 -1 222 -3 249 -27 366 -69 319 -215
614 -421 850 -203 232 -352 321 -589 350 -147 18 -373 -10 -536 -65 -40 -14
-72 -21 -72 -16 0 18 198 215 279 276 104 79 295 175 413 209 361 101 746 25
1060 -210 109 -82 257 -237 334 -350 101 -149 156 -260 238 -488 28 -76 96
-97 146 -47 28 28 25 74 -11 177 -157 445 -470 809 -859 998 -94 45 -95 46
-102 88 -40 252 75 517 285 657 70 47 91 78 82 120 -9 39 -40 64 -80 64 -61 0
-220 -125 -302 -237 l-36 -48 -47 90 c-143 269 -382 459 -651 516 -75 16 -249
27 -304 19z m876 -2598 c49 -106 103 -265 131 -392 19 -86 22 -129 22 -329 0
-202 -2 -243 -22 -335 -107 -491 -398 -881 -822 -1099 -471 -242 -1015 -250
-1495 -22 -135 65 -135 67 -9 74 122 7 273 39 409 87 117 41 346 153 460 225
315 200 618 488 842 801 246 344 392 707 410 1017 7 113 8 112 74 -27z"/>
<path d="M3620 3950 c-44 -44 -33 -111 22 -134 18 -8 69 -19 112 -26 402 -60
784 -371 1002 -815 240 -490 256 -1104 41 -1604 -293 -685 -929 -1048 -1540
-880 -125 34 -142 35 -171 6 -30 -30 -35 -80 -11 -114 31 -44 246 -93 440
-100 290 -10 554 68 816 242 113 76 279 230 370 345 283 358 435 847 416 1335
-21 534 -209 987 -552 1330 -225 227 -448 352 -734 416 -115 25 -185 25 -211
-1z"/>
<path d="M1735 2526 c-203 -57 -385 -176 -578 -375 -319 -330 -425 -694 -249
-853 174 -156 538 -32 868 297 166 166 306 377 290 439 -10 39 -41 66 -77 66
-48 0 -64 -14 -107 -93 -117 -213 -339 -429 -552 -537 -252 -127 -377 -81
-326 121 85 333 558 770 836 773 52 1 71 -3 97 -21 64 -46 143 -13 143 60 0
99 -189 167 -345 123z"/>
</g>
</svg>
