<?xml version="1.0" encoding="UTF-8"?>
<svg version="1.0" xmlns="http://www.w3.org/2000/svg" width="512" height="512">
<path d="M0 0 C2 3 2 3 2 7 C3.7015625 7.0928125 3.7015625 7.0928125 5.4375 7.1875 C35.40172719 10.69345482 64.4147333 29.79389916 83 53 C109.71022083 87.64993107 122.33167708 128.88666477 127 172 C127.09571289 172.86786133 127.19142578 173.73572266 127.29003906 174.62988281 C132.88244951 232.17759032 125.10431798 297.88749595 91 346 C90.26652344 347.04929687 89.53304688 348.09859375 88.77734375 349.1796875 C67.92163788 377.66043442 38.06251385 396.69852454 3.05297852 402.17578125 C-33.63314673 406.94654112 -69.88460062 400.19393699 -99.78515625 377.92578125 C-102.23513558 375.9983632 -104.62536165 374.0192503 -107 372 C-108.13695312 371.06414062 -108.13695312 371.06414062 -109.296875 370.109375 C-115.32245174 364.9980237 -120.21363325 359.27151259 -125 353 C-125.60545654 352.20698486 -125.60545654 352.20698486 -126.22314453 351.39794922 C-147.63946203 323.08556075 -159.84145472 288.957503 -165 254 C-165.14953125 252.99598145 -165.2990625 251.99196289 -165.453125 250.95751953 C-173.31861367 195.34817561 -169.26342341 132.78702625 -144 82 C-143.42507812 80.8346875 -142.85015625 79.669375 -142.2578125 78.46875 C-125.74041438 46.49959235 -99.1161642 22.50306593 -64.87182617 11.30786133 C-56.69735741 8.76151917 -47.62102628 6 -39 6 C-38.95875 5.2575 -38.9175 4.515 -38.875 3.75 C-37.89204341 0.66070786 -36.7674409 -0.51994546 -33.98046875 -2.1484375 C-23.23242808 -6.76988299 -9.84339388 -6.31463004 0 0 Z M-26 21 C-40.53413412 55.11913754 -43.77661565 94.32599215 -47 131 C-47.11438416 132.27360382 -47.11438416 132.27360382 -47.2310791 133.57293701 C-49.94189712 164.08791731 -50.28884503 194.58556069 -50.31007385 225.19879532 C-50.31246426 228.14347238 -50.31778284 231.08813387 -50.32336426 234.0328064 C-50.36422943 263.49076936 -49.68595605 292.78451915 -46.125 322.0625 C-46.04040527 322.77917847 -45.95581055 323.49585693 -45.86865234 324.23425293 C-43.80703304 357.56293608 -43.80703304 357.56293608 -31 387 C-27.21558718 387.25663616 -23.41705519 387.18525086 -19.625 387.1875 C-18.57699219 387.19974609 -17.52898437 387.21199219 -16.44921875 387.22460938 C-6.01555611 387.42469511 -6.01555611 387.42469511 4 385 C6.23094581 382.5993601 7.09495581 380.11542763 8 377 C8.22284668 376.3105127 8.44569336 375.62102539 8.67529297 374.91064453 C9.35124382 372.64201381 9.90797551 370.36968099 10.4375 368.0625 C10.64358887 367.17191895 10.84967773 366.28133789 11.06201172 365.36376953 C19.36733041 327.83580035 22.15062418 288.69585115 22.16796875 250.33203125 C22.17120182 248.59738643 22.17456721 246.86274186 22.17805481 245.12809753 C22.18398279 241.51548637 22.18590157 237.90289888 22.18530273 234.2902832 C22.18522196 230.66165124 22.19209848 227.03314683 22.20581055 223.40454102 C22.31258538 194.67303551 21.6403009 166.12962744 18.25 137.5625 C18.16763092 136.85827911 18.08526184 136.15405823 18.00039673 135.42849731 C13.54843852 97.72511373 6.79910266 57.96923747 -13 25 C-13.4640625 24.21238281 -13.928125 23.42476562 -14.40625 22.61328125 C-15.92076302 20.76107111 -15.92076302 20.76107111 -18.48046875 20.609375 C-19.37378906 20.65578125 -20.26710938 20.7021875 -21.1875 20.75 C-22.08855469 20.78609375 -22.98960937 20.8221875 -23.91796875 20.859375 C-24.60503906 20.90578125 -25.29210937 20.9521875 -26 21 Z M-60.93359375 31.62890625 C-111.25915305 89.37486937 -119.6411482 169.82811967 -116.25 243.1875 C-116.20743073 244.11186859 -116.16486145 245.03623718 -116.1210022 245.98861694 C-114.71892878 275.55982102 -111.62654202 304.92098665 -106 334 C-105.83000488 334.87881836 -105.66000977 335.75763672 -105.48486328 336.66308594 C-102.67619359 350.62944548 -98.02983083 359.95312796 -86 368 C-74.96180374 374.86849524 -63.97449976 380.98167346 -51 383 C-52.00484436 377.89469764 -53.03675051 372.79804657 -54.1484375 367.71484375 C-62.27347213 329.87596135 -65.11317668 290.71125818 -65.203125 252.06640625 C-65.21010593 250.19450865 -65.21714688 248.32261128 -65.22424316 246.45071411 C-65.24354897 240.48797314 -65.24842058 234.52526881 -65.25 228.5625 C-65.25058914 227.54699192 -65.25117828 226.53148384 -65.25178528 225.48520279 C-65.26499776 193.22569983 -64.79394242 161.15840454 -62 129 C-61.89108429 127.7037973 -61.89108429 127.7037973 -61.77996826 126.38140869 C-59.0210515 93.54867674 -54.28670677 61.1418663 -45.54736328 29.33959961 C-44.88609773 26.91360924 -44.88609773 26.91360924 -45 24 C-52.30127402 23.49060879 -56.0821773 26.58888181 -60.93359375 31.62890625 Z M5 24 C5.27150879 24.65782471 5.54301758 25.31564941 5.82275391 25.9934082 C31.58206118 88.66930204 37.42186609 154.95429084 37.26074219 222.1784668 C37.24935676 226.97244361 37.25612809 231.76619809 37.26761913 236.56016731 C37.31351878 259.1200585 36.86461201 281.50957475 35 304 C34.92203186 304.94648407 34.84406372 305.89296814 34.76373291 306.86813354 C34.31357407 312.1711926 33.78056964 317.46117398 33.1875 322.75 C33.10518127 323.50431305 33.02286255 324.2586261 32.93804932 325.03579712 C31.31250341 339.82595638 28.91131827 354.40595602 26 369 C25.80438477 369.98436035 25.60876953 370.9687207 25.40722656 371.98291016 C24.94070933 374.32246536 24.47179874 376.66150516 24 379 C31.26643706 376.85580546 37.51877687 373.91483276 44 370 C45.05316406 369.41992188 46.10632813 368.83984375 47.19140625 368.2421875 C54.26769895 363.81407796 57.52922097 359.33507063 59.41162109 351.34814453 C59.98579389 348.57252504 60.49428991 345.78890732 61 343 C61.22848633 341.83210938 61.45697266 340.66421875 61.69238281 339.4609375 C78.4366442 253.45928368 84.93318765 155.53217275 30.8359375 44.0703125 C27.21131462 38.7773296 23.30978262 33.75814642 19 29 C18.58435791 28.48759766 18.16871582 27.97519531 17.74047852 27.44726562 C15.37064535 25.47667073 13.3366496 25.275017 10.3125 24.8125 C9.31863281 24.65394531 8.32476562 24.49539062 7.30078125 24.33203125 C6.16189453 24.16767578 6.16189453 24.16767578 5 24 Z M-91 42 C-130.41963672 73.93853778 -145.52349821 120.87911567 -150.98461914 170.03369141 C-156.04170594 221.79555685 -150.28760691 277.80148738 -125 324 C-124.67 324 -124.34 324 -124 324 C-124.51601293 317.73675718 -125.15622726 311.49377117 -125.90234375 305.25390625 C-125.98545807 304.55325043 -126.06857239 303.8525946 -126.15420532 303.13070679 C-126.49742603 300.24056181 -126.8408893 297.3504953 -127.19506836 294.46166992 C-130.22322126 269.6735394 -131.35795076 244.95139066 -131.31567383 220.00073242 C-131.31103696 217.04354666 -131.31801323 214.08677179 -131.33618164 211.12963867 C-131.48902816 185.95894073 -130.33792745 161.06510401 -125.3125 136.3125 C-125.05903809 135.03979248 -124.80557617 133.76708496 -124.54443359 132.45581055 C-117.97142454 100.33382063 -105.23579745 71.26231408 -89 43 C-89.66 42.67 -90.32 42.34 -91 42 Z M51 46 C51.46148437 46.88816406 51.92296875 47.77632812 52.3984375 48.69140625 C95.18098024 132.01709301 95.40919408 227.43600395 80.13134766 321.33813477 C79.88650635 322.78337524 79.88650635 322.78337524 79.63671875 324.2578125 C79.48936279 325.0842627 79.34200684 325.91071289 79.19018555 326.76220703 C78.9913476 329.10180731 79.29487987 330.77461408 80 333 C103.98895196 295.19922722 112.21410718 249.74246266 112.25 205.5 C112.25067474 204.74254486 112.25134949 203.98508972 112.25204468 203.2046814 C112.16999441 144.53720357 96.68204965 90.16796912 55.06640625 47.8359375 C53.21150856 45.77860387 53.21150856 45.77860387 51 46 Z " fill="#000000" transform="translate(278,60)"/>
</svg>
