<?xml version="1.0" encoding="UTF-8"?>
<svg version="1.0" xmlns="http://www.w3.org/2000/svg" width="512" height="512">
<path d="M0 0 C2.23341198 0.00315111 4.46548162 -0.02037131 6.69873047 -0.0456543 C20.47137646 -0.10702745 33.75825658 1.90808042 46.93701172 6.00317383 C47.76491211 6.25808594 48.5928125 6.51299805 49.44580078 6.77563477 C69.05661852 13.02392348 86.527028 22.72010104 101.99951172 36.31567383 C102.83869141 37.03368164 103.67787109 37.75168945 104.54248047 38.49145508 C119.70472148 51.72609336 119.70472148 51.72609336 122.99951172 58.31567383 C127.67384298 57.67344261 131.6158043 55.77339155 135.81591797 53.73754883 C136.57645981 53.37461731 137.33700165 53.01168579 138.12059021 52.63775635 C139.75383549 51.85768963 141.38588529 51.07511589 143.0168457 50.2902832 C146.45264712 48.63714364 149.89431419 46.99639887 153.33578491 45.35510254 C155.07469767 44.5257044 156.81332428 43.69570608 158.55166626 42.8651123 C169.27744015 37.74242307 180.05961135 32.74515855 190.85693359 27.77514648 C194.02464218 26.30400277 197.17695119 24.80335446 200.32763672 23.29614258 C202.30155691 22.36507212 204.27551328 21.43407837 206.24951172 20.50317383 C207.12478516 20.07584961 208.00005859 19.64852539 208.90185547 19.20825195 C214.20196384 16.73292662 218.13700565 15.49165205 223.99951172 16.31567383 C227.81692634 19.34962005 229.75215852 23.26738773 231.85498047 27.56567383 C232.37563835 28.60836426 232.37563835 28.60836426 232.90681458 29.67211914 C233.63577144 31.1360518 234.3608574 32.60191764 235.08227539 34.06958008 C236.1854741 36.31254761 237.30138892 38.5488256 238.41943359 40.78442383 C239.12787259 42.21113166 239.83558007 43.63820303 240.54248047 45.06567383 C240.87475143 45.73244141 241.2070224 46.39920898 241.54936218 47.08618164 C245.33328196 54.81111366 245.33328196 54.81111366 244.24560547 59.71411133 C241.7070927 65.05849844 236.20261186 66.69185705 231.06201172 68.94067383 C229.96695312 69.44139404 228.87189453 69.94211426 227.74365234 70.45800781 C225.39689469 71.53018189 223.04597846 72.59329126 220.69140625 73.64819336 C216.91638592 75.34374376 213.17340732 77.10371049 209.43310547 78.87426758 C207.56273254 79.75659913 205.69205611 80.63828356 203.82125854 81.51971436 C202.04062391 82.35880058 200.2604191 83.19879873 198.48022461 84.03881836 C197.37283936 84.55428223 196.2654541 85.06974609 195.12451172 85.60083008 C193.67431641 86.27964233 193.67431641 86.27964233 192.19482422 86.97216797 C188.19920053 88.65217386 184.12578832 89.99594183 179.99951172 91.31567383 C181.9031076 140.35121019 186.52328441 187.59789407 202.62451172 234.31567383 C202.85430725 234.98263275 203.08410278 235.64959167 203.32086182 236.33676147 C206.25200347 244.7900839 209.45540482 253.09900721 212.99951172 261.31567383 C214.645 260.89995117 214.645 260.89995117 216.32373047 260.47583008 C217.77814165 260.10988146 219.23256962 259.74399956 220.68701172 259.37817383 C221.40824219 259.19577148 222.12947266 259.01336914 222.87255859 258.82543945 C223.93120117 258.55957031 223.93120117 258.55957031 225.01123047 258.28833008 C225.65535889 258.12598877 226.2994873 257.96364746 226.96313477 257.79638672 C242.9594099 254.02026087 261.51731458 254.75662989 276.99951172 260.31567383 C278.19318359 260.73977539 279.38685547 261.16387695 280.61669922 261.60083008 C303.88648924 270.74071478 320.57314178 288.84900446 330.87060547 311.26879883 C342.09166113 337.23071449 343.76266586 368.12666409 335.99951172 395.31567383 C335.79583984 396.06381348 335.59216797 396.81195313 335.38232422 397.58276367 C330.77169891 414.16464992 322.90982242 429.97002592 311.99951172 443.31567383 C311.55349609 443.86562012 311.10748047 444.41556641 310.64794922 444.98217773 C287.24381984 473.66631625 254.91105304 491.91236202 217.99951172 496.31567383 C214.60501605 496.47453032 211.21378493 496.50310043 207.81591797 496.51879883 C206.35616798 496.52734894 206.35616798 496.52734894 204.8669281 496.53607178 C202.81030349 496.5454874 200.75366402 496.55204203 198.69702148 496.5559082 C195.60290952 496.56554643 192.50948188 496.59657515 189.41552734 496.62817383 C154.41248263 496.81721107 126.34832947 484.554384 100.69091797 460.99145508 C97.8904556 458.20725084 95.40910028 455.44245391 92.99951172 452.31567383 C92.99951172 451.65567383 92.99951172 450.99567383 92.99951172 450.31567383 C92.33951172 450.31567383 91.67951172 450.31567383 90.99951172 450.31567383 C90.76876953 450.8596582 90.53802734 451.40364258 90.30029297 451.96411133 C79.5066158 471.47700519 53.39866561 485.56776314 32.84570312 491.98852539 C22.53968736 494.91455281 12.55061745 496.46919697 1.85107422 496.51879883 C0.88027924 496.5244989 -0.09051575 496.53019897 -1.09072876 496.53607178 C-3.14315718 496.54548819 -5.19560049 496.55204235 -7.24804688 496.5559082 C-10.3311747 496.56553546 -13.41361251 496.59655869 -16.49658203 496.62817383 C-50.66751446 496.81213022 -83.17820003 486.09324451 -109.00048828 463.31567383 C-109.92603516 462.52290039 -110.85158203 461.73012695 -111.80517578 460.91333008 C-136.50404525 439.2590581 -152.22615394 407.87443901 -156.00048828 375.31567383 C-156.31279155 370.10656643 -156.39070422 364.90774324 -156.37548828 359.69067383 C-156.37467255 358.63468994 -156.37467255 358.63468994 -156.37384033 357.55737305 C-156.33423293 346.38618313 -155.50534989 335.97797312 -152.00048828 325.31567383 C-151.79149902 324.64761719 -151.58250977 323.97956055 -151.3671875 323.29125977 C-146.16199265 306.95435606 -138.11850298 293.39663038 -126.00048828 281.31567383 C-125.07623047 280.3024707 -125.07623047 280.3024707 -124.13330078 279.26879883 C-119.44970951 274.20424559 -113.94607876 270.75284429 -108.00048828 267.31567383 C-106.66050781 266.52483398 -106.66050781 266.52483398 -105.29345703 265.71801758 C-86.10271313 255.22349888 -61.97690518 252.63095242 -40.81298828 258.12817383 C-38.52807559 258.81194429 -36.2540087 259.53464004 -34.00048828 260.31567383 C-33.09685547 260.62375977 -32.19322266 260.9318457 -31.26220703 261.24926758 C-29.48982762 261.88903838 -27.73985412 262.59093806 -26.00048828 263.31567383 C-25.98630859 262.71625977 -25.97212891 262.1168457 -25.95751953 261.49926758 C-23.98220607 223.96831183 -7.03846576 184.09704641 13.99951172 153.31567383 C12.72720703 153.27829102 11.45490234 153.2409082 10.14404297 153.20239258 C-9.44945826 152.5178049 -28.22138585 150.04816072 -47.00048828 144.31567383 C-47.79777344 144.07365234 -48.59505859 143.83163086 -49.41650391 143.58227539 C-77.11633489 134.9800497 -99.97095868 119.92596151 -122.72705078 102.36254883 C-129.3384237 97.2663332 -136.06832936 92.33525068 -142.80126953 87.40161133 C-143.49430176 86.89210938 -144.18733398 86.38260742 -144.90136719 85.85766602 C-146.35917258 84.78677757 -147.82000968 83.72000886 -149.28320312 82.65649414 C-150.00846191 82.12378906 -150.7337207 81.59108398 -151.48095703 81.04223633 C-152.13346436 80.56608887 -152.78597168 80.08994141 -153.45825195 79.59936523 C-156.11826614 77.38528345 -156.02673486 76.04883366 -156.37548828 72.50317383 C-156.52392578 70.48364258 -156.52392578 70.48364258 -156.00048828 68.31567383 C-152.76535227 64.71374893 -149.58812221 62.26561466 -145.34423828 59.96801758 C-144.24998535 59.36900635 -143.15573242 58.76999512 -142.02832031 58.15283203 C-141.45325745 57.84318512 -140.87819458 57.53353821 -140.28570557 57.21450806 C-137.84960333 55.90267421 -135.42403643 54.57187674 -132.99758911 53.24229431 C-131.76446465 52.56688198 -130.53080035 51.89245433 -129.29660034 51.2190094 C-123.8676711 48.25490648 -118.48847148 45.20958442 -113.12548828 42.12817383 C-112.28590576 41.64678955 -111.44632324 41.16540527 -110.58129883 40.66943359 C-108.05366452 39.21939152 -105.52707036 37.76754837 -103.00048828 36.31567383 C-96.83625822 32.77814944 -90.66590215 29.25175218 -84.48779297 25.73852539 C-82.11155364 24.37920827 -79.74671779 23.00181669 -77.38330078 21.62036133 C-61.92503286 12.67519046 -45.62666569 5.62526361 -28.00048828 2.31567383 C-27.09057129 2.13979736 -26.1806543 1.9639209 -25.24316406 1.78271484 C-16.79416657 0.30397591 -8.55010317 -0.02508724 0 0 Z M-40.00048828 23.31567383 C-41.10134766 23.66243164 -42.20220703 24.00918945 -43.33642578 24.36645508 C-60.51047316 30.43697311 -76.38355491 40.57847422 -92.00048828 49.78833008 C-97.97046981 53.30886331 -103.97898083 56.75917862 -110.00048828 60.19067383 C-110.90927734 60.70879639 -111.81806641 61.22691895 -112.75439453 61.76074219 C-114.83589686 62.94665289 -116.9178759 64.13171395 -119.00048828 65.31567383 C-119.00048828 65.64567383 -119.00048828 65.97567383 -119.00048828 66.31567383 C-93.59414195 68.78034443 -68.16441807 70.93644728 -42.72700524 73.05265021 C-38.25470758 73.42490953 -33.78249726 73.79821255 -29.31028527 74.17149955 C-18.77460713 75.05087566 -8.23879147 75.92858955 2.29711914 76.80517578 C13.14625282 77.70784924 23.99515458 78.6132728 34.84394902 79.52001351 C44.21177334 80.30288691 53.57973009 81.08416084 62.94779712 81.8641246 C68.52160072 82.32819802 74.0953537 82.79285903 79.66898155 83.25903893 C84.88365716 83.69512058 90.09849532 84.12920353 95.31346703 84.56172943 C97.22555968 84.72065239 99.13759375 84.88028207 101.04956436 85.04066658 C103.65586897 85.25918168 106.26237226 85.4751527 108.86894226 85.69047546 C109.62630367 85.75457523 110.38366509 85.81867499 111.16397685 85.88471717 C114.78591473 86.18119552 118.36503635 86.38697313 121.99951172 86.31567383 C109.23322368 66.23212313 93.55107508 48.60166311 72.99951172 36.31567383 C72.33516113 35.91413086 71.67081055 35.51258789 70.98632812 35.09887695 C37.19698326 15.03823151 -2.80870944 11.57696326 -40.00048828 23.31567383 Z M208.77685547 38.59692383 C207.69774902 39.1013501 206.61864258 39.60577637 205.50683594 40.12548828 C203.73977295 40.96213013 203.73977295 40.96213013 201.93701172 41.81567383 C200.69783384 42.3971646 199.45840777 42.97812674 198.21875 43.55859375 C194.14201769 45.46990072 190.07069323 47.39257916 185.99951172 49.31567383 C180.85825789 51.7419079 175.71643535 54.16693635 170.57418823 56.59106445 C169.10998193 57.28141236 167.64589055 57.97200408 166.18191528 58.6628418 C155.51784118 63.69371895 144.82060886 68.62961467 133.99951172 73.31567383 C134.89376593 74.67088382 135.79001812 76.02477543 136.68701172 77.37817383 C137.18587891 78.13227539 137.68474609 78.88637695 138.19873047 79.66333008 C140.41099783 82.92174556 142.70145673 86.11718843 144.99951172 89.31567383 C158.81967928 83.20356041 172.50418502 76.81890663 186.16088867 70.35205078 C192.91184968 67.15859975 199.6699768 63.99318214 206.48779297 60.94458008 C207.60766602 60.4423291 208.72753906 59.94007812 209.88134766 59.42260742 C211.95217644 58.49845955 214.02689099 57.58295451 216.10595703 56.67749023 C217.01055664 56.27320801 217.91515625 55.86892578 218.84716797 55.45239258 C219.63099854 55.10909912 220.4148291 54.76580566 221.22241211 54.41210938 C223.33800159 53.36909236 223.33800159 53.36909236 223.99951172 50.31567383 C222.93601672 47.82645802 221.82968099 45.50833628 220.56201172 43.12817383 C220.22363281 42.47397461 219.88525391 41.81977539 219.53662109 41.14575195 C218.69982074 39.53108084 217.85081426 37.9227462 216.99951172 36.31567383 C213.55292657 36.31567383 211.88346433 37.13499024 208.77685547 38.59692383 Z M-118.00048828 83.31567383 C-114.17112176 87.34311103 -110.08647869 90.69739192 -105.62548828 94.00317383 C-104.92286865 94.52500244 -104.22024902 95.04683105 -103.49633789 95.58447266 C-60.81202457 127.04186006 -12.17697982 141.11631834 40.67626953 133.95288086 C60.79039187 130.89169706 80.19867031 124.08988013 97.99951172 114.31567383 C99.04623047 113.76782227 100.09294922 113.2199707 101.17138672 112.65551758 C106.41432111 109.88526441 111.31515429 106.95906294 115.99951172 103.31567383 C115.99951172 102.98567383 115.99951172 102.65567383 115.99951172 102.31567383 C87.05602998 99.89231067 58.11233677 97.47148772 29.16834607 95.05421069 C25.75122653 94.76882538 22.3341088 94.48341841 18.91699219 94.19799805 C18.23670588 94.14117637 17.55641958 94.08435469 16.85551853 94.02581114 C5.84049468 93.10571684 -5.17438168 92.18386819 -16.18920453 91.26137108 C-27.49146414 90.31484031 -38.79388303 89.37023229 -50.09644353 88.42729998 C-56.44488273 87.89761092 -62.79324588 87.36704462 -69.14143753 86.83439636 C-75.11488499 86.33321886 -81.08852191 85.83436462 -87.06231308 85.33730125 C-89.25616883 85.15434224 -91.44995363 84.97053027 -93.6436615 84.78580666 C-96.63665477 84.53390617 -99.62988719 84.28506403 -102.62319946 84.0369873 C-103.49285863 83.96305929 -104.36251779 83.88913127 -105.25853026 83.81296301 C-109.52056401 83.4630567 -113.71917585 83.23571651 -118.00048828 83.31567383 Z M155.93701172 102.81567383 C154.94217773 103.31647461 154.94217773 103.31647461 153.92724609 103.82739258 C152.28377139 104.65504171 150.64152654 105.48513214 148.99951172 106.31567383 C150.24834461 162.88780388 165.15368102 222.85022182 192.99951172 272.31567383 C195.47451172 271.32567383 195.47451172 271.32567383 197.99951172 270.31567383 C197.73847656 269.65374023 197.47744141 268.99180664 197.20849609 268.30981445 C175.47936577 213.01659841 164.92102113 158.63338732 163.99951172 99.31567383 C161.36534861 99.31567383 158.31174636 101.61321778 155.93701172 102.81567383 Z M124.56201172 117.87817383 C123.93020996 118.24458984 123.2984082 118.61100586 122.64746094 118.98852539 C107.47880009 127.83914589 93.3737985 137.79876694 80.59716797 149.87036133 C78.42827937 151.91205195 76.22046302 153.84337819 73.93701172 155.75317383 C41.34055452 184.25830616 18.51491266 228.56977059 8.99951172 270.31567383 C8.99951172 270.97567383 8.99951172 271.63567383 8.99951172 272.31567383 C9.94568359 272.34145508 10.89185547 272.36723633 11.86669922 272.39379883 C41.03122752 273.50703431 65.80316615 284.38748568 86.99951172 304.31567383 C88.36945965 305.95237729 89.71692395 307.60964799 90.99951172 309.31567383 C94.57986121 307.98961846 96.2138799 305.83047839 98.57836914 302.93383789 C115.24909652 283.95194799 142.24994258 274.52162306 166.68701172 272.69067383 C168.7908094 272.55961017 170.89487139 272.4324276 172.99951172 272.31567383 C171.13044841 266.35803454 168.91637342 260.71265793 166.38305664 255.00854492 C146.86302974 210.84306319 135.77584448 162.47068685 132.99951172 114.31567383 C129.76903856 114.31567383 127.28933308 116.28813898 124.56201172 117.87817383 Z M34.27294922 152.63891602 C31.22183087 156.00750408 29.20401452 159.95562771 27.1875 164.0012207 C25.90900451 166.49200106 24.50548612 168.87243022 23.05810547 171.26879883 C5.57446754 200.38438568 -10.56072537 237.68283576 -10.00048828 272.31567383 C-7.84061724 271.52134141 -7.84061724 271.52134141 -7.33374023 269.5 C-7.1373999 268.71085205 -6.94105957 267.9217041 -6.73876953 267.10864258 C-6.5107666 266.22208984 -6.28276367 265.33553711 -6.04785156 264.42211914 C-5.80534668 263.45886719 -5.5628418 262.49561523 -5.31298828 261.50317383 C5.4048124 220.76625177 24.87473724 185.96090332 52.43310547 154.31176758 C54.38864712 152.02881408 56.24279912 149.75125164 57.99951172 147.31567383 C50.46033926 147.31567383 40.41714065 147.92999103 34.27294922 152.63891602 Z M-115.18017578 294.30786133 C-134.32262787 314.12516597 -139.45370942 339.69124455 -139.21533203 366.28833008 C-138.52929389 398.43837838 -122.52073391 425.76667967 -100.34814453 447.97192383 C-78.27979671 468.97088034 -49.04325573 478.98337371 -19.00048828 480.31567383 C-18.2531543 480.34886719 -17.50582031 480.38206055 -16.73583984 480.41625977 C14.27642099 481.54931936 43.25970139 474.21414186 66.62841797 453.09301758 C84.41756656 436.39002876 97.66746174 413.1833412 99.17651367 388.40991211 C99.78364681 358.44994798 93.41388031 335.58322654 72.68701172 313.56567383 C54.23249736 295.91915047 30.71433346 288.01551536 5.44091797 288.35083008 C-10.32551155 288.49064773 -21.05743922 286.06130425 -34.78466797 278.46606445 C-61.23459218 264.73401918 -94.91404283 274.3929322 -115.18017578 294.30786133 Z M212.44873047 281.38598633 C200.6709182 288.42458243 189.67387785 288.22338772 176.17382812 288.27368164 C148.37947465 288.64136575 126.32157955 298.89464047 106.65576172 318.39379883 C104.66770882 320.7006904 103.158802 322.47354282 101.99951172 325.31567383 C103.04293809 328.55316344 103.04293809 328.55316344 105.06201172 331.81567383 C113.01344217 346.34879086 115.39642435 361.45831013 115.37451172 377.87817383 C115.37430023 378.53664307 115.37408875 379.1951123 115.37387085 379.87353516 C115.33879958 390.84502655 114.34306736 400.87139867 110.99951172 411.31567383 C110.79632324 411.96439453 110.59313477 412.61311523 110.38378906 413.28149414 C108.53430928 419.06927792 106.47534148 424.60447386 103.56201172 429.94067383 C101.64183741 433.04714608 101.64183741 433.04714608 102.71044922 435.26489258 C116.41610175 457.06933979 139.9025175 472.06802285 164.76367188 477.85913086 C177.29083593 480.41709076 190.25502638 480.88172902 202.99951172 480.31567383 C204.20945801 480.2620166 204.20945801 480.2620166 205.44384766 480.20727539 C237.3581519 478.53143803 264.9497738 466.32149246 287.99951172 444.31567383 C288.58732422 443.79102539 289.17513672 443.26637695 289.78076172 442.72583008 C308.7575672 425.13647971 321.88740924 396.06791475 323.14160156 370.40869141 C323.98712175 341.36700446 319.08503238 315.60191295 298.49169922 293.72583008 C287.90470203 283.48730772 273.88289373 275.12756381 258.99951172 273.31567383 C258.04173828 273.18418945 257.08396484 273.05270508 256.09716797 272.91723633 C241.42936657 271.31711254 225.2427355 273.63268523 212.44873047 281.38598633 Z " fill="#000000" transform="translate(164.00048828125,7.684326171875)"/>
</svg>
