<?xml version="1.0" encoding="UTF-8"?>
<svg version="1.0" xmlns="http://www.w3.org/2000/svg" width="512" height="512">
<path d="M0 0 C0.81952148 0.35497559 1.63904297 0.70995117 2.48339844 1.07568359 C43.92385174 19.3608252 86.06806876 50.38411306 103.375 93.75 C104.27136525 96.1588238 105.14782231 98.57519156 106 101 C106.37769531 102.01835937 106.75539063 103.03671875 107.14453125 104.0859375 C118.34450422 136.72106474 113.73653632 173.92507534 99.16015625 204.68359375 C82.78887032 237.96767167 55.03131019 264.67766321 19.75 276.875 C-7.91656479 285.90923951 -37.75992381 285.13996824 -65 275 C-65.66386719 274.75797852 -66.32773437 274.51595703 -67.01171875 274.26660156 C-93.81693785 264.34867049 -128.02772866 246.82651013 -141 220 C-155.68291084 183.80113393 -145.47337857 143.64786333 -131 109 C-127.6747875 101.49863941 -124.08617191 94.13087416 -120.40478516 86.79882812 C-119.18475533 84.36809786 -117.98650921 81.92815882 -116.79296875 79.484375 C-112.46465596 70.8040524 -107.35226889 62.70974953 -102 54.625 C-101.34741211 53.63814209 -100.69482422 52.65128418 -100.02246094 51.63452148 C-92.87344928 41.02766077 -84.68180955 31.377001 -76 22 C-75.46246094 21.39671875 -74.92492187 20.7934375 -74.37109375 20.171875 C-55.66027464 0.10112167 -26.24875595 -11.43760671 0 0 Z M-74.34375 37.58251953 C-77.67773097 41.63515336 -80.84775956 45.80549583 -84 50 C-84.80050781 51.04414063 -85.60101563 52.08828125 -86.42578125 53.1640625 C-116.01996197 92.5319671 -141.75561293 148.16758096 -135.69970703 198.49560547 C-132.98115342 213.79223135 -124.50618442 226.58161047 -112.1875 235.875 C-101.19915009 243.02588002 -89.43149418 244.81954625 -76.578125 242.33984375 C-45.15936953 233.65834553 -22.52831734 203.9430376 -7 177 C8.38874311 149.54925113 18.06811543 119.19660606 22 88 C22.13148438 86.99066406 22.26296875 85.98132813 22.3984375 84.94140625 C24.42982135 66.46679368 24.39937843 41.25971628 13.0625 25.5625 C12.06317365 24.35684508 11.04409976 23.16709581 10 22 C8.8553125 20.700625 8.8553125 20.700625 7.6875 19.375 C-1.80352492 10.98758263 -11.94109071 6.58352472 -24.6484375 6.72265625 C-44.79546385 8.38983442 -61.76049418 22.76335816 -74.34375 37.58251953 Z M28 29 C28.16435547 29.87785156 28.16435547 29.87785156 28.33203125 30.7734375 C28.68326645 32.67524763 29.02278671 34.5792318 29.35546875 36.484375 C29.79062936 38.85797832 30.27375449 41.22321518 30.80078125 43.578125 C41.56903238 94.39437722 23.04619791 151.08613223 -4.42578125 193.73486328 C-23.32066828 222.25130536 -46.58201976 246.4834296 -81 254 C-76.68344598 257.93052073 -72.10690228 259.89594031 -66.75 262 C-65.87118164 262.34812744 -64.99236328 262.69625488 -64.08691406 263.05493164 C-35.32302715 274.11457883 -3.46779847 274.32842656 24.98046875 262.15234375 C57.01589791 247.83864136 79.9988051 221.29856594 93 189 C103.73584537 159.92445881 105.89630732 128.82017622 93.10400391 99.97998047 C79.48769536 70.49530216 57.5813029 46.17171756 30 29 C29.34 29 28.68 29 28 29 Z " fill="#000000" transform="translate(391,181)"/>
<path d="M0 0 C3.06185178 2.92176706 5.49207389 5.95863648 7.85546875 9.4609375 C11.3936022 14.27058766 15.65523478 16.0230214 21.04296875 18.3359375 C56.54456562 34.01338448 83.53424618 61.18176936 98.04296875 97.3359375 C108.54731325 125.11546205 108.54731325 125.11546205 106.04296875 133.3359375 C104.04296875 135.3359375 104.04296875 135.3359375 101.10546875 135.6484375 C98.04296875 135.3359375 98.04296875 135.3359375 96.43212891 134.10302734 C94.76743285 131.98544034 94.32923575 130.37614269 93.75390625 127.75 C93.53959961 126.82968994 93.32529297 125.90937988 93.10449219 124.96118164 C92.76466309 123.47606079 92.76466309 123.47606079 92.41796875 121.9609375 C86.35994849 97.37102319 75.10817633 76.90523976 58.04296875 58.3359375 C57.37910156 57.58957031 56.71523437 56.84320313 56.03125 56.07421875 C46.2071233 45.56815701 33.92088048 38.28056475 21.00830078 32.25341797 C17.79437778 30.75305491 14.60397119 29.20700817 11.41796875 27.6484375 C10.33257812 27.12894531 9.2471875 26.60945313 8.12890625 26.07421875 C2.99625207 23.18304013 -0.92443905 19.75036447 -4.33203125 14.8984375 C-9.03924416 8.66371842 -14.27527415 4.23899723 -21.95703125 2.3359375 C-25.68986892 2.05164731 -29.40253214 2.056911 -33.14453125 2.0859375 C-34.12228516 2.07820313 -35.10003906 2.07046875 -36.10742188 2.0625 C-44.81103628 2.08551022 -53.72572488 2.62445729 -61.51953125 6.8359375 C-62.72802734 7.47015625 -62.72802734 7.47015625 -63.9609375 8.1171875 C-66.08374536 9.30596805 -66.08374536 9.30596805 -67.95703125 11.3359375 C-66.90902344 11.50029297 -66.90902344 11.50029297 -65.83984375 11.66796875 C-64.47472656 11.90580078 -64.47472656 11.90580078 -63.08203125 12.1484375 C-62.17710937 12.29925781 -61.2721875 12.45007813 -60.33984375 12.60546875 C-57.95703125 13.3359375 -57.95703125 13.3359375 -55.95703125 16.3359375 C-55.60409461 19.1594306 -55.43989715 20.66350118 -57.20410156 22.95751953 C-59.36795833 24.65907041 -60.58652245 24.7618569 -63.31640625 24.890625 C-64.1770166 24.94476563 -65.03762695 24.99890625 -65.92431641 25.0546875 C-66.8426123 25.10625 -67.7609082 25.1578125 -68.70703125 25.2109375 C-96.77869286 27.42498662 -121.65968662 43.41360279 -139.95703125 64.3359375 C-160.70197233 89.15659548 -169.28915517 120.17847322 -174.20703125 151.5234375 C-174.3580127 152.48169434 -174.50899414 153.43995117 -174.66455078 154.42724609 C-177.3245046 172.55511624 -178.3397105 190.65472914 -178.26953125 208.9609375 C-178.26770844 209.95796692 -178.26588562 210.95499634 -178.26400757 211.98223877 C-178.21415823 228.25975146 -177.57369341 244.23839819 -174.95703125 260.3359375 C-174.79605957 261.34060059 -174.63508789 262.34526367 -174.46923828 263.38037109 C-169.57778244 292.53645515 -159.78181536 322.13648113 -140.95703125 345.3359375 C-140.53873047 345.85591309 -140.12042969 346.37588867 -139.68945312 346.91162109 C-123.22608741 367.00069751 -99.22992216 379.06915844 -73.52955627 382.13197327 C-67.58372803 382.60339193 -61.60604141 382.52345722 -55.64453125 382.5390625 C-54.91059143 382.54188988 -54.17665161 382.54471725 -53.42047119 382.54763031 C-49.53112437 382.56256095 -45.64181401 382.57182728 -41.75244141 382.57617188 C-37.78350365 382.58162718 -33.81491401 382.60561017 -29.84608459 382.63414383 C-26.75208643 382.65299421 -23.65816811 382.65798767 -20.56411743 382.65950775 C-19.10362866 382.66248799 -17.64313964 382.67035436 -16.18270874 382.68369293 C-3.03779738 382.79511884 9.79976733 381.39184662 22.16796875 376.6484375 C22.81483643 376.40077637 23.4617041 376.15311523 24.12817383 375.89794922 C30.13751014 373.49889862 35.58358459 370.308101 41.0546875 366.875 C44.10642799 365.30325392 45.67944308 364.88588829 49.04296875 365.3359375 C51.67461959 366.96937595 51.99259852 368.12987746 52.73046875 371.1484375 C51.81843213 375.37697092 50.20115832 376.41498143 46.6875 378.765625 C24.9305304 391.68482999 1.78611571 395.47762994 -23.30859375 395.50390625 C-25.01696915 395.50889885 -25.01696915 395.50889885 -26.75985718 395.51399231 C-29.15484213 395.51902091 -31.54983399 395.52140191 -33.94482422 395.52124023 C-37.55187925 395.52341928 -41.15862415 395.54159892 -44.765625 395.56054688 C-60.82152169 395.60071669 -77.00182199 395.53031475 -92.58203125 391.1484375 C-93.36070557 390.93485596 -94.13937988 390.72127441 -94.94165039 390.5012207 C-124.64859555 381.98376036 -147.70433907 361.91207313 -162.95703125 335.3359375 C-179.13095102 306.04882605 -187.2243693 273.55332523 -189.95703125 240.3359375 C-190.06789062 239.12421875 -190.17875 237.9125 -190.29296875 236.6640625 C-194.81337968 178.75393325 -189.75234027 104.03893677 -150.55175781 57.67382812 C-147.4515363 54.13132245 -144.22114728 50.72716085 -140.95703125 47.3359375 C-140.37695312 46.69269531 -139.796875 46.04945312 -139.19921875 45.38671875 C-127.85463039 33.15850667 -111.25740033 23.59586833 -95.51953125 18.4609375 C-88.7033489 16.18127513 -85.25545666 12.96351198 -81.0859375 7.15625 C-73.3292721 -3.1195526 -63.26980958 -7.88532487 -50.83764648 -9.64208984 C-32.90217852 -11.8663035 -14.4864581 -12.31782665 0 0 Z " fill="#000000" transform="translate(198.95703125,58.6640625)"/>
<path d="M0 0 C5.13308791 2.61320839 8.1797908 5.53937241 10 11 C11.38970869 28.07738182 5.39792376 40.73962599 -4.79296875 53.921875 C-8.74634585 59.43561156 -11.48251888 65.53359706 -14.1953125 71.73046875 C-16.9417492 77.74170935 -19.9535044 82.88724815 -26 86 C-31.46260031 87.05329394 -36.9126878 86.91784085 -42 84.5 C-45.65551362 81.45373865 -47.82778119 78.6379092 -49 74 C-49.53783331 67.6869551 -48.60936209 62.00866408 -46.9375 55.9375 C-46.71562012 55.11894531 -46.49374023 54.30039062 -46.26513672 53.45703125 C-40.68830417 33.75705135 -29.9087877 12.10520414 -12 1 C-8.29018719 -0.85490641 -4.04876607 -0.4540091 0 0 Z M-5 11 C-21.48777147 20.30079416 -30.6239662 40.60706162 -35.59106445 58.07910156 C-36.54223685 61.69448628 -37.2925182 65.1317425 -37.3125 68.875 C-37.33763672 69.98488281 -37.33763672 69.98488281 -37.36328125 71.1171875 C-37.24339844 71.73851562 -37.12351562 72.35984375 -37 73 C-34.26129279 75.20604889 -34.26129279 75.20604889 -31.5546875 75.08203125 C-27.69573476 73.44758185 -26.73190255 70.32663729 -25.125 66.6875 C-24.43269369 65.21733062 -23.73734803 63.74858887 -23.0390625 62.28125 C-22.69649414 61.55292969 -22.35392578 60.82460938 -22.00097656 60.07421875 C-18.61561846 53.0590962 -14.53423884 46.61678115 -9.8125 40.4375 C-4.61285365 33.43410036 -0.12189968 24.00519899 -1 15 C-2.75094652 12.4094273 -2.75094652 12.4094273 -5 11 Z " fill="#000000" transform="translate(346,265)"/>
<path d="M0 0 C1.66015625 1.2421875 1.66015625 1.2421875 3 3 C3.74890584 10.17587956 1.06619836 18.60478627 -2 25 C-4.38659855 27.23095082 -5.26812576 28 -8.5625 28 C-11 27 -11 27 -12.81640625 25.07421875 C-14.66880212 20.2628803 -12.9426626 16.56638593 -11.375 11.8125 C-11.10042969 10.89791016 -10.82585937 9.98332031 -10.54296875 9.04101562 C-8.65115432 3.02362466 -7.21464609 -0.90183076 0 0 Z " fill="#000000" transform="translate(360,228)"/>
<path d="M0 0 C1.20527344 -0.01417969 2.41054688 -0.02835937 3.65234375 -0.04296875 C6.97706949 0.18172635 9.14299414 0.61545838 12.0625 2.1875 C14.0625 5.1875 14.0625 5.1875 13.8125 7.75 C13.0625 10.1875 13.0625 10.1875 11.0625 12.1875 C8.84765625 12.44628906 8.84765625 12.44628906 6.125 12.453125 C5.14789063 12.45570313 4.17078125 12.45828125 3.1640625 12.4609375 C2.14054687 12.45320313 1.11703125 12.44546875 0.0625 12.4375 C-0.96101563 12.44523437 -1.98453125 12.45296875 -3.0390625 12.4609375 C-4.01617187 12.45835937 -4.99328125 12.45578125 -6 12.453125 C-6.89847656 12.45086914 -7.79695313 12.44861328 -8.72265625 12.44628906 C-10.9375 12.1875 -10.9375 12.1875 -12.9375 10.1875 C-13.1875 6.6875 -13.1875 6.6875 -12.9375 3.1875 C-9.25540677 -0.49459323 -5.02119028 0.02679397 0 0 Z " fill="#000000" transform="translate(375.9375,281.8125)"/>
<path d="M0 0 C2.5625 0.3125 2.5625 0.3125 4.375 1.4375 C6.11971016 4.19230552 5.84365737 6.08496745 5.5625 9.3125 C4.1015625 12.453125 4.1015625 12.453125 2.1875 15.5625 C1.56101562 16.59890625 0.93453125 17.6353125 0.2890625 18.703125 C-1.4375 21.3125 -1.4375 21.3125 -3.4375 23.3125 C-6.53521665 23.64204432 -8.61081023 23.76584601 -11.375 22.25 C-12.67981216 19.87063665 -12.71646832 18.13897365 -12.22265625 15.48828125 C-10.35859646 10.32270264 -5.90264706 0.75674962 0 0 Z " fill="#000000" transform="translate(299.4375,358.6875)"/>
<path d="M0 0 C2.9375 0.75 2.9375 0.75 4.9375 2.75 C6.97429831 8.90711049 8.64387716 15.25133014 7.9375 21.75 C5.9375 23.75 5.9375 23.75 2.5 24.1875 C1.324375 24.043125 0.14875 23.89875 -1.0625 23.75 C-3.62929529 20.32553461 -4.78220904 16.87116384 -5.8125 12.75 C-6.07546875 11.739375 -6.3384375 10.72875 -6.609375 9.6875 C-7.08138713 6.62755932 -7.05766927 4.67457907 -6.0625 1.75 C-3.0625 -0.25 -3.0625 -0.25 0 0 Z " fill="#000000" transform="translate(323.0625,359.25)"/>
<path d="M0 0 C1.25 6.625 1.25 6.625 -1 10 C-7.4247997 10.90668645 -13.96329803 10.36218773 -20 8 C-20.66 7.34 -21.32 6.68 -22 6 C-21.75 2.4375 -21.75 2.4375 -21 -1 C-14.86373626 -4.06813187 -6.25526725 -1.88838257 0 0 Z " fill="#000000" transform="translate(383,307)"/>
<path d="M0 0 C2.375 0.8125 2.375 0.8125 4.375 2.8125 C4.92441408 5.29503772 5.34751116 7.67681321 5.6875 10.1875 C5.79900391 10.86039063 5.91050781 11.53328125 6.02539062 12.2265625 C6.46318369 15.38115653 6.59080036 17.38431385 5.140625 20.26171875 C3.375 21.8125 3.375 21.8125 -0.1875 22.25 C-1.321875 22.105625 -2.45625 21.96125 -3.625 21.8125 C-6.61453818 17.32819274 -6.71418482 12.90755916 -6.9375 7.625 C-6.97488281 6.78582031 -7.01226562 5.94664062 -7.05078125 5.08203125 C-6.625 2.8125 -6.625 2.8125 -4.76953125 1 C-2.625 -0.1875 -2.625 -0.1875 0 0 Z " fill="#000000" transform="translate(327.625,232.1875)"/>
<path d="M0 0 C4.50789388 3.2694615 7.52111375 6.46252308 9.1875 11.8125 C9 15 9 15 7.9375 16.9375 C4.86034192 18.62497378 3.49029367 18.72440057 0 18 C-4.50789388 14.7305385 -7.52111375 11.53747692 -9.1875 6.1875 C-9 3 -9 3 -7.9375 1.0625 C-4.86034192 -0.62497378 -3.49029367 -0.72440057 0 0 Z " fill="#000000" transform="translate(346,345)"/>
<path d="M0 0 C2.2027972 5.38461538 2.2027972 5.38461538 1.3203125 8.0625 C-1.10296502 11.61855221 -5.03365507 12.69123972 -9 14 C-12.375 14.5 -12.375 14.5 -15 14 C-17.39755785 11.91180445 -17.94442005 10.7225394 -18.1875 7.5625 C-14.86345779 0.38956682 -6.95400134 -1.15900022 0 0 Z " fill="#000000" transform="translate(290,340)"/>
<path d="M0 0 C4.26697662 0.89308813 6.22982587 4.1248672 8.6875 7.5625 C10.11810128 10.42370256 10.07442581 12.40260585 9.6875 15.5625 C7.5 17.5625 7.5 17.5625 4.6875 18.5625 C0.95640574 18.00283586 -0.84610855 16.21879976 -3.125 13.375 C-5.53658962 9.73859672 -5.99919086 6.94015425 -5.3125 2.5625 C-2.3125 0.5625 -2.3125 0.5625 0 0 Z " fill="#000000" transform="translate(304.3125,253.4375)"/>
<path d="M0 0 C2.7340805 1.31498861 4.9828024 2.71539292 7 5 C7.5625 8.6875 7.5625 8.6875 7 12 C5 14 5 14 2.375 14.4375 C-2.23624256 13.83974634 -5.5001789 12.04259982 -9 9 C-10.32396992 5.98429075 -10.29466097 4.81598423 -9.1875 1.75 C-6.66407584 -1.96873034 -3.97295455 -1.04945969 0 0 Z " fill="#000000" transform="translate(295,280)"/>
<path d="M0 0 C2.69101234 2.69101234 2.29887549 4.19075946 2.3125 7.9375 C2.32925781 8.99839844 2.34601563 10.05929688 2.36328125 11.15234375 C2 14 2 14 0.703125 15.8828125 C-1 17 -1 17 -4.5625 16.9375 C-8 16 -8 16 -9.4375 14.4375 C-10.44693852 10.0632664 -10.6157121 5.8471363 -9.1875 1.5625 C-6.6451645 -1.78267828 -3.60162568 -1.01584314 0 0 Z " fill="#000000" transform="translate(98,238)"/>
<path d="M0 0 C2.875 0.9375 2.875 0.9375 4.25 2.5 C5.36445828 6.84638727 5.31993218 11.00946055 4.3125 15.375 C2.875 16.9375 2.875 16.9375 -0.5625 17.875 C-4.125 17.9375 -4.125 17.9375 -5.8203125 16.81640625 C-7.66488439 14.16000182 -7.55856938 12.14488558 -7.5625 8.9375 C-7.58183594 7.885625 -7.60117187 6.83375 -7.62109375 5.75 C-7.125 2.9375 -7.125 2.9375 -5.29296875 1.05859375 C-3.125 -0.0625 -3.125 -0.0625 0 0 Z " fill="#000000" transform="translate(61.125,237.0625)"/>
<path d="M0 0 C2 2 2 2 2.3125 5.1875 C1.94199514 9.70765926 1.33177661 12.11370565 -1 16 C-3.9375 17.1875 -3.9375 17.1875 -7 17 C-9.4375 15.625 -9.4375 15.625 -11 13 C-11.19797864 8.30015916 -10.43674411 4.05531136 -8 0 C-5.09288879 -1.4535556 -3.10402897 -0.71133997 0 0 Z " fill="#000000" transform="translate(72,187)"/>
<path d="M0 0 C2.21100052 5.20235416 2.24164539 8.58997368 1 14 C-0.6875 16.0625 -0.6875 16.0625 -3 17 C-6.125 16.875 -6.125 16.875 -9 16 C-11.30088791 12.54866814 -11.20948511 11.51382126 -10.875 7.5 C-10.81054688 6.5409375 -10.74609375 5.581875 -10.6796875 4.59375 C-10 2 -10 2 -8.1484375 0.13671875 C-5.15638208 -1.44635057 -3.20358287 -0.80089572 0 0 Z " fill="#000000" transform="translate(104,187)"/>
<path d="M0 0 C1.97659592 4.9414898 2.6021974 8.75227983 2 14 C-0.1875 16.125 -0.1875 16.125 -3 17 C-5.6875 16.5 -5.6875 16.5 -8 15 C-10.54819393 10.99569526 -10.8449609 5.62457096 -10 1 C-6.1496895 -1.56687367 -4.41430237 -0.83288724 0 0 Z " fill="#000000" transform="translate(65,294)"/>
<path d="M0 0 C1.42247747 2.84495493 1.20793601 5.3311796 1.25 8.5 C1.28867188 10.24796875 1.28867188 10.24796875 1.328125 12.03125 C1.21984375 13.0109375 1.1115625 13.990625 1 15 C-2 17 -2 17 -5.625 16.75 C-6.73875 16.5025 -7.8525 16.255 -9 16 C-10.3502109 13.29957819 -10.24311007 11.07548373 -10.3125 8.0625 C-10.34988281 7.00160156 -10.38726562 5.94070312 -10.42578125 4.84765625 C-10 2 -10 2 -8.1796875 0.109375 C-5.12305305 -1.44633142 -3.23115132 -0.93344371 0 0 Z " fill="#000000" transform="translate(135,187)"/>
<path d="M0 0 C3.125 0.25 3.125 0.25 5.0625 1.25 C6.50678775 3.9686593 6.27277814 6.2560003 5.765625 9.23828125 C4.69377807 12.60414203 2.96436386 14.2495391 0.125 16.25 C-3.32116056 16.16985673 -4.4306104 15.6943896 -6.875 13.25 C-7.34807341 8.2354219 -6.86626732 5.31812356 -3.875 1.25 C-2.875 0.25 -2.875 0.25 0 0 Z " fill="#000000" transform="translate(84.875,142.75)"/>
<path d="M0 0 C1.9375 1.625 1.9375 1.625 3 4 C2.9375 7.125 2.9375 7.125 2 10 C-0.35986478 11.93846036 -1.58741306 12.0294705 -4.625 11.8125 C-7 11 -7 11 -9 8 C-9.35384949 5.16920408 -9.3920891 3.63169911 -7.875 1.1875 C-5.09996189 -0.57002414 -3.21070255 -0.46822746 0 0 Z " fill="#000000" transform="translate(289,310)"/>
<path d="M0 0 C1.8125 1.125 1.8125 1.125 3 3 C3.39769128 6.18153026 3.55198782 8.12844028 1.8125 10.875 C-0.65507108 12.40659584 -2.14519831 12.42822025 -5 12 C-6.8125 10.875 -6.8125 10.875 -8 9 C-8.39769128 5.81846974 -8.55198782 3.87155972 -6.8125 1.125 C-4.34492892 -0.40659584 -2.85480169 -0.42822025 0 0 Z " fill="#000000" transform="translate(361,327)"/>
<path d="M0 0 C3.0625 0.3125 3.0625 0.3125 5 1.375 C6.71037795 4.49392449 5.86763863 6.96807801 5.0625 10.3125 C2.23366253 11.72691874 0.18873255 11.63150332 -2.9375 11.3125 C-4.875 9.625 -4.875 9.625 -5.9375 7.3125 C-5.61764525 2.8345335 -4.76027546 0.50641228 0 0 Z " fill="#000000" transform="translate(369.9375,256.6875)"/>
</svg>
