<?xml version="1.0" encoding="UTF-8"?>
<svg version="1.0" xmlns="http://www.w3.org/2000/svg" width="512" height="512">
<path d="M0 0 C0.74702682 -0.00761353 1.49405365 -0.01522705 2.26371765 -0.02307129 C3.83780596 -0.0338293 5.41196539 -0.03674294 6.98608398 -0.03222656 C9.37021661 -0.03125671 11.75109884 -0.0728677 14.13476562 -0.1171875 C22.31168795 -0.1827679 29.56576451 -0.13120148 36.07421875 5.46875 C38.1953125 7.75 38.1953125 7.75 39.51171875 9.96875 C39.96417969 10.7009375 40.41664063 11.433125 40.8828125 12.1875 C43.95496711 18.06992064 44.34534398 22.58680426 44.26953125 29.14453125 C44.26528641 30.53226997 44.26528641 30.53226997 44.26095581 31.94804382 C44.24979267 34.89257942 44.22469512 37.83680688 44.19921875 40.78125 C44.18918396 42.78189664 44.18005898 44.78254806 44.171875 46.78320312 C44.14986597 51.6785035 44.11536266 56.57357457 44.07421875 61.46875 C44.88503906 61.20320313 45.69585937 60.93765625 46.53125 60.6640625 C81.344202 49.55958189 116.15301326 56.39699813 148.09960938 72.69458008 C166.76309853 82.50262467 166.76309853 82.50262467 170.07421875 89.46875 C170.35012164 90.80183038 170.61087793 92.1381026 170.859375 93.4765625 C171.7402529 97.32285228 173.3092975 99.01031903 176.66943359 101.21948242 C177.2773877 101.59049072 177.8853418 101.96149902 178.51171875 102.34375 C179.7878075 103.18544303 181.0598997 104.03322345 182.328125 104.88671875 C182.96121582 105.31130371 183.59430664 105.73588867 184.24658203 106.17333984 C188.90648189 109.47622906 192.92086265 113.5659138 197.07421875 117.46875 C198.4848088 118.70488545 199.90094345 119.93474169 201.32421875 121.15625 C207.80472437 126.82176303 213.37969045 132.88830996 218.765625 139.609375 C220.22323366 141.41473801 221.70721863 143.19939959 223.2265625 144.953125 C259.53699566 187.23869273 274.58172103 244.98766813 270.84716797 299.80126953 C266.64010979 347.99323225 246.29234089 391.89036319 214.43457031 427.92480469 C213.21685175 429.30686718 212.01550053 430.70331069 210.81640625 432.1015625 C207.19857419 436.28689763 203.46139572 440.05344517 199.23046875 443.6171875 C197.71698925 444.91680576 196.24026007 446.25986834 194.79296875 447.6328125 C147.72264115 492.23340069 81.94713912 512.69496995 18.19921875 512.90625 C16.73360001 512.91578201 16.73360001 512.91578201 15.2383728 512.92550659 C-3.38896971 513.00087972 -21.76144606 511.14168822 -39.98828125 507.21875 C-40.96958008 507.00968018 -41.95087891 506.80061035 -42.96191406 506.58520508 C-98.58203267 494.25836731 -153.40291514 462.39444276 -187.61962891 416.21923828 C-188.93241977 414.45985314 -190.27529544 412.72726821 -191.625 410.99609375 C-216.97664496 378.05752627 -233.76402385 335.10866449 -234.1640625 293.28125 C-234.17882126 292.00337868 -234.17882126 292.00337868 -234.19387817 290.69969177 C-234.36577024 271.95056979 -234.3159975 253.80435906 -229.92578125 235.46875 C-229.67908691 234.43024902 -229.43239258 233.39174805 -229.17822266 232.32177734 C-225.70452789 218.13912304 -221.11856213 204.68644785 -214.92578125 191.46875 C-214.6102832 190.78554687 -214.29478516 190.10234375 -213.96972656 189.3984375 C-206.46977224 173.29490863 -197.23313418 158.17578863 -185.92578125 144.46875 C-185.2598999 143.65059814 -185.2598999 143.65059814 -184.58056641 142.81591797 C-158.43961353 110.83310252 -158.43961353 110.83310252 -143.92578125 105.46875 C-144.25578125 104.47875 -144.58578125 103.48875 -144.92578125 102.46875 C-145.50947819 96.51504124 -144.47965095 92.22351524 -140.92578125 87.46875 C-122.74576125 70.52055379 -88.7289741 63.33853534 -64.69140625 63.30078125 C-63.55248932 63.29578865 -63.55248932 63.29578865 -62.39056396 63.29069519 C-60.79391071 63.2856666 -59.1972471 63.28328559 -57.60058594 63.28344727 C-55.1957814 63.28126812 -52.79144202 63.26308902 -50.38671875 63.24414062 C-41.70092802 63.21352843 -33.45816952 63.61502458 -24.92578125 65.46875 C-24.94672852 64.15793457 -24.96767578 62.84711914 -24.98925781 61.49658203 C-25.06210712 56.59516488 -25.10774354 51.6937948 -25.14550781 46.79199219 C-25.16552141 44.67765228 -25.19274097 42.56336701 -25.22753906 40.44921875 C-25.27651066 37.39569552 -25.29885307 34.34290922 -25.31640625 31.2890625 C-25.33705139 30.35635529 -25.35769653 29.42364807 -25.37896729 28.462677 C-25.38179681 20.03211101 -23.36952292 12.80255093 -17.55078125 6.53125 C-12.38241725 1.54659562 -7.05651616 0.00201208 0 0 Z M-2.92578125 20.46875 C-5.07672098 23.69515959 -5.1756963 24.55588553 -5.18115234 28.2722168 C-5.18811127 29.24720627 -5.19507019 30.22219574 -5.20223999 31.22673035 C-5.20074448 32.80639336 -5.20074448 32.80639336 -5.19921875 34.41796875 C-5.21951645 36.65039556 -5.2403674 38.88281739 -5.26171875 41.11523438 C-5.28427494 44.63277372 -5.30077102 48.15011639 -5.30664062 51.66772461 C-5.31619616 55.06400109 -5.35002202 58.45939188 -5.38671875 61.85546875 C-5.38167328 62.89845627 -5.37662781 63.94144379 -5.37142944 65.01603699 C-5.45498595 71.25761954 -6.14795734 76.33642644 -9.92578125 81.46875 C-14.00686154 85.03289345 -17.89639326 86.01606756 -23.25854492 85.72314453 C-26.12045095 85.45018288 -28.8997013 84.96949784 -31.73046875 84.46875 C-39.46028149 83.26459741 -47.12275411 83.07448382 -54.92578125 83.09375 C-55.6441214 83.09329681 -56.36246155 83.09284363 -57.10256958 83.09237671 C-73.11930105 83.12192091 -87.66749837 85.73878197 -102.92578125 90.46875 C-102.92578125 90.79875 -102.92578125 91.12875 -102.92578125 91.46875 C-102.33265137 91.48856934 -101.73952148 91.50838867 -101.12841797 91.52880859 C-64.02276591 92.82861951 -64.02276591 92.82861951 -51.80078125 100.40625 C-47.78172548 104.82721135 -47.45763882 109.25337881 -47.62890625 115.05078125 C-48.34537252 120.88621046 -52.16873775 123.78578475 -56.48828125 127.28125 C-58.29592499 128.68336663 -60.10861266 130.07899993 -61.92578125 131.46875 C-74.82075285 141.40939813 -89.30589711 154.65736612 -94.92578125 170.46875 C-94.34054688 170.07945312 -93.7553125 169.69015625 -93.15234375 169.2890625 C-78.47666716 159.72563361 -63.67663909 151.75959004 -46.92578125 146.46875 C-46.01828125 146.18128906 -45.11078125 145.89382812 -44.17578125 145.59765625 C-38.66626403 144.21071181 -32.95521941 144.21406867 -27.30078125 144.09375 C-26.50027344 144.06740479 -25.69976562 144.04105957 -24.875 144.01391602 C-19.13015269 143.99907912 -14.70024069 145.18825534 -9.92578125 148.46875 C-5.86433753 153.70932254 -5.77754644 158.87305006 -5.71484375 165.30078125 C-5.6892142 166.90495987 -5.6628141 168.50912632 -5.63574219 170.11328125 C-5.62248901 170.95584473 -5.60923584 171.7984082 -5.59558105 172.66650391 C-6.12208904 215.98952466 -6.12208904 215.98952466 6.07421875 256.46875 C10.0990337 251.988471 12.47409538 246.99331832 15.01171875 241.59375 C15.45338379 240.6562793 15.89504883 239.71880859 16.35009766 238.75292969 C26.18851935 217.50600941 30.83242087 194.98451088 31.7331543 171.65893555 C32.38069056 155.10098383 32.38069056 155.10098383 37.07421875 149.46875 C41.35171118 145.59227249 45.06512006 145.29868489 50.75830078 145.48120117 C74.64396279 146.67419036 100.43304323 153.90561645 119.07421875 169.46875 C119.73421875 169.13875 120.39421875 168.80875 121.07421875 168.46875 C116.97540045 159.5794378 112.70449316 151.78887955 106.07421875 144.46875 C105.43613281 143.76105469 104.79804688 143.05335938 104.140625 142.32421875 C99.29918301 137.22950213 93.89352459 133.36980605 88.07421875 129.46875 C78.89465062 123.27137659 78.89465062 123.27137659 77.07421875 117.46875 C76.35927273 111.80024943 76.72349931 107.27144786 80.07421875 102.46875 C93.22527903 90.35593132 123.4337966 93.01616159 140.07421875 92.46875 C129.66572497 84.36459959 115.66660487 80.72167719 103.07421875 77.46875 C102.15769531 77.22125 101.24117187 76.97375 100.296875 76.71875 C84.28485003 73.07620404 65.49954808 74.35774491 50.4765625 81.078125 C45.31424352 83.18809694 40.56372112 83.16256211 35.07421875 82.46875 C31.06191347 80.49779302 28.36181659 78.32154636 26.07421875 74.46875 C25.16573067 71.51779391 24.936488 68.82740406 24.90063477 65.74780273 C24.88714493 64.81681259 24.87365509 63.88582245 24.85975647 62.92662048 C24.84409889 61.4296035 24.84409889 61.4296035 24.828125 59.90234375 C24.79520344 57.78710497 24.76199152 55.6718707 24.72851562 53.55664062 C24.68099552 50.22309292 24.63652301 46.88956563 24.59741211 43.5559082 C24.55779449 40.33786624 24.50624446 37.12018712 24.453125 33.90234375 C24.44471085 32.9023082 24.43629669 31.90227264 24.42762756 30.87193298 C24.41098557 29.944095 24.39434357 29.01625702 24.37719727 28.06030273 C24.36173607 26.83596779 24.36173607 26.83596779 24.34596252 25.5868988 C24.19517883 23.16885174 24.19517883 23.16885174 22.07421875 20.46875 C19.49295025 20.00228538 19.49295025 20.00228538 16.48046875 20.0703125 C15.36800781 20.06644531 14.25554687 20.06257813 13.109375 20.05859375 C11.94277344 20.07019531 10.77617187 20.08179687 9.57421875 20.09375 C7.82431641 20.07634766 7.82431641 20.07634766 6.0390625 20.05859375 C4.92660156 20.06246094 3.81414062 20.06632812 2.66796875 20.0703125 C1.64380859 20.07369629 0.61964844 20.07708008 -0.43554688 20.08056641 C-1.25732422 20.20866699 -2.07910156 20.33676758 -2.92578125 20.46875 Z M102.07421875 114.46875 C104.69195109 117.18102797 107.36476366 119.53222836 110.38671875 121.78125 C125.92732571 133.79796729 139.17735442 152.61257314 142.07421875 172.46875 C143.20494747 185.55085185 143.20494747 185.55085185 140.38671875 190.15625 C136.00119398 194.54177477 132.33789236 196.25996088 126.07421875 196.46875 C118.94309957 195.45950408 114.87800507 191.71625557 109.8046875 186.87890625 C96.36095697 175.01226571 74.04252777 165.08998605 55.69921875 165.40625 C53.90484375 165.4371875 53.90484375 165.4371875 52.07421875 165.46875 C51.33141106 168.86037346 50.90129946 172.11684841 50.71484375 175.58203125 C48.66969192 208.81371687 40.70873936 253.35063765 15.07421875 277.46875 C10.82743364 280.10864345 5.93706405 280.12047153 1.07421875 279.46875 C-5.20669491 277.49188873 -7.92184912 273.0258397 -10.92578125 267.46875 C-12.12845858 264.76910237 -13.08897782 262.03267901 -13.98828125 259.21875 C-14.23940674 258.43846436 -14.49053223 257.65817871 -14.74926758 256.85424805 C-24.10129569 226.77982654 -24.41853831 194.70202409 -24.92578125 163.46875 C-50.93815901 162.76057334 -73.78002598 178.71895787 -93.43139648 194.26635742 C-94.10630127 194.79849854 -94.78120605 195.33063965 -95.4765625 195.87890625 C-96.07122314 196.35465088 -96.66588379 196.83039551 -97.27856445 197.32055664 C-101.6020112 200.33421753 -106.88841423 200.02671109 -111.92578125 199.46875 C-116.76436673 197.13906069 -119.59609194 194.30733548 -121.92578125 189.46875 C-122.90187225 182.20705314 -121.33075927 176.69506841 -118.05078125 170.28125 C-117.44556641 169.05631836 -117.44556641 169.05631836 -116.828125 167.80664062 C-108.96858272 152.29311332 -98.50033037 138.93242335 -86.30078125 126.59375 C-85.67921143 125.96275391 -85.0576416 125.33175781 -84.41723633 124.68164062 C-80.50261589 120.79450395 -76.4490855 117.61994653 -71.92578125 114.46875 C-71.92578125 114.13875 -71.92578125 113.80875 -71.92578125 113.46875 C-83.70703421 112.99113164 -95.35659822 115.89106136 -106.87969971 118.08270264 C-108.9234398 118.46830822 -110.96902094 118.84256087 -113.01513672 119.21533203 C-134.51774168 123.00709687 -134.51774168 123.00709687 -150.92578125 136.46875 C-152.51898853 138.06753147 -154.15497091 139.61363872 -155.79492188 141.16430664 C-184.32547374 168.40736388 -202.382913 205.37673478 -210.92578125 243.46875 C-211.10657227 244.25846191 -211.28736328 245.04817383 -211.47363281 245.86181641 C-216.51081088 268.94971707 -216.16925709 296.46435421 -210.92578125 319.46875 C-210.62776611 320.81718994 -210.62776611 320.81718994 -210.32373047 322.19287109 C-202.89526499 355.02835781 -187.97572082 384.99589562 -165.92578125 410.46875 C-165.23226562 411.273125 -164.53875 412.0775 -163.82421875 412.90625 C-153.98093592 424.0739018 -143.61275523 434.28809786 -131.66113281 443.17773438 C-130.53056461 444.01882113 -129.40463829 444.86619514 -128.28417969 445.72070312 C-98.12538277 468.7179247 -62.85590175 482.13716265 -25.92578125 489.46875 C-24.58749268 489.73993652 -24.58749268 489.73993652 -23.22216797 490.01660156 C5.974989 495.64025462 39.06393562 494.48223983 68.07421875 488.46875 C69.62761963 488.14729004 69.62761963 488.14729004 71.21240234 487.81933594 C112.03881467 479.05030506 149.8642069 460.15580645 181.07421875 432.46875 C181.63028809 431.97584473 182.18635742 431.48293945 182.75927734 430.97509766 C217.57318876 399.9172926 241.61429076 357.69184607 249.07421875 311.46875 C249.18991211 310.75654297 249.30560547 310.04433594 249.42480469 309.31054688 C257.32414538 257.97655246 242.66673427 205.8812808 212.37060547 164.21728516 C205.8679338 155.44663836 198.54718027 147.41019994 191.07421875 139.46875 C190.45804687 138.81003906 189.841875 138.15132812 189.20703125 137.47265625 C184.23437631 132.32155676 178.66620973 127.92363085 173.07421875 123.46875 C171.96790807 122.54918905 170.86246072 121.62858861 169.7578125 120.70703125 C168.63479643 119.79343205 167.51111108 118.88065486 166.38671875 117.96875 C165.37222656 117.1334375 164.35773438 116.298125 163.3125 115.4375 C155.51778612 110.69861484 145.01578874 112.27236982 136.13671875 112.28125 C135.40276886 112.2805249 134.66881897 112.2797998 133.91262817 112.27905273 C123.18638926 112.28022665 112.67052736 112.65686212 102.07421875 114.46875 Z " fill="#000000" transform="translate(237.92578125,-0.46875)"/>
<path d="M0 0 C5.2811262 4.04273806 6.10205718 8.05850532 7.3125 14.25 C9.05274767 22.2226605 11.54709164 29.1645197 15.40942383 36.35449219 C17.69763712 40.73634095 18.55096224 43.92990928 18 49 C16.20437595 51.75329021 14.94745078 53.52627461 12 55 C4.90950368 55.58118822 4.90950368 55.58118822 1.45703125 53.375 C-7.99379383 44.23970326 -13.74540585 24.70276574 -15 12 C-15.05687244 7.91229304 -14.6896412 4.89653356 -12.125 1.5625 C-7.96637948 -1.49530921 -4.8801348 -1.17796357 0 0 Z " fill="#000000" transform="translate(57,285)"/>
<path d="M0 0 C3 1.5 3 1.5 5 4 C6.33131757 10.26462635 5.64904858 14.54955337 3.6875 20.5625 C1.52106101 27.66582074 0.23006058 34.35299361 -0.4453125 41.765625 C-1.06054201 45.35301963 -2.12183928 47.89070043 -4 51 C-7.02207395 53.01471597 -7.91726699 53.33719034 -11.375 53.4375 C-12.12523437 53.47746094 -12.87546875 53.51742187 -13.6484375 53.55859375 C-17.27631005 52.69682336 -18.74226664 50.90167818 -21 48 C-23.84942138 33.94757405 -18.99395972 13.32393734 -11.3125 1.375 C-7.6336868 -0.81240244 -4.15755635 -0.71145349 0 0 Z " fill="#000000" transform="translate(65,211)"/>
</svg>
