<?xml version="1.0" encoding="UTF-8"?>
<svg version="1.0" xmlns="http://www.w3.org/2000/svg" width="512" height="512">
<path d="M0 0 C5.23693495 3.26403434 8.82853829 6.77401212 12.5 11.6875 C12.97284424 12.30616943 13.44568848 12.92483887 13.93286133 13.56225586 C15.30231203 15.3650504 16.65482349 17.17904594 18 19 C18.98033203 20.32644531 18.98033203 20.32644531 19.98046875 21.6796875 C26.76913374 31.15585602 32.62702553 41.21204546 38.3125 51.375 C38.73313721 52.12394531 39.15377441 52.87289062 39.5871582 53.64453125 C42.00400821 58.00857182 44.11664282 62.37998466 46 67 C49.75140716 63.87382737 53.2769667 60.74211407 56.625 57.1875 C76.04902768 37.65183998 105.02064612 28.56442863 132.03710938 27.6652832 C134.57644499 28.09829678 135.40674296 29.01944336 137 31 C138.0625 33.25 138.0625 33.25 138 36 C135.47610532 40.33728119 131.61827335 43.366343 127.6875 46.375 C116.88247502 54.81336543 106.91780436 64.8623432 98.75 75.875 C98.33306885 76.43195557 97.9161377 76.98891113 97.48657227 77.56274414 C91.07024287 86.62039444 87.92636427 96.85893795 85.1875 107.5 C84.87619141 108.6653125 84.56488281 109.830625 84.24414062 111.03125 C82.58930901 116.93990618 82.58930901 116.93990618 82 123 C82.70576172 122.83846436 83.41152344 122.67692871 84.13867188 122.51049805 C89.22115336 121.60371743 94.35034888 121.81544266 99.5 121.8125 C100.62792969 121.80025391 101.75585938 121.78800781 102.91796875 121.77539062 C104.55185547 121.77249023 104.55185547 121.77249023 106.21875 121.76953125 C107.7027832 121.76336792 107.7027832 121.76336792 109.21679688 121.75708008 C113.14219588 122.09969166 115.98322113 123.05100639 118.875 125.75 C120 128 120 128 120.25 130.875 C118.27633802 135.80915495 114.48537327 137.40604919 110 140 C107.55815401 141.43019403 105.12156544 142.86910722 102.6875 144.3125 C102.04474121 144.69293457 101.40198242 145.07336914 100.73974609 145.46533203 C94.47923132 149.21975662 88.7238727 153.46426451 83 158 C82.33484375 158.49886719 81.6696875 158.99773437 80.984375 159.51171875 C68.86245332 169.03998602 64.13815746 182.75857513 60 197 C60.85464844 197.24878906 61.70929688 197.49757812 62.58984375 197.75390625 C66.23149714 199.08459059 69.33589546 200.83014254 72.5625 202.9375 C73.46995972 203.52966309 73.46995972 203.52966309 74.39575195 204.13378906 C100.18806361 221.3443135 115.61394904 245.88315727 122.23828125 276.02734375 C128.42269402 307.04316764 122.60030103 340.17935372 118 371 C117.88444763 371.77545166 117.76889526 372.55090332 117.64984131 373.34985352 C112.5792162 407.03578492 104.07322446 446.45938369 75 468 C70.44319824 470.91485559 65.80454183 473.51737631 61 476 C60.20207031 476.4125 59.40414063 476.825 58.58203125 477.25 C23.78590769 493.01603121 -27.3468915 483.48074791 -62.17919922 472.30053711 C-62.78006348 472.20135986 -63.38092773 472.10218262 -64 472 C-66.45564336 473.99695841 -66.45564336 473.99695841 -68.875 476.8125 C-79.15112377 487.67533194 -91.4009291 494.97845482 -105 501 C-105.62567871 501.27827637 -106.25135742 501.55655273 -106.89599609 501.84326172 C-132.9168116 513.12734737 -163.72574016 516.74733573 -191 508 C-192.00861084 507.68651611 -192.00861084 507.68651611 -193.03759766 507.36669922 C-212.70987489 501.09431085 -229.24055785 489.88996131 -243.875 475.5 C-244.48158447 474.90751465 -245.08816895 474.3150293 -245.71313477 473.70458984 C-253.66094383 465.6706168 -259.10372233 456.39711567 -264.1875 446.375 C-264.69474609 445.39015625 -265.20199219 444.4053125 -265.72460938 443.390625 C-266.22154297 442.42382812 -266.71847656 441.45703125 -267.23046875 440.4609375 C-267.94771118 439.06959595 -267.94771118 439.06959595 -268.67944336 437.65014648 C-269.51532069 435.97267405 -270.31325817 434.27528746 -271.05688477 432.55493164 C-272.87705053 428.26898183 -272.87705053 428.26898183 -276.69140625 425.88671875 C-277.63886719 425.82097656 -278.58632813 425.75523437 -279.5625 425.6875 C-284.68586118 425.26344975 -284.68586118 425.26344975 -286.83984375 423.45703125 C-287.22269531 422.97621094 -287.60554688 422.49539063 -288 422 C-284.82418312 418.55197024 -282.39309313 416.58003686 -278 415 C-278.26554687 414.175 -278.53109375 413.35 -278.8046875 412.5 C-287.00881571 385.6719019 -285.63694537 357.28520129 -276 331 C-275.44699219 329.47052734 -275.44699219 329.47052734 -274.8828125 327.91015625 C-270.96535575 317.84634495 -265.66075799 307.84651847 -259.19140625 299.1796875 C-256.64581665 296.27768977 -256.64581665 296.27768977 -257.4375 293.4375 C-258.63497656 291.56943656 -259.89777827 289.74311042 -261.1875 287.9375 C-263 285 -263 285 -262.61328125 282.81640625 C-262.41089844 282.21699219 -262.20851563 281.61757813 -262 281 C-260.66658348 281.14507078 -259.33327236 281.2911103 -258 281.4375 C-257.17628906 281.51742188 -256.35257813 281.59734375 -255.50390625 281.6796875 C-253 282 -253 282 -250.90234375 282.5703125 C-248.63838773 283.22733978 -248.63838773 283.22733978 -245 283 C-242.84656747 281.35076283 -241.18017814 279.46989195 -239.37109375 277.44921875 C-222.55052935 260.07443477 -197.38587719 251.29541409 -174 248 C-173.01 248 -172.02 248 -171 248 C-170.62875 246.6078125 -170.62875 246.6078125 -170.25 245.1875 C-168.93545755 241.83541675 -168.02036616 240.8122197 -165 239 C-162.81715496 241.65737657 -161.72366315 243.65569263 -161 247 C-160.41323486 247.05422119 -159.82646973 247.10844238 -159.22192383 247.16430664 C-141.3706988 248.90939776 -124.97076531 252.6570629 -109 261 C-108.67 259.865625 -108.34 258.73125 -108 257.5625 C-98.97121367 230.77147516 -81.3673002 207.91014385 -56 195 C-44.48323276 189.36158271 -31.7982862 185.9141633 -19 185 C-21.5134125 163.9005635 -32.03534461 147.67861331 -48.625 134.5 C-53.9943869 130.31959567 -59.57119992 126.53287247 -65.38134766 122.9921875 C-68.67126601 120.96881503 -71.50514723 118.96749874 -74 116 C-74.45351866 112.82536935 -74.64200211 110.94610837 -72.8125 108.25 C-62.7254062 101.29338359 -48.4511256 103.87626151 -37 105 C-45.39459881 88.95370937 -54.51360615 73.69320617 -66.671875 60.17578125 C-68.4552888 57.25412982 -68.45017542 55.36281037 -68 52 C-66.734375 50.16015625 -66.734375 50.16015625 -65 49 C-51.32220727 46.94833109 -37.57404893 56.31799864 -27 64 C-20.62127472 68.7366063 -14.31821326 73.57033819 -8.04614258 78.44702148 C-6.40750265 79.69071419 -4.71166161 80.85889226 -3 82 C-2.47560058 58.08155994 -3.35384164 33.10731851 -10 10 C-10.50638298 3.92340426 -10.50638298 3.92340426 -8.9375 1.0625 C-5.76041281 -0.67977362 -3.56642106 -0.47552281 0 0 Z M9 32 C9.10393066 33.61467163 9.10393066 33.61467163 9.20996094 35.26196289 C9.97414707 47.88338511 10.21779906 60.48103155 10.24023438 73.12426758 C10.2499782 76.43010272 10.28115482 79.73532403 10.3125 83.04101562 C10.38398923 97.68225497 8.96982334 111.50001971 6.27441406 125.86767578 C5.64775914 129.16875726 5.64775914 129.16875726 8.0625 131.95703125 C9.02399537 132.92670175 10.00431853 133.87796662 11 134.8125 C12.02157453 135.84045426 13.03847541 136.87307313 14.05078125 137.91015625 C14.80415771 138.67803467 14.80415771 138.67803467 15.57275391 139.46142578 C18.8238309 142.96609345 21.4062819 146.99876934 24 151 C27.15456802 149.53795135 29.85024452 147.78016676 32.625 145.6875 C33.40101563 145.11386719 34.17703125 144.54023438 34.9765625 143.94921875 C42.78002868 136.4319801 41.6414521 120.30991984 41.9609375 110.23046875 C42.43879172 82.14382455 26.55382177 53.93454891 10 32 C9.67 32 9.34 32 9 32 Z M62 71 C55.94749635 77.33898671 55.94749635 77.33898671 52 85 C52.31735105 87.28039241 52.31735105 87.28039241 52.92578125 89.8046875 C54.25521347 96.60055717 54.25780135 103.22066703 54.1875 110.125 C54.18685547 111.33542969 54.18621094 112.54585938 54.18554688 113.79296875 C54.15380889 120.27457031 53.8635039 126.57553097 53 133 C53.65194336 132.79866455 54.30388672 132.5973291 54.97558594 132.38989258 C57.30810547 131.66955566 57.30810547 131.66955566 59.640625 130.94921875 C62.32530215 129.86912513 63.90079723 129.0170074 66 127 C66.91240703 124.44492644 67.59150774 122.10035478 68.18359375 119.47265625 C68.36584 118.7284996 68.54808624 117.98434296 68.7358551 117.21763611 C69.3176397 114.83582955 69.87917644 112.449906 70.4375 110.0625 C75.76370213 87.52892525 84.19502154 70.85935346 99.60742188 53.58203125 C101.79287373 51.09925985 103.89472032 48.55092282 106 46 C90.16532015 46 72.71343613 60.50097319 62 71 Z M-37 75 C-34.99721961 80.57917394 -31.94213632 85.56317759 -29.01733398 90.69433594 C-26.82682681 94.57904829 -24.74587271 98.44338695 -22.94921875 102.52734375 C-19.41611307 110.49810984 -16.51800917 115.60086558 -8.125 119.25 C-7.42375 119.4975 -6.7225 119.745 -6 120 C-5.25625845 117.66960982 -4.59677801 115.36968786 -4 113 C-3.81308594 112.278125 -3.62617188 111.55625 -3.43359375 110.8125 C-2.79173395 107.48176807 -2.50803145 105.05993225 -3.9609375 101.9296875 C-9.83894363 93.64851864 -18.36553968 87.62478029 -26.375 81.5625 C-27.07737793 81.02979492 -27.77975586 80.49708984 -28.50341797 79.94824219 C-29.17002441 79.45098633 -29.83663086 78.95373047 -30.5234375 78.44140625 C-31.12075684 77.99482666 -31.71807617 77.54824707 -32.33349609 77.08813477 C-34.12661065 75.81675075 -34.12661065 75.81675075 -37 75 Z M-45 119 C-42.18971252 121.89810896 -39.31423446 124.62088684 -36.25 127.25 C-16.18792501 144.74292038 -6.99357804 163.74522749 -4.7331543 190.13574219 C-4.46773773 194.52911907 -4.46773773 194.52911907 -2 198 C-1.86464844 197.15179688 -1.72929687 196.30359375 -1.58984375 195.4296875 C0.59792996 183.50828583 4.74883158 172.79490256 13.12890625 163.74609375 C14.25571902 161.95840257 14.25571902 161.95840257 13.4296875 159.671875 C2.98430666 140.15099933 -16.16863943 126.52249535 -37 120 C-39.66983936 119.54537252 -42.30063445 119.25835512 -45 119 Z M71.328125 140.20556641 C54.69558945 145.88114009 40.62062195 154.77160944 28 167 C27.36707031 167.55945313 26.73414063 168.11890625 26.08203125 168.6953125 C17.69114569 176.36380394 12.47207263 186.75724749 11 198 C11.05570306 200.53234676 11.38246636 202.52986546 12 205 C19.20366392 206.38152459 26.2965168 207.22533597 33.625 207.3125 C34.31142578 207.32990234 34.99785156 207.34730469 35.70507812 207.36523438 C38.43391562 207.3625137 40.49235056 207.31339035 42.84765625 205.859375 C44.42920096 203.30745879 45.06715653 200.84740259 45.8125 197.9375 C53.04348974 171.40554144 63.74740459 151.93819282 88 137 C83.61212475 134.80606237 75.87762034 138.7215909 71.328125 140.20556641 Z M-49.5 207.0625 C-50.23581299 207.4028125 -50.97162598 207.743125 -51.72973633 208.09375 C-53.53170848 208.97554335 -55.27293027 209.97926826 -57 211 C-57.33 211.99 -57.66 212.98 -58 214 C-54.52634117 219.73448085 -49.41079316 224.03500593 -43 226 C-38.03310528 226.9134519 -34.06829778 226.07609723 -29.7734375 223.3359375 C-27.0776779 221.3052111 -24.62763238 219.01979691 -22.1328125 216.75 C-18.69962103 213.93302238 -14.93966955 212.03139211 -11 210 C-13.97 204.555 -13.97 204.555 -17 199 C-28.51077164 199 -39.12552446 202.22366293 -49.5 207.0625 Z M56 210 C55.50693359 210.70576172 55.50693359 210.70576172 55.00390625 211.42578125 C51.01843804 216.64253232 47.34445796 218.51962648 41 220 C45.48654111 226.77379736 51.07823216 233.35941072 59 236 C68.01189802 236.8725806 75.5559927 235.05073812 84 232 C79.7756209 222.23651156 67.84294932 216.19438025 59 211 C58.01 210.67 57.02 210.34 56 210 Z M-70 221 C-78.81775551 230.01651639 -93 244.78473995 -93 258 C-84.32949044 257.81936438 -79.73628688 251.87923325 -74.0078125 245.921875 C-72.70954985 244.53497595 -71.41527692 243.14433151 -70.125 241.75 C-69.46242188 241.04359375 -68.79984375 240.3371875 -68.1171875 239.609375 C-65.50834746 236.80964423 -63.12833949 234.19250924 -61 231 C-62.1241176 229.70756532 -63.24932592 228.41607925 -64.375 227.125 C-65.00148438 226.40570313 -65.62796875 225.68640625 -66.2734375 224.9453125 C-67.47426834 223.5923402 -68.7208345 222.2791655 -70 221 Z M-21 233 C-19.56788116 240.87665362 -13.68339027 249.455229 -8 255 C-1.18273845 259.22998759 4.85892374 260.21579563 12.75 260.3125 C13.5234375 260.34150391 14.296875 260.37050781 15.09375 260.40039062 C21.73995141 260.47287437 26.72215745 258.90036906 31.74902344 254.45239258 C33.40268439 252.76925417 34.96005151 251.03744022 36.5 249.25 C37.03625 248.64800781 37.5725 248.04601562 38.125 247.42578125 C39.42769468 245.96024973 40.71547628 244.48148402 42 243 C38.08886808 233.63965058 28.55893872 227.14203881 19.7265625 223.0234375 C3.97475402 217.11086756 -8.99616539 222.71099891 -21 233 Z M-64.5 254.5 C-71.90411609 263.72666775 -78.85449738 269.3147236 -90.625 271.75 C-91.40875 271.8325 -92.1925 271.915 -93 272 C-80.15482826 287.88606402 -80.15482826 287.88606402 -62 296 C-58.7526599 295.87251106 -58.7526599 295.87251106 -55.25 295.375 C-53.49429688 295.17003906 -53.49429688 295.17003906 -51.703125 294.9609375 C-41.85594417 292.4056564 -35.5101492 284.87800154 -28.625 277.8125 C-27.61919972 276.79161758 -26.61269397 275.7714297 -25.60546875 274.75195312 C-23.06268089 272.17540301 -20.53114231 269.58799243 -18 267 C-17.34 266.34 -16.68 265.68 -16 265 C-16.969375 264.154375 -17.93875 263.30875 -18.9375 262.4375 C-23.14738236 258.28739285 -25.88693322 253.47201956 -28.71459961 248.33178711 C-30.96609217 244.33783064 -33.05499527 241.54557287 -37 239 C-49.4328515 237.35792527 -57.30351155 245.51364735 -64.5 254.5 Z M92 242 C91.01 242.99 90.02 243.98 89 245 C91.97 247.64 94.94 250.28 98 253 C98.33 252.34 98.66 251.68 99 251 C98.02501855 249.4972763 97.04490611 247.99788037 96.0625 246.5 C95.24458984 245.24703125 95.24458984 245.24703125 94.41015625 243.96875 C93.94480469 243.3190625 93.47945313 242.669375 93 242 C92.67 242 92.34 242 92 242 Z M42.32421875 262.3671875 C39.23921748 265.86179398 36.03393836 267.72632565 32 270 C31.76945156 272.24872716 31.76945156 272.24872716 34.03125 274.12109375 C34.48886719 274.56050293 34.94648438 274.99991211 35.41796875 275.45263672 C37.20381576 277.19934943 38.89812849 279.01326151 40.59375 280.84765625 C41.55087891 281.87922852 41.55087891 281.87922852 42.52734375 282.93164062 C43.84439648 284.35431837 45.15949734 285.77880552 46.47265625 287.20507812 C53.70646177 295.35140627 53.70646177 295.35140627 63.48046875 299.3359375 C72.03879955 299.45943434 78.89507981 297.51333883 85.39453125 291.6875 C90.33830393 286.4911258 94.73276273 280.75738362 99 275 C85.0838692 257.31626274 85.0838692 257.31626274 64.62109375 249.625 C52.94575595 249.19995926 49.23999777 253.56101727 42.32421875 262.3671875 Z M-159 262 C-159.10957031 262.83144531 -159.21914062 263.66289062 -159.33203125 264.51953125 C-159.56986328 266.14955078 -159.56986328 266.14955078 -159.8125 267.8125 C-160.03873047 269.43091797 -160.03873047 269.43091797 -160.26953125 271.08203125 C-161.02334324 274.09324812 -161.50562181 275.22176932 -164 277 C-167.94563286 277.68619702 -169.49506557 277.34784372 -172.8125 275.0625 C-175.68290266 271.04393627 -175.81109788 267.80852765 -176 263 C-182.96309722 263.40032542 -188.9441448 264.66749014 -195.4375 267.1875 C-196.26515869 267.50283691 -197.09281738 267.81817383 -197.94555664 268.14306641 C-211.28376818 273.33617434 -223.00045164 280.65501269 -233 291 C-232.505 291.515625 -232.01 292.03125 -231.5 292.5625 C-229.43978862 295.91034349 -229.50874541 298.14014247 -230 302 C-231.66796875 303.74609375 -231.66796875 303.74609375 -234 305 C-236.734375 304.90625 -236.734375 304.90625 -239.75 304.5 C-243.46179715 304.44151108 -245.30114113 304.44942075 -248.24609375 306.76953125 C-250.48600531 309.70349991 -252.29467657 312.73898691 -254 316 C-254.37253906 316.69689941 -254.74507812 317.39379883 -255.12890625 318.11181641 C-264.76478231 336.44144698 -270.42017105 355.42870322 -270.3125 376.25 C-270.30976074 377.33176514 -270.30702148 378.41353027 -270.30419922 379.52807617 C-270.17847913 389.23670178 -269.91310389 400.34866489 -265 409 C-264.32453125 408.98839844 -263.6490625 408.97679687 -262.953125 408.96484375 C-262.06109375 408.95582031 -261.1690625 408.94679688 -260.25 408.9375 C-259.36828125 408.92589844 -258.4865625 408.91429687 -257.578125 408.90234375 C-255.2181162 408.99173802 -253.25501476 409.33087179 -251 410 C-250.37522442 417.96588869 -250.37522442 417.96588869 -252.8125 422 C-255 424 -255 424 -258 425 C-256.60923188 435.60460689 -247.09574167 444.57656866 -240 452 C-239.38769531 452.68707031 -238.77539062 453.37414062 -238.14453125 454.08203125 C-232.07061023 460.64808233 -223.5556776 467.14810747 -215 470 C-214.41992188 468.75283203 -214.41992188 468.75283203 -213.828125 467.48046875 C-213.30734375 466.39378906 -212.7865625 465.30710937 -212.25 464.1875 C-211.48429687 462.56908203 -211.48429687 462.56908203 -210.703125 460.91796875 C-209.02070247 458.0354696 -207.86782886 456.63956424 -205 455 C-201.92009728 454.62286906 -199.9326505 454.48543421 -197.1875 456 C-195.28617944 459.2022241 -194.75959506 462.34194641 -195 466 C-196.03024347 468.86960499 -197.42408774 471.39791231 -199 474 C-199.33 474.66 -199.66 475.32 -200 476 C-198.14703165 476.48377991 -196.29255559 476.96178636 -194.4375 477.4375 C-193.40496094 477.70433594 -192.37242187 477.97117187 -191.30859375 478.24609375 C-166.10784616 483.98841286 -140.50440387 477.05123827 -118.71777344 464.1015625 C-114.13649239 461.16370859 -110.0927629 457.57148157 -106 454 C-104.67670824 452.98674944 -103.34695555 451.98157451 -102 451 C-103.33149559 448.02029386 -104.80385601 446.08318434 -107.125 443.8125 C-110.27315386 440.25639467 -110.62408725 437.57297952 -110.50390625 432.91796875 C-110 431 -110 431 -107 429 C-102.23620814 428.64046854 -98.35483364 428.97449598 -94 431 C-92.75 433 -92.75 433 -92 435 C-91.34 435.66 -90.68 436.32 -90 437 C-75.02046892 418.72951133 -65.91303996 394.65964421 -65 371 C-64.96003906 370.10796875 -64.92007813 369.2159375 -64.87890625 368.296875 C-64.49351426 351.3396276 -67.84667612 334.88131338 -74.5 319.3125 C-74.92671997 318.30509766 -74.92671997 318.30509766 -75.36206055 317.27734375 C-77.06124632 313.48092982 -78.85135219 310.72744711 -82 308 C-82.54269531 308.49371094 -83.08539063 308.98742187 -83.64453125 309.49609375 C-84.71767578 310.45708984 -84.71767578 310.45708984 -85.8125 311.4375 C-86.52019531 312.07558594 -87.22789062 312.71367187 -87.95703125 313.37109375 C-91.72911209 316.37866108 -95.31918201 316.41793018 -100 316 C-102 314.5 -102 314.5 -103 312 C-103 307.14402659 -102.8007424 305.02952594 -99.8125 301.1875 C-96.99029107 298.99244861 -94.26468583 297.4425356 -91 296 C-94.50643576 285.01316796 -108.29708355 277.37429043 -118 272 C-130.58637978 265.51916913 -144.74044308 261.09463131 -159 262 Z M-18.08984375 284.9453125 C-19.38179743 286.32982795 -20.66438454 287.72314253 -21.9375 289.125 C-22.59556641 289.82753906 -23.25363281 290.53007812 -23.93164062 291.25390625 C-26.81874345 294.38036969 -29.23004178 297.09607634 -31 301 C-30.35933594 301.6290625 -29.71867187 302.258125 -29.05859375 302.90625 C-25.06092135 306.86221792 -21.12224685 310.76648068 -17.5625 315.125 C-10.52655738 323.28669344 -1.67010049 329.33796913 9.16796875 330.2734375 C16.94659205 330.50616961 23.1612398 330.23581357 29.23828125 325.11328125 C35.31211794 319.2640234 41.41435385 312.70827312 45 305 C44.45472656 304.47792969 43.90945313 303.95585937 43.34765625 303.41796875 C39.08841914 299.2606621 35.14017679 295.0388246 31.4375 290.375 C24.92544624 282.29146104 17.61483683 274.94942508 7 273.125 C-3.27303353 272.34400915 -11.15108828 277.89754013 -18.08984375 284.9453125 Z M106.51953125 287.25 C102.73705551 291.1276868 99.10756835 295.09729653 95.578125 299.20703125 C94.30348242 300.65520191 92.94426856 302.02866141 91.5625 303.375 C89.76896376 304.86455501 89.76896376 304.86455501 90 307 C91.46130152 308.19479366 92.97136323 309.3301592 94.5 310.4375 C99.54054921 314.32530998 102.90416214 318.59316258 106.40625 323.875 C106.9321875 324.57625 107.458125 325.2775 108 326 C108.66 326 109.32 326 110 326 C110.90391849 318.96234888 111.10925988 311.96067715 111.125 304.875 C111.12951172 304.0406543 111.13402344 303.20630859 111.13867188 302.34667969 C111.12562429 296.8253786 110.69437816 291.47787212 110 286 C107.93175829 285.78495716 107.93175829 285.78495716 106.51953125 287.25 Z M-50 311 C-49.40832031 312.17433594 -48.81664062 313.34867187 -48.20703125 314.55859375 C-41.67318614 327.77694805 -37.5403432 340.72749537 -34 355 C-28.33694522 350.30086944 -23.15812425 345.24393408 -18 340 C-16.66781362 338.6655207 -15.33483907 337.33182589 -14 336 C-14.7734375 335.29875 -15.546875 334.5975 -16.34375 333.875 C-17.39605548 332.9169106 -18.44812198 331.95855868 -19.5 331 C-20.05026855 330.50032715 -20.60053711 330.0006543 -21.16748047 329.48583984 C-24.28489138 326.63665217 -27.24543011 323.71787136 -30.125 320.625 C-35.71475926 314.95372341 -42.16974124 312.0780791 -50 311 Z M50.25390625 320.2421875 C49.34961912 321.44779372 48.45263907 322.65891035 47.5625 323.875 C43.76054488 328.90659822 40.06614446 333.17224641 35 337 C36.09139623 340.27418868 36.72910317 340.83548146 39.3125 342.9375 C42.53585905 345.64673906 45.48543309 348.49323011 48.39624023 351.52612305 C55.34800625 358.73776816 62.62563833 364.94752853 73 366 C84.22305275 366.1352175 92.50550724 362.60136875 101.125 355.6875 C101.70620605 355.23777832 102.28741211 354.78805664 102.88623047 354.32470703 C105.94740325 351.72810248 106.95215615 350.32294596 107.546875 346.30859375 C106.87902619 342.26810843 105.37910106 341.31430646 102.1953125 338.9296875 C99.35887366 336.43644767 97.22745712 333.52448762 95 330.5 C88.71784091 322.10061662 81.68502357 315.07818807 71 313 C69.04593767 312.83398635 67.08552905 312.73489192 65.125 312.6875 C63.61292969 312.63142578 63.61292969 312.63142578 62.0703125 312.57421875 C56.76304034 313.31021451 53.50879246 316.16889308 50.25390625 320.2421875 Z M-58 325 C-57 327 -57 327 -57 327 Z M-57 327 C-56.87882813 327.65484375 -56.75765625 328.3096875 -56.6328125 328.984375 C-56.46523438 329.89703125 -56.29765625 330.8096875 -56.125 331.75 C-55.96257812 332.63171875 -55.80015625 333.5134375 -55.6328125 334.421875 C-55.31957031 336.19304687 -55.31957031 336.19304687 -55 338 C-54.83314697 338.84796143 -54.66629395 339.69592285 -54.49438477 340.56958008 C-53.02464507 348.48037338 -52.65075353 356.15067422 -52.6875 364.1875 C-52.69487183 366.10115356 -52.69487183 366.10115356 -52.70239258 368.0534668 C-53.0530437 396.37349001 -62.525266 425.20001118 -81.125 446.875 C-83.00251573 449.17549629 -83.94240785 450.35344665 -84.20703125 453.32421875 C-83.96536743 455.78957992 -83.96536743 455.78957992 -83 459 C-84.175625 458.690625 -85.35125 458.38125 -86.5625 458.0625 C-89.79988526 457.67916027 -89.79988526 457.67916027 -92.59765625 459.140625 C-93.69595459 460.34285438 -94.78176413 461.55653684 -95.859375 462.77734375 C-108.10543977 475.49269202 -127.04785271 484.79837011 -144 489 C-145.0516333 489.26111572 -146.1032666 489.52223145 -147.18676758 489.79125977 C-157.03543309 492.00950999 -166.37311552 492.36453697 -176.4375 492.1875 C-177.95897085 492.17239734 -179.48045651 492.15871899 -181.00195312 492.14648438 C-184.66828562 492.11398617 -188.33404167 492.06252619 -192 492 C-188.70696188 494.19535875 -185.58631812 495.0905747 -181.8125 496.0625 C-181.13050537 496.2387793 -180.44851074 496.41505859 -179.74584961 496.59667969 C-175.1440861 497.76045781 -170.74115718 498.79278159 -166 499 C-164.91203125 499.06316406 -163.8240625 499.12632812 -162.703125 499.19140625 C-133.41907685 500.10285755 -102.087365 489.03349034 -80.375 469.25 C-58.92677399 449.08151605 -46.20889817 421.10988885 -44.89379883 391.6184082 C-44.32839535 369.11624371 -46.46408229 347.63510061 -56 327 C-56.33 327 -56.66 327 -57 327 Z M-16.91601562 357.83447266 C-20.66472 361.80744922 -24.4590679 364.95347884 -29 368 C-27.62313762 371.19653477 -26.13756103 372.95404184 -23.4375 375.125 C-20.16452375 377.88805604 -17.28109339 380.79608827 -14.4375 384 C-13.68210937 384.84949219 -12.92671875 385.69898438 -12.1484375 386.57421875 C-10.83830452 388.05347799 -9.53042213 389.53473956 -8.2265625 391.01953125 C-2.18512062 397.52897214 5.27100858 401.36148257 14.140625 402.203125 C22.12314988 402.38051444 29.14177994 400.65278006 35.11328125 395.140625 C38.1596144 391.68432984 40.77769303 387.92506385 43.36108398 384.11401367 C45.93912281 380.33153677 48.7485176 377.24569684 52 374 C52 373.34 52 372.68 52 372 C50.6911813 370.88211485 49.32336572 369.83330841 47.9375 368.8125 C42.28746299 364.44838891 37.40667344 359.48798618 32.53100586 354.28051758 C25.9251363 347.42122365 19.04716383 343.89926044 9.4375 343.625 C-2.77348087 343.82497512 -8.87388812 349.29936728 -16.91601562 357.83447266 Z M97.4375 369.5 C96.42558594 370.1496875 95.41367187 370.799375 94.37109375 371.46875 C93.58863281 371.9740625 92.80617188 372.479375 92 373 C92.9080162 374.13199353 93.82683826 375.25532363 94.75 376.375 C95.51570313 377.31472656 95.51570313 377.31472656 96.296875 378.2734375 C98.08199481 380.08312318 99.67949644 381.00117455 102 382 C102.33895656 380.27192682 102.67091525 378.54248026 103 376.8125 C103.185625 375.84957031 103.37125 374.88664062 103.5625 373.89453125 C103.96877612 371.2065794 104.07933572 368.71228981 104 366 C101.76223705 366 99.21768222 368.35413558 97.4375 369.5 Z M55.6640625 388.7109375 C55.11492187 389.46632813 54.56578125 390.22171875 54 391 C53.36835938 391.85851562 52.73671875 392.71703125 52.0859375 393.6015625 C48.72309268 398.2429354 48.72309268 398.2429354 45.921875 403.2265625 C44.70261598 405.57208621 43.39379671 405.98444988 41 407 C40.01 407.66 39.02 408.32 38 409 C39.47283679 412.33843006 41.38647192 414.6654102 43.8125 417.375 C50.47558934 425.35558837 55.34978979 434.46725866 60.51367188 443.45458984 C62.59668527 447.02185292 64.78683955 450.51222307 67 454 C83.19979867 446.22905726 90.85677107 424.6370016 96.46875 408.68359375 C97.84081257 401.75266005 94.59867094 397.24175641 90.8984375 391.69140625 C85.31797705 383.7328047 85.31797705 383.7328047 77 379 C68.41064832 377.63351223 60.81234891 382.19628123 55.6640625 388.7109375 Z M-32 386 C-32.02916504 386.54599854 -32.05833008 387.09199707 -32.08837891 387.65454102 C-33.25179723 407.43470804 -37.0390141 426.05113136 -45.58203125 444.015625 C-47.05204185 446.95361955 -47.05204185 446.95361955 -48 450 C-35.04812404 448.0074037 -26.08445185 435.68116328 -18.75 425.8125 C-17.76468846 424.46552833 -16.78028302 423.11789328 -15.796875 421.76953125 C-12.76665029 417.63388224 -9.63093297 413.63093297 -6 410 C-6.71285156 409.43152344 -7.42570312 408.86304688 -8.16015625 408.27734375 C-16.09698473 401.87874313 -23.03800273 395.27796538 -29.6171875 387.50390625 C-30.07351563 387.00761719 -30.52984375 386.51132812 -31 386 C-31.33 386 -31.66 386 -32 386 Z M0.0402832 422.99365234 C-3.17612856 426.15656629 -5.7909134 429.67092199 -8.4375 433.3125 C-9.56484513 434.81855374 -10.69505212 436.32246953 -11.828125 437.82421875 C-12.37017578 438.54270996 -12.91222656 439.26120117 -13.47070312 440.00146484 C-20.97133719 449.80353868 -29.28056375 457.66890399 -41 462 C-37.89393262 464.07071159 -36.08367539 464.54168361 -32.46875 465.21875 C-31.35725586 465.42798096 -30.24576172 465.63721191 -29.10058594 465.8527832 C-27.91239258 466.06636475 -26.72419922 466.27994629 -25.5 466.5 C-24.28344727 466.72067139 -23.06689453 466.94134277 -21.81347656 467.16870117 C4.77587292 471.87423791 30.44943092 473.48228475 56 463 C53.60661767 456.58302449 50.02620318 450.8219654 46.5625 444.9375 C46.20440247 444.3290625 45.84630493 443.720625 45.47735596 443.09375 C35.09702505 425.10367856 35.09702505 425.10367856 17.625 415.125 C10.08522194 414.86500765 5.49933749 418.10421102 0.0402832 422.99365234 Z " fill="#000000" transform="translate(331,0)"/>
<path d="M0 0 C5.99717905 2.59920022 7.98870055 7.45236067 10.32421875 13.3359375 C14.18674646 24.40155744 17.72374777 36.17878643 17 48 C17.99 47.67 18.98 47.34 20 47 C30.46899963 46.00112297 39.61713284 48.70814015 48 55 C52.58271286 58.9280396 56.01271343 63.77481491 59 69 C59 69.66 59 70.32 59 71 C59.70382813 70.68546875 60.40765625 70.3709375 61.1328125 70.046875 C73.51282139 64.68112702 85.82493294 60.77823158 99.375 60.9375 C100.11105469 60.94201172 100.84710938 60.94652344 101.60546875 60.95117188 C103.40368158 60.96284858 105.20185197 60.98077989 107 61 C107.33 62.32 107.66 63.64 108 65 C96.71592472 74.56517492 77.49799525 79.95968108 62.73828125 79.17578125 C62.16464844 79.11777344 61.59101563 79.05976563 61 79 C61.04640625 79.66644531 61.0928125 80.33289063 61.140625 81.01953125 C61.54772826 91.41520367 58.81308325 99.86750282 52.140625 107.91796875 C48.43147132 111.5255945 42.41630808 117 37 117 C37.33 118.258125 37.66 119.51625 38 120.8125 C40.80695747 134.94753581 40.77345557 154.06885755 34 167 C32.10546875 166.71875 32.10546875 166.71875 30 166 C23.19293869 151.88165061 25.38237985 133.95782943 28 119 C26.72125 119.061875 25.4425 119.12375 24.125 119.1875 C18.12708097 119.20651084 12.36652137 117.68326068 7 115 C6.79375 116.2375 6.5875 117.475 6.375 118.75 C4.21787444 128.15624138 -0.63808822 135.91125413 -6.5 143.4375 C-6.95044678 144.01653076 -7.40089355 144.59556152 -7.86499023 145.19213867 C-15.55926342 154.73470255 -15.55926342 154.73470255 -20.875 155.3125 C-21.926875 155.1578125 -21.926875 155.1578125 -23 155 C-22.74838386 140.40626404 -12.72232239 126.56014114 -2.58203125 116.6328125 C-0.75994411 115.02679587 1.07433346 113.47921312 3 112 C2.13375 111.38125 1.2675 110.7625 0.375 110.125 C-5.88552079 104.90295422 -8.98744188 97.72746372 -11 90 C-12.11375 90.39832031 -13.2275 90.79664063 -14.375 91.20703125 C-27.85896079 95.92983985 -42.50689302 100.85069525 -57 99 C-57.99 98.34 -58.98 97.68 -60 97 C-58.47976357 92.74333801 -55.78233465 91.27909909 -52 89 C-38.90168491 83.64848932 -25.19129862 80.29823249 -11 81 C-10.9071875 79.081875 -10.9071875 79.081875 -10.8125 77.125 C-9.90501675 69.00877661 -5.72880378 61.72880378 0 56 C2.91977924 53.8630958 5.91773223 51.89368085 9 50 C8.54560547 49.13955078 8.54560547 49.13955078 8.08203125 48.26171875 C2.19158221 36.31770055 -2.09409196 21.70721291 -2.1875 8.3125 C-2.20167969 7.38050781 -2.21585938 6.44851563 -2.23046875 5.48828125 C-2 3 -2 3 0 0 Z M7.625 68.1875 C3.64551797 73.38632193 1.6266919 78.99001498 2 85.5625 C3.01597319 91.82220575 6.29384634 96.71607351 11 100.875 C17.41295785 105.41751181 23.30990716 105.79000954 31 105 C37.21102517 103.27414109 41.56597604 99.36898483 45 94 C48.13688288 88.13635674 48.40215008 83.09304973 46.921875 76.6484375 C44.91408844 70.88030492 41.56453672 66.678115 36.3125 63.5625 C26.31192814 58.84524912 15.42560251 59.92577813 7.625 68.1875 Z " fill="#000000" transform="translate(139,289)"/>
<path d="M0 0 C3 1 3 1 4 3 C4.25641657 8.65337483 3.70989839 13.64107575 2.375 19.125 C2.1109436 20.22098511 2.1109436 20.22098511 1.84155273 21.33911133 C-0.53841435 30.70356567 -3.61816677 41.39520185 -11 48 C-12.32 48 -13.64 48 -15 48 C-18.69138049 36.92585854 -13.09701075 21.88489314 -8.4765625 11.61328125 C-6.09042812 7.07720346 -3.75131877 3.52543291 0 0 Z " fill="#000000" transform="translate(193,286)"/>
<path d="M0 0 C2.98697201 1.18175146 5.87319014 2.50982943 8.75 3.9375 C9.40484375 4.26105469 10.0596875 4.58460938 10.734375 4.91796875 C14.92337114 7.11719173 17.85518668 9.54910752 21 13 C20.505 14.485 20.505 14.485 20 16 C4.99781247 17.17408424 -11.68793603 12.75589557 -23.84375 3.61328125 C-25.25 2.3125 -25.25 2.3125 -27 0 C-27 -0.99 -27 -1.98 -27 -3 C-19.47316543 -6.76341729 -7.56252045 -2.49108775 0 0 Z " fill="#000000" transform="translate(104,332)"/>
<path d="M0 0 C16.06852825 -1.07721977 33.3255074 3.91801725 46 14 C45.67 15.65 45.34 17.3 45 19 C28.93147175 20.07721977 11.6744926 15.08198275 -1 5 C-0.67 3.35 -0.34 1.7 0 0 Z " fill="#000000" transform="translate(204,390)"/>
</svg>
