<svg width="16" height="20" viewBox="0 0 16 20" fill="none" xmlns="http://www.w3.org/2000/svg">
<path d="M0 2C0 0.89543 0.895431 0 2 0H14C15.1046 0 16 0.895431 16 2V7H0V2Z" fill="white"/>
<path d="M3 3H5V6H3V3Z" fill="#00AEEF"/>
<path d="M0 9H16V20H0V9Z" fill="white"/>
<path d="M13 8.3V9H15V8.3C15 8.13431 14.8657 8 14.7 8H13.3C13.1343 8 13 8.13431 13 8.3Z" fill="white"/>
<path fill-rule="evenodd" clip-rule="evenodd" d="M9.5 16.8333C10.7887 16.8333 11.8333 15.7887 11.8333 14.5C11.8333 13.2113 10.7887 12.1667 9.5 12.1667C8.21134 12.1667 7.16667 13.2113 7.16667 14.5C7.16667 15.7887 8.21134 16.8333 9.5 16.8333ZM9.5 18C11.433 18 13 16.433 13 14.5C13 12.567 11.433 11 9.5 11C7.567 11 6 12.567 6 14.5C6 16.433 7.567 18 9.5 18Z" fill="#00AEEF" fill-opacity="0.3"/>
<path d="M3 12.625C3 12.2798 3.44772 12 4 12V12C4.55228 12 5 12.2798 5 12.625V16.375C5 16.7202 4.55228 17 4 17V17C3.44772 17 3 16.7202 3 16.375V12.625Z" fill="#00AEEF"/>
<path d="M13 12.5C13 12.2239 13.2239 12 13.5 12H14.5C14.7761 12 15 12.2239 15 12.5V12.5C15 12.7761 14.7761 13 14.5 13H13.5C13.2239 13 13 12.7761 13 12.5V12.5Z" fill="#00AEEF"/>
<path fill-rule="evenodd" clip-rule="evenodd" d="M9.5 15.7C10.1627 15.7 10.7 15.1627 10.7 14.5C10.7 13.8373 10.1627 13.3 9.5 13.3C8.83726 13.3 8.3 13.8373 8.3 14.5C8.3 15.1627 8.83726 15.7 9.5 15.7ZM9.5 16C10.3284 16 11 15.3284 11 14.5C11 13.6716 10.3284 13 9.5 13C8.67157 13 8 13.6716 8 14.5C8 15.3284 8.67157 16 9.5 16Z" fill="#00AEEF"/>
</svg>
