<svg width="14" height="11" viewBox="0 0 14 11" fill="none" xmlns="http://www.w3.org/2000/svg">
<path fill-rule="evenodd" clip-rule="evenodd" d="M1 2.5L1.78101 8.74807C1.90612 9.74893 2.75692 10.5 3.76556 10.5H10.2344C11.2431 10.5 12.0939 9.74893 12.219 8.74807L13 2.5H1ZM2.13278 3.5L2.77329 8.62403C2.83584 9.12446 3.26124 9.5 3.76556 9.5H10.2344C10.7388 9.5 11.1642 9.12446 11.2267 8.62403L11.8672 3.5H2.13278Z" fill="#000"/>
<path fill-rule="evenodd" clip-rule="evenodd" d="M6.89539 7.36452C6.65596 7.2049 6.34405 7.2049 6.10462 7.36452L5.86571 7.5238C5.32529 7.88407 4.60571 7.81282 4.14645 7.35356C4.02426 7.23136 3.8328 7.2124 3.68901 7.30826L2.77736 7.91603L2.22266 7.08398L3.13431 6.47621C3.67472 6.11594 4.3943 6.18719 4.85356 6.64645C4.97576 6.76865 5.16722 6.7876 5.311 6.69174L5.54992 6.53247C6.12525 6.14892 6.87477 6.14892 7.45009 6.53247L7.74727 6.73058C7.85718 6.80386 8.00353 6.78937 8.09694 6.69596L8.14645 6.64645C8.61786 6.17504 9.38216 6.17504 9.85356 6.64645L9.9347 6.72759C9.97077 6.76366 10.0292 6.76366 10.0653 6.72759C10.5925 6.20037 11.4813 6.3446 11.8148 7.01148L11.9472 7.2764L11.0528 7.72361L10.9203 7.4587C10.8921 7.40231 10.817 7.39012 10.7724 7.43469C10.3458 7.86129 9.65418 7.86129 9.22759 7.43469L9.14645 7.35356C9.06557 7.27268 8.93444 7.27268 8.85356 7.35356L8.80405 7.40307C8.37358 7.83354 7.6991 7.90032 7.19257 7.56263L6.89539 7.36452Z" fill="#000"/>
<path fill-rule="evenodd" clip-rule="evenodd" d="M14 3H0V2H14V3Z" fill="#000"/>
<path fill-rule="evenodd" clip-rule="evenodd" d="M12 2L2 2L2 1L12 1V2Z" fill="#000"/>
<path fill-rule="evenodd" clip-rule="evenodd" d="M10 1H4V0H10V1Z" fill="#000"/>
</svg>
